G04 #@! TF.GenerationSoftware,KiCad,Pcbnew,5.1.2-f72e74a~84~ubuntu19.04.1*
G04 #@! TF.CreationDate,2019-07-17T18:56:16-05:00*
G04 #@! TF.ProjectId,led-controller,6c65642d-636f-46e7-9472-6f6c6c65722e,rev?*
G04 #@! TF.SameCoordinates,Original*
G04 #@! TF.FileFunction,Copper,L2,Inr*
G04 #@! TF.FilePolarity,Positive*
%FSLAX46Y46*%
G04 Gerber Fmt 4.6, Leading zero omitted, Abs format (unit mm)*
G04 Created by KiCad (PCBNEW 5.1.2-f72e74a~84~ubuntu19.04.1) date 2019-07-17 18:56:16*
%MOMM*%
%LPD*%
G04 APERTURE LIST*
%ADD10O,1.700000X1.700000*%
%ADD11R,1.700000X1.700000*%
%ADD12O,1.200000X1.200000*%
%ADD13O,1.600000X1.200000*%
%ADD14R,2.000000X2.000000*%
%ADD15C,2.000000*%
%ADD16R,3.200000X2.000000*%
%ADD17C,3.500000*%
%ADD18C,0.800000*%
%ADD19C,0.600000*%
%ADD20C,1.000000*%
%ADD21C,0.254000*%
G04 APERTURE END LIST*
D10*
X144114520Y-57271920D03*
X146654520Y-57271920D03*
D11*
X149194520Y-57271920D03*
D12*
X149191980Y-112031780D03*
X146651980Y-114571780D03*
D13*
X144111980Y-112031780D03*
D14*
X138694160Y-88818720D03*
D15*
X138694160Y-91318720D03*
X138694160Y-93818720D03*
D16*
X146194160Y-85718720D03*
X146194160Y-96918720D03*
D15*
X153194160Y-88818720D03*
X153194160Y-93818720D03*
D17*
X132509260Y-115912900D03*
X160497520Y-115915440D03*
X160510220Y-56934100D03*
X132499100Y-56929020D03*
D18*
X134793660Y-60122420D03*
X134893660Y-65522420D03*
X144293660Y-60922420D03*
X148393660Y-60822420D03*
X155593660Y-76022420D03*
X161793660Y-77722420D03*
X154393660Y-56222420D03*
X158693660Y-59222420D03*
X161593660Y-62422420D03*
X139793660Y-83622420D03*
X138493660Y-81822420D03*
X139793660Y-80122420D03*
X138693660Y-63622420D03*
X150793660Y-57922420D03*
D19*
X138093660Y-108122420D03*
D20*
X151493660Y-74122420D03*
D18*
X155993660Y-67522420D03*
X159793660Y-67422420D03*
X155668650Y-72222420D03*
D20*
X147793660Y-69547441D03*
D18*
X138093660Y-62522420D03*
D19*
X157893660Y-64822420D03*
D18*
X140193660Y-59722420D03*
X152193660Y-60722420D03*
X140493660Y-92122420D03*
X142793660Y-88922420D03*
X160893660Y-65922420D03*
X140293660Y-106122420D03*
D19*
X134693660Y-107822420D03*
X152593660Y-77322420D03*
D18*
X141093660Y-65622400D03*
D19*
X143893660Y-66122420D03*
X144793660Y-66222420D03*
X137593660Y-103622420D03*
X148793660Y-80022420D03*
X142493660Y-80022420D03*
X140193660Y-104622420D03*
X145968681Y-71901776D03*
X141093660Y-79922420D03*
X144987066Y-69315826D03*
X145881232Y-74684505D03*
X154793660Y-69022420D03*
X156393660Y-68522420D03*
X145484808Y-67960393D03*
X146193660Y-66322420D03*
X148093660Y-66022420D03*
X154393660Y-66222420D03*
X145618650Y-67222420D03*
X147893660Y-75489378D03*
X142093660Y-66222420D03*
D18*
X133793660Y-62922420D03*
D19*
X150011402Y-76422420D03*
X155893660Y-83522420D03*
D18*
X159093660Y-63722420D03*
D19*
X155393660Y-65622420D03*
X153693660Y-67922420D03*
X144949909Y-75417371D03*
D18*
X154993660Y-86522420D03*
X153893660Y-84322420D03*
D21*
G36*
X161803434Y-65421043D02*
G01*
X161697597Y-65262646D01*
X161553434Y-65118483D01*
X161383916Y-65005215D01*
X161195558Y-64927194D01*
X160995599Y-64887420D01*
X160791721Y-64887420D01*
X160591762Y-64927194D01*
X160403404Y-65005215D01*
X160233886Y-65118483D01*
X160089723Y-65262646D01*
X159976455Y-65432164D01*
X159898434Y-65620522D01*
X159858660Y-65820481D01*
X159858660Y-66024359D01*
X159898434Y-66224318D01*
X159976455Y-66412676D01*
X160089723Y-66582194D01*
X160233886Y-66726357D01*
X160403404Y-66839625D01*
X160591762Y-66917646D01*
X160791721Y-66957420D01*
X160995599Y-66957420D01*
X161195558Y-66917646D01*
X161383916Y-66839625D01*
X161553434Y-66726357D01*
X161697597Y-66582194D01*
X161803353Y-66423918D01*
X161799524Y-113916996D01*
X161627241Y-113801880D01*
X161193199Y-113622094D01*
X160732422Y-113530440D01*
X160262618Y-113530440D01*
X159801841Y-113622094D01*
X159367799Y-113801880D01*
X158977171Y-114062890D01*
X158644970Y-114395091D01*
X158383960Y-114785719D01*
X158204174Y-115219761D01*
X158112520Y-115680538D01*
X158112520Y-116150342D01*
X158204174Y-116611119D01*
X158383960Y-117045161D01*
X158493768Y-117209500D01*
X134511315Y-117209500D01*
X134622820Y-117042621D01*
X134802606Y-116608579D01*
X134894260Y-116147802D01*
X134894260Y-115677998D01*
X134802606Y-115217221D01*
X134622820Y-114783179D01*
X134481568Y-114571780D01*
X145411005Y-114571780D01*
X145434850Y-114813882D01*
X145505469Y-115046681D01*
X145620147Y-115261229D01*
X145774478Y-115449282D01*
X145962531Y-115603613D01*
X146177079Y-115718291D01*
X146409878Y-115788910D01*
X146591315Y-115806780D01*
X146712645Y-115806780D01*
X146894082Y-115788910D01*
X147126881Y-115718291D01*
X147341429Y-115603613D01*
X147529482Y-115449282D01*
X147683813Y-115261229D01*
X147798491Y-115046681D01*
X147869110Y-114813882D01*
X147892955Y-114571780D01*
X147869110Y-114329678D01*
X147798491Y-114096879D01*
X147683813Y-113882331D01*
X147529482Y-113694278D01*
X147341429Y-113539947D01*
X147126881Y-113425269D01*
X146894082Y-113354650D01*
X146712645Y-113336780D01*
X146591315Y-113336780D01*
X146409878Y-113354650D01*
X146177079Y-113425269D01*
X145962531Y-113539947D01*
X145774478Y-113694278D01*
X145620147Y-113882331D01*
X145505469Y-114096879D01*
X145434850Y-114329678D01*
X145411005Y-114571780D01*
X134481568Y-114571780D01*
X134361810Y-114392551D01*
X134029609Y-114060350D01*
X133638981Y-113799340D01*
X133204939Y-113619554D01*
X132744162Y-113527900D01*
X132274358Y-113527900D01*
X131813581Y-113619554D01*
X131379539Y-113799340D01*
X131210120Y-113912542D01*
X131210120Y-112031780D01*
X142671005Y-112031780D01*
X142694850Y-112273882D01*
X142765469Y-112506681D01*
X142880147Y-112721229D01*
X143034478Y-112909282D01*
X143222531Y-113063613D01*
X143437079Y-113178291D01*
X143669878Y-113248910D01*
X143851315Y-113266780D01*
X144372645Y-113266780D01*
X144554082Y-113248910D01*
X144786881Y-113178291D01*
X145001429Y-113063613D01*
X145189482Y-112909282D01*
X145343813Y-112721229D01*
X145458491Y-112506681D01*
X145506205Y-112349389D01*
X147998518Y-112349389D01*
X148023195Y-112430751D01*
X148123488Y-112651104D01*
X148264843Y-112847656D01*
X148441827Y-113012855D01*
X148647639Y-113140352D01*
X148874370Y-113225247D01*
X149064980Y-113101489D01*
X149064980Y-112158780D01*
X149318980Y-112158780D01*
X149318980Y-113101489D01*
X149509590Y-113225247D01*
X149736321Y-113140352D01*
X149942133Y-113012855D01*
X150119117Y-112847656D01*
X150260472Y-112651104D01*
X150360765Y-112430751D01*
X150385442Y-112349389D01*
X150260711Y-112158780D01*
X149318980Y-112158780D01*
X149064980Y-112158780D01*
X148123249Y-112158780D01*
X147998518Y-112349389D01*
X145506205Y-112349389D01*
X145529110Y-112273882D01*
X145552955Y-112031780D01*
X145529110Y-111789678D01*
X145506206Y-111714171D01*
X147998518Y-111714171D01*
X148123249Y-111904780D01*
X149064980Y-111904780D01*
X149064980Y-110962071D01*
X149318980Y-110962071D01*
X149318980Y-111904780D01*
X150260711Y-111904780D01*
X150385442Y-111714171D01*
X150360765Y-111632809D01*
X150260472Y-111412456D01*
X150119117Y-111215904D01*
X149942133Y-111050705D01*
X149736321Y-110923208D01*
X149509590Y-110838313D01*
X149318980Y-110962071D01*
X149064980Y-110962071D01*
X148874370Y-110838313D01*
X148647639Y-110923208D01*
X148441827Y-111050705D01*
X148264843Y-111215904D01*
X148123488Y-111412456D01*
X148023195Y-111632809D01*
X147998518Y-111714171D01*
X145506206Y-111714171D01*
X145458491Y-111556879D01*
X145343813Y-111342331D01*
X145189482Y-111154278D01*
X145001429Y-110999947D01*
X144786881Y-110885269D01*
X144554082Y-110814650D01*
X144372645Y-110796780D01*
X143851315Y-110796780D01*
X143669878Y-110814650D01*
X143437079Y-110885269D01*
X143222531Y-110999947D01*
X143034478Y-111154278D01*
X142880147Y-111342331D01*
X142765469Y-111556879D01*
X142694850Y-111789678D01*
X142671005Y-112031780D01*
X131210120Y-112031780D01*
X131210120Y-107730331D01*
X133758660Y-107730331D01*
X133758660Y-107914509D01*
X133794592Y-108095149D01*
X133865074Y-108265309D01*
X133967398Y-108418448D01*
X134097632Y-108548682D01*
X134250771Y-108651006D01*
X134420931Y-108721488D01*
X134601571Y-108757420D01*
X134785749Y-108757420D01*
X134966389Y-108721488D01*
X135136549Y-108651006D01*
X135289688Y-108548682D01*
X135419922Y-108418448D01*
X135522246Y-108265309D01*
X135592728Y-108095149D01*
X135628660Y-107914509D01*
X135628660Y-107730331D01*
X135592728Y-107549691D01*
X135522246Y-107379531D01*
X135419922Y-107226392D01*
X135289688Y-107096158D01*
X135136549Y-106993834D01*
X134966389Y-106923352D01*
X134785749Y-106887420D01*
X134601571Y-106887420D01*
X134420931Y-106923352D01*
X134250771Y-106993834D01*
X134097632Y-107096158D01*
X133967398Y-107226392D01*
X133865074Y-107379531D01*
X133794592Y-107549691D01*
X133758660Y-107730331D01*
X131210120Y-107730331D01*
X131210120Y-103530331D01*
X136658660Y-103530331D01*
X136658660Y-103714509D01*
X136694592Y-103895149D01*
X136765074Y-104065309D01*
X136867398Y-104218448D01*
X136997632Y-104348682D01*
X137150771Y-104451006D01*
X137320931Y-104521488D01*
X137501571Y-104557420D01*
X137685749Y-104557420D01*
X137821932Y-104530331D01*
X139258660Y-104530331D01*
X139258660Y-104714509D01*
X139294592Y-104895149D01*
X139365074Y-105065309D01*
X139467398Y-105218448D01*
X139597632Y-105348682D01*
X139601262Y-105351107D01*
X139489723Y-105462646D01*
X139376455Y-105632164D01*
X139298434Y-105820522D01*
X139258660Y-106020481D01*
X139258660Y-106224359D01*
X139298434Y-106424318D01*
X139376455Y-106612676D01*
X139489723Y-106782194D01*
X139633886Y-106926357D01*
X139803404Y-107039625D01*
X139991762Y-107117646D01*
X140191721Y-107157420D01*
X140395599Y-107157420D01*
X140595558Y-107117646D01*
X140783916Y-107039625D01*
X140953434Y-106926357D01*
X141097597Y-106782194D01*
X141210865Y-106612676D01*
X141288886Y-106424318D01*
X141328660Y-106224359D01*
X141328660Y-106020481D01*
X141288886Y-105820522D01*
X141210865Y-105632164D01*
X141097597Y-105462646D01*
X140953434Y-105318483D01*
X140873378Y-105264992D01*
X140919922Y-105218448D01*
X141022246Y-105065309D01*
X141092728Y-104895149D01*
X141128660Y-104714509D01*
X141128660Y-104530331D01*
X141092728Y-104349691D01*
X141022246Y-104179531D01*
X140919922Y-104026392D01*
X140789688Y-103896158D01*
X140636549Y-103793834D01*
X140466389Y-103723352D01*
X140285749Y-103687420D01*
X140101571Y-103687420D01*
X139920931Y-103723352D01*
X139750771Y-103793834D01*
X139597632Y-103896158D01*
X139467398Y-104026392D01*
X139365074Y-104179531D01*
X139294592Y-104349691D01*
X139258660Y-104530331D01*
X137821932Y-104530331D01*
X137866389Y-104521488D01*
X138036549Y-104451006D01*
X138189688Y-104348682D01*
X138319922Y-104218448D01*
X138422246Y-104065309D01*
X138492728Y-103895149D01*
X138528660Y-103714509D01*
X138528660Y-103530331D01*
X138492728Y-103349691D01*
X138422246Y-103179531D01*
X138319922Y-103026392D01*
X138189688Y-102896158D01*
X138036549Y-102793834D01*
X137866389Y-102723352D01*
X137685749Y-102687420D01*
X137501571Y-102687420D01*
X137320931Y-102723352D01*
X137150771Y-102793834D01*
X136997632Y-102896158D01*
X136867398Y-103026392D01*
X136765074Y-103179531D01*
X136694592Y-103349691D01*
X136658660Y-103530331D01*
X131210120Y-103530331D01*
X131210120Y-95918720D01*
X143956088Y-95918720D01*
X143956088Y-97918720D01*
X143968348Y-98043202D01*
X144004658Y-98162900D01*
X144063623Y-98273214D01*
X144142975Y-98369905D01*
X144239666Y-98449257D01*
X144349980Y-98508222D01*
X144469678Y-98544532D01*
X144594160Y-98556792D01*
X147794160Y-98556792D01*
X147918642Y-98544532D01*
X148038340Y-98508222D01*
X148148654Y-98449257D01*
X148245345Y-98369905D01*
X148324697Y-98273214D01*
X148383662Y-98162900D01*
X148419972Y-98043202D01*
X148432232Y-97918720D01*
X148432232Y-95918720D01*
X148419972Y-95794238D01*
X148383662Y-95674540D01*
X148324697Y-95564226D01*
X148245345Y-95467535D01*
X148148654Y-95388183D01*
X148038340Y-95329218D01*
X147918642Y-95292908D01*
X147794160Y-95280648D01*
X144594160Y-95280648D01*
X144469678Y-95292908D01*
X144349980Y-95329218D01*
X144239666Y-95388183D01*
X144142975Y-95467535D01*
X144063623Y-95564226D01*
X144004658Y-95674540D01*
X143968348Y-95794238D01*
X143956088Y-95918720D01*
X131210120Y-95918720D01*
X131210120Y-91381315D01*
X137052442Y-91381315D01*
X137096199Y-91700395D01*
X137201365Y-92004808D01*
X137294346Y-92178764D01*
X137558747Y-92274528D01*
X138514555Y-91318720D01*
X138500413Y-91304578D01*
X138680018Y-91124973D01*
X138694160Y-91139115D01*
X138708303Y-91124973D01*
X138887908Y-91304578D01*
X138873765Y-91318720D01*
X138887908Y-91332863D01*
X138708303Y-91512468D01*
X138694160Y-91498325D01*
X137738352Y-92454133D01*
X137749095Y-92483795D01*
X137651908Y-92548733D01*
X137424173Y-92776468D01*
X137245242Y-93044257D01*
X137121992Y-93341808D01*
X137059160Y-93657687D01*
X137059160Y-93979753D01*
X137121992Y-94295632D01*
X137245242Y-94593183D01*
X137424173Y-94860972D01*
X137651908Y-95088707D01*
X137919697Y-95267638D01*
X138217248Y-95390888D01*
X138533127Y-95453720D01*
X138855193Y-95453720D01*
X139171072Y-95390888D01*
X139468623Y-95267638D01*
X139736412Y-95088707D01*
X139964147Y-94860972D01*
X140143078Y-94593183D01*
X140266328Y-94295632D01*
X140329160Y-93979753D01*
X140329160Y-93657687D01*
X151559160Y-93657687D01*
X151559160Y-93979753D01*
X151621992Y-94295632D01*
X151745242Y-94593183D01*
X151924173Y-94860972D01*
X152151908Y-95088707D01*
X152419697Y-95267638D01*
X152717248Y-95390888D01*
X153033127Y-95453720D01*
X153355193Y-95453720D01*
X153671072Y-95390888D01*
X153968623Y-95267638D01*
X154236412Y-95088707D01*
X154464147Y-94860972D01*
X154643078Y-94593183D01*
X154766328Y-94295632D01*
X154829160Y-93979753D01*
X154829160Y-93657687D01*
X154766328Y-93341808D01*
X154643078Y-93044257D01*
X154464147Y-92776468D01*
X154236412Y-92548733D01*
X153968623Y-92369802D01*
X153671072Y-92246552D01*
X153355193Y-92183720D01*
X153033127Y-92183720D01*
X152717248Y-92246552D01*
X152419697Y-92369802D01*
X152151908Y-92548733D01*
X151924173Y-92776468D01*
X151745242Y-93044257D01*
X151621992Y-93341808D01*
X151559160Y-93657687D01*
X140329160Y-93657687D01*
X140266328Y-93341808D01*
X140169690Y-93108503D01*
X140191762Y-93117646D01*
X140391721Y-93157420D01*
X140595599Y-93157420D01*
X140795558Y-93117646D01*
X140983916Y-93039625D01*
X141153434Y-92926357D01*
X141297597Y-92782194D01*
X141410865Y-92612676D01*
X141488886Y-92424318D01*
X141528660Y-92224359D01*
X141528660Y-92020481D01*
X141488886Y-91820522D01*
X141410865Y-91632164D01*
X141297597Y-91462646D01*
X141153434Y-91318483D01*
X140983916Y-91205215D01*
X140795558Y-91127194D01*
X140595599Y-91087420D01*
X140391721Y-91087420D01*
X140314840Y-91102713D01*
X140292121Y-90937045D01*
X140186955Y-90632632D01*
X140093974Y-90458676D01*
X139944937Y-90404696D01*
X140048654Y-90349257D01*
X140145345Y-90269905D01*
X140224697Y-90173214D01*
X140283662Y-90062900D01*
X140319972Y-89943202D01*
X140332232Y-89818720D01*
X140332232Y-88820481D01*
X141758660Y-88820481D01*
X141758660Y-89024359D01*
X141798434Y-89224318D01*
X141876455Y-89412676D01*
X141989723Y-89582194D01*
X142133886Y-89726357D01*
X142303404Y-89839625D01*
X142491762Y-89917646D01*
X142691721Y-89957420D01*
X142895599Y-89957420D01*
X142912123Y-89954133D01*
X152238352Y-89954133D01*
X152334116Y-90218534D01*
X152623731Y-90359424D01*
X152935268Y-90441104D01*
X153256755Y-90460438D01*
X153575835Y-90416681D01*
X153880248Y-90311515D01*
X154054204Y-90218534D01*
X154149968Y-89954133D01*
X153194160Y-88998325D01*
X152238352Y-89954133D01*
X142912123Y-89954133D01*
X143095558Y-89917646D01*
X143283916Y-89839625D01*
X143453434Y-89726357D01*
X143597597Y-89582194D01*
X143710865Y-89412676D01*
X143788886Y-89224318D01*
X143828660Y-89024359D01*
X143828660Y-88881315D01*
X151552442Y-88881315D01*
X151596199Y-89200395D01*
X151701365Y-89504808D01*
X151794346Y-89678764D01*
X152058747Y-89774528D01*
X153014555Y-88818720D01*
X153373765Y-88818720D01*
X154329573Y-89774528D01*
X154593974Y-89678764D01*
X154734864Y-89389149D01*
X154816544Y-89077612D01*
X154835878Y-88756125D01*
X154792121Y-88437045D01*
X154686955Y-88132632D01*
X154593974Y-87958676D01*
X154329573Y-87862912D01*
X153373765Y-88818720D01*
X153014555Y-88818720D01*
X152058747Y-87862912D01*
X151794346Y-87958676D01*
X151653456Y-88248291D01*
X151571776Y-88559828D01*
X151552442Y-88881315D01*
X143828660Y-88881315D01*
X143828660Y-88820481D01*
X143788886Y-88620522D01*
X143710865Y-88432164D01*
X143597597Y-88262646D01*
X143453434Y-88118483D01*
X143283916Y-88005215D01*
X143095558Y-87927194D01*
X142895599Y-87887420D01*
X142691721Y-87887420D01*
X142491762Y-87927194D01*
X142303404Y-88005215D01*
X142133886Y-88118483D01*
X141989723Y-88262646D01*
X141876455Y-88432164D01*
X141798434Y-88620522D01*
X141758660Y-88820481D01*
X140332232Y-88820481D01*
X140332232Y-87818720D01*
X140319972Y-87694238D01*
X140316657Y-87683307D01*
X152238352Y-87683307D01*
X153194160Y-88639115D01*
X154149968Y-87683307D01*
X154054204Y-87418906D01*
X153764589Y-87278016D01*
X153453052Y-87196336D01*
X153131565Y-87177002D01*
X152812485Y-87220759D01*
X152508072Y-87325925D01*
X152334116Y-87418906D01*
X152238352Y-87683307D01*
X140316657Y-87683307D01*
X140283662Y-87574540D01*
X140224697Y-87464226D01*
X140145345Y-87367535D01*
X140048654Y-87288183D01*
X139938340Y-87229218D01*
X139818642Y-87192908D01*
X139694160Y-87180648D01*
X137694160Y-87180648D01*
X137569678Y-87192908D01*
X137449980Y-87229218D01*
X137339666Y-87288183D01*
X137242975Y-87367535D01*
X137163623Y-87464226D01*
X137104658Y-87574540D01*
X137068348Y-87694238D01*
X137056088Y-87818720D01*
X137056088Y-89818720D01*
X137068348Y-89943202D01*
X137104658Y-90062900D01*
X137163623Y-90173214D01*
X137242975Y-90269905D01*
X137339666Y-90349257D01*
X137443383Y-90404696D01*
X137294346Y-90458676D01*
X137153456Y-90748291D01*
X137071776Y-91059828D01*
X137052442Y-91381315D01*
X131210120Y-91381315D01*
X131210120Y-84718720D01*
X143956088Y-84718720D01*
X143956088Y-86718720D01*
X143968348Y-86843202D01*
X144004658Y-86962900D01*
X144063623Y-87073214D01*
X144142975Y-87169905D01*
X144239666Y-87249257D01*
X144349980Y-87308222D01*
X144469678Y-87344532D01*
X144594160Y-87356792D01*
X147794160Y-87356792D01*
X147918642Y-87344532D01*
X148038340Y-87308222D01*
X148148654Y-87249257D01*
X148245345Y-87169905D01*
X148324697Y-87073214D01*
X148383662Y-86962900D01*
X148419972Y-86843202D01*
X148432232Y-86718720D01*
X148432232Y-86420481D01*
X153958660Y-86420481D01*
X153958660Y-86624359D01*
X153998434Y-86824318D01*
X154076455Y-87012676D01*
X154189723Y-87182194D01*
X154333886Y-87326357D01*
X154503404Y-87439625D01*
X154691762Y-87517646D01*
X154891721Y-87557420D01*
X155095599Y-87557420D01*
X155295558Y-87517646D01*
X155483916Y-87439625D01*
X155653434Y-87326357D01*
X155797597Y-87182194D01*
X155910865Y-87012676D01*
X155988886Y-86824318D01*
X156028660Y-86624359D01*
X156028660Y-86420481D01*
X155988886Y-86220522D01*
X155910865Y-86032164D01*
X155797597Y-85862646D01*
X155653434Y-85718483D01*
X155483916Y-85605215D01*
X155295558Y-85527194D01*
X155095599Y-85487420D01*
X154891721Y-85487420D01*
X154691762Y-85527194D01*
X154503404Y-85605215D01*
X154333886Y-85718483D01*
X154189723Y-85862646D01*
X154076455Y-86032164D01*
X153998434Y-86220522D01*
X153958660Y-86420481D01*
X148432232Y-86420481D01*
X148432232Y-84718720D01*
X148419972Y-84594238D01*
X148383662Y-84474540D01*
X148324697Y-84364226D01*
X148245345Y-84267535D01*
X148188010Y-84220481D01*
X152858660Y-84220481D01*
X152858660Y-84424359D01*
X152898434Y-84624318D01*
X152976455Y-84812676D01*
X153089723Y-84982194D01*
X153233886Y-85126357D01*
X153403404Y-85239625D01*
X153591762Y-85317646D01*
X153791721Y-85357420D01*
X153995599Y-85357420D01*
X154195558Y-85317646D01*
X154383916Y-85239625D01*
X154553434Y-85126357D01*
X154697597Y-84982194D01*
X154810865Y-84812676D01*
X154888886Y-84624318D01*
X154928660Y-84424359D01*
X154928660Y-84220481D01*
X154888886Y-84020522D01*
X154810865Y-83832164D01*
X154697597Y-83662646D01*
X154553434Y-83518483D01*
X154421505Y-83430331D01*
X154958660Y-83430331D01*
X154958660Y-83614509D01*
X154994592Y-83795149D01*
X155065074Y-83965309D01*
X155167398Y-84118448D01*
X155297632Y-84248682D01*
X155450771Y-84351006D01*
X155620931Y-84421488D01*
X155801571Y-84457420D01*
X155985749Y-84457420D01*
X156166389Y-84421488D01*
X156336549Y-84351006D01*
X156489688Y-84248682D01*
X156619922Y-84118448D01*
X156722246Y-83965309D01*
X156792728Y-83795149D01*
X156828660Y-83614509D01*
X156828660Y-83430331D01*
X156792728Y-83249691D01*
X156722246Y-83079531D01*
X156619922Y-82926392D01*
X156489688Y-82796158D01*
X156336549Y-82693834D01*
X156166389Y-82623352D01*
X155985749Y-82587420D01*
X155801571Y-82587420D01*
X155620931Y-82623352D01*
X155450771Y-82693834D01*
X155297632Y-82796158D01*
X155167398Y-82926392D01*
X155065074Y-83079531D01*
X154994592Y-83249691D01*
X154958660Y-83430331D01*
X154421505Y-83430331D01*
X154383916Y-83405215D01*
X154195558Y-83327194D01*
X153995599Y-83287420D01*
X153791721Y-83287420D01*
X153591762Y-83327194D01*
X153403404Y-83405215D01*
X153233886Y-83518483D01*
X153089723Y-83662646D01*
X152976455Y-83832164D01*
X152898434Y-84020522D01*
X152858660Y-84220481D01*
X148188010Y-84220481D01*
X148148654Y-84188183D01*
X148038340Y-84129218D01*
X147918642Y-84092908D01*
X147794160Y-84080648D01*
X144594160Y-84080648D01*
X144469678Y-84092908D01*
X144349980Y-84129218D01*
X144239666Y-84188183D01*
X144142975Y-84267535D01*
X144063623Y-84364226D01*
X144004658Y-84474540D01*
X143968348Y-84594238D01*
X143956088Y-84718720D01*
X131210120Y-84718720D01*
X131210120Y-79830331D01*
X140158660Y-79830331D01*
X140158660Y-80014509D01*
X140194592Y-80195149D01*
X140265074Y-80365309D01*
X140367398Y-80518448D01*
X140497632Y-80648682D01*
X140650771Y-80751006D01*
X140820931Y-80821488D01*
X141001571Y-80857420D01*
X141185749Y-80857420D01*
X141366389Y-80821488D01*
X141536549Y-80751006D01*
X141689688Y-80648682D01*
X141748382Y-80589988D01*
X141767398Y-80618448D01*
X141897632Y-80748682D01*
X142050771Y-80851006D01*
X142220931Y-80921488D01*
X142401571Y-80957420D01*
X142585749Y-80957420D01*
X142766389Y-80921488D01*
X142936549Y-80851006D01*
X143089688Y-80748682D01*
X143219922Y-80618448D01*
X143322246Y-80465309D01*
X143392728Y-80295149D01*
X143428660Y-80114509D01*
X143428660Y-79930331D01*
X147858660Y-79930331D01*
X147858660Y-80114509D01*
X147894592Y-80295149D01*
X147965074Y-80465309D01*
X148067398Y-80618448D01*
X148197632Y-80748682D01*
X148350771Y-80851006D01*
X148520931Y-80921488D01*
X148701571Y-80957420D01*
X148885749Y-80957420D01*
X149066389Y-80921488D01*
X149236549Y-80851006D01*
X149389688Y-80748682D01*
X149519922Y-80618448D01*
X149622246Y-80465309D01*
X149692728Y-80295149D01*
X149728660Y-80114509D01*
X149728660Y-79930331D01*
X149692728Y-79749691D01*
X149622246Y-79579531D01*
X149519922Y-79426392D01*
X149389688Y-79296158D01*
X149236549Y-79193834D01*
X149066389Y-79123352D01*
X148885749Y-79087420D01*
X148701571Y-79087420D01*
X148520931Y-79123352D01*
X148350771Y-79193834D01*
X148197632Y-79296158D01*
X148067398Y-79426392D01*
X147965074Y-79579531D01*
X147894592Y-79749691D01*
X147858660Y-79930331D01*
X143428660Y-79930331D01*
X143392728Y-79749691D01*
X143322246Y-79579531D01*
X143219922Y-79426392D01*
X143089688Y-79296158D01*
X142936549Y-79193834D01*
X142766389Y-79123352D01*
X142585749Y-79087420D01*
X142401571Y-79087420D01*
X142220931Y-79123352D01*
X142050771Y-79193834D01*
X141897632Y-79296158D01*
X141838938Y-79354852D01*
X141819922Y-79326392D01*
X141689688Y-79196158D01*
X141536549Y-79093834D01*
X141366389Y-79023352D01*
X141185749Y-78987420D01*
X141001571Y-78987420D01*
X140820931Y-79023352D01*
X140650771Y-79093834D01*
X140497632Y-79196158D01*
X140367398Y-79326392D01*
X140265074Y-79479531D01*
X140194592Y-79649691D01*
X140158660Y-79830331D01*
X131210120Y-79830331D01*
X131210120Y-75325282D01*
X144014909Y-75325282D01*
X144014909Y-75509460D01*
X144050841Y-75690100D01*
X144121323Y-75860260D01*
X144223647Y-76013399D01*
X144353881Y-76143633D01*
X144507020Y-76245957D01*
X144677180Y-76316439D01*
X144857820Y-76352371D01*
X145041998Y-76352371D01*
X145222638Y-76316439D01*
X145392798Y-76245957D01*
X145545937Y-76143633D01*
X145676171Y-76013399D01*
X145778495Y-75860260D01*
X145848977Y-75690100D01*
X145863019Y-75619505D01*
X145973321Y-75619505D01*
X146153961Y-75583573D01*
X146324121Y-75513091D01*
X146477260Y-75410767D01*
X146490738Y-75397289D01*
X146958660Y-75397289D01*
X146958660Y-75581467D01*
X146994592Y-75762107D01*
X147065074Y-75932267D01*
X147167398Y-76085406D01*
X147297632Y-76215640D01*
X147450771Y-76317964D01*
X147620931Y-76388446D01*
X147801571Y-76424378D01*
X147985749Y-76424378D01*
X148166389Y-76388446D01*
X148306692Y-76330331D01*
X149076402Y-76330331D01*
X149076402Y-76514509D01*
X149112334Y-76695149D01*
X149182816Y-76865309D01*
X149285140Y-77018448D01*
X149415374Y-77148682D01*
X149568513Y-77251006D01*
X149738673Y-77321488D01*
X149919313Y-77357420D01*
X150103491Y-77357420D01*
X150284131Y-77321488D01*
X150454291Y-77251006D01*
X150485233Y-77230331D01*
X151658660Y-77230331D01*
X151658660Y-77414509D01*
X151694592Y-77595149D01*
X151765074Y-77765309D01*
X151867398Y-77918448D01*
X151997632Y-78048682D01*
X152150771Y-78151006D01*
X152320931Y-78221488D01*
X152501571Y-78257420D01*
X152685749Y-78257420D01*
X152866389Y-78221488D01*
X153036549Y-78151006D01*
X153189688Y-78048682D01*
X153319922Y-77918448D01*
X153422246Y-77765309D01*
X153492728Y-77595149D01*
X153528660Y-77414509D01*
X153528660Y-77230331D01*
X153492728Y-77049691D01*
X153422246Y-76879531D01*
X153319922Y-76726392D01*
X153189688Y-76596158D01*
X153036549Y-76493834D01*
X152866389Y-76423352D01*
X152685749Y-76387420D01*
X152501571Y-76387420D01*
X152320931Y-76423352D01*
X152150771Y-76493834D01*
X151997632Y-76596158D01*
X151867398Y-76726392D01*
X151765074Y-76879531D01*
X151694592Y-77049691D01*
X151658660Y-77230331D01*
X150485233Y-77230331D01*
X150607430Y-77148682D01*
X150737664Y-77018448D01*
X150839988Y-76865309D01*
X150910470Y-76695149D01*
X150946402Y-76514509D01*
X150946402Y-76330331D01*
X150910470Y-76149691D01*
X150839988Y-75979531D01*
X150737664Y-75826392D01*
X150607430Y-75696158D01*
X150454291Y-75593834D01*
X150284131Y-75523352D01*
X150103491Y-75487420D01*
X149919313Y-75487420D01*
X149738673Y-75523352D01*
X149568513Y-75593834D01*
X149415374Y-75696158D01*
X149285140Y-75826392D01*
X149182816Y-75979531D01*
X149112334Y-76149691D01*
X149076402Y-76330331D01*
X148306692Y-76330331D01*
X148336549Y-76317964D01*
X148489688Y-76215640D01*
X148619922Y-76085406D01*
X148722246Y-75932267D01*
X148792728Y-75762107D01*
X148828660Y-75581467D01*
X148828660Y-75397289D01*
X148792728Y-75216649D01*
X148722246Y-75046489D01*
X148619922Y-74893350D01*
X148489688Y-74763116D01*
X148336549Y-74660792D01*
X148166389Y-74590310D01*
X147985749Y-74554378D01*
X147801571Y-74554378D01*
X147620931Y-74590310D01*
X147450771Y-74660792D01*
X147297632Y-74763116D01*
X147167398Y-74893350D01*
X147065074Y-75046489D01*
X146994592Y-75216649D01*
X146958660Y-75397289D01*
X146490738Y-75397289D01*
X146607494Y-75280533D01*
X146709818Y-75127394D01*
X146780300Y-74957234D01*
X146816232Y-74776594D01*
X146816232Y-74592416D01*
X146780300Y-74411776D01*
X146709818Y-74241616D01*
X146607494Y-74088477D01*
X146477260Y-73958243D01*
X146324121Y-73855919D01*
X146153961Y-73785437D01*
X145973321Y-73749505D01*
X145789143Y-73749505D01*
X145608503Y-73785437D01*
X145438343Y-73855919D01*
X145285204Y-73958243D01*
X145154970Y-74088477D01*
X145052646Y-74241616D01*
X144982164Y-74411776D01*
X144968122Y-74482371D01*
X144857820Y-74482371D01*
X144677180Y-74518303D01*
X144507020Y-74588785D01*
X144353881Y-74691109D01*
X144223647Y-74821343D01*
X144121323Y-74974482D01*
X144050841Y-75144642D01*
X144014909Y-75325282D01*
X131210120Y-75325282D01*
X131210120Y-71809687D01*
X145033681Y-71809687D01*
X145033681Y-71993865D01*
X145069613Y-72174505D01*
X145140095Y-72344665D01*
X145242419Y-72497804D01*
X145372653Y-72628038D01*
X145525792Y-72730362D01*
X145695952Y-72800844D01*
X145876592Y-72836776D01*
X146060770Y-72836776D01*
X146241410Y-72800844D01*
X146411570Y-72730362D01*
X146564709Y-72628038D01*
X146694943Y-72497804D01*
X146797267Y-72344665D01*
X146867749Y-72174505D01*
X146903681Y-71993865D01*
X146903681Y-71809687D01*
X146867749Y-71629047D01*
X146797267Y-71458887D01*
X146694943Y-71305748D01*
X146564709Y-71175514D01*
X146411570Y-71073190D01*
X146241410Y-71002708D01*
X146060770Y-70966776D01*
X145876592Y-70966776D01*
X145695952Y-71002708D01*
X145525792Y-71073190D01*
X145372653Y-71175514D01*
X145242419Y-71305748D01*
X145140095Y-71458887D01*
X145069613Y-71629047D01*
X145033681Y-71809687D01*
X131210120Y-71809687D01*
X131210120Y-65520461D01*
X140058660Y-65520461D01*
X140058660Y-65724339D01*
X140098434Y-65924298D01*
X140176455Y-66112656D01*
X140289723Y-66282174D01*
X140433886Y-66426337D01*
X140603404Y-66539605D01*
X140791762Y-66617626D01*
X140991721Y-66657400D01*
X141195599Y-66657400D01*
X141256759Y-66645235D01*
X141265074Y-66665309D01*
X141367398Y-66818448D01*
X141497632Y-66948682D01*
X141650771Y-67051006D01*
X141820931Y-67121488D01*
X142001571Y-67157420D01*
X142185749Y-67157420D01*
X142366389Y-67121488D01*
X142536549Y-67051006D01*
X142689688Y-66948682D01*
X142819922Y-66818448D01*
X142922246Y-66665309D01*
X142992728Y-66495149D01*
X143006771Y-66424552D01*
X143065074Y-66565309D01*
X143167398Y-66718448D01*
X143297632Y-66848682D01*
X143450771Y-66951006D01*
X143620931Y-67021488D01*
X143801571Y-67057420D01*
X143985749Y-67057420D01*
X144166389Y-67021488D01*
X144252940Y-66985638D01*
X144350771Y-67051006D01*
X144520931Y-67121488D01*
X144683650Y-67153855D01*
X144683650Y-67314509D01*
X144708474Y-67439304D01*
X144656222Y-67517504D01*
X144585740Y-67687664D01*
X144549808Y-67868304D01*
X144549808Y-68052482D01*
X144585740Y-68233122D01*
X144656222Y-68403282D01*
X144675872Y-68432691D01*
X144544177Y-68487240D01*
X144391038Y-68589564D01*
X144260804Y-68719798D01*
X144158480Y-68872937D01*
X144087998Y-69043097D01*
X144052066Y-69223737D01*
X144052066Y-69407915D01*
X144087998Y-69588555D01*
X144158480Y-69758715D01*
X144260804Y-69911854D01*
X144391038Y-70042088D01*
X144544177Y-70144412D01*
X144714337Y-70214894D01*
X144894977Y-70250826D01*
X145079155Y-70250826D01*
X145259795Y-70214894D01*
X145429955Y-70144412D01*
X145583094Y-70042088D01*
X145713328Y-69911854D01*
X145815652Y-69758715D01*
X145886134Y-69588555D01*
X145922066Y-69407915D01*
X145922066Y-69223737D01*
X145886134Y-69043097D01*
X145815652Y-68872937D01*
X145796002Y-68843528D01*
X145927697Y-68788979D01*
X146080836Y-68686655D01*
X146211070Y-68556421D01*
X146313394Y-68403282D01*
X146383876Y-68233122D01*
X146419808Y-68052482D01*
X146419808Y-67868304D01*
X146412255Y-67830331D01*
X152758660Y-67830331D01*
X152758660Y-68014509D01*
X152794592Y-68195149D01*
X152865074Y-68365309D01*
X152967398Y-68518448D01*
X153097632Y-68648682D01*
X153250771Y-68751006D01*
X153420931Y-68821488D01*
X153601571Y-68857420D01*
X153785749Y-68857420D01*
X153876764Y-68839316D01*
X153858660Y-68930331D01*
X153858660Y-69114509D01*
X153894592Y-69295149D01*
X153965074Y-69465309D01*
X154067398Y-69618448D01*
X154197632Y-69748682D01*
X154350771Y-69851006D01*
X154520931Y-69921488D01*
X154701571Y-69957420D01*
X154885749Y-69957420D01*
X155066389Y-69921488D01*
X155236549Y-69851006D01*
X155389688Y-69748682D01*
X155519922Y-69618448D01*
X155622246Y-69465309D01*
X155692728Y-69295149D01*
X155717842Y-69168892D01*
X155797632Y-69248682D01*
X155950771Y-69351006D01*
X156120931Y-69421488D01*
X156301571Y-69457420D01*
X156485749Y-69457420D01*
X156666389Y-69421488D01*
X156836549Y-69351006D01*
X156989688Y-69248682D01*
X157119922Y-69118448D01*
X157222246Y-68965309D01*
X157292728Y-68795149D01*
X157328660Y-68614509D01*
X157328660Y-68430331D01*
X157292728Y-68249691D01*
X157222246Y-68079531D01*
X157119922Y-67926392D01*
X156989688Y-67796158D01*
X156836549Y-67693834D01*
X156666389Y-67623352D01*
X156485749Y-67587420D01*
X156301571Y-67587420D01*
X156120931Y-67623352D01*
X155950771Y-67693834D01*
X155797632Y-67796158D01*
X155667398Y-67926392D01*
X155565074Y-68079531D01*
X155494592Y-68249691D01*
X155469478Y-68375948D01*
X155389688Y-68296158D01*
X155236549Y-68193834D01*
X155066389Y-68123352D01*
X154885749Y-68087420D01*
X154701571Y-68087420D01*
X154610556Y-68105524D01*
X154628660Y-68014509D01*
X154628660Y-67830331D01*
X154592728Y-67649691D01*
X154522246Y-67479531D01*
X154419922Y-67326392D01*
X154289688Y-67196158D01*
X154202100Y-67137634D01*
X154301571Y-67157420D01*
X154485749Y-67157420D01*
X154666389Y-67121488D01*
X154836549Y-67051006D01*
X154989688Y-66948682D01*
X155119922Y-66818448D01*
X155222246Y-66665309D01*
X155269571Y-66551055D01*
X155301571Y-66557420D01*
X155485749Y-66557420D01*
X155666389Y-66521488D01*
X155836549Y-66451006D01*
X155989688Y-66348682D01*
X156119922Y-66218448D01*
X156222246Y-66065309D01*
X156292728Y-65895149D01*
X156328660Y-65714509D01*
X156328660Y-65530331D01*
X156292728Y-65349691D01*
X156222246Y-65179531D01*
X156119922Y-65026392D01*
X155989688Y-64896158D01*
X155836549Y-64793834D01*
X155683238Y-64730331D01*
X156958660Y-64730331D01*
X156958660Y-64914509D01*
X156994592Y-65095149D01*
X157065074Y-65265309D01*
X157167398Y-65418448D01*
X157297632Y-65548682D01*
X157450771Y-65651006D01*
X157620931Y-65721488D01*
X157801571Y-65757420D01*
X157985749Y-65757420D01*
X158166389Y-65721488D01*
X158336549Y-65651006D01*
X158489688Y-65548682D01*
X158619922Y-65418448D01*
X158722246Y-65265309D01*
X158792728Y-65095149D01*
X158828660Y-64914509D01*
X158828660Y-64730331D01*
X158827553Y-64724765D01*
X158991721Y-64757420D01*
X159195599Y-64757420D01*
X159395558Y-64717646D01*
X159583916Y-64639625D01*
X159753434Y-64526357D01*
X159897597Y-64382194D01*
X160010865Y-64212676D01*
X160088886Y-64024318D01*
X160128660Y-63824359D01*
X160128660Y-63620481D01*
X160088886Y-63420522D01*
X160010865Y-63232164D01*
X159897597Y-63062646D01*
X159753434Y-62918483D01*
X159583916Y-62805215D01*
X159395558Y-62727194D01*
X159195599Y-62687420D01*
X158991721Y-62687420D01*
X158791762Y-62727194D01*
X158603404Y-62805215D01*
X158433886Y-62918483D01*
X158289723Y-63062646D01*
X158176455Y-63232164D01*
X158098434Y-63420522D01*
X158058660Y-63620481D01*
X158058660Y-63824359D01*
X158074724Y-63905118D01*
X157985749Y-63887420D01*
X157801571Y-63887420D01*
X157620931Y-63923352D01*
X157450771Y-63993834D01*
X157297632Y-64096158D01*
X157167398Y-64226392D01*
X157065074Y-64379531D01*
X156994592Y-64549691D01*
X156958660Y-64730331D01*
X155683238Y-64730331D01*
X155666389Y-64723352D01*
X155485749Y-64687420D01*
X155301571Y-64687420D01*
X155120931Y-64723352D01*
X154950771Y-64793834D01*
X154797632Y-64896158D01*
X154667398Y-65026392D01*
X154565074Y-65179531D01*
X154517749Y-65293785D01*
X154485749Y-65287420D01*
X154301571Y-65287420D01*
X154120931Y-65323352D01*
X153950771Y-65393834D01*
X153797632Y-65496158D01*
X153667398Y-65626392D01*
X153565074Y-65779531D01*
X153494592Y-65949691D01*
X153458660Y-66130331D01*
X153458660Y-66314509D01*
X153494592Y-66495149D01*
X153565074Y-66665309D01*
X153667398Y-66818448D01*
X153797632Y-66948682D01*
X153885220Y-67007206D01*
X153785749Y-66987420D01*
X153601571Y-66987420D01*
X153420931Y-67023352D01*
X153250771Y-67093834D01*
X153097632Y-67196158D01*
X152967398Y-67326392D01*
X152865074Y-67479531D01*
X152794592Y-67649691D01*
X152758660Y-67830331D01*
X146412255Y-67830331D01*
X146394984Y-67743509D01*
X146447236Y-67665309D01*
X146517718Y-67495149D01*
X146553650Y-67314509D01*
X146553650Y-67185344D01*
X146636549Y-67151006D01*
X146789688Y-67048682D01*
X146919922Y-66918448D01*
X147022246Y-66765309D01*
X147092728Y-66595149D01*
X147128660Y-66414509D01*
X147128660Y-66230331D01*
X147092728Y-66049691D01*
X147043288Y-65930331D01*
X147158660Y-65930331D01*
X147158660Y-66114509D01*
X147194592Y-66295149D01*
X147265074Y-66465309D01*
X147367398Y-66618448D01*
X147497632Y-66748682D01*
X147650771Y-66851006D01*
X147820931Y-66921488D01*
X148001571Y-66957420D01*
X148185749Y-66957420D01*
X148366389Y-66921488D01*
X148536549Y-66851006D01*
X148689688Y-66748682D01*
X148819922Y-66618448D01*
X148922246Y-66465309D01*
X148992728Y-66295149D01*
X149028660Y-66114509D01*
X149028660Y-65930331D01*
X148992728Y-65749691D01*
X148922246Y-65579531D01*
X148819922Y-65426392D01*
X148689688Y-65296158D01*
X148536549Y-65193834D01*
X148366389Y-65123352D01*
X148185749Y-65087420D01*
X148001571Y-65087420D01*
X147820931Y-65123352D01*
X147650771Y-65193834D01*
X147497632Y-65296158D01*
X147367398Y-65426392D01*
X147265074Y-65579531D01*
X147194592Y-65749691D01*
X147158660Y-65930331D01*
X147043288Y-65930331D01*
X147022246Y-65879531D01*
X146919922Y-65726392D01*
X146789688Y-65596158D01*
X146636549Y-65493834D01*
X146466389Y-65423352D01*
X146285749Y-65387420D01*
X146101571Y-65387420D01*
X145920931Y-65423352D01*
X145750771Y-65493834D01*
X145597632Y-65596158D01*
X145538938Y-65654852D01*
X145519922Y-65626392D01*
X145389688Y-65496158D01*
X145236549Y-65393834D01*
X145066389Y-65323352D01*
X144885749Y-65287420D01*
X144701571Y-65287420D01*
X144520931Y-65323352D01*
X144434380Y-65359202D01*
X144336549Y-65293834D01*
X144166389Y-65223352D01*
X143985749Y-65187420D01*
X143801571Y-65187420D01*
X143620931Y-65223352D01*
X143450771Y-65293834D01*
X143297632Y-65396158D01*
X143167398Y-65526392D01*
X143065074Y-65679531D01*
X142994592Y-65849691D01*
X142980549Y-65920288D01*
X142922246Y-65779531D01*
X142819922Y-65626392D01*
X142689688Y-65496158D01*
X142536549Y-65393834D01*
X142366389Y-65323352D01*
X142185749Y-65287420D01*
X142075183Y-65287420D01*
X142010865Y-65132144D01*
X141897597Y-64962626D01*
X141753434Y-64818463D01*
X141583916Y-64705195D01*
X141395558Y-64627174D01*
X141195599Y-64587400D01*
X140991721Y-64587400D01*
X140791762Y-64627174D01*
X140603404Y-64705195D01*
X140433886Y-64818463D01*
X140289723Y-64962626D01*
X140176455Y-65132144D01*
X140098434Y-65320502D01*
X140058660Y-65520461D01*
X131210120Y-65520461D01*
X131210120Y-62820481D01*
X132758660Y-62820481D01*
X132758660Y-63024359D01*
X132798434Y-63224318D01*
X132876455Y-63412676D01*
X132989723Y-63582194D01*
X133133886Y-63726357D01*
X133303404Y-63839625D01*
X133491762Y-63917646D01*
X133691721Y-63957420D01*
X133895599Y-63957420D01*
X134095558Y-63917646D01*
X134283916Y-63839625D01*
X134453434Y-63726357D01*
X134597597Y-63582194D01*
X134710865Y-63412676D01*
X134788886Y-63224318D01*
X134828660Y-63024359D01*
X134828660Y-62820481D01*
X134788886Y-62620522D01*
X134710865Y-62432164D01*
X134703059Y-62420481D01*
X137058660Y-62420481D01*
X137058660Y-62624359D01*
X137098434Y-62824318D01*
X137176455Y-63012676D01*
X137289723Y-63182194D01*
X137433886Y-63326357D01*
X137603404Y-63439625D01*
X137791762Y-63517646D01*
X137991721Y-63557420D01*
X138195599Y-63557420D01*
X138395558Y-63517646D01*
X138583916Y-63439625D01*
X138753434Y-63326357D01*
X138897597Y-63182194D01*
X139010865Y-63012676D01*
X139088886Y-62824318D01*
X139128660Y-62624359D01*
X139128660Y-62420481D01*
X139088886Y-62220522D01*
X139010865Y-62032164D01*
X138897597Y-61862646D01*
X138753434Y-61718483D01*
X138583916Y-61605215D01*
X138395558Y-61527194D01*
X138195599Y-61487420D01*
X137991721Y-61487420D01*
X137791762Y-61527194D01*
X137603404Y-61605215D01*
X137433886Y-61718483D01*
X137289723Y-61862646D01*
X137176455Y-62032164D01*
X137098434Y-62220522D01*
X137058660Y-62420481D01*
X134703059Y-62420481D01*
X134597597Y-62262646D01*
X134453434Y-62118483D01*
X134283916Y-62005215D01*
X134095558Y-61927194D01*
X133895599Y-61887420D01*
X133691721Y-61887420D01*
X133491762Y-61927194D01*
X133303404Y-62005215D01*
X133133886Y-62118483D01*
X132989723Y-62262646D01*
X132876455Y-62432164D01*
X132798434Y-62620522D01*
X132758660Y-62820481D01*
X131210120Y-62820481D01*
X131210120Y-59620481D01*
X139158660Y-59620481D01*
X139158660Y-59824359D01*
X139198434Y-60024318D01*
X139276455Y-60212676D01*
X139389723Y-60382194D01*
X139533886Y-60526357D01*
X139703404Y-60639625D01*
X139891762Y-60717646D01*
X140091721Y-60757420D01*
X140295599Y-60757420D01*
X140495558Y-60717646D01*
X140683916Y-60639625D01*
X140712567Y-60620481D01*
X151158660Y-60620481D01*
X151158660Y-60824359D01*
X151198434Y-61024318D01*
X151276455Y-61212676D01*
X151389723Y-61382194D01*
X151533886Y-61526357D01*
X151703404Y-61639625D01*
X151891762Y-61717646D01*
X152091721Y-61757420D01*
X152295599Y-61757420D01*
X152495558Y-61717646D01*
X152683916Y-61639625D01*
X152853434Y-61526357D01*
X152997597Y-61382194D01*
X153110865Y-61212676D01*
X153188886Y-61024318D01*
X153228660Y-60824359D01*
X153228660Y-60620481D01*
X153188886Y-60420522D01*
X153110865Y-60232164D01*
X152997597Y-60062646D01*
X152853434Y-59918483D01*
X152683916Y-59805215D01*
X152495558Y-59727194D01*
X152295599Y-59687420D01*
X152091721Y-59687420D01*
X151891762Y-59727194D01*
X151703404Y-59805215D01*
X151533886Y-59918483D01*
X151389723Y-60062646D01*
X151276455Y-60232164D01*
X151198434Y-60420522D01*
X151158660Y-60620481D01*
X140712567Y-60620481D01*
X140853434Y-60526357D01*
X140997597Y-60382194D01*
X141110865Y-60212676D01*
X141188886Y-60024318D01*
X141228660Y-59824359D01*
X141228660Y-59620481D01*
X141188886Y-59420522D01*
X141110865Y-59232164D01*
X140997597Y-59062646D01*
X140853434Y-58918483D01*
X140683916Y-58805215D01*
X140495558Y-58727194D01*
X140295599Y-58687420D01*
X140091721Y-58687420D01*
X139891762Y-58727194D01*
X139703404Y-58805215D01*
X139533886Y-58918483D01*
X139389723Y-59062646D01*
X139276455Y-59232164D01*
X139198434Y-59420522D01*
X139158660Y-59620481D01*
X131210120Y-59620481D01*
X131210120Y-57628811D01*
X142673039Y-57628811D01*
X142770363Y-57903172D01*
X142919342Y-58153275D01*
X143114251Y-58369508D01*
X143347600Y-58543561D01*
X143610421Y-58668745D01*
X143757630Y-58713396D01*
X143987520Y-58592075D01*
X143987520Y-57398920D01*
X142793706Y-57398920D01*
X142673039Y-57628811D01*
X131210120Y-57628811D01*
X131210120Y-56915029D01*
X142673039Y-56915029D01*
X142793706Y-57144920D01*
X143987520Y-57144920D01*
X143987520Y-55951765D01*
X144241520Y-55951765D01*
X144241520Y-57144920D01*
X144261520Y-57144920D01*
X144261520Y-57398920D01*
X144241520Y-57398920D01*
X144241520Y-58592075D01*
X144471410Y-58713396D01*
X144618619Y-58668745D01*
X144881440Y-58543561D01*
X145114789Y-58369508D01*
X145309698Y-58153275D01*
X145379319Y-58036397D01*
X145413814Y-58100934D01*
X145599386Y-58327054D01*
X145825506Y-58512626D01*
X146083486Y-58650519D01*
X146363409Y-58735433D01*
X146581570Y-58756920D01*
X146727470Y-58756920D01*
X146945631Y-58735433D01*
X147225554Y-58650519D01*
X147483534Y-58512626D01*
X147709654Y-58327054D01*
X147734127Y-58297233D01*
X147755018Y-58366100D01*
X147813983Y-58476414D01*
X147893335Y-58573105D01*
X147990026Y-58652457D01*
X148100340Y-58711422D01*
X148220038Y-58747732D01*
X148344520Y-58759992D01*
X150044520Y-58759992D01*
X150169002Y-58747732D01*
X150288700Y-58711422D01*
X150399014Y-58652457D01*
X150495705Y-58573105D01*
X150575057Y-58476414D01*
X150634022Y-58366100D01*
X150670332Y-58246402D01*
X150682592Y-58121920D01*
X150682592Y-56421920D01*
X150670332Y-56297438D01*
X150634022Y-56177740D01*
X150575057Y-56067426D01*
X150495705Y-55970735D01*
X150399014Y-55891383D01*
X150288700Y-55832418D01*
X150169002Y-55796108D01*
X150044520Y-55783848D01*
X148344520Y-55783848D01*
X148220038Y-55796108D01*
X148100340Y-55832418D01*
X147990026Y-55891383D01*
X147893335Y-55970735D01*
X147813983Y-56067426D01*
X147755018Y-56177740D01*
X147734127Y-56246607D01*
X147709654Y-56216786D01*
X147483534Y-56031214D01*
X147225554Y-55893321D01*
X146945631Y-55808407D01*
X146727470Y-55786920D01*
X146581570Y-55786920D01*
X146363409Y-55808407D01*
X146083486Y-55893321D01*
X145825506Y-56031214D01*
X145599386Y-56216786D01*
X145413814Y-56442906D01*
X145379319Y-56507443D01*
X145309698Y-56390565D01*
X145114789Y-56174332D01*
X144881440Y-56000279D01*
X144618619Y-55875095D01*
X144471410Y-55830444D01*
X144241520Y-55951765D01*
X143987520Y-55951765D01*
X143757630Y-55830444D01*
X143610421Y-55875095D01*
X143347600Y-56000279D01*
X143114251Y-56174332D01*
X142919342Y-56390565D01*
X142770363Y-56640668D01*
X142673039Y-56915029D01*
X131210120Y-56915029D01*
X131210120Y-55640626D01*
X161804223Y-55640053D01*
X161803434Y-65421043D01*
X161803434Y-65421043D01*
G37*
X161803434Y-65421043D02*
X161697597Y-65262646D01*
X161553434Y-65118483D01*
X161383916Y-65005215D01*
X161195558Y-64927194D01*
X160995599Y-64887420D01*
X160791721Y-64887420D01*
X160591762Y-64927194D01*
X160403404Y-65005215D01*
X160233886Y-65118483D01*
X160089723Y-65262646D01*
X159976455Y-65432164D01*
X159898434Y-65620522D01*
X159858660Y-65820481D01*
X159858660Y-66024359D01*
X159898434Y-66224318D01*
X159976455Y-66412676D01*
X160089723Y-66582194D01*
X160233886Y-66726357D01*
X160403404Y-66839625D01*
X160591762Y-66917646D01*
X160791721Y-66957420D01*
X160995599Y-66957420D01*
X161195558Y-66917646D01*
X161383916Y-66839625D01*
X161553434Y-66726357D01*
X161697597Y-66582194D01*
X161803353Y-66423918D01*
X161799524Y-113916996D01*
X161627241Y-113801880D01*
X161193199Y-113622094D01*
X160732422Y-113530440D01*
X160262618Y-113530440D01*
X159801841Y-113622094D01*
X159367799Y-113801880D01*
X158977171Y-114062890D01*
X158644970Y-114395091D01*
X158383960Y-114785719D01*
X158204174Y-115219761D01*
X158112520Y-115680538D01*
X158112520Y-116150342D01*
X158204174Y-116611119D01*
X158383960Y-117045161D01*
X158493768Y-117209500D01*
X134511315Y-117209500D01*
X134622820Y-117042621D01*
X134802606Y-116608579D01*
X134894260Y-116147802D01*
X134894260Y-115677998D01*
X134802606Y-115217221D01*
X134622820Y-114783179D01*
X134481568Y-114571780D01*
X145411005Y-114571780D01*
X145434850Y-114813882D01*
X145505469Y-115046681D01*
X145620147Y-115261229D01*
X145774478Y-115449282D01*
X145962531Y-115603613D01*
X146177079Y-115718291D01*
X146409878Y-115788910D01*
X146591315Y-115806780D01*
X146712645Y-115806780D01*
X146894082Y-115788910D01*
X147126881Y-115718291D01*
X147341429Y-115603613D01*
X147529482Y-115449282D01*
X147683813Y-115261229D01*
X147798491Y-115046681D01*
X147869110Y-114813882D01*
X147892955Y-114571780D01*
X147869110Y-114329678D01*
X147798491Y-114096879D01*
X147683813Y-113882331D01*
X147529482Y-113694278D01*
X147341429Y-113539947D01*
X147126881Y-113425269D01*
X146894082Y-113354650D01*
X146712645Y-113336780D01*
X146591315Y-113336780D01*
X146409878Y-113354650D01*
X146177079Y-113425269D01*
X145962531Y-113539947D01*
X145774478Y-113694278D01*
X145620147Y-113882331D01*
X145505469Y-114096879D01*
X145434850Y-114329678D01*
X145411005Y-114571780D01*
X134481568Y-114571780D01*
X134361810Y-114392551D01*
X134029609Y-114060350D01*
X133638981Y-113799340D01*
X133204939Y-113619554D01*
X132744162Y-113527900D01*
X132274358Y-113527900D01*
X131813581Y-113619554D01*
X131379539Y-113799340D01*
X131210120Y-113912542D01*
X131210120Y-112031780D01*
X142671005Y-112031780D01*
X142694850Y-112273882D01*
X142765469Y-112506681D01*
X142880147Y-112721229D01*
X143034478Y-112909282D01*
X143222531Y-113063613D01*
X143437079Y-113178291D01*
X143669878Y-113248910D01*
X143851315Y-113266780D01*
X144372645Y-113266780D01*
X144554082Y-113248910D01*
X144786881Y-113178291D01*
X145001429Y-113063613D01*
X145189482Y-112909282D01*
X145343813Y-112721229D01*
X145458491Y-112506681D01*
X145506205Y-112349389D01*
X147998518Y-112349389D01*
X148023195Y-112430751D01*
X148123488Y-112651104D01*
X148264843Y-112847656D01*
X148441827Y-113012855D01*
X148647639Y-113140352D01*
X148874370Y-113225247D01*
X149064980Y-113101489D01*
X149064980Y-112158780D01*
X149318980Y-112158780D01*
X149318980Y-113101489D01*
X149509590Y-113225247D01*
X149736321Y-113140352D01*
X149942133Y-113012855D01*
X150119117Y-112847656D01*
X150260472Y-112651104D01*
X150360765Y-112430751D01*
X150385442Y-112349389D01*
X150260711Y-112158780D01*
X149318980Y-112158780D01*
X149064980Y-112158780D01*
X148123249Y-112158780D01*
X147998518Y-112349389D01*
X145506205Y-112349389D01*
X145529110Y-112273882D01*
X145552955Y-112031780D01*
X145529110Y-111789678D01*
X145506206Y-111714171D01*
X147998518Y-111714171D01*
X148123249Y-111904780D01*
X149064980Y-111904780D01*
X149064980Y-110962071D01*
X149318980Y-110962071D01*
X149318980Y-111904780D01*
X150260711Y-111904780D01*
X150385442Y-111714171D01*
X150360765Y-111632809D01*
X150260472Y-111412456D01*
X150119117Y-111215904D01*
X149942133Y-111050705D01*
X149736321Y-110923208D01*
X149509590Y-110838313D01*
X149318980Y-110962071D01*
X149064980Y-110962071D01*
X148874370Y-110838313D01*
X148647639Y-110923208D01*
X148441827Y-111050705D01*
X148264843Y-111215904D01*
X148123488Y-111412456D01*
X148023195Y-111632809D01*
X147998518Y-111714171D01*
X145506206Y-111714171D01*
X145458491Y-111556879D01*
X145343813Y-111342331D01*
X145189482Y-111154278D01*
X145001429Y-110999947D01*
X144786881Y-110885269D01*
X144554082Y-110814650D01*
X144372645Y-110796780D01*
X143851315Y-110796780D01*
X143669878Y-110814650D01*
X143437079Y-110885269D01*
X143222531Y-110999947D01*
X143034478Y-111154278D01*
X142880147Y-111342331D01*
X142765469Y-111556879D01*
X142694850Y-111789678D01*
X142671005Y-112031780D01*
X131210120Y-112031780D01*
X131210120Y-107730331D01*
X133758660Y-107730331D01*
X133758660Y-107914509D01*
X133794592Y-108095149D01*
X133865074Y-108265309D01*
X133967398Y-108418448D01*
X134097632Y-108548682D01*
X134250771Y-108651006D01*
X134420931Y-108721488D01*
X134601571Y-108757420D01*
X134785749Y-108757420D01*
X134966389Y-108721488D01*
X135136549Y-108651006D01*
X135289688Y-108548682D01*
X135419922Y-108418448D01*
X135522246Y-108265309D01*
X135592728Y-108095149D01*
X135628660Y-107914509D01*
X135628660Y-107730331D01*
X135592728Y-107549691D01*
X135522246Y-107379531D01*
X135419922Y-107226392D01*
X135289688Y-107096158D01*
X135136549Y-106993834D01*
X134966389Y-106923352D01*
X134785749Y-106887420D01*
X134601571Y-106887420D01*
X134420931Y-106923352D01*
X134250771Y-106993834D01*
X134097632Y-107096158D01*
X133967398Y-107226392D01*
X133865074Y-107379531D01*
X133794592Y-107549691D01*
X133758660Y-107730331D01*
X131210120Y-107730331D01*
X131210120Y-103530331D01*
X136658660Y-103530331D01*
X136658660Y-103714509D01*
X136694592Y-103895149D01*
X136765074Y-104065309D01*
X136867398Y-104218448D01*
X136997632Y-104348682D01*
X137150771Y-104451006D01*
X137320931Y-104521488D01*
X137501571Y-104557420D01*
X137685749Y-104557420D01*
X137821932Y-104530331D01*
X139258660Y-104530331D01*
X139258660Y-104714509D01*
X139294592Y-104895149D01*
X139365074Y-105065309D01*
X139467398Y-105218448D01*
X139597632Y-105348682D01*
X139601262Y-105351107D01*
X139489723Y-105462646D01*
X139376455Y-105632164D01*
X139298434Y-105820522D01*
X139258660Y-106020481D01*
X139258660Y-106224359D01*
X139298434Y-106424318D01*
X139376455Y-106612676D01*
X139489723Y-106782194D01*
X139633886Y-106926357D01*
X139803404Y-107039625D01*
X139991762Y-107117646D01*
X140191721Y-107157420D01*
X140395599Y-107157420D01*
X140595558Y-107117646D01*
X140783916Y-107039625D01*
X140953434Y-106926357D01*
X141097597Y-106782194D01*
X141210865Y-106612676D01*
X141288886Y-106424318D01*
X141328660Y-106224359D01*
X141328660Y-106020481D01*
X141288886Y-105820522D01*
X141210865Y-105632164D01*
X141097597Y-105462646D01*
X140953434Y-105318483D01*
X140873378Y-105264992D01*
X140919922Y-105218448D01*
X141022246Y-105065309D01*
X141092728Y-104895149D01*
X141128660Y-104714509D01*
X141128660Y-104530331D01*
X141092728Y-104349691D01*
X141022246Y-104179531D01*
X140919922Y-104026392D01*
X140789688Y-103896158D01*
X140636549Y-103793834D01*
X140466389Y-103723352D01*
X140285749Y-103687420D01*
X140101571Y-103687420D01*
X139920931Y-103723352D01*
X139750771Y-103793834D01*
X139597632Y-103896158D01*
X139467398Y-104026392D01*
X139365074Y-104179531D01*
X139294592Y-104349691D01*
X139258660Y-104530331D01*
X137821932Y-104530331D01*
X137866389Y-104521488D01*
X138036549Y-104451006D01*
X138189688Y-104348682D01*
X138319922Y-104218448D01*
X138422246Y-104065309D01*
X138492728Y-103895149D01*
X138528660Y-103714509D01*
X138528660Y-103530331D01*
X138492728Y-103349691D01*
X138422246Y-103179531D01*
X138319922Y-103026392D01*
X138189688Y-102896158D01*
X138036549Y-102793834D01*
X137866389Y-102723352D01*
X137685749Y-102687420D01*
X137501571Y-102687420D01*
X137320931Y-102723352D01*
X137150771Y-102793834D01*
X136997632Y-102896158D01*
X136867398Y-103026392D01*
X136765074Y-103179531D01*
X136694592Y-103349691D01*
X136658660Y-103530331D01*
X131210120Y-103530331D01*
X131210120Y-95918720D01*
X143956088Y-95918720D01*
X143956088Y-97918720D01*
X143968348Y-98043202D01*
X144004658Y-98162900D01*
X144063623Y-98273214D01*
X144142975Y-98369905D01*
X144239666Y-98449257D01*
X144349980Y-98508222D01*
X144469678Y-98544532D01*
X144594160Y-98556792D01*
X147794160Y-98556792D01*
X147918642Y-98544532D01*
X148038340Y-98508222D01*
X148148654Y-98449257D01*
X148245345Y-98369905D01*
X148324697Y-98273214D01*
X148383662Y-98162900D01*
X148419972Y-98043202D01*
X148432232Y-97918720D01*
X148432232Y-95918720D01*
X148419972Y-95794238D01*
X148383662Y-95674540D01*
X148324697Y-95564226D01*
X148245345Y-95467535D01*
X148148654Y-95388183D01*
X148038340Y-95329218D01*
X147918642Y-95292908D01*
X147794160Y-95280648D01*
X144594160Y-95280648D01*
X144469678Y-95292908D01*
X144349980Y-95329218D01*
X144239666Y-95388183D01*
X144142975Y-95467535D01*
X144063623Y-95564226D01*
X144004658Y-95674540D01*
X143968348Y-95794238D01*
X143956088Y-95918720D01*
X131210120Y-95918720D01*
X131210120Y-91381315D01*
X137052442Y-91381315D01*
X137096199Y-91700395D01*
X137201365Y-92004808D01*
X137294346Y-92178764D01*
X137558747Y-92274528D01*
X138514555Y-91318720D01*
X138500413Y-91304578D01*
X138680018Y-91124973D01*
X138694160Y-91139115D01*
X138708303Y-91124973D01*
X138887908Y-91304578D01*
X138873765Y-91318720D01*
X138887908Y-91332863D01*
X138708303Y-91512468D01*
X138694160Y-91498325D01*
X137738352Y-92454133D01*
X137749095Y-92483795D01*
X137651908Y-92548733D01*
X137424173Y-92776468D01*
X137245242Y-93044257D01*
X137121992Y-93341808D01*
X137059160Y-93657687D01*
X137059160Y-93979753D01*
X137121992Y-94295632D01*
X137245242Y-94593183D01*
X137424173Y-94860972D01*
X137651908Y-95088707D01*
X137919697Y-95267638D01*
X138217248Y-95390888D01*
X138533127Y-95453720D01*
X138855193Y-95453720D01*
X139171072Y-95390888D01*
X139468623Y-95267638D01*
X139736412Y-95088707D01*
X139964147Y-94860972D01*
X140143078Y-94593183D01*
X140266328Y-94295632D01*
X140329160Y-93979753D01*
X140329160Y-93657687D01*
X151559160Y-93657687D01*
X151559160Y-93979753D01*
X151621992Y-94295632D01*
X151745242Y-94593183D01*
X151924173Y-94860972D01*
X152151908Y-95088707D01*
X152419697Y-95267638D01*
X152717248Y-95390888D01*
X153033127Y-95453720D01*
X153355193Y-95453720D01*
X153671072Y-95390888D01*
X153968623Y-95267638D01*
X154236412Y-95088707D01*
X154464147Y-94860972D01*
X154643078Y-94593183D01*
X154766328Y-94295632D01*
X154829160Y-93979753D01*
X154829160Y-93657687D01*
X154766328Y-93341808D01*
X154643078Y-93044257D01*
X154464147Y-92776468D01*
X154236412Y-92548733D01*
X153968623Y-92369802D01*
X153671072Y-92246552D01*
X153355193Y-92183720D01*
X153033127Y-92183720D01*
X152717248Y-92246552D01*
X152419697Y-92369802D01*
X152151908Y-92548733D01*
X151924173Y-92776468D01*
X151745242Y-93044257D01*
X151621992Y-93341808D01*
X151559160Y-93657687D01*
X140329160Y-93657687D01*
X140266328Y-93341808D01*
X140169690Y-93108503D01*
X140191762Y-93117646D01*
X140391721Y-93157420D01*
X140595599Y-93157420D01*
X140795558Y-93117646D01*
X140983916Y-93039625D01*
X141153434Y-92926357D01*
X141297597Y-92782194D01*
X141410865Y-92612676D01*
X141488886Y-92424318D01*
X141528660Y-92224359D01*
X141528660Y-92020481D01*
X141488886Y-91820522D01*
X141410865Y-91632164D01*
X141297597Y-91462646D01*
X141153434Y-91318483D01*
X140983916Y-91205215D01*
X140795558Y-91127194D01*
X140595599Y-91087420D01*
X140391721Y-91087420D01*
X140314840Y-91102713D01*
X140292121Y-90937045D01*
X140186955Y-90632632D01*
X140093974Y-90458676D01*
X139944937Y-90404696D01*
X140048654Y-90349257D01*
X140145345Y-90269905D01*
X140224697Y-90173214D01*
X140283662Y-90062900D01*
X140319972Y-89943202D01*
X140332232Y-89818720D01*
X140332232Y-88820481D01*
X141758660Y-88820481D01*
X141758660Y-89024359D01*
X141798434Y-89224318D01*
X141876455Y-89412676D01*
X141989723Y-89582194D01*
X142133886Y-89726357D01*
X142303404Y-89839625D01*
X142491762Y-89917646D01*
X142691721Y-89957420D01*
X142895599Y-89957420D01*
X142912123Y-89954133D01*
X152238352Y-89954133D01*
X152334116Y-90218534D01*
X152623731Y-90359424D01*
X152935268Y-90441104D01*
X153256755Y-90460438D01*
X153575835Y-90416681D01*
X153880248Y-90311515D01*
X154054204Y-90218534D01*
X154149968Y-89954133D01*
X153194160Y-88998325D01*
X152238352Y-89954133D01*
X142912123Y-89954133D01*
X143095558Y-89917646D01*
X143283916Y-89839625D01*
X143453434Y-89726357D01*
X143597597Y-89582194D01*
X143710865Y-89412676D01*
X143788886Y-89224318D01*
X143828660Y-89024359D01*
X143828660Y-88881315D01*
X151552442Y-88881315D01*
X151596199Y-89200395D01*
X151701365Y-89504808D01*
X151794346Y-89678764D01*
X152058747Y-89774528D01*
X153014555Y-88818720D01*
X153373765Y-88818720D01*
X154329573Y-89774528D01*
X154593974Y-89678764D01*
X154734864Y-89389149D01*
X154816544Y-89077612D01*
X154835878Y-88756125D01*
X154792121Y-88437045D01*
X154686955Y-88132632D01*
X154593974Y-87958676D01*
X154329573Y-87862912D01*
X153373765Y-88818720D01*
X153014555Y-88818720D01*
X152058747Y-87862912D01*
X151794346Y-87958676D01*
X151653456Y-88248291D01*
X151571776Y-88559828D01*
X151552442Y-88881315D01*
X143828660Y-88881315D01*
X143828660Y-88820481D01*
X143788886Y-88620522D01*
X143710865Y-88432164D01*
X143597597Y-88262646D01*
X143453434Y-88118483D01*
X143283916Y-88005215D01*
X143095558Y-87927194D01*
X142895599Y-87887420D01*
X142691721Y-87887420D01*
X142491762Y-87927194D01*
X142303404Y-88005215D01*
X142133886Y-88118483D01*
X141989723Y-88262646D01*
X141876455Y-88432164D01*
X141798434Y-88620522D01*
X141758660Y-88820481D01*
X140332232Y-88820481D01*
X140332232Y-87818720D01*
X140319972Y-87694238D01*
X140316657Y-87683307D01*
X152238352Y-87683307D01*
X153194160Y-88639115D01*
X154149968Y-87683307D01*
X154054204Y-87418906D01*
X153764589Y-87278016D01*
X153453052Y-87196336D01*
X153131565Y-87177002D01*
X152812485Y-87220759D01*
X152508072Y-87325925D01*
X152334116Y-87418906D01*
X152238352Y-87683307D01*
X140316657Y-87683307D01*
X140283662Y-87574540D01*
X140224697Y-87464226D01*
X140145345Y-87367535D01*
X140048654Y-87288183D01*
X139938340Y-87229218D01*
X139818642Y-87192908D01*
X139694160Y-87180648D01*
X137694160Y-87180648D01*
X137569678Y-87192908D01*
X137449980Y-87229218D01*
X137339666Y-87288183D01*
X137242975Y-87367535D01*
X137163623Y-87464226D01*
X137104658Y-87574540D01*
X137068348Y-87694238D01*
X137056088Y-87818720D01*
X137056088Y-89818720D01*
X137068348Y-89943202D01*
X137104658Y-90062900D01*
X137163623Y-90173214D01*
X137242975Y-90269905D01*
X137339666Y-90349257D01*
X137443383Y-90404696D01*
X137294346Y-90458676D01*
X137153456Y-90748291D01*
X137071776Y-91059828D01*
X137052442Y-91381315D01*
X131210120Y-91381315D01*
X131210120Y-84718720D01*
X143956088Y-84718720D01*
X143956088Y-86718720D01*
X143968348Y-86843202D01*
X144004658Y-86962900D01*
X144063623Y-87073214D01*
X144142975Y-87169905D01*
X144239666Y-87249257D01*
X144349980Y-87308222D01*
X144469678Y-87344532D01*
X144594160Y-87356792D01*
X147794160Y-87356792D01*
X147918642Y-87344532D01*
X148038340Y-87308222D01*
X148148654Y-87249257D01*
X148245345Y-87169905D01*
X148324697Y-87073214D01*
X148383662Y-86962900D01*
X148419972Y-86843202D01*
X148432232Y-86718720D01*
X148432232Y-86420481D01*
X153958660Y-86420481D01*
X153958660Y-86624359D01*
X153998434Y-86824318D01*
X154076455Y-87012676D01*
X154189723Y-87182194D01*
X154333886Y-87326357D01*
X154503404Y-87439625D01*
X154691762Y-87517646D01*
X154891721Y-87557420D01*
X155095599Y-87557420D01*
X155295558Y-87517646D01*
X155483916Y-87439625D01*
X155653434Y-87326357D01*
X155797597Y-87182194D01*
X155910865Y-87012676D01*
X155988886Y-86824318D01*
X156028660Y-86624359D01*
X156028660Y-86420481D01*
X155988886Y-86220522D01*
X155910865Y-86032164D01*
X155797597Y-85862646D01*
X155653434Y-85718483D01*
X155483916Y-85605215D01*
X155295558Y-85527194D01*
X155095599Y-85487420D01*
X154891721Y-85487420D01*
X154691762Y-85527194D01*
X154503404Y-85605215D01*
X154333886Y-85718483D01*
X154189723Y-85862646D01*
X154076455Y-86032164D01*
X153998434Y-86220522D01*
X153958660Y-86420481D01*
X148432232Y-86420481D01*
X148432232Y-84718720D01*
X148419972Y-84594238D01*
X148383662Y-84474540D01*
X148324697Y-84364226D01*
X148245345Y-84267535D01*
X148188010Y-84220481D01*
X152858660Y-84220481D01*
X152858660Y-84424359D01*
X152898434Y-84624318D01*
X152976455Y-84812676D01*
X153089723Y-84982194D01*
X153233886Y-85126357D01*
X153403404Y-85239625D01*
X153591762Y-85317646D01*
X153791721Y-85357420D01*
X153995599Y-85357420D01*
X154195558Y-85317646D01*
X154383916Y-85239625D01*
X154553434Y-85126357D01*
X154697597Y-84982194D01*
X154810865Y-84812676D01*
X154888886Y-84624318D01*
X154928660Y-84424359D01*
X154928660Y-84220481D01*
X154888886Y-84020522D01*
X154810865Y-83832164D01*
X154697597Y-83662646D01*
X154553434Y-83518483D01*
X154421505Y-83430331D01*
X154958660Y-83430331D01*
X154958660Y-83614509D01*
X154994592Y-83795149D01*
X155065074Y-83965309D01*
X155167398Y-84118448D01*
X155297632Y-84248682D01*
X155450771Y-84351006D01*
X155620931Y-84421488D01*
X155801571Y-84457420D01*
X155985749Y-84457420D01*
X156166389Y-84421488D01*
X156336549Y-84351006D01*
X156489688Y-84248682D01*
X156619922Y-84118448D01*
X156722246Y-83965309D01*
X156792728Y-83795149D01*
X156828660Y-83614509D01*
X156828660Y-83430331D01*
X156792728Y-83249691D01*
X156722246Y-83079531D01*
X156619922Y-82926392D01*
X156489688Y-82796158D01*
X156336549Y-82693834D01*
X156166389Y-82623352D01*
X155985749Y-82587420D01*
X155801571Y-82587420D01*
X155620931Y-82623352D01*
X155450771Y-82693834D01*
X155297632Y-82796158D01*
X155167398Y-82926392D01*
X155065074Y-83079531D01*
X154994592Y-83249691D01*
X154958660Y-83430331D01*
X154421505Y-83430331D01*
X154383916Y-83405215D01*
X154195558Y-83327194D01*
X153995599Y-83287420D01*
X153791721Y-83287420D01*
X153591762Y-83327194D01*
X153403404Y-83405215D01*
X153233886Y-83518483D01*
X153089723Y-83662646D01*
X152976455Y-83832164D01*
X152898434Y-84020522D01*
X152858660Y-84220481D01*
X148188010Y-84220481D01*
X148148654Y-84188183D01*
X148038340Y-84129218D01*
X147918642Y-84092908D01*
X147794160Y-84080648D01*
X144594160Y-84080648D01*
X144469678Y-84092908D01*
X144349980Y-84129218D01*
X144239666Y-84188183D01*
X144142975Y-84267535D01*
X144063623Y-84364226D01*
X144004658Y-84474540D01*
X143968348Y-84594238D01*
X143956088Y-84718720D01*
X131210120Y-84718720D01*
X131210120Y-79830331D01*
X140158660Y-79830331D01*
X140158660Y-80014509D01*
X140194592Y-80195149D01*
X140265074Y-80365309D01*
X140367398Y-80518448D01*
X140497632Y-80648682D01*
X140650771Y-80751006D01*
X140820931Y-80821488D01*
X141001571Y-80857420D01*
X141185749Y-80857420D01*
X141366389Y-80821488D01*
X141536549Y-80751006D01*
X141689688Y-80648682D01*
X141748382Y-80589988D01*
X141767398Y-80618448D01*
X141897632Y-80748682D01*
X142050771Y-80851006D01*
X142220931Y-80921488D01*
X142401571Y-80957420D01*
X142585749Y-80957420D01*
X142766389Y-80921488D01*
X142936549Y-80851006D01*
X143089688Y-80748682D01*
X143219922Y-80618448D01*
X143322246Y-80465309D01*
X143392728Y-80295149D01*
X143428660Y-80114509D01*
X143428660Y-79930331D01*
X147858660Y-79930331D01*
X147858660Y-80114509D01*
X147894592Y-80295149D01*
X147965074Y-80465309D01*
X148067398Y-80618448D01*
X148197632Y-80748682D01*
X148350771Y-80851006D01*
X148520931Y-80921488D01*
X148701571Y-80957420D01*
X148885749Y-80957420D01*
X149066389Y-80921488D01*
X149236549Y-80851006D01*
X149389688Y-80748682D01*
X149519922Y-80618448D01*
X149622246Y-80465309D01*
X149692728Y-80295149D01*
X149728660Y-80114509D01*
X149728660Y-79930331D01*
X149692728Y-79749691D01*
X149622246Y-79579531D01*
X149519922Y-79426392D01*
X149389688Y-79296158D01*
X149236549Y-79193834D01*
X149066389Y-79123352D01*
X148885749Y-79087420D01*
X148701571Y-79087420D01*
X148520931Y-79123352D01*
X148350771Y-79193834D01*
X148197632Y-79296158D01*
X148067398Y-79426392D01*
X147965074Y-79579531D01*
X147894592Y-79749691D01*
X147858660Y-79930331D01*
X143428660Y-79930331D01*
X143392728Y-79749691D01*
X143322246Y-79579531D01*
X143219922Y-79426392D01*
X143089688Y-79296158D01*
X142936549Y-79193834D01*
X142766389Y-79123352D01*
X142585749Y-79087420D01*
X142401571Y-79087420D01*
X142220931Y-79123352D01*
X142050771Y-79193834D01*
X141897632Y-79296158D01*
X141838938Y-79354852D01*
X141819922Y-79326392D01*
X141689688Y-79196158D01*
X141536549Y-79093834D01*
X141366389Y-79023352D01*
X141185749Y-78987420D01*
X141001571Y-78987420D01*
X140820931Y-79023352D01*
X140650771Y-79093834D01*
X140497632Y-79196158D01*
X140367398Y-79326392D01*
X140265074Y-79479531D01*
X140194592Y-79649691D01*
X140158660Y-79830331D01*
X131210120Y-79830331D01*
X131210120Y-75325282D01*
X144014909Y-75325282D01*
X144014909Y-75509460D01*
X144050841Y-75690100D01*
X144121323Y-75860260D01*
X144223647Y-76013399D01*
X144353881Y-76143633D01*
X144507020Y-76245957D01*
X144677180Y-76316439D01*
X144857820Y-76352371D01*
X145041998Y-76352371D01*
X145222638Y-76316439D01*
X145392798Y-76245957D01*
X145545937Y-76143633D01*
X145676171Y-76013399D01*
X145778495Y-75860260D01*
X145848977Y-75690100D01*
X145863019Y-75619505D01*
X145973321Y-75619505D01*
X146153961Y-75583573D01*
X146324121Y-75513091D01*
X146477260Y-75410767D01*
X146490738Y-75397289D01*
X146958660Y-75397289D01*
X146958660Y-75581467D01*
X146994592Y-75762107D01*
X147065074Y-75932267D01*
X147167398Y-76085406D01*
X147297632Y-76215640D01*
X147450771Y-76317964D01*
X147620931Y-76388446D01*
X147801571Y-76424378D01*
X147985749Y-76424378D01*
X148166389Y-76388446D01*
X148306692Y-76330331D01*
X149076402Y-76330331D01*
X149076402Y-76514509D01*
X149112334Y-76695149D01*
X149182816Y-76865309D01*
X149285140Y-77018448D01*
X149415374Y-77148682D01*
X149568513Y-77251006D01*
X149738673Y-77321488D01*
X149919313Y-77357420D01*
X150103491Y-77357420D01*
X150284131Y-77321488D01*
X150454291Y-77251006D01*
X150485233Y-77230331D01*
X151658660Y-77230331D01*
X151658660Y-77414509D01*
X151694592Y-77595149D01*
X151765074Y-77765309D01*
X151867398Y-77918448D01*
X151997632Y-78048682D01*
X152150771Y-78151006D01*
X152320931Y-78221488D01*
X152501571Y-78257420D01*
X152685749Y-78257420D01*
X152866389Y-78221488D01*
X153036549Y-78151006D01*
X153189688Y-78048682D01*
X153319922Y-77918448D01*
X153422246Y-77765309D01*
X153492728Y-77595149D01*
X153528660Y-77414509D01*
X153528660Y-77230331D01*
X153492728Y-77049691D01*
X153422246Y-76879531D01*
X153319922Y-76726392D01*
X153189688Y-76596158D01*
X153036549Y-76493834D01*
X152866389Y-76423352D01*
X152685749Y-76387420D01*
X152501571Y-76387420D01*
X152320931Y-76423352D01*
X152150771Y-76493834D01*
X151997632Y-76596158D01*
X151867398Y-76726392D01*
X151765074Y-76879531D01*
X151694592Y-77049691D01*
X151658660Y-77230331D01*
X150485233Y-77230331D01*
X150607430Y-77148682D01*
X150737664Y-77018448D01*
X150839988Y-76865309D01*
X150910470Y-76695149D01*
X150946402Y-76514509D01*
X150946402Y-76330331D01*
X150910470Y-76149691D01*
X150839988Y-75979531D01*
X150737664Y-75826392D01*
X150607430Y-75696158D01*
X150454291Y-75593834D01*
X150284131Y-75523352D01*
X150103491Y-75487420D01*
X149919313Y-75487420D01*
X149738673Y-75523352D01*
X149568513Y-75593834D01*
X149415374Y-75696158D01*
X149285140Y-75826392D01*
X149182816Y-75979531D01*
X149112334Y-76149691D01*
X149076402Y-76330331D01*
X148306692Y-76330331D01*
X148336549Y-76317964D01*
X148489688Y-76215640D01*
X148619922Y-76085406D01*
X148722246Y-75932267D01*
X148792728Y-75762107D01*
X148828660Y-75581467D01*
X148828660Y-75397289D01*
X148792728Y-75216649D01*
X148722246Y-75046489D01*
X148619922Y-74893350D01*
X148489688Y-74763116D01*
X148336549Y-74660792D01*
X148166389Y-74590310D01*
X147985749Y-74554378D01*
X147801571Y-74554378D01*
X147620931Y-74590310D01*
X147450771Y-74660792D01*
X147297632Y-74763116D01*
X147167398Y-74893350D01*
X147065074Y-75046489D01*
X146994592Y-75216649D01*
X146958660Y-75397289D01*
X146490738Y-75397289D01*
X146607494Y-75280533D01*
X146709818Y-75127394D01*
X146780300Y-74957234D01*
X146816232Y-74776594D01*
X146816232Y-74592416D01*
X146780300Y-74411776D01*
X146709818Y-74241616D01*
X146607494Y-74088477D01*
X146477260Y-73958243D01*
X146324121Y-73855919D01*
X146153961Y-73785437D01*
X145973321Y-73749505D01*
X145789143Y-73749505D01*
X145608503Y-73785437D01*
X145438343Y-73855919D01*
X145285204Y-73958243D01*
X145154970Y-74088477D01*
X145052646Y-74241616D01*
X144982164Y-74411776D01*
X144968122Y-74482371D01*
X144857820Y-74482371D01*
X144677180Y-74518303D01*
X144507020Y-74588785D01*
X144353881Y-74691109D01*
X144223647Y-74821343D01*
X144121323Y-74974482D01*
X144050841Y-75144642D01*
X144014909Y-75325282D01*
X131210120Y-75325282D01*
X131210120Y-71809687D01*
X145033681Y-71809687D01*
X145033681Y-71993865D01*
X145069613Y-72174505D01*
X145140095Y-72344665D01*
X145242419Y-72497804D01*
X145372653Y-72628038D01*
X145525792Y-72730362D01*
X145695952Y-72800844D01*
X145876592Y-72836776D01*
X146060770Y-72836776D01*
X146241410Y-72800844D01*
X146411570Y-72730362D01*
X146564709Y-72628038D01*
X146694943Y-72497804D01*
X146797267Y-72344665D01*
X146867749Y-72174505D01*
X146903681Y-71993865D01*
X146903681Y-71809687D01*
X146867749Y-71629047D01*
X146797267Y-71458887D01*
X146694943Y-71305748D01*
X146564709Y-71175514D01*
X146411570Y-71073190D01*
X146241410Y-71002708D01*
X146060770Y-70966776D01*
X145876592Y-70966776D01*
X145695952Y-71002708D01*
X145525792Y-71073190D01*
X145372653Y-71175514D01*
X145242419Y-71305748D01*
X145140095Y-71458887D01*
X145069613Y-71629047D01*
X145033681Y-71809687D01*
X131210120Y-71809687D01*
X131210120Y-65520461D01*
X140058660Y-65520461D01*
X140058660Y-65724339D01*
X140098434Y-65924298D01*
X140176455Y-66112656D01*
X140289723Y-66282174D01*
X140433886Y-66426337D01*
X140603404Y-66539605D01*
X140791762Y-66617626D01*
X140991721Y-66657400D01*
X141195599Y-66657400D01*
X141256759Y-66645235D01*
X141265074Y-66665309D01*
X141367398Y-66818448D01*
X141497632Y-66948682D01*
X141650771Y-67051006D01*
X141820931Y-67121488D01*
X142001571Y-67157420D01*
X142185749Y-67157420D01*
X142366389Y-67121488D01*
X142536549Y-67051006D01*
X142689688Y-66948682D01*
X142819922Y-66818448D01*
X142922246Y-66665309D01*
X142992728Y-66495149D01*
X143006771Y-66424552D01*
X143065074Y-66565309D01*
X143167398Y-66718448D01*
X143297632Y-66848682D01*
X143450771Y-66951006D01*
X143620931Y-67021488D01*
X143801571Y-67057420D01*
X143985749Y-67057420D01*
X144166389Y-67021488D01*
X144252940Y-66985638D01*
X144350771Y-67051006D01*
X144520931Y-67121488D01*
X144683650Y-67153855D01*
X144683650Y-67314509D01*
X144708474Y-67439304D01*
X144656222Y-67517504D01*
X144585740Y-67687664D01*
X144549808Y-67868304D01*
X144549808Y-68052482D01*
X144585740Y-68233122D01*
X144656222Y-68403282D01*
X144675872Y-68432691D01*
X144544177Y-68487240D01*
X144391038Y-68589564D01*
X144260804Y-68719798D01*
X144158480Y-68872937D01*
X144087998Y-69043097D01*
X144052066Y-69223737D01*
X144052066Y-69407915D01*
X144087998Y-69588555D01*
X144158480Y-69758715D01*
X144260804Y-69911854D01*
X144391038Y-70042088D01*
X144544177Y-70144412D01*
X144714337Y-70214894D01*
X144894977Y-70250826D01*
X145079155Y-70250826D01*
X145259795Y-70214894D01*
X145429955Y-70144412D01*
X145583094Y-70042088D01*
X145713328Y-69911854D01*
X145815652Y-69758715D01*
X145886134Y-69588555D01*
X145922066Y-69407915D01*
X145922066Y-69223737D01*
X145886134Y-69043097D01*
X145815652Y-68872937D01*
X145796002Y-68843528D01*
X145927697Y-68788979D01*
X146080836Y-68686655D01*
X146211070Y-68556421D01*
X146313394Y-68403282D01*
X146383876Y-68233122D01*
X146419808Y-68052482D01*
X146419808Y-67868304D01*
X146412255Y-67830331D01*
X152758660Y-67830331D01*
X152758660Y-68014509D01*
X152794592Y-68195149D01*
X152865074Y-68365309D01*
X152967398Y-68518448D01*
X153097632Y-68648682D01*
X153250771Y-68751006D01*
X153420931Y-68821488D01*
X153601571Y-68857420D01*
X153785749Y-68857420D01*
X153876764Y-68839316D01*
X153858660Y-68930331D01*
X153858660Y-69114509D01*
X153894592Y-69295149D01*
X153965074Y-69465309D01*
X154067398Y-69618448D01*
X154197632Y-69748682D01*
X154350771Y-69851006D01*
X154520931Y-69921488D01*
X154701571Y-69957420D01*
X154885749Y-69957420D01*
X155066389Y-69921488D01*
X155236549Y-69851006D01*
X155389688Y-69748682D01*
X155519922Y-69618448D01*
X155622246Y-69465309D01*
X155692728Y-69295149D01*
X155717842Y-69168892D01*
X155797632Y-69248682D01*
X155950771Y-69351006D01*
X156120931Y-69421488D01*
X156301571Y-69457420D01*
X156485749Y-69457420D01*
X156666389Y-69421488D01*
X156836549Y-69351006D01*
X156989688Y-69248682D01*
X157119922Y-69118448D01*
X157222246Y-68965309D01*
X157292728Y-68795149D01*
X157328660Y-68614509D01*
X157328660Y-68430331D01*
X157292728Y-68249691D01*
X157222246Y-68079531D01*
X157119922Y-67926392D01*
X156989688Y-67796158D01*
X156836549Y-67693834D01*
X156666389Y-67623352D01*
X156485749Y-67587420D01*
X156301571Y-67587420D01*
X156120931Y-67623352D01*
X155950771Y-67693834D01*
X155797632Y-67796158D01*
X155667398Y-67926392D01*
X155565074Y-68079531D01*
X155494592Y-68249691D01*
X155469478Y-68375948D01*
X155389688Y-68296158D01*
X155236549Y-68193834D01*
X155066389Y-68123352D01*
X154885749Y-68087420D01*
X154701571Y-68087420D01*
X154610556Y-68105524D01*
X154628660Y-68014509D01*
X154628660Y-67830331D01*
X154592728Y-67649691D01*
X154522246Y-67479531D01*
X154419922Y-67326392D01*
X154289688Y-67196158D01*
X154202100Y-67137634D01*
X154301571Y-67157420D01*
X154485749Y-67157420D01*
X154666389Y-67121488D01*
X154836549Y-67051006D01*
X154989688Y-66948682D01*
X155119922Y-66818448D01*
X155222246Y-66665309D01*
X155269571Y-66551055D01*
X155301571Y-66557420D01*
X155485749Y-66557420D01*
X155666389Y-66521488D01*
X155836549Y-66451006D01*
X155989688Y-66348682D01*
X156119922Y-66218448D01*
X156222246Y-66065309D01*
X156292728Y-65895149D01*
X156328660Y-65714509D01*
X156328660Y-65530331D01*
X156292728Y-65349691D01*
X156222246Y-65179531D01*
X156119922Y-65026392D01*
X155989688Y-64896158D01*
X155836549Y-64793834D01*
X155683238Y-64730331D01*
X156958660Y-64730331D01*
X156958660Y-64914509D01*
X156994592Y-65095149D01*
X157065074Y-65265309D01*
X157167398Y-65418448D01*
X157297632Y-65548682D01*
X157450771Y-65651006D01*
X157620931Y-65721488D01*
X157801571Y-65757420D01*
X157985749Y-65757420D01*
X158166389Y-65721488D01*
X158336549Y-65651006D01*
X158489688Y-65548682D01*
X158619922Y-65418448D01*
X158722246Y-65265309D01*
X158792728Y-65095149D01*
X158828660Y-64914509D01*
X158828660Y-64730331D01*
X158827553Y-64724765D01*
X158991721Y-64757420D01*
X159195599Y-64757420D01*
X159395558Y-64717646D01*
X159583916Y-64639625D01*
X159753434Y-64526357D01*
X159897597Y-64382194D01*
X160010865Y-64212676D01*
X160088886Y-64024318D01*
X160128660Y-63824359D01*
X160128660Y-63620481D01*
X160088886Y-63420522D01*
X160010865Y-63232164D01*
X159897597Y-63062646D01*
X159753434Y-62918483D01*
X159583916Y-62805215D01*
X159395558Y-62727194D01*
X159195599Y-62687420D01*
X158991721Y-62687420D01*
X158791762Y-62727194D01*
X158603404Y-62805215D01*
X158433886Y-62918483D01*
X158289723Y-63062646D01*
X158176455Y-63232164D01*
X158098434Y-63420522D01*
X158058660Y-63620481D01*
X158058660Y-63824359D01*
X158074724Y-63905118D01*
X157985749Y-63887420D01*
X157801571Y-63887420D01*
X157620931Y-63923352D01*
X157450771Y-63993834D01*
X157297632Y-64096158D01*
X157167398Y-64226392D01*
X157065074Y-64379531D01*
X156994592Y-64549691D01*
X156958660Y-64730331D01*
X155683238Y-64730331D01*
X155666389Y-64723352D01*
X155485749Y-64687420D01*
X155301571Y-64687420D01*
X155120931Y-64723352D01*
X154950771Y-64793834D01*
X154797632Y-64896158D01*
X154667398Y-65026392D01*
X154565074Y-65179531D01*
X154517749Y-65293785D01*
X154485749Y-65287420D01*
X154301571Y-65287420D01*
X154120931Y-65323352D01*
X153950771Y-65393834D01*
X153797632Y-65496158D01*
X153667398Y-65626392D01*
X153565074Y-65779531D01*
X153494592Y-65949691D01*
X153458660Y-66130331D01*
X153458660Y-66314509D01*
X153494592Y-66495149D01*
X153565074Y-66665309D01*
X153667398Y-66818448D01*
X153797632Y-66948682D01*
X153885220Y-67007206D01*
X153785749Y-66987420D01*
X153601571Y-66987420D01*
X153420931Y-67023352D01*
X153250771Y-67093834D01*
X153097632Y-67196158D01*
X152967398Y-67326392D01*
X152865074Y-67479531D01*
X152794592Y-67649691D01*
X152758660Y-67830331D01*
X146412255Y-67830331D01*
X146394984Y-67743509D01*
X146447236Y-67665309D01*
X146517718Y-67495149D01*
X146553650Y-67314509D01*
X146553650Y-67185344D01*
X146636549Y-67151006D01*
X146789688Y-67048682D01*
X146919922Y-66918448D01*
X147022246Y-66765309D01*
X147092728Y-66595149D01*
X147128660Y-66414509D01*
X147128660Y-66230331D01*
X147092728Y-66049691D01*
X147043288Y-65930331D01*
X147158660Y-65930331D01*
X147158660Y-66114509D01*
X147194592Y-66295149D01*
X147265074Y-66465309D01*
X147367398Y-66618448D01*
X147497632Y-66748682D01*
X147650771Y-66851006D01*
X147820931Y-66921488D01*
X148001571Y-66957420D01*
X148185749Y-66957420D01*
X148366389Y-66921488D01*
X148536549Y-66851006D01*
X148689688Y-66748682D01*
X148819922Y-66618448D01*
X148922246Y-66465309D01*
X148992728Y-66295149D01*
X149028660Y-66114509D01*
X149028660Y-65930331D01*
X148992728Y-65749691D01*
X148922246Y-65579531D01*
X148819922Y-65426392D01*
X148689688Y-65296158D01*
X148536549Y-65193834D01*
X148366389Y-65123352D01*
X148185749Y-65087420D01*
X148001571Y-65087420D01*
X147820931Y-65123352D01*
X147650771Y-65193834D01*
X147497632Y-65296158D01*
X147367398Y-65426392D01*
X147265074Y-65579531D01*
X147194592Y-65749691D01*
X147158660Y-65930331D01*
X147043288Y-65930331D01*
X147022246Y-65879531D01*
X146919922Y-65726392D01*
X146789688Y-65596158D01*
X146636549Y-65493834D01*
X146466389Y-65423352D01*
X146285749Y-65387420D01*
X146101571Y-65387420D01*
X145920931Y-65423352D01*
X145750771Y-65493834D01*
X145597632Y-65596158D01*
X145538938Y-65654852D01*
X145519922Y-65626392D01*
X145389688Y-65496158D01*
X145236549Y-65393834D01*
X145066389Y-65323352D01*
X144885749Y-65287420D01*
X144701571Y-65287420D01*
X144520931Y-65323352D01*
X144434380Y-65359202D01*
X144336549Y-65293834D01*
X144166389Y-65223352D01*
X143985749Y-65187420D01*
X143801571Y-65187420D01*
X143620931Y-65223352D01*
X143450771Y-65293834D01*
X143297632Y-65396158D01*
X143167398Y-65526392D01*
X143065074Y-65679531D01*
X142994592Y-65849691D01*
X142980549Y-65920288D01*
X142922246Y-65779531D01*
X142819922Y-65626392D01*
X142689688Y-65496158D01*
X142536549Y-65393834D01*
X142366389Y-65323352D01*
X142185749Y-65287420D01*
X142075183Y-65287420D01*
X142010865Y-65132144D01*
X141897597Y-64962626D01*
X141753434Y-64818463D01*
X141583916Y-64705195D01*
X141395558Y-64627174D01*
X141195599Y-64587400D01*
X140991721Y-64587400D01*
X140791762Y-64627174D01*
X140603404Y-64705195D01*
X140433886Y-64818463D01*
X140289723Y-64962626D01*
X140176455Y-65132144D01*
X140098434Y-65320502D01*
X140058660Y-65520461D01*
X131210120Y-65520461D01*
X131210120Y-62820481D01*
X132758660Y-62820481D01*
X132758660Y-63024359D01*
X132798434Y-63224318D01*
X132876455Y-63412676D01*
X132989723Y-63582194D01*
X133133886Y-63726357D01*
X133303404Y-63839625D01*
X133491762Y-63917646D01*
X133691721Y-63957420D01*
X133895599Y-63957420D01*
X134095558Y-63917646D01*
X134283916Y-63839625D01*
X134453434Y-63726357D01*
X134597597Y-63582194D01*
X134710865Y-63412676D01*
X134788886Y-63224318D01*
X134828660Y-63024359D01*
X134828660Y-62820481D01*
X134788886Y-62620522D01*
X134710865Y-62432164D01*
X134703059Y-62420481D01*
X137058660Y-62420481D01*
X137058660Y-62624359D01*
X137098434Y-62824318D01*
X137176455Y-63012676D01*
X137289723Y-63182194D01*
X137433886Y-63326357D01*
X137603404Y-63439625D01*
X137791762Y-63517646D01*
X137991721Y-63557420D01*
X138195599Y-63557420D01*
X138395558Y-63517646D01*
X138583916Y-63439625D01*
X138753434Y-63326357D01*
X138897597Y-63182194D01*
X139010865Y-63012676D01*
X139088886Y-62824318D01*
X139128660Y-62624359D01*
X139128660Y-62420481D01*
X139088886Y-62220522D01*
X139010865Y-62032164D01*
X138897597Y-61862646D01*
X138753434Y-61718483D01*
X138583916Y-61605215D01*
X138395558Y-61527194D01*
X138195599Y-61487420D01*
X137991721Y-61487420D01*
X137791762Y-61527194D01*
X137603404Y-61605215D01*
X137433886Y-61718483D01*
X137289723Y-61862646D01*
X137176455Y-62032164D01*
X137098434Y-62220522D01*
X137058660Y-62420481D01*
X134703059Y-62420481D01*
X134597597Y-62262646D01*
X134453434Y-62118483D01*
X134283916Y-62005215D01*
X134095558Y-61927194D01*
X133895599Y-61887420D01*
X133691721Y-61887420D01*
X133491762Y-61927194D01*
X133303404Y-62005215D01*
X133133886Y-62118483D01*
X132989723Y-62262646D01*
X132876455Y-62432164D01*
X132798434Y-62620522D01*
X132758660Y-62820481D01*
X131210120Y-62820481D01*
X131210120Y-59620481D01*
X139158660Y-59620481D01*
X139158660Y-59824359D01*
X139198434Y-60024318D01*
X139276455Y-60212676D01*
X139389723Y-60382194D01*
X139533886Y-60526357D01*
X139703404Y-60639625D01*
X139891762Y-60717646D01*
X140091721Y-60757420D01*
X140295599Y-60757420D01*
X140495558Y-60717646D01*
X140683916Y-60639625D01*
X140712567Y-60620481D01*
X151158660Y-60620481D01*
X151158660Y-60824359D01*
X151198434Y-61024318D01*
X151276455Y-61212676D01*
X151389723Y-61382194D01*
X151533886Y-61526357D01*
X151703404Y-61639625D01*
X151891762Y-61717646D01*
X152091721Y-61757420D01*
X152295599Y-61757420D01*
X152495558Y-61717646D01*
X152683916Y-61639625D01*
X152853434Y-61526357D01*
X152997597Y-61382194D01*
X153110865Y-61212676D01*
X153188886Y-61024318D01*
X153228660Y-60824359D01*
X153228660Y-60620481D01*
X153188886Y-60420522D01*
X153110865Y-60232164D01*
X152997597Y-60062646D01*
X152853434Y-59918483D01*
X152683916Y-59805215D01*
X152495558Y-59727194D01*
X152295599Y-59687420D01*
X152091721Y-59687420D01*
X151891762Y-59727194D01*
X151703404Y-59805215D01*
X151533886Y-59918483D01*
X151389723Y-60062646D01*
X151276455Y-60232164D01*
X151198434Y-60420522D01*
X151158660Y-60620481D01*
X140712567Y-60620481D01*
X140853434Y-60526357D01*
X140997597Y-60382194D01*
X141110865Y-60212676D01*
X141188886Y-60024318D01*
X141228660Y-59824359D01*
X141228660Y-59620481D01*
X141188886Y-59420522D01*
X141110865Y-59232164D01*
X140997597Y-59062646D01*
X140853434Y-58918483D01*
X140683916Y-58805215D01*
X140495558Y-58727194D01*
X140295599Y-58687420D01*
X140091721Y-58687420D01*
X139891762Y-58727194D01*
X139703404Y-58805215D01*
X139533886Y-58918483D01*
X139389723Y-59062646D01*
X139276455Y-59232164D01*
X139198434Y-59420522D01*
X139158660Y-59620481D01*
X131210120Y-59620481D01*
X131210120Y-57628811D01*
X142673039Y-57628811D01*
X142770363Y-57903172D01*
X142919342Y-58153275D01*
X143114251Y-58369508D01*
X143347600Y-58543561D01*
X143610421Y-58668745D01*
X143757630Y-58713396D01*
X143987520Y-58592075D01*
X143987520Y-57398920D01*
X142793706Y-57398920D01*
X142673039Y-57628811D01*
X131210120Y-57628811D01*
X131210120Y-56915029D01*
X142673039Y-56915029D01*
X142793706Y-57144920D01*
X143987520Y-57144920D01*
X143987520Y-55951765D01*
X144241520Y-55951765D01*
X144241520Y-57144920D01*
X144261520Y-57144920D01*
X144261520Y-57398920D01*
X144241520Y-57398920D01*
X144241520Y-58592075D01*
X144471410Y-58713396D01*
X144618619Y-58668745D01*
X144881440Y-58543561D01*
X145114789Y-58369508D01*
X145309698Y-58153275D01*
X145379319Y-58036397D01*
X145413814Y-58100934D01*
X145599386Y-58327054D01*
X145825506Y-58512626D01*
X146083486Y-58650519D01*
X146363409Y-58735433D01*
X146581570Y-58756920D01*
X146727470Y-58756920D01*
X146945631Y-58735433D01*
X147225554Y-58650519D01*
X147483534Y-58512626D01*
X147709654Y-58327054D01*
X147734127Y-58297233D01*
X147755018Y-58366100D01*
X147813983Y-58476414D01*
X147893335Y-58573105D01*
X147990026Y-58652457D01*
X148100340Y-58711422D01*
X148220038Y-58747732D01*
X148344520Y-58759992D01*
X150044520Y-58759992D01*
X150169002Y-58747732D01*
X150288700Y-58711422D01*
X150399014Y-58652457D01*
X150495705Y-58573105D01*
X150575057Y-58476414D01*
X150634022Y-58366100D01*
X150670332Y-58246402D01*
X150682592Y-58121920D01*
X150682592Y-56421920D01*
X150670332Y-56297438D01*
X150634022Y-56177740D01*
X150575057Y-56067426D01*
X150495705Y-55970735D01*
X150399014Y-55891383D01*
X150288700Y-55832418D01*
X150169002Y-55796108D01*
X150044520Y-55783848D01*
X148344520Y-55783848D01*
X148220038Y-55796108D01*
X148100340Y-55832418D01*
X147990026Y-55891383D01*
X147893335Y-55970735D01*
X147813983Y-56067426D01*
X147755018Y-56177740D01*
X147734127Y-56246607D01*
X147709654Y-56216786D01*
X147483534Y-56031214D01*
X147225554Y-55893321D01*
X146945631Y-55808407D01*
X146727470Y-55786920D01*
X146581570Y-55786920D01*
X146363409Y-55808407D01*
X146083486Y-55893321D01*
X145825506Y-56031214D01*
X145599386Y-56216786D01*
X145413814Y-56442906D01*
X145379319Y-56507443D01*
X145309698Y-56390565D01*
X145114789Y-56174332D01*
X144881440Y-56000279D01*
X144618619Y-55875095D01*
X144471410Y-55830444D01*
X144241520Y-55951765D01*
X143987520Y-55951765D01*
X143757630Y-55830444D01*
X143610421Y-55875095D01*
X143347600Y-56000279D01*
X143114251Y-56174332D01*
X142919342Y-56390565D01*
X142770363Y-56640668D01*
X142673039Y-56915029D01*
X131210120Y-56915029D01*
X131210120Y-55640626D01*
X161804223Y-55640053D01*
X161803434Y-65421043D01*
M02*
