G04 #@! TF.GenerationSoftware,KiCad,Pcbnew,5.1.4-e60b266~84~ubuntu19.04.1*
G04 #@! TF.CreationDate,2019-10-11T10:06:12-05:00*
G04 #@! TF.ProjectId,led-controller,6c65642d-636f-46e7-9472-6f6c6c65722e,rev?*
G04 #@! TF.SameCoordinates,Original*
G04 #@! TF.FileFunction,Copper,L2,Inr*
G04 #@! TF.FilePolarity,Positive*
%FSLAX46Y46*%
G04 Gerber Fmt 4.6, Leading zero omitted, Abs format (unit mm)*
G04 Created by KiCad (PCBNEW 5.1.4-e60b266~84~ubuntu19.04.1) date 2019-10-11 10:06:12*
%MOMM*%
%LPD*%
G04 APERTURE LIST*
%ADD10C,1.200000*%
%ADD11C,1.200000*%
%ADD12C,1.624000*%
%ADD13R,2.000000X2.000000*%
%ADD14C,2.000000*%
%ADD15R,3.200000X2.000000*%
%ADD16O,1.000000X1.000000*%
%ADD17R,1.000000X1.000000*%
%ADD18O,1.700000X1.700000*%
%ADD19R,1.700000X1.700000*%
%ADD20C,3.500000*%
%ADD21C,1.000000*%
%ADD22C,0.600000*%
%ADD23C,0.800000*%
%ADD24C,0.254000*%
G04 APERTURE END LIST*
D10*
X148540130Y-60115988D03*
D11*
X148540130Y-60115988D02*
X148540130Y-60115988D01*
D10*
X148540130Y-63708091D03*
D11*
X148540130Y-63708091D02*
X148540130Y-63708091D01*
D10*
X144948028Y-63708091D03*
D11*
X144806607Y-63849512D02*
X145089449Y-63566670D01*
D12*
X156660000Y-62120000D03*
D13*
X139007960Y-101973220D03*
D14*
X139007960Y-104473220D03*
X139007960Y-106973220D03*
D15*
X146507960Y-98873220D03*
X146507960Y-110073220D03*
D14*
X153507960Y-101973220D03*
X153507960Y-106973220D03*
D16*
X143330000Y-68650000D03*
D17*
X144600000Y-68650000D03*
D18*
X149008660Y-115007420D03*
X146468660Y-115007420D03*
D19*
X143928660Y-115007420D03*
D20*
X132510000Y-115930000D03*
X160530000Y-115930000D03*
X160530000Y-56920000D03*
X132510000Y-56920000D03*
D10*
X139220000Y-90050000D03*
D21*
X134180000Y-111930000D03*
X134050000Y-106950000D03*
X134070000Y-100670000D03*
D22*
X158510000Y-64780000D03*
X145200000Y-77430000D03*
D23*
X147950000Y-80990000D03*
X150430000Y-83830000D03*
X147920000Y-86360000D03*
X139310000Y-75780000D03*
X139790000Y-82990000D03*
D22*
X147400000Y-69400000D03*
X139000000Y-62200000D03*
X136300000Y-60500000D03*
D23*
X132900000Y-66500000D03*
X148600000Y-102600000D03*
X143200000Y-110200000D03*
X155800000Y-98200000D03*
X155700000Y-103500000D03*
X157800000Y-92700000D03*
X159100000Y-114100000D03*
D22*
X143102788Y-72174996D03*
D10*
X138842698Y-94560469D03*
D23*
X151000000Y-113200000D03*
X150897468Y-72025010D03*
D22*
X158361450Y-89644990D03*
X159563660Y-80463660D03*
X154200000Y-76100000D03*
X146013660Y-83813660D03*
X160974990Y-85650355D03*
X145425010Y-88300000D03*
X137160000Y-115810000D03*
X137400000Y-112620000D03*
X143210000Y-111970000D03*
D21*
X144298660Y-104917420D03*
X144070000Y-108600000D03*
X140740000Y-90130000D03*
X144040000Y-96970000D03*
X136130000Y-67880000D03*
X133000000Y-64780000D03*
X132970000Y-62110000D03*
D22*
X154800000Y-64760000D03*
X149700000Y-71100000D03*
D23*
X144300000Y-101400000D03*
X148200000Y-105900000D03*
D22*
X144893406Y-72193406D03*
D21*
X136494438Y-94483098D03*
D23*
X150382366Y-76675010D03*
D22*
X141200000Y-99600000D03*
D21*
X140531985Y-93571985D03*
D22*
X142900000Y-76400000D03*
X143824990Y-75787232D03*
X144072246Y-81218639D03*
X143900000Y-77000000D03*
X145400000Y-76000000D03*
X146700000Y-75600000D03*
X156000000Y-94400000D03*
X148400000Y-97400000D03*
X149100000Y-79100000D03*
X148800000Y-72200000D03*
D23*
X156800000Y-111600000D03*
X154600000Y-111100000D03*
X152751090Y-110948910D03*
X156900000Y-110100000D03*
X142600000Y-93800000D03*
D22*
X137500000Y-64100000D03*
X147900000Y-72500000D03*
X148252313Y-75719534D03*
X151545159Y-79075010D03*
X145000000Y-79100000D03*
X158550000Y-73036812D03*
X135400000Y-64100000D03*
X146403501Y-72316688D03*
X152315002Y-77100000D03*
X140670000Y-72100000D03*
X140900000Y-75700000D03*
X152580000Y-86875000D03*
X153100000Y-94500000D03*
X154400000Y-93800000D03*
X154000000Y-84000000D03*
X136394991Y-98626343D03*
X152824968Y-88224978D03*
X155500000Y-89000000D03*
X151300000Y-88900000D03*
X155235448Y-93652911D03*
X137000000Y-97800000D03*
X137700000Y-109100000D03*
X137300000Y-105200000D03*
X143400000Y-82700000D03*
X156650000Y-66570000D03*
X154780000Y-63570000D03*
X154200000Y-63030000D03*
D24*
G36*
X161800000Y-117220000D02*
G01*
X131219840Y-117220000D01*
X131219503Y-115717911D01*
X136225000Y-115717911D01*
X136225000Y-115902089D01*
X136260932Y-116082729D01*
X136331414Y-116252889D01*
X136433738Y-116406028D01*
X136563972Y-116536262D01*
X136717111Y-116638586D01*
X136887271Y-116709068D01*
X137067911Y-116745000D01*
X137252089Y-116745000D01*
X137432729Y-116709068D01*
X137602889Y-116638586D01*
X137756028Y-116536262D01*
X137886262Y-116406028D01*
X137988586Y-116252889D01*
X138059068Y-116082729D01*
X138095000Y-115902089D01*
X138095000Y-115857420D01*
X142440588Y-115857420D01*
X142452848Y-115981902D01*
X142489158Y-116101600D01*
X142548123Y-116211914D01*
X142627475Y-116308605D01*
X142724166Y-116387957D01*
X142834480Y-116446922D01*
X142954178Y-116483232D01*
X143078660Y-116495492D01*
X143642910Y-116492420D01*
X143801660Y-116333670D01*
X143801660Y-115134420D01*
X142602410Y-115134420D01*
X142443660Y-115293170D01*
X142440588Y-115857420D01*
X138095000Y-115857420D01*
X138095000Y-115717911D01*
X138059068Y-115537271D01*
X137988586Y-115367111D01*
X137886262Y-115213972D01*
X137756028Y-115083738D01*
X137602889Y-114981414D01*
X137432729Y-114910932D01*
X137252089Y-114875000D01*
X137067911Y-114875000D01*
X136887271Y-114910932D01*
X136717111Y-114981414D01*
X136563972Y-115083738D01*
X136433738Y-115213972D01*
X136331414Y-115367111D01*
X136260932Y-115537271D01*
X136225000Y-115717911D01*
X131219503Y-115717911D01*
X131219153Y-114157420D01*
X142440588Y-114157420D01*
X142443660Y-114721670D01*
X142602410Y-114880420D01*
X143801660Y-114880420D01*
X143801660Y-113681170D01*
X144055660Y-113681170D01*
X144055660Y-114880420D01*
X144075660Y-114880420D01*
X144075660Y-115134420D01*
X144055660Y-115134420D01*
X144055660Y-116333670D01*
X144214410Y-116492420D01*
X144778660Y-116495492D01*
X144903142Y-116483232D01*
X145022840Y-116446922D01*
X145133154Y-116387957D01*
X145229845Y-116308605D01*
X145309197Y-116211914D01*
X145368162Y-116101600D01*
X145389053Y-116032733D01*
X145413526Y-116062554D01*
X145639646Y-116248126D01*
X145897626Y-116386019D01*
X146177549Y-116470933D01*
X146395710Y-116492420D01*
X146541610Y-116492420D01*
X146759771Y-116470933D01*
X147039694Y-116386019D01*
X147297674Y-116248126D01*
X147523794Y-116062554D01*
X147709366Y-115836434D01*
X147738660Y-115781629D01*
X147767954Y-115836434D01*
X147953526Y-116062554D01*
X148179646Y-116248126D01*
X148437626Y-116386019D01*
X148717549Y-116470933D01*
X148935710Y-116492420D01*
X149081610Y-116492420D01*
X149299771Y-116470933D01*
X149579694Y-116386019D01*
X149837674Y-116248126D01*
X150063794Y-116062554D01*
X150249366Y-115836434D01*
X150387259Y-115578454D01*
X150472173Y-115298531D01*
X150500845Y-115007420D01*
X150472173Y-114716309D01*
X150387259Y-114436386D01*
X150249366Y-114178406D01*
X150063794Y-113952286D01*
X149837674Y-113766714D01*
X149579694Y-113628821D01*
X149299771Y-113543907D01*
X149081610Y-113522420D01*
X148935710Y-113522420D01*
X148717549Y-113543907D01*
X148437626Y-113628821D01*
X148179646Y-113766714D01*
X147953526Y-113952286D01*
X147767954Y-114178406D01*
X147738660Y-114233211D01*
X147709366Y-114178406D01*
X147523794Y-113952286D01*
X147297674Y-113766714D01*
X147039694Y-113628821D01*
X146759771Y-113543907D01*
X146541610Y-113522420D01*
X146395710Y-113522420D01*
X146177549Y-113543907D01*
X145897626Y-113628821D01*
X145639646Y-113766714D01*
X145413526Y-113952286D01*
X145389053Y-113982107D01*
X145368162Y-113913240D01*
X145309197Y-113802926D01*
X145229845Y-113706235D01*
X145133154Y-113626883D01*
X145022840Y-113567918D01*
X144903142Y-113531608D01*
X144778660Y-113519348D01*
X144214410Y-113522420D01*
X144055660Y-113681170D01*
X143801660Y-113681170D01*
X143642910Y-113522420D01*
X143078660Y-113519348D01*
X142954178Y-113531608D01*
X142834480Y-113567918D01*
X142724166Y-113626883D01*
X142627475Y-113706235D01*
X142548123Y-113802926D01*
X142489158Y-113913240D01*
X142452848Y-114032938D01*
X142440588Y-114157420D01*
X131219153Y-114157420D01*
X131218787Y-112527911D01*
X136465000Y-112527911D01*
X136465000Y-112712089D01*
X136500932Y-112892729D01*
X136571414Y-113062889D01*
X136673738Y-113216028D01*
X136803972Y-113346262D01*
X136957111Y-113448586D01*
X137127271Y-113519068D01*
X137307911Y-113555000D01*
X137492089Y-113555000D01*
X137672729Y-113519068D01*
X137842889Y-113448586D01*
X137996028Y-113346262D01*
X138126262Y-113216028D01*
X138228586Y-113062889D01*
X138299068Y-112892729D01*
X138335000Y-112712089D01*
X138335000Y-112527911D01*
X138299068Y-112347271D01*
X138228586Y-112177111D01*
X138126262Y-112023972D01*
X137996028Y-111893738D01*
X137972342Y-111877911D01*
X142275000Y-111877911D01*
X142275000Y-112062089D01*
X142310932Y-112242729D01*
X142381414Y-112412889D01*
X142483738Y-112566028D01*
X142613972Y-112696262D01*
X142767111Y-112798586D01*
X142937271Y-112869068D01*
X143117911Y-112905000D01*
X143302089Y-112905000D01*
X143482729Y-112869068D01*
X143652889Y-112798586D01*
X143806028Y-112696262D01*
X143936262Y-112566028D01*
X144038586Y-112412889D01*
X144109068Y-112242729D01*
X144145000Y-112062089D01*
X144145000Y-111877911D01*
X144109068Y-111697271D01*
X144038586Y-111527111D01*
X143936262Y-111373972D01*
X143806028Y-111243738D01*
X143652889Y-111141414D01*
X143482729Y-111070932D01*
X143302089Y-111035000D01*
X143117911Y-111035000D01*
X142937271Y-111070932D01*
X142767111Y-111141414D01*
X142613972Y-111243738D01*
X142483738Y-111373972D01*
X142381414Y-111527111D01*
X142310932Y-111697271D01*
X142275000Y-111877911D01*
X137972342Y-111877911D01*
X137842889Y-111791414D01*
X137672729Y-111720932D01*
X137492089Y-111685000D01*
X137307911Y-111685000D01*
X137127271Y-111720932D01*
X136957111Y-111791414D01*
X136803972Y-111893738D01*
X136673738Y-112023972D01*
X136571414Y-112177111D01*
X136500932Y-112347271D01*
X136465000Y-112527911D01*
X131218787Y-112527911D01*
X131217119Y-105107911D01*
X136365000Y-105107911D01*
X136365000Y-105292089D01*
X136400932Y-105472729D01*
X136471414Y-105642889D01*
X136573738Y-105796028D01*
X136703972Y-105926262D01*
X136857111Y-106028586D01*
X137027271Y-106099068D01*
X137207911Y-106135000D01*
X137392089Y-106135000D01*
X137572729Y-106099068D01*
X137645905Y-106068758D01*
X137559042Y-106198757D01*
X137435792Y-106496308D01*
X137372960Y-106812187D01*
X137372960Y-107134253D01*
X137435792Y-107450132D01*
X137559042Y-107747683D01*
X137737973Y-108015472D01*
X137911192Y-108188691D01*
X137792089Y-108165000D01*
X137607911Y-108165000D01*
X137427271Y-108200932D01*
X137257111Y-108271414D01*
X137103972Y-108373738D01*
X136973738Y-108503972D01*
X136871414Y-108657111D01*
X136800932Y-108827271D01*
X136765000Y-109007911D01*
X136765000Y-109192089D01*
X136800932Y-109372729D01*
X136871414Y-109542889D01*
X136973738Y-109696028D01*
X137103972Y-109826262D01*
X137257111Y-109928586D01*
X137427271Y-109999068D01*
X137607911Y-110035000D01*
X137792089Y-110035000D01*
X137972729Y-109999068D01*
X138142889Y-109928586D01*
X138296028Y-109826262D01*
X138426262Y-109696028D01*
X138528586Y-109542889D01*
X138599068Y-109372729D01*
X138635000Y-109192089D01*
X138635000Y-109007911D01*
X138599068Y-108827271D01*
X138528586Y-108657111D01*
X138426262Y-108503972D01*
X138422868Y-108500578D01*
X138531048Y-108545388D01*
X138846927Y-108608220D01*
X139168993Y-108608220D01*
X139484872Y-108545388D01*
X139622906Y-108488212D01*
X142935000Y-108488212D01*
X142935000Y-108711788D01*
X142978617Y-108931067D01*
X143064176Y-109137624D01*
X143188388Y-109323520D01*
X143346480Y-109481612D01*
X143532376Y-109605824D01*
X143738933Y-109691383D01*
X143958212Y-109735000D01*
X144181788Y-109735000D01*
X144269888Y-109717476D01*
X144269888Y-111073220D01*
X144282148Y-111197702D01*
X144318458Y-111317400D01*
X144377423Y-111427714D01*
X144456775Y-111524405D01*
X144553466Y-111603757D01*
X144663780Y-111662722D01*
X144783478Y-111699032D01*
X144907960Y-111711292D01*
X148107960Y-111711292D01*
X148232442Y-111699032D01*
X148352140Y-111662722D01*
X148462454Y-111603757D01*
X148559145Y-111524405D01*
X148638497Y-111427714D01*
X148697462Y-111317400D01*
X148733772Y-111197702D01*
X148746032Y-111073220D01*
X148746032Y-110846971D01*
X151716090Y-110846971D01*
X151716090Y-111050849D01*
X151755864Y-111250808D01*
X151833885Y-111439166D01*
X151947153Y-111608684D01*
X152091316Y-111752847D01*
X152260834Y-111866115D01*
X152449192Y-111944136D01*
X152649151Y-111983910D01*
X152853029Y-111983910D01*
X153052988Y-111944136D01*
X153241346Y-111866115D01*
X153410864Y-111752847D01*
X153555027Y-111608684D01*
X153638612Y-111483590D01*
X153682795Y-111590256D01*
X153796063Y-111759774D01*
X153940226Y-111903937D01*
X154109744Y-112017205D01*
X154298102Y-112095226D01*
X154498061Y-112135000D01*
X154701939Y-112135000D01*
X154901898Y-112095226D01*
X155090256Y-112017205D01*
X155259774Y-111903937D01*
X155403937Y-111759774D01*
X155517205Y-111590256D01*
X155555393Y-111498061D01*
X155765000Y-111498061D01*
X155765000Y-111701939D01*
X155804774Y-111901898D01*
X155882795Y-112090256D01*
X155996063Y-112259774D01*
X156140226Y-112403937D01*
X156309744Y-112517205D01*
X156498102Y-112595226D01*
X156698061Y-112635000D01*
X156901939Y-112635000D01*
X157101898Y-112595226D01*
X157290256Y-112517205D01*
X157459774Y-112403937D01*
X157603937Y-112259774D01*
X157717205Y-112090256D01*
X157795226Y-111901898D01*
X157835000Y-111701939D01*
X157835000Y-111498061D01*
X157795226Y-111298102D01*
X157717205Y-111109744D01*
X157603937Y-110940226D01*
X157563711Y-110900000D01*
X157703937Y-110759774D01*
X157817205Y-110590256D01*
X157895226Y-110401898D01*
X157935000Y-110201939D01*
X157935000Y-109998061D01*
X157895226Y-109798102D01*
X157817205Y-109609744D01*
X157703937Y-109440226D01*
X157559774Y-109296063D01*
X157390256Y-109182795D01*
X157201898Y-109104774D01*
X157001939Y-109065000D01*
X156798061Y-109065000D01*
X156598102Y-109104774D01*
X156409744Y-109182795D01*
X156240226Y-109296063D01*
X156096063Y-109440226D01*
X155982795Y-109609744D01*
X155904774Y-109798102D01*
X155865000Y-109998061D01*
X155865000Y-110201939D01*
X155904774Y-110401898D01*
X155982795Y-110590256D01*
X156096063Y-110759774D01*
X156136289Y-110800000D01*
X155996063Y-110940226D01*
X155882795Y-111109744D01*
X155804774Y-111298102D01*
X155765000Y-111498061D01*
X155555393Y-111498061D01*
X155595226Y-111401898D01*
X155635000Y-111201939D01*
X155635000Y-110998061D01*
X155595226Y-110798102D01*
X155517205Y-110609744D01*
X155403937Y-110440226D01*
X155259774Y-110296063D01*
X155090256Y-110182795D01*
X154901898Y-110104774D01*
X154701939Y-110065000D01*
X154498061Y-110065000D01*
X154298102Y-110104774D01*
X154109744Y-110182795D01*
X153940226Y-110296063D01*
X153796063Y-110440226D01*
X153712478Y-110565320D01*
X153668295Y-110458654D01*
X153555027Y-110289136D01*
X153410864Y-110144973D01*
X153241346Y-110031705D01*
X153052988Y-109953684D01*
X152853029Y-109913910D01*
X152649151Y-109913910D01*
X152449192Y-109953684D01*
X152260834Y-110031705D01*
X152091316Y-110144973D01*
X151947153Y-110289136D01*
X151833885Y-110458654D01*
X151755864Y-110647012D01*
X151716090Y-110846971D01*
X148746032Y-110846971D01*
X148746032Y-109073220D01*
X148733772Y-108948738D01*
X148697462Y-108829040D01*
X148638497Y-108718726D01*
X148559145Y-108622035D01*
X148462454Y-108542683D01*
X148352140Y-108483718D01*
X148232442Y-108447408D01*
X148107960Y-108435148D01*
X145194445Y-108435148D01*
X145161383Y-108268933D01*
X145075824Y-108062376D01*
X144951612Y-107876480D01*
X144793520Y-107718388D01*
X144607624Y-107594176D01*
X144401067Y-107508617D01*
X144181788Y-107465000D01*
X143958212Y-107465000D01*
X143738933Y-107508617D01*
X143532376Y-107594176D01*
X143346480Y-107718388D01*
X143188388Y-107876480D01*
X143064176Y-108062376D01*
X142978617Y-108268933D01*
X142935000Y-108488212D01*
X139622906Y-108488212D01*
X139782423Y-108422138D01*
X140050212Y-108243207D01*
X140277947Y-108015472D01*
X140456878Y-107747683D01*
X140580128Y-107450132D01*
X140642960Y-107134253D01*
X140642960Y-106812187D01*
X140580128Y-106496308D01*
X140456878Y-106198757D01*
X140277947Y-105930968D01*
X140050212Y-105703233D01*
X139953025Y-105638295D01*
X139963768Y-105608633D01*
X139007960Y-104652825D01*
X138993818Y-104666968D01*
X138814213Y-104487363D01*
X138828355Y-104473220D01*
X138814213Y-104459078D01*
X138993818Y-104279473D01*
X139007960Y-104293615D01*
X139022103Y-104279473D01*
X139201708Y-104459078D01*
X139187565Y-104473220D01*
X140143373Y-105429028D01*
X140407774Y-105333264D01*
X140548664Y-105043649D01*
X140611068Y-104805632D01*
X143163660Y-104805632D01*
X143163660Y-105029208D01*
X143207277Y-105248487D01*
X143292836Y-105455044D01*
X143417048Y-105640940D01*
X143575140Y-105799032D01*
X143761036Y-105923244D01*
X143967593Y-106008803D01*
X144186872Y-106052420D01*
X144410448Y-106052420D01*
X144629727Y-106008803D01*
X144836284Y-105923244D01*
X145022180Y-105799032D01*
X145023151Y-105798061D01*
X147165000Y-105798061D01*
X147165000Y-106001939D01*
X147204774Y-106201898D01*
X147282795Y-106390256D01*
X147396063Y-106559774D01*
X147540226Y-106703937D01*
X147709744Y-106817205D01*
X147898102Y-106895226D01*
X148098061Y-106935000D01*
X148301939Y-106935000D01*
X148501898Y-106895226D01*
X148690256Y-106817205D01*
X148697765Y-106812187D01*
X151872960Y-106812187D01*
X151872960Y-107134253D01*
X151935792Y-107450132D01*
X152059042Y-107747683D01*
X152237973Y-108015472D01*
X152465708Y-108243207D01*
X152733497Y-108422138D01*
X153031048Y-108545388D01*
X153346927Y-108608220D01*
X153668993Y-108608220D01*
X153984872Y-108545388D01*
X154282423Y-108422138D01*
X154550212Y-108243207D01*
X154777947Y-108015472D01*
X154956878Y-107747683D01*
X155080128Y-107450132D01*
X155142960Y-107134253D01*
X155142960Y-106812187D01*
X155080128Y-106496308D01*
X154956878Y-106198757D01*
X154777947Y-105930968D01*
X154550212Y-105703233D01*
X154282423Y-105524302D01*
X153984872Y-105401052D01*
X153668993Y-105338220D01*
X153346927Y-105338220D01*
X153031048Y-105401052D01*
X152733497Y-105524302D01*
X152465708Y-105703233D01*
X152237973Y-105930968D01*
X152059042Y-106198757D01*
X151935792Y-106496308D01*
X151872960Y-106812187D01*
X148697765Y-106812187D01*
X148859774Y-106703937D01*
X149003937Y-106559774D01*
X149117205Y-106390256D01*
X149195226Y-106201898D01*
X149235000Y-106001939D01*
X149235000Y-105798061D01*
X149195226Y-105598102D01*
X149117205Y-105409744D01*
X149003937Y-105240226D01*
X148859774Y-105096063D01*
X148690256Y-104982795D01*
X148501898Y-104904774D01*
X148301939Y-104865000D01*
X148098061Y-104865000D01*
X147898102Y-104904774D01*
X147709744Y-104982795D01*
X147540226Y-105096063D01*
X147396063Y-105240226D01*
X147282795Y-105409744D01*
X147204774Y-105598102D01*
X147165000Y-105798061D01*
X145023151Y-105798061D01*
X145180272Y-105640940D01*
X145304484Y-105455044D01*
X145390043Y-105248487D01*
X145433660Y-105029208D01*
X145433660Y-104805632D01*
X145390043Y-104586353D01*
X145304484Y-104379796D01*
X145180272Y-104193900D01*
X145022180Y-104035808D01*
X144836284Y-103911596D01*
X144629727Y-103826037D01*
X144410448Y-103782420D01*
X144186872Y-103782420D01*
X143967593Y-103826037D01*
X143761036Y-103911596D01*
X143575140Y-104035808D01*
X143417048Y-104193900D01*
X143292836Y-104379796D01*
X143207277Y-104586353D01*
X143163660Y-104805632D01*
X140611068Y-104805632D01*
X140630344Y-104732112D01*
X140649678Y-104410625D01*
X140605921Y-104091545D01*
X140500755Y-103787132D01*
X140407774Y-103613176D01*
X140258737Y-103559196D01*
X140362454Y-103503757D01*
X140459145Y-103424405D01*
X140538497Y-103327714D01*
X140597462Y-103217400D01*
X140630456Y-103108633D01*
X152552152Y-103108633D01*
X152647916Y-103373034D01*
X152937531Y-103513924D01*
X153249068Y-103595604D01*
X153570555Y-103614938D01*
X153889635Y-103571181D01*
X154194048Y-103466015D01*
X154368004Y-103373034D01*
X154463768Y-103108633D01*
X153507960Y-102152825D01*
X152552152Y-103108633D01*
X140630456Y-103108633D01*
X140633772Y-103097702D01*
X140646032Y-102973220D01*
X140646032Y-100973220D01*
X140633772Y-100848738D01*
X140597462Y-100729040D01*
X140538497Y-100618726D01*
X140459145Y-100522035D01*
X140362454Y-100442683D01*
X140252140Y-100383718D01*
X140132442Y-100347408D01*
X140007960Y-100335148D01*
X138007960Y-100335148D01*
X137883478Y-100347408D01*
X137763780Y-100383718D01*
X137653466Y-100442683D01*
X137556775Y-100522035D01*
X137477423Y-100618726D01*
X137418458Y-100729040D01*
X137382148Y-100848738D01*
X137369888Y-100973220D01*
X137369888Y-102973220D01*
X137382148Y-103097702D01*
X137418458Y-103217400D01*
X137477423Y-103327714D01*
X137556775Y-103424405D01*
X137653466Y-103503757D01*
X137757183Y-103559196D01*
X137608146Y-103613176D01*
X137467256Y-103902791D01*
X137385576Y-104214328D01*
X137382529Y-104265000D01*
X137207911Y-104265000D01*
X137027271Y-104300932D01*
X136857111Y-104371414D01*
X136703972Y-104473738D01*
X136573738Y-104603972D01*
X136471414Y-104757111D01*
X136400932Y-104927271D01*
X136365000Y-105107911D01*
X131217119Y-105107911D01*
X131215641Y-98534254D01*
X135459991Y-98534254D01*
X135459991Y-98718432D01*
X135495923Y-98899072D01*
X135566405Y-99069232D01*
X135668729Y-99222371D01*
X135798963Y-99352605D01*
X135952102Y-99454929D01*
X136122262Y-99525411D01*
X136302902Y-99561343D01*
X136487080Y-99561343D01*
X136667720Y-99525411D01*
X136709969Y-99507911D01*
X140265000Y-99507911D01*
X140265000Y-99692089D01*
X140300932Y-99872729D01*
X140371414Y-100042889D01*
X140473738Y-100196028D01*
X140603972Y-100326262D01*
X140757111Y-100428586D01*
X140927271Y-100499068D01*
X141107911Y-100535000D01*
X141292089Y-100535000D01*
X141472729Y-100499068D01*
X141642889Y-100428586D01*
X141796028Y-100326262D01*
X141926262Y-100196028D01*
X142028586Y-100042889D01*
X142099068Y-99872729D01*
X142135000Y-99692089D01*
X142135000Y-99507911D01*
X142099068Y-99327271D01*
X142028586Y-99157111D01*
X141926262Y-99003972D01*
X141796028Y-98873738D01*
X141642889Y-98771414D01*
X141472729Y-98700932D01*
X141292089Y-98665000D01*
X141107911Y-98665000D01*
X140927271Y-98700932D01*
X140757111Y-98771414D01*
X140603972Y-98873738D01*
X140473738Y-99003972D01*
X140371414Y-99157111D01*
X140300932Y-99327271D01*
X140265000Y-99507911D01*
X136709969Y-99507911D01*
X136837880Y-99454929D01*
X136991019Y-99352605D01*
X137121253Y-99222371D01*
X137223577Y-99069232D01*
X137294059Y-98899072D01*
X137329991Y-98718432D01*
X137329991Y-98675349D01*
X137442889Y-98628586D01*
X137596028Y-98526262D01*
X137726262Y-98396028D01*
X137828586Y-98242889D01*
X137899068Y-98072729D01*
X137935000Y-97892089D01*
X137935000Y-97707911D01*
X137899068Y-97527271D01*
X137828586Y-97357111D01*
X137726262Y-97203972D01*
X137596028Y-97073738D01*
X137442889Y-96971414D01*
X137272729Y-96900932D01*
X137092089Y-96865000D01*
X136907911Y-96865000D01*
X136727271Y-96900932D01*
X136557111Y-96971414D01*
X136403972Y-97073738D01*
X136273738Y-97203972D01*
X136171414Y-97357111D01*
X136100932Y-97527271D01*
X136065000Y-97707911D01*
X136065000Y-97750994D01*
X135952102Y-97797757D01*
X135798963Y-97900081D01*
X135668729Y-98030315D01*
X135566405Y-98183454D01*
X135495923Y-98353614D01*
X135459991Y-98534254D01*
X131215641Y-98534254D01*
X131215264Y-96858212D01*
X142905000Y-96858212D01*
X142905000Y-97081788D01*
X142948617Y-97301067D01*
X143034176Y-97507624D01*
X143158388Y-97693520D01*
X143316480Y-97851612D01*
X143502376Y-97975824D01*
X143708933Y-98061383D01*
X143928212Y-98105000D01*
X144151788Y-98105000D01*
X144269888Y-98081509D01*
X144269888Y-99873220D01*
X144282148Y-99997702D01*
X144318458Y-100117400D01*
X144377423Y-100227714D01*
X144456775Y-100324405D01*
X144539608Y-100392384D01*
X144401939Y-100365000D01*
X144198061Y-100365000D01*
X143998102Y-100404774D01*
X143809744Y-100482795D01*
X143640226Y-100596063D01*
X143496063Y-100740226D01*
X143382795Y-100909744D01*
X143304774Y-101098102D01*
X143265000Y-101298061D01*
X143265000Y-101501939D01*
X143304774Y-101701898D01*
X143382795Y-101890256D01*
X143496063Y-102059774D01*
X143640226Y-102203937D01*
X143809744Y-102317205D01*
X143998102Y-102395226D01*
X144198061Y-102435000D01*
X144401939Y-102435000D01*
X144601898Y-102395226D01*
X144790256Y-102317205D01*
X144959774Y-102203937D01*
X145103937Y-102059774D01*
X145119945Y-102035815D01*
X151866242Y-102035815D01*
X151909999Y-102354895D01*
X152015165Y-102659308D01*
X152108146Y-102833264D01*
X152372547Y-102929028D01*
X153328355Y-101973220D01*
X153687565Y-101973220D01*
X154643373Y-102929028D01*
X154907774Y-102833264D01*
X155048664Y-102543649D01*
X155130344Y-102232112D01*
X155149678Y-101910625D01*
X155105921Y-101591545D01*
X155000755Y-101287132D01*
X154907774Y-101113176D01*
X154643373Y-101017412D01*
X153687565Y-101973220D01*
X153328355Y-101973220D01*
X152372547Y-101017412D01*
X152108146Y-101113176D01*
X151967256Y-101402791D01*
X151885576Y-101714328D01*
X151866242Y-102035815D01*
X145119945Y-102035815D01*
X145217205Y-101890256D01*
X145295226Y-101701898D01*
X145335000Y-101501939D01*
X145335000Y-101298061D01*
X145295226Y-101098102D01*
X145217205Y-100909744D01*
X145169139Y-100837807D01*
X152552152Y-100837807D01*
X153507960Y-101793615D01*
X154463768Y-100837807D01*
X154368004Y-100573406D01*
X154078389Y-100432516D01*
X153766852Y-100350836D01*
X153445365Y-100331502D01*
X153126285Y-100375259D01*
X152821872Y-100480425D01*
X152647916Y-100573406D01*
X152552152Y-100837807D01*
X145169139Y-100837807D01*
X145103937Y-100740226D01*
X144959774Y-100596063D01*
X144819929Y-100502622D01*
X144907960Y-100511292D01*
X148107960Y-100511292D01*
X148232442Y-100499032D01*
X148352140Y-100462722D01*
X148462454Y-100403757D01*
X148559145Y-100324405D01*
X148638497Y-100227714D01*
X148697462Y-100117400D01*
X148733772Y-99997702D01*
X148746032Y-99873220D01*
X148746032Y-98268705D01*
X148842889Y-98228586D01*
X148996028Y-98126262D01*
X149126262Y-97996028D01*
X149228586Y-97842889D01*
X149299068Y-97672729D01*
X149335000Y-97492089D01*
X149335000Y-97307911D01*
X149299068Y-97127271D01*
X149228586Y-96957111D01*
X149126262Y-96803972D01*
X148996028Y-96673738D01*
X148842889Y-96571414D01*
X148672729Y-96500932D01*
X148492089Y-96465000D01*
X148307911Y-96465000D01*
X148127271Y-96500932D01*
X147957111Y-96571414D01*
X147803972Y-96673738D01*
X147673738Y-96803972D01*
X147571414Y-96957111D01*
X147500932Y-97127271D01*
X147479474Y-97235148D01*
X145144495Y-97235148D01*
X145175000Y-97081788D01*
X145175000Y-96858212D01*
X145131383Y-96638933D01*
X145045824Y-96432376D01*
X144921612Y-96246480D01*
X144763520Y-96088388D01*
X144577624Y-95964176D01*
X144371067Y-95878617D01*
X144151788Y-95835000D01*
X143928212Y-95835000D01*
X143708933Y-95878617D01*
X143502376Y-95964176D01*
X143316480Y-96088388D01*
X143158388Y-96246480D01*
X143034176Y-96432376D01*
X142948617Y-96638933D01*
X142905000Y-96858212D01*
X131215264Y-96858212D01*
X131214794Y-94768947D01*
X135427431Y-94093181D01*
X135403055Y-94152031D01*
X135359438Y-94371310D01*
X135359438Y-94594886D01*
X135403055Y-94814165D01*
X135488614Y-95020722D01*
X135612826Y-95206618D01*
X135770918Y-95364710D01*
X135956814Y-95488922D01*
X136163371Y-95574481D01*
X136382650Y-95618098D01*
X136606226Y-95618098D01*
X136825505Y-95574481D01*
X137032062Y-95488922D01*
X137217958Y-95364710D01*
X137376050Y-95206618D01*
X137500262Y-95020722D01*
X137585821Y-94814165D01*
X137629438Y-94594886D01*
X137629438Y-94371310D01*
X137585821Y-94152031D01*
X137500262Y-93945474D01*
X137388734Y-93778561D01*
X138203775Y-93647817D01*
X138232090Y-93639823D01*
X138254063Y-93628119D01*
X138273332Y-93612353D01*
X138289154Y-93593131D01*
X138300922Y-93571192D01*
X138308183Y-93547378D01*
X138310660Y-93522605D01*
X138310750Y-93460197D01*
X139396985Y-93460197D01*
X139396985Y-93683773D01*
X139440602Y-93903052D01*
X139526161Y-94109609D01*
X139650373Y-94295505D01*
X139808465Y-94453597D01*
X139994361Y-94577809D01*
X140200918Y-94663368D01*
X140420197Y-94706985D01*
X140643773Y-94706985D01*
X140863052Y-94663368D01*
X141069609Y-94577809D01*
X141255505Y-94453597D01*
X141413597Y-94295505D01*
X141537809Y-94109609D01*
X141584085Y-93997888D01*
X141604774Y-94101898D01*
X141682795Y-94290256D01*
X141796063Y-94459774D01*
X141940226Y-94603937D01*
X142109744Y-94717205D01*
X142298102Y-94795226D01*
X142498061Y-94835000D01*
X142701939Y-94835000D01*
X142901898Y-94795226D01*
X143090256Y-94717205D01*
X143259774Y-94603937D01*
X143403937Y-94459774D01*
X143438590Y-94407911D01*
X152165000Y-94407911D01*
X152165000Y-94592089D01*
X152200932Y-94772729D01*
X152271414Y-94942889D01*
X152373738Y-95096028D01*
X152503972Y-95226262D01*
X152657111Y-95328586D01*
X152827271Y-95399068D01*
X153007911Y-95435000D01*
X153192089Y-95435000D01*
X153372729Y-95399068D01*
X153542889Y-95328586D01*
X153696028Y-95226262D01*
X153826262Y-95096028D01*
X153928586Y-94942889D01*
X153999068Y-94772729D01*
X154022364Y-94655614D01*
X154127271Y-94699068D01*
X154307911Y-94735000D01*
X154492089Y-94735000D01*
X154672729Y-94699068D01*
X154842889Y-94628586D01*
X154959522Y-94550655D01*
X154962719Y-94551979D01*
X155081617Y-94575630D01*
X155100932Y-94672729D01*
X155171414Y-94842889D01*
X155273738Y-94996028D01*
X155403972Y-95126262D01*
X155557111Y-95228586D01*
X155727271Y-95299068D01*
X155907911Y-95335000D01*
X156092089Y-95335000D01*
X156272729Y-95299068D01*
X156442889Y-95228586D01*
X156596028Y-95126262D01*
X156726262Y-94996028D01*
X156828586Y-94842889D01*
X156899068Y-94672729D01*
X156935000Y-94492089D01*
X156935000Y-94307911D01*
X156899068Y-94127271D01*
X156828586Y-93957111D01*
X156726262Y-93803972D01*
X156596028Y-93673738D01*
X156442889Y-93571414D01*
X156272729Y-93500932D01*
X156153831Y-93477281D01*
X156134516Y-93380182D01*
X156064034Y-93210022D01*
X155961710Y-93056883D01*
X155831476Y-92926649D01*
X155678337Y-92824325D01*
X155508177Y-92753843D01*
X155327537Y-92717911D01*
X155143359Y-92717911D01*
X154962719Y-92753843D01*
X154792559Y-92824325D01*
X154675926Y-92902256D01*
X154672729Y-92900932D01*
X154492089Y-92865000D01*
X154307911Y-92865000D01*
X154127271Y-92900932D01*
X153957111Y-92971414D01*
X153803972Y-93073738D01*
X153673738Y-93203972D01*
X153571414Y-93357111D01*
X153500932Y-93527271D01*
X153477636Y-93644386D01*
X153372729Y-93600932D01*
X153192089Y-93565000D01*
X153007911Y-93565000D01*
X152827271Y-93600932D01*
X152657111Y-93671414D01*
X152503972Y-93773738D01*
X152373738Y-93903972D01*
X152271414Y-94057111D01*
X152200932Y-94227271D01*
X152165000Y-94407911D01*
X143438590Y-94407911D01*
X143517205Y-94290256D01*
X143595226Y-94101898D01*
X143635000Y-93901939D01*
X143635000Y-93698061D01*
X143595226Y-93498102D01*
X143517205Y-93309744D01*
X143403937Y-93140226D01*
X143259774Y-92996063D01*
X143090256Y-92882795D01*
X142901898Y-92804774D01*
X142701939Y-92765000D01*
X142498061Y-92765000D01*
X142298102Y-92804774D01*
X142109744Y-92882795D01*
X141940226Y-92996063D01*
X141796063Y-93140226D01*
X141682795Y-93309744D01*
X141651896Y-93384340D01*
X141623368Y-93240918D01*
X141537809Y-93034361D01*
X141413597Y-92848465D01*
X141255505Y-92690373D01*
X141069609Y-92566161D01*
X140863052Y-92480602D01*
X140643773Y-92436985D01*
X140420197Y-92436985D01*
X140200918Y-92480602D01*
X139994361Y-92566161D01*
X139808465Y-92690373D01*
X139650373Y-92848465D01*
X139526161Y-93034361D01*
X139440602Y-93240918D01*
X139396985Y-93460197D01*
X138310750Y-93460197D01*
X138315765Y-90018212D01*
X139605000Y-90018212D01*
X139605000Y-90241788D01*
X139648617Y-90461067D01*
X139734176Y-90667624D01*
X139858388Y-90853520D01*
X140016480Y-91011612D01*
X140202376Y-91135824D01*
X140408933Y-91221383D01*
X140628212Y-91265000D01*
X140851788Y-91265000D01*
X141071067Y-91221383D01*
X141277624Y-91135824D01*
X141463520Y-91011612D01*
X141621612Y-90853520D01*
X141745824Y-90667624D01*
X141831383Y-90461067D01*
X141875000Y-90241788D01*
X141875000Y-90018212D01*
X141831383Y-89798933D01*
X141745824Y-89592376D01*
X141621612Y-89406480D01*
X141463520Y-89248388D01*
X141277624Y-89124176D01*
X141071067Y-89038617D01*
X140851788Y-88995000D01*
X140628212Y-88995000D01*
X140408933Y-89038617D01*
X140202376Y-89124176D01*
X140016480Y-89248388D01*
X139858388Y-89406480D01*
X139734176Y-89592376D01*
X139648617Y-89798933D01*
X139605000Y-90018212D01*
X138315765Y-90018212D01*
X138317528Y-88807911D01*
X150365000Y-88807911D01*
X150365000Y-88992089D01*
X150400932Y-89172729D01*
X150471414Y-89342889D01*
X150573738Y-89496028D01*
X150703972Y-89626262D01*
X150857111Y-89728586D01*
X151027271Y-89799068D01*
X151207911Y-89835000D01*
X151392089Y-89835000D01*
X151572729Y-89799068D01*
X151742889Y-89728586D01*
X151896028Y-89626262D01*
X152026262Y-89496028D01*
X152128586Y-89342889D01*
X152199068Y-89172729D01*
X152235000Y-88992089D01*
X152235000Y-88955289D01*
X152382079Y-89053564D01*
X152552239Y-89124046D01*
X152732879Y-89159978D01*
X152917057Y-89159978D01*
X153097697Y-89124046D01*
X153267857Y-89053564D01*
X153420996Y-88951240D01*
X153464325Y-88907911D01*
X154565000Y-88907911D01*
X154565000Y-89092089D01*
X154600932Y-89272729D01*
X154671414Y-89442889D01*
X154773738Y-89596028D01*
X154903972Y-89726262D01*
X155057111Y-89828586D01*
X155227271Y-89899068D01*
X155407911Y-89935000D01*
X155592089Y-89935000D01*
X155772729Y-89899068D01*
X155942889Y-89828586D01*
X156096028Y-89726262D01*
X156226262Y-89596028D01*
X156328586Y-89442889D01*
X156399068Y-89272729D01*
X156435000Y-89092089D01*
X156435000Y-88907911D01*
X156399068Y-88727271D01*
X156328586Y-88557111D01*
X156226262Y-88403972D01*
X156096028Y-88273738D01*
X155942889Y-88171414D01*
X155772729Y-88100932D01*
X155592089Y-88065000D01*
X155407911Y-88065000D01*
X155227271Y-88100932D01*
X155057111Y-88171414D01*
X154903972Y-88273738D01*
X154773738Y-88403972D01*
X154671414Y-88557111D01*
X154600932Y-88727271D01*
X154565000Y-88907911D01*
X153464325Y-88907911D01*
X153551230Y-88821006D01*
X153653554Y-88667867D01*
X153724036Y-88497707D01*
X153759968Y-88317067D01*
X153759968Y-88132889D01*
X153724036Y-87952249D01*
X153653554Y-87782089D01*
X153551230Y-87628950D01*
X153420996Y-87498716D01*
X153328885Y-87437170D01*
X153408586Y-87317889D01*
X153479068Y-87147729D01*
X153515000Y-86967089D01*
X153515000Y-86782911D01*
X153479068Y-86602271D01*
X153408586Y-86432111D01*
X153306262Y-86278972D01*
X153176028Y-86148738D01*
X153022889Y-86046414D01*
X152852729Y-85975932D01*
X152672089Y-85940000D01*
X152487911Y-85940000D01*
X152307271Y-85975932D01*
X152137111Y-86046414D01*
X151983972Y-86148738D01*
X151853738Y-86278972D01*
X151751414Y-86432111D01*
X151680932Y-86602271D01*
X151645000Y-86782911D01*
X151645000Y-86967089D01*
X151680932Y-87147729D01*
X151751414Y-87317889D01*
X151853738Y-87471028D01*
X151983972Y-87601262D01*
X152076083Y-87662808D01*
X151996382Y-87782089D01*
X151925900Y-87952249D01*
X151889968Y-88132889D01*
X151889968Y-88169689D01*
X151742889Y-88071414D01*
X151572729Y-88000932D01*
X151392089Y-87965000D01*
X151207911Y-87965000D01*
X151027271Y-88000932D01*
X150857111Y-88071414D01*
X150703972Y-88173738D01*
X150573738Y-88303972D01*
X150471414Y-88457111D01*
X150400932Y-88627271D01*
X150365000Y-88807911D01*
X138317528Y-88807911D01*
X138324666Y-83907911D01*
X153065000Y-83907911D01*
X153065000Y-84092089D01*
X153100932Y-84272729D01*
X153171414Y-84442889D01*
X153273738Y-84596028D01*
X153403972Y-84726262D01*
X153557111Y-84828586D01*
X153727271Y-84899068D01*
X153907911Y-84935000D01*
X154092089Y-84935000D01*
X154272729Y-84899068D01*
X154442889Y-84828586D01*
X154596028Y-84726262D01*
X154726262Y-84596028D01*
X154828586Y-84442889D01*
X154899068Y-84272729D01*
X154935000Y-84092089D01*
X154935000Y-83907911D01*
X154899068Y-83727271D01*
X154828586Y-83557111D01*
X154726262Y-83403972D01*
X154596028Y-83273738D01*
X154442889Y-83171414D01*
X154272729Y-83100932D01*
X154092089Y-83065000D01*
X153907911Y-83065000D01*
X153727271Y-83100932D01*
X153557111Y-83171414D01*
X153403972Y-83273738D01*
X153273738Y-83403972D01*
X153171414Y-83557111D01*
X153100932Y-83727271D01*
X153065000Y-83907911D01*
X138324666Y-83907911D01*
X138326561Y-82607911D01*
X142465000Y-82607911D01*
X142465000Y-82792089D01*
X142500932Y-82972729D01*
X142571414Y-83142889D01*
X142673738Y-83296028D01*
X142803972Y-83426262D01*
X142957111Y-83528586D01*
X143127271Y-83599068D01*
X143307911Y-83635000D01*
X143492089Y-83635000D01*
X143672729Y-83599068D01*
X143842889Y-83528586D01*
X143996028Y-83426262D01*
X144126262Y-83296028D01*
X144228586Y-83142889D01*
X144299068Y-82972729D01*
X144335000Y-82792089D01*
X144335000Y-82607911D01*
X144299068Y-82427271D01*
X144228586Y-82257111D01*
X144159448Y-82153639D01*
X144164335Y-82153639D01*
X144344975Y-82117707D01*
X144515135Y-82047225D01*
X144668274Y-81944901D01*
X144798508Y-81814667D01*
X144900832Y-81661528D01*
X144971314Y-81491368D01*
X145007246Y-81310728D01*
X145007246Y-81126550D01*
X144971314Y-80945910D01*
X144900832Y-80775750D01*
X144798508Y-80622611D01*
X144668274Y-80492377D01*
X144515135Y-80390053D01*
X144344975Y-80319571D01*
X144164335Y-80283639D01*
X143980157Y-80283639D01*
X143799517Y-80319571D01*
X143629357Y-80390053D01*
X143476218Y-80492377D01*
X143345984Y-80622611D01*
X143243660Y-80775750D01*
X143173178Y-80945910D01*
X143137246Y-81126550D01*
X143137246Y-81310728D01*
X143173178Y-81491368D01*
X143243660Y-81661528D01*
X143312798Y-81765000D01*
X143307911Y-81765000D01*
X143127271Y-81800932D01*
X142957111Y-81871414D01*
X142803972Y-81973738D01*
X142673738Y-82103972D01*
X142571414Y-82257111D01*
X142500932Y-82427271D01*
X142465000Y-82607911D01*
X138326561Y-82607911D01*
X138331806Y-79007911D01*
X144065000Y-79007911D01*
X144065000Y-79192089D01*
X144100932Y-79372729D01*
X144171414Y-79542889D01*
X144273738Y-79696028D01*
X144403972Y-79826262D01*
X144557111Y-79928586D01*
X144727271Y-79999068D01*
X144907911Y-80035000D01*
X145092089Y-80035000D01*
X145272729Y-79999068D01*
X145442889Y-79928586D01*
X145596028Y-79826262D01*
X145726262Y-79696028D01*
X145828586Y-79542889D01*
X145899068Y-79372729D01*
X145935000Y-79192089D01*
X145935000Y-79007911D01*
X148165000Y-79007911D01*
X148165000Y-79192089D01*
X148200932Y-79372729D01*
X148271414Y-79542889D01*
X148373738Y-79696028D01*
X148503972Y-79826262D01*
X148657111Y-79928586D01*
X148827271Y-79999068D01*
X149007911Y-80035000D01*
X149192089Y-80035000D01*
X149372729Y-79999068D01*
X149542889Y-79928586D01*
X149696028Y-79826262D01*
X149826262Y-79696028D01*
X149928586Y-79542889D01*
X149999068Y-79372729D01*
X150035000Y-79192089D01*
X150035000Y-79007911D01*
X150030030Y-78982921D01*
X150610159Y-78982921D01*
X150610159Y-79167099D01*
X150646091Y-79347739D01*
X150716573Y-79517899D01*
X150818897Y-79671038D01*
X150949131Y-79801272D01*
X151102270Y-79903596D01*
X151272430Y-79974078D01*
X151453070Y-80010010D01*
X151637248Y-80010010D01*
X151817888Y-79974078D01*
X151988048Y-79903596D01*
X152141187Y-79801272D01*
X152271421Y-79671038D01*
X152373745Y-79517899D01*
X152444227Y-79347739D01*
X152480159Y-79167099D01*
X152480159Y-78982921D01*
X152444227Y-78802281D01*
X152373745Y-78632121D01*
X152271421Y-78478982D01*
X152141187Y-78348748D01*
X151988048Y-78246424D01*
X151817888Y-78175942D01*
X151637248Y-78140010D01*
X151453070Y-78140010D01*
X151272430Y-78175942D01*
X151102270Y-78246424D01*
X150949131Y-78348748D01*
X150818897Y-78478982D01*
X150716573Y-78632121D01*
X150646091Y-78802281D01*
X150610159Y-78982921D01*
X150030030Y-78982921D01*
X149999068Y-78827271D01*
X149928586Y-78657111D01*
X149826262Y-78503972D01*
X149696028Y-78373738D01*
X149542889Y-78271414D01*
X149372729Y-78200932D01*
X149192089Y-78165000D01*
X149007911Y-78165000D01*
X148827271Y-78200932D01*
X148657111Y-78271414D01*
X148503972Y-78373738D01*
X148373738Y-78503972D01*
X148271414Y-78657111D01*
X148200932Y-78827271D01*
X148165000Y-79007911D01*
X145935000Y-79007911D01*
X145899068Y-78827271D01*
X145828586Y-78657111D01*
X145726262Y-78503972D01*
X145596028Y-78373738D01*
X145442889Y-78271414D01*
X145272729Y-78200932D01*
X145092089Y-78165000D01*
X144907911Y-78165000D01*
X144727271Y-78200932D01*
X144557111Y-78271414D01*
X144403972Y-78373738D01*
X144273738Y-78503972D01*
X144171414Y-78657111D01*
X144100932Y-78827271D01*
X144065000Y-79007911D01*
X138331806Y-79007911D01*
X138336761Y-75607911D01*
X139965000Y-75607911D01*
X139965000Y-75792089D01*
X140000932Y-75972729D01*
X140071414Y-76142889D01*
X140173738Y-76296028D01*
X140303972Y-76426262D01*
X140457111Y-76528586D01*
X140627271Y-76599068D01*
X140807911Y-76635000D01*
X140992089Y-76635000D01*
X141172729Y-76599068D01*
X141342889Y-76528586D01*
X141496028Y-76426262D01*
X141614379Y-76307911D01*
X141965000Y-76307911D01*
X141965000Y-76492089D01*
X142000932Y-76672729D01*
X142071414Y-76842889D01*
X142173738Y-76996028D01*
X142303972Y-77126262D01*
X142457111Y-77228586D01*
X142627271Y-77299068D01*
X142807911Y-77335000D01*
X142992089Y-77335000D01*
X143024089Y-77328635D01*
X143071414Y-77442889D01*
X143173738Y-77596028D01*
X143303972Y-77726262D01*
X143457111Y-77828586D01*
X143627271Y-77899068D01*
X143807911Y-77935000D01*
X143992089Y-77935000D01*
X144172729Y-77899068D01*
X144342889Y-77828586D01*
X144496028Y-77726262D01*
X144626262Y-77596028D01*
X144728586Y-77442889D01*
X144799068Y-77272729D01*
X144835000Y-77092089D01*
X144835000Y-76907911D01*
X144799068Y-76727271D01*
X144794887Y-76717177D01*
X144803972Y-76726262D01*
X144957111Y-76828586D01*
X145127271Y-76899068D01*
X145307911Y-76935000D01*
X145492089Y-76935000D01*
X145672729Y-76899068D01*
X145842889Y-76828586D01*
X145996028Y-76726262D01*
X146126262Y-76596028D01*
X146228586Y-76442889D01*
X146239410Y-76416758D01*
X146257111Y-76428586D01*
X146427271Y-76499068D01*
X146607911Y-76535000D01*
X146792089Y-76535000D01*
X146972729Y-76499068D01*
X147142889Y-76428586D01*
X147296028Y-76326262D01*
X147426262Y-76196028D01*
X147436222Y-76181122D01*
X147526051Y-76315562D01*
X147656285Y-76445796D01*
X147809424Y-76548120D01*
X147979584Y-76618602D01*
X148160224Y-76654534D01*
X148344402Y-76654534D01*
X148525042Y-76618602D01*
X148634964Y-76573071D01*
X149347366Y-76573071D01*
X149347366Y-76776949D01*
X149387140Y-76976908D01*
X149465161Y-77165266D01*
X149578429Y-77334784D01*
X149722592Y-77478947D01*
X149892110Y-77592215D01*
X150080468Y-77670236D01*
X150280427Y-77710010D01*
X150484305Y-77710010D01*
X150684264Y-77670236D01*
X150872622Y-77592215D01*
X151042140Y-77478947D01*
X151186303Y-77334784D01*
X151299571Y-77165266D01*
X151364750Y-77007911D01*
X151380002Y-77007911D01*
X151380002Y-77192089D01*
X151415934Y-77372729D01*
X151486416Y-77542889D01*
X151588740Y-77696028D01*
X151718974Y-77826262D01*
X151872113Y-77928586D01*
X152042273Y-77999068D01*
X152222913Y-78035000D01*
X152407091Y-78035000D01*
X152587731Y-77999068D01*
X152757891Y-77928586D01*
X152911030Y-77826262D01*
X153041264Y-77696028D01*
X153143588Y-77542889D01*
X153214070Y-77372729D01*
X153250002Y-77192089D01*
X153250002Y-77007911D01*
X153214070Y-76827271D01*
X153143588Y-76657111D01*
X153041264Y-76503972D01*
X152911030Y-76373738D01*
X152757891Y-76271414D01*
X152587731Y-76200932D01*
X152407091Y-76165000D01*
X152222913Y-76165000D01*
X152042273Y-76200932D01*
X151872113Y-76271414D01*
X151718974Y-76373738D01*
X151588740Y-76503972D01*
X151486416Y-76657111D01*
X151415934Y-76827271D01*
X151380002Y-77007911D01*
X151364750Y-77007911D01*
X151377592Y-76976908D01*
X151417366Y-76776949D01*
X151417366Y-76573071D01*
X151377592Y-76373112D01*
X151299571Y-76184754D01*
X151186303Y-76015236D01*
X151042140Y-75871073D01*
X150872622Y-75757805D01*
X150684264Y-75679784D01*
X150484305Y-75640010D01*
X150280427Y-75640010D01*
X150080468Y-75679784D01*
X149892110Y-75757805D01*
X149722592Y-75871073D01*
X149578429Y-76015236D01*
X149465161Y-76184754D01*
X149387140Y-76373112D01*
X149347366Y-76573071D01*
X148634964Y-76573071D01*
X148695202Y-76548120D01*
X148848341Y-76445796D01*
X148978575Y-76315562D01*
X149080899Y-76162423D01*
X149151381Y-75992263D01*
X149187313Y-75811623D01*
X149187313Y-75627445D01*
X149151381Y-75446805D01*
X149080899Y-75276645D01*
X148978575Y-75123506D01*
X148848341Y-74993272D01*
X148695202Y-74890948D01*
X148525042Y-74820466D01*
X148344402Y-74784534D01*
X148160224Y-74784534D01*
X147979584Y-74820466D01*
X147809424Y-74890948D01*
X147656285Y-74993272D01*
X147526051Y-75123506D01*
X147516091Y-75138412D01*
X147426262Y-75003972D01*
X147296028Y-74873738D01*
X147142889Y-74771414D01*
X146972729Y-74700932D01*
X146792089Y-74665000D01*
X146607911Y-74665000D01*
X146427271Y-74700932D01*
X146257111Y-74771414D01*
X146103972Y-74873738D01*
X145973738Y-75003972D01*
X145871414Y-75157111D01*
X145860590Y-75183242D01*
X145842889Y-75171414D01*
X145672729Y-75100932D01*
X145492089Y-75065000D01*
X145307911Y-75065000D01*
X145127271Y-75100932D01*
X144957111Y-75171414D01*
X144803972Y-75273738D01*
X144676946Y-75400764D01*
X144653576Y-75344343D01*
X144551252Y-75191204D01*
X144421018Y-75060970D01*
X144267879Y-74958646D01*
X144097719Y-74888164D01*
X143917079Y-74852232D01*
X143732901Y-74852232D01*
X143552261Y-74888164D01*
X143382101Y-74958646D01*
X143228962Y-75060970D01*
X143098728Y-75191204D01*
X142996404Y-75344343D01*
X142946427Y-75465000D01*
X142807911Y-75465000D01*
X142627271Y-75500932D01*
X142457111Y-75571414D01*
X142303972Y-75673738D01*
X142173738Y-75803972D01*
X142071414Y-75957111D01*
X142000932Y-76127271D01*
X141965000Y-76307911D01*
X141614379Y-76307911D01*
X141626262Y-76296028D01*
X141728586Y-76142889D01*
X141799068Y-75972729D01*
X141835000Y-75792089D01*
X141835000Y-75607911D01*
X141799068Y-75427271D01*
X141728586Y-75257111D01*
X141626262Y-75103972D01*
X141496028Y-74973738D01*
X141342889Y-74871414D01*
X141172729Y-74800932D01*
X140992089Y-74765000D01*
X140807911Y-74765000D01*
X140627271Y-74800932D01*
X140457111Y-74871414D01*
X140303972Y-74973738D01*
X140173738Y-75103972D01*
X140071414Y-75257111D01*
X140000932Y-75427271D01*
X139965000Y-75607911D01*
X138336761Y-75607911D01*
X138340660Y-72932605D01*
X138339322Y-72914034D01*
X138333321Y-72889872D01*
X138322721Y-72867345D01*
X138307929Y-72847318D01*
X138289515Y-72830563D01*
X138268187Y-72817721D01*
X138244762Y-72809287D01*
X135072136Y-72007911D01*
X139735000Y-72007911D01*
X139735000Y-72192089D01*
X139770932Y-72372729D01*
X139841414Y-72542889D01*
X139943738Y-72696028D01*
X140073972Y-72826262D01*
X140227111Y-72928586D01*
X140397271Y-72999068D01*
X140577911Y-73035000D01*
X140762089Y-73035000D01*
X140942729Y-72999068D01*
X141112889Y-72928586D01*
X141266028Y-72826262D01*
X141396262Y-72696028D01*
X141498586Y-72542889D01*
X141569068Y-72372729D01*
X141605000Y-72192089D01*
X141605000Y-72101317D01*
X143958406Y-72101317D01*
X143958406Y-72285495D01*
X143994338Y-72466135D01*
X144064820Y-72636295D01*
X144167144Y-72789434D01*
X144297378Y-72919668D01*
X144450517Y-73021992D01*
X144620677Y-73092474D01*
X144801317Y-73128406D01*
X144985495Y-73128406D01*
X145166135Y-73092474D01*
X145336295Y-73021992D01*
X145489434Y-72919668D01*
X145604800Y-72804302D01*
X145677239Y-72912716D01*
X145807473Y-73042950D01*
X145960612Y-73145274D01*
X146130772Y-73215756D01*
X146311412Y-73251688D01*
X146495590Y-73251688D01*
X146676230Y-73215756D01*
X146846390Y-73145274D01*
X146999529Y-73042950D01*
X147082700Y-72959779D01*
X147173738Y-73096028D01*
X147303972Y-73226262D01*
X147457111Y-73328586D01*
X147627271Y-73399068D01*
X147807911Y-73435000D01*
X147992089Y-73435000D01*
X148172729Y-73399068D01*
X148342889Y-73328586D01*
X148496028Y-73226262D01*
X148607303Y-73114987D01*
X148707911Y-73135000D01*
X148892089Y-73135000D01*
X149072729Y-73099068D01*
X149242889Y-73028586D01*
X149368399Y-72944723D01*
X157615000Y-72944723D01*
X157615000Y-73128901D01*
X157650932Y-73309541D01*
X157721414Y-73479701D01*
X157823738Y-73632840D01*
X157953972Y-73763074D01*
X158107111Y-73865398D01*
X158277271Y-73935880D01*
X158457911Y-73971812D01*
X158642089Y-73971812D01*
X158822729Y-73935880D01*
X158992889Y-73865398D01*
X159146028Y-73763074D01*
X159276262Y-73632840D01*
X159378586Y-73479701D01*
X159449068Y-73309541D01*
X159485000Y-73128901D01*
X159485000Y-72944723D01*
X159449068Y-72764083D01*
X159378586Y-72593923D01*
X159276262Y-72440784D01*
X159146028Y-72310550D01*
X158992889Y-72208226D01*
X158822729Y-72137744D01*
X158642089Y-72101812D01*
X158457911Y-72101812D01*
X158277271Y-72137744D01*
X158107111Y-72208226D01*
X157953972Y-72310550D01*
X157823738Y-72440784D01*
X157721414Y-72593923D01*
X157650932Y-72764083D01*
X157615000Y-72944723D01*
X149368399Y-72944723D01*
X149396028Y-72926262D01*
X149526262Y-72796028D01*
X149628586Y-72642889D01*
X149699068Y-72472729D01*
X149735000Y-72292089D01*
X149735000Y-72107911D01*
X149720497Y-72035000D01*
X149792089Y-72035000D01*
X149972729Y-71999068D01*
X150142889Y-71928586D01*
X150296028Y-71826262D01*
X150426262Y-71696028D01*
X150528586Y-71542889D01*
X150599068Y-71372729D01*
X150635000Y-71192089D01*
X150635000Y-71007911D01*
X150599068Y-70827271D01*
X150528586Y-70657111D01*
X150426262Y-70503972D01*
X150296028Y-70373738D01*
X150142889Y-70271414D01*
X149972729Y-70200932D01*
X149792089Y-70165000D01*
X149607911Y-70165000D01*
X149427271Y-70200932D01*
X149257111Y-70271414D01*
X149103972Y-70373738D01*
X148973738Y-70503972D01*
X148871414Y-70657111D01*
X148800932Y-70827271D01*
X148765000Y-71007911D01*
X148765000Y-71192089D01*
X148779503Y-71265000D01*
X148707911Y-71265000D01*
X148527271Y-71300932D01*
X148357111Y-71371414D01*
X148203972Y-71473738D01*
X148092697Y-71585013D01*
X147992089Y-71565000D01*
X147807911Y-71565000D01*
X147627271Y-71600932D01*
X147457111Y-71671414D01*
X147303972Y-71773738D01*
X147220801Y-71856909D01*
X147129763Y-71720660D01*
X146999529Y-71590426D01*
X146846390Y-71488102D01*
X146676230Y-71417620D01*
X146495590Y-71381688D01*
X146311412Y-71381688D01*
X146130772Y-71417620D01*
X145960612Y-71488102D01*
X145807473Y-71590426D01*
X145692107Y-71705792D01*
X145619668Y-71597378D01*
X145489434Y-71467144D01*
X145336295Y-71364820D01*
X145166135Y-71294338D01*
X144985495Y-71258406D01*
X144801317Y-71258406D01*
X144620677Y-71294338D01*
X144450517Y-71364820D01*
X144297378Y-71467144D01*
X144167144Y-71597378D01*
X144064820Y-71750517D01*
X143994338Y-71920677D01*
X143958406Y-72101317D01*
X141605000Y-72101317D01*
X141605000Y-72007911D01*
X141569068Y-71827271D01*
X141498586Y-71657111D01*
X141396262Y-71503972D01*
X141266028Y-71373738D01*
X141112889Y-71271414D01*
X140942729Y-71200932D01*
X140762089Y-71165000D01*
X140577911Y-71165000D01*
X140397271Y-71200932D01*
X140227111Y-71271414D01*
X140073972Y-71373738D01*
X139943738Y-71503972D01*
X139841414Y-71657111D01*
X139770932Y-71827271D01*
X139735000Y-72007911D01*
X135072136Y-72007911D01*
X131209459Y-71032235D01*
X131208726Y-67768212D01*
X134995000Y-67768212D01*
X134995000Y-67991788D01*
X135038617Y-68211067D01*
X135124176Y-68417624D01*
X135248388Y-68603520D01*
X135406480Y-68761612D01*
X135592376Y-68885824D01*
X135798933Y-68971383D01*
X136018212Y-69015000D01*
X136241788Y-69015000D01*
X136461067Y-68971383D01*
X136667624Y-68885824D01*
X136853520Y-68761612D01*
X136965132Y-68650000D01*
X142189509Y-68650000D01*
X142211423Y-68872499D01*
X142276324Y-69086447D01*
X142381716Y-69283623D01*
X142523551Y-69456449D01*
X142696377Y-69598284D01*
X142893553Y-69703676D01*
X143107501Y-69768577D01*
X143274248Y-69785000D01*
X143385752Y-69785000D01*
X143552499Y-69768577D01*
X143766447Y-69703676D01*
X143777621Y-69697703D01*
X143855820Y-69739502D01*
X143975518Y-69775812D01*
X144100000Y-69788072D01*
X145100000Y-69788072D01*
X145224482Y-69775812D01*
X145344180Y-69739502D01*
X145454494Y-69680537D01*
X145551185Y-69601185D01*
X145630537Y-69504494D01*
X145689502Y-69394180D01*
X145725812Y-69274482D01*
X145738072Y-69150000D01*
X145738072Y-68150000D01*
X145725812Y-68025518D01*
X145689502Y-67905820D01*
X145630537Y-67795506D01*
X145551185Y-67698815D01*
X145454494Y-67619463D01*
X145344180Y-67560498D01*
X145224482Y-67524188D01*
X145100000Y-67511928D01*
X144100000Y-67511928D01*
X143975518Y-67524188D01*
X143855820Y-67560498D01*
X143777621Y-67602297D01*
X143766447Y-67596324D01*
X143552499Y-67531423D01*
X143385752Y-67515000D01*
X143274248Y-67515000D01*
X143107501Y-67531423D01*
X142893553Y-67596324D01*
X142696377Y-67701716D01*
X142523551Y-67843551D01*
X142381716Y-68016377D01*
X142276324Y-68213553D01*
X142211423Y-68427501D01*
X142189509Y-68650000D01*
X136965132Y-68650000D01*
X137011612Y-68603520D01*
X137135824Y-68417624D01*
X137221383Y-68211067D01*
X137265000Y-67991788D01*
X137265000Y-67768212D01*
X137221383Y-67548933D01*
X137135824Y-67342376D01*
X137011612Y-67156480D01*
X136853520Y-66998388D01*
X136667624Y-66874176D01*
X136461067Y-66788617D01*
X136241788Y-66745000D01*
X136018212Y-66745000D01*
X135798933Y-66788617D01*
X135592376Y-66874176D01*
X135406480Y-66998388D01*
X135248388Y-67156480D01*
X135124176Y-67342376D01*
X135038617Y-67548933D01*
X134995000Y-67768212D01*
X131208726Y-67768212D01*
X131208436Y-66477911D01*
X155715000Y-66477911D01*
X155715000Y-66662089D01*
X155750932Y-66842729D01*
X155821414Y-67012889D01*
X155923738Y-67166028D01*
X156053972Y-67296262D01*
X156207111Y-67398586D01*
X156377271Y-67469068D01*
X156557911Y-67505000D01*
X156742089Y-67505000D01*
X156922729Y-67469068D01*
X157092889Y-67398586D01*
X157246028Y-67296262D01*
X157376262Y-67166028D01*
X157478586Y-67012889D01*
X157549068Y-66842729D01*
X157585000Y-66662089D01*
X157585000Y-66477911D01*
X157549068Y-66297271D01*
X157478586Y-66127111D01*
X157376262Y-65973972D01*
X157246028Y-65843738D01*
X157092889Y-65741414D01*
X156922729Y-65670932D01*
X156742089Y-65635000D01*
X156557911Y-65635000D01*
X156377271Y-65670932D01*
X156207111Y-65741414D01*
X156053972Y-65843738D01*
X155923738Y-65973972D01*
X155821414Y-66127111D01*
X155750932Y-66297271D01*
X155715000Y-66477911D01*
X131208436Y-66477911D01*
X131208029Y-64668212D01*
X131865000Y-64668212D01*
X131865000Y-64891788D01*
X131908617Y-65111067D01*
X131994176Y-65317624D01*
X132118388Y-65503520D01*
X132276480Y-65661612D01*
X132462376Y-65785824D01*
X132668933Y-65871383D01*
X132888212Y-65915000D01*
X133111788Y-65915000D01*
X133331067Y-65871383D01*
X133537624Y-65785824D01*
X133723520Y-65661612D01*
X133881612Y-65503520D01*
X134005824Y-65317624D01*
X134091383Y-65111067D01*
X134135000Y-64891788D01*
X134135000Y-64668212D01*
X134091383Y-64448933D01*
X134005824Y-64242376D01*
X133881612Y-64056480D01*
X133833043Y-64007911D01*
X134465000Y-64007911D01*
X134465000Y-64192089D01*
X134500932Y-64372729D01*
X134571414Y-64542889D01*
X134673738Y-64696028D01*
X134803972Y-64826262D01*
X134957111Y-64928586D01*
X135127271Y-64999068D01*
X135307911Y-65035000D01*
X135492089Y-65035000D01*
X135672729Y-64999068D01*
X135842889Y-64928586D01*
X135996028Y-64826262D01*
X136126262Y-64696028D01*
X136228586Y-64542889D01*
X136299068Y-64372729D01*
X136335000Y-64192089D01*
X136335000Y-64007911D01*
X136565000Y-64007911D01*
X136565000Y-64192089D01*
X136600932Y-64372729D01*
X136671414Y-64542889D01*
X136773738Y-64696028D01*
X136903972Y-64826262D01*
X137057111Y-64928586D01*
X137227271Y-64999068D01*
X137407911Y-65035000D01*
X137592089Y-65035000D01*
X137772729Y-64999068D01*
X137942889Y-64928586D01*
X138096028Y-64826262D01*
X138226262Y-64696028D01*
X138328586Y-64542889D01*
X138399068Y-64372729D01*
X138435000Y-64192089D01*
X138435000Y-64007911D01*
X138403493Y-63849512D01*
X143565632Y-63849512D01*
X143589477Y-64091614D01*
X143660096Y-64324411D01*
X143774775Y-64538960D01*
X143929106Y-64727013D01*
X144117159Y-64881344D01*
X144331708Y-64996023D01*
X144564505Y-65066642D01*
X144806607Y-65090487D01*
X145048709Y-65066642D01*
X145281506Y-64996023D01*
X145496055Y-64881344D01*
X145636987Y-64765685D01*
X146005622Y-64397050D01*
X146121281Y-64256118D01*
X146235960Y-64041569D01*
X146306579Y-63808773D01*
X146316495Y-63708091D01*
X147299155Y-63708091D01*
X147323000Y-63950193D01*
X147393619Y-64182992D01*
X147508297Y-64397540D01*
X147662628Y-64585593D01*
X147850681Y-64739924D01*
X148065229Y-64854602D01*
X148298028Y-64925221D01*
X148479465Y-64943091D01*
X148600795Y-64943091D01*
X148782232Y-64925221D01*
X149015031Y-64854602D01*
X149229579Y-64739924D01*
X149417632Y-64585593D01*
X149571963Y-64397540D01*
X149686641Y-64182992D01*
X149757260Y-63950193D01*
X149781105Y-63708091D01*
X149757260Y-63465989D01*
X149686641Y-63233190D01*
X149571963Y-63018642D01*
X149505709Y-62937911D01*
X153265000Y-62937911D01*
X153265000Y-63122089D01*
X153300932Y-63302729D01*
X153371414Y-63472889D01*
X153473738Y-63626028D01*
X153603972Y-63756262D01*
X153757111Y-63858586D01*
X153914504Y-63923780D01*
X153951414Y-64012889D01*
X154053738Y-64166028D01*
X154064904Y-64177194D01*
X153971414Y-64317111D01*
X153900932Y-64487271D01*
X153865000Y-64667911D01*
X153865000Y-64852089D01*
X153900932Y-65032729D01*
X153971414Y-65202889D01*
X154073738Y-65356028D01*
X154203972Y-65486262D01*
X154357111Y-65588586D01*
X154527271Y-65659068D01*
X154707911Y-65695000D01*
X154892089Y-65695000D01*
X155072729Y-65659068D01*
X155242889Y-65588586D01*
X155396028Y-65486262D01*
X155526262Y-65356028D01*
X155628586Y-65202889D01*
X155699068Y-65032729D01*
X155735000Y-64852089D01*
X155735000Y-64667911D01*
X155699068Y-64487271D01*
X155628586Y-64317111D01*
X155526262Y-64163972D01*
X155515096Y-64152806D01*
X155608586Y-64012889D01*
X155679068Y-63842729D01*
X155715000Y-63662089D01*
X155715000Y-63477911D01*
X155679068Y-63297271D01*
X155608586Y-63127111D01*
X155604684Y-63121270D01*
X155838335Y-63121270D01*
X155911371Y-63366464D01*
X156168928Y-63488564D01*
X156445358Y-63558071D01*
X156730036Y-63572314D01*
X157012023Y-63530744D01*
X157280482Y-63434961D01*
X157408629Y-63366464D01*
X157481665Y-63121270D01*
X156660000Y-62299605D01*
X155838335Y-63121270D01*
X155604684Y-63121270D01*
X155506262Y-62973972D01*
X155376028Y-62843738D01*
X155222889Y-62741414D01*
X155065496Y-62676220D01*
X155028586Y-62587111D01*
X154926262Y-62433972D01*
X154796028Y-62303738D01*
X154642889Y-62201414D01*
X154615420Y-62190036D01*
X155207686Y-62190036D01*
X155249256Y-62472023D01*
X155345039Y-62740482D01*
X155413536Y-62868629D01*
X155658730Y-62941665D01*
X156480395Y-62120000D01*
X156839605Y-62120000D01*
X157661270Y-62941665D01*
X157906464Y-62868629D01*
X158028564Y-62611072D01*
X158098071Y-62334642D01*
X158112314Y-62049964D01*
X158070744Y-61767977D01*
X157974961Y-61499518D01*
X157906464Y-61371371D01*
X157661270Y-61298335D01*
X156839605Y-62120000D01*
X156480395Y-62120000D01*
X155658730Y-61298335D01*
X155413536Y-61371371D01*
X155291436Y-61628928D01*
X155221929Y-61905358D01*
X155207686Y-62190036D01*
X154615420Y-62190036D01*
X154472729Y-62130932D01*
X154292089Y-62095000D01*
X154107911Y-62095000D01*
X153927271Y-62130932D01*
X153757111Y-62201414D01*
X153603972Y-62303738D01*
X153473738Y-62433972D01*
X153371414Y-62587111D01*
X153300932Y-62757271D01*
X153265000Y-62937911D01*
X149505709Y-62937911D01*
X149417632Y-62830589D01*
X149229579Y-62676258D01*
X149015031Y-62561580D01*
X148782232Y-62490961D01*
X148600795Y-62473091D01*
X148479465Y-62473091D01*
X148298028Y-62490961D01*
X148065229Y-62561580D01*
X147850681Y-62676258D01*
X147662628Y-62830589D01*
X147508297Y-63018642D01*
X147393619Y-63233190D01*
X147323000Y-63465989D01*
X147299155Y-63708091D01*
X146316495Y-63708091D01*
X146330424Y-63566670D01*
X146306579Y-63324568D01*
X146235960Y-63091771D01*
X146121281Y-62877222D01*
X145966950Y-62689169D01*
X145778897Y-62534838D01*
X145564348Y-62420159D01*
X145331551Y-62349540D01*
X145089449Y-62325695D01*
X144847346Y-62349540D01*
X144614550Y-62420159D01*
X144400001Y-62534838D01*
X144259069Y-62650497D01*
X143890434Y-63019132D01*
X143774775Y-63160064D01*
X143660096Y-63374613D01*
X143589477Y-63607410D01*
X143565632Y-63849512D01*
X138403493Y-63849512D01*
X138399068Y-63827271D01*
X138328586Y-63657111D01*
X138226262Y-63503972D01*
X138096028Y-63373738D01*
X137942889Y-63271414D01*
X137772729Y-63200932D01*
X137592089Y-63165000D01*
X137407911Y-63165000D01*
X137227271Y-63200932D01*
X137057111Y-63271414D01*
X136903972Y-63373738D01*
X136773738Y-63503972D01*
X136671414Y-63657111D01*
X136600932Y-63827271D01*
X136565000Y-64007911D01*
X136335000Y-64007911D01*
X136299068Y-63827271D01*
X136228586Y-63657111D01*
X136126262Y-63503972D01*
X135996028Y-63373738D01*
X135842889Y-63271414D01*
X135672729Y-63200932D01*
X135492089Y-63165000D01*
X135307911Y-63165000D01*
X135127271Y-63200932D01*
X134957111Y-63271414D01*
X134803972Y-63373738D01*
X134673738Y-63503972D01*
X134571414Y-63657111D01*
X134500932Y-63827271D01*
X134465000Y-64007911D01*
X133833043Y-64007911D01*
X133723520Y-63898388D01*
X133537624Y-63774176D01*
X133331067Y-63688617D01*
X133111788Y-63645000D01*
X132888212Y-63645000D01*
X132668933Y-63688617D01*
X132462376Y-63774176D01*
X132276480Y-63898388D01*
X132118388Y-64056480D01*
X131994176Y-64242376D01*
X131908617Y-64448933D01*
X131865000Y-64668212D01*
X131208029Y-64668212D01*
X131207429Y-61998212D01*
X131835000Y-61998212D01*
X131835000Y-62221788D01*
X131878617Y-62441067D01*
X131964176Y-62647624D01*
X132088388Y-62833520D01*
X132246480Y-62991612D01*
X132432376Y-63115824D01*
X132638933Y-63201383D01*
X132858212Y-63245000D01*
X133081788Y-63245000D01*
X133301067Y-63201383D01*
X133507624Y-63115824D01*
X133693520Y-62991612D01*
X133851612Y-62833520D01*
X133975824Y-62647624D01*
X134061383Y-62441067D01*
X134105000Y-62221788D01*
X134105000Y-61998212D01*
X134061383Y-61778933D01*
X133975824Y-61572376D01*
X133851612Y-61386480D01*
X133693520Y-61228388D01*
X133507624Y-61104176D01*
X133301067Y-61018617D01*
X133081788Y-60975000D01*
X132858212Y-60975000D01*
X132638933Y-61018617D01*
X132432376Y-61104176D01*
X132246480Y-61228388D01*
X132088388Y-61386480D01*
X131964176Y-61572376D01*
X131878617Y-61778933D01*
X131835000Y-61998212D01*
X131207429Y-61998212D01*
X131207197Y-60961497D01*
X147874226Y-60961497D01*
X147920808Y-61184477D01*
X147995789Y-61224559D01*
X148222520Y-61309454D01*
X148461457Y-61348484D01*
X148703417Y-61340151D01*
X148939102Y-61284774D01*
X149159454Y-61184481D01*
X149173436Y-61118730D01*
X155838335Y-61118730D01*
X156660000Y-61940395D01*
X157481665Y-61118730D01*
X157408629Y-60873536D01*
X157151072Y-60751436D01*
X156874642Y-60681929D01*
X156589964Y-60667686D01*
X156307977Y-60709256D01*
X156039518Y-60805039D01*
X155911371Y-60873536D01*
X155838335Y-61118730D01*
X149173436Y-61118730D01*
X149206726Y-60962189D01*
X148540130Y-60295593D01*
X147874226Y-60961497D01*
X131207197Y-60961497D01*
X131207024Y-60194661D01*
X147307634Y-60194661D01*
X147346664Y-60433598D01*
X147431559Y-60660329D01*
X147471641Y-60735310D01*
X147694621Y-60781892D01*
X148360525Y-60115988D01*
X148719735Y-60115988D01*
X149386331Y-60782584D01*
X149608623Y-60735312D01*
X149708916Y-60514960D01*
X149764293Y-60279275D01*
X149772626Y-60037315D01*
X149733596Y-59798378D01*
X149648701Y-59571647D01*
X149608619Y-59496666D01*
X149385639Y-59450084D01*
X148719735Y-60115988D01*
X148360525Y-60115988D01*
X147693929Y-59449392D01*
X147471637Y-59496664D01*
X147371344Y-59717016D01*
X147315967Y-59952701D01*
X147307634Y-60194661D01*
X131207024Y-60194661D01*
X131206816Y-59269787D01*
X147873534Y-59269787D01*
X148540130Y-59936383D01*
X149206034Y-59270479D01*
X149159452Y-59047499D01*
X149084471Y-59007417D01*
X148857740Y-58922522D01*
X148618803Y-58883492D01*
X148376843Y-58891825D01*
X148141158Y-58947202D01*
X147920806Y-59047495D01*
X147873534Y-59269787D01*
X131206816Y-59269787D01*
X131205999Y-55640586D01*
X161800001Y-55640013D01*
X161800000Y-117220000D01*
X161800000Y-117220000D01*
G37*
X161800000Y-117220000D02*
X131219840Y-117220000D01*
X131219503Y-115717911D01*
X136225000Y-115717911D01*
X136225000Y-115902089D01*
X136260932Y-116082729D01*
X136331414Y-116252889D01*
X136433738Y-116406028D01*
X136563972Y-116536262D01*
X136717111Y-116638586D01*
X136887271Y-116709068D01*
X137067911Y-116745000D01*
X137252089Y-116745000D01*
X137432729Y-116709068D01*
X137602889Y-116638586D01*
X137756028Y-116536262D01*
X137886262Y-116406028D01*
X137988586Y-116252889D01*
X138059068Y-116082729D01*
X138095000Y-115902089D01*
X138095000Y-115857420D01*
X142440588Y-115857420D01*
X142452848Y-115981902D01*
X142489158Y-116101600D01*
X142548123Y-116211914D01*
X142627475Y-116308605D01*
X142724166Y-116387957D01*
X142834480Y-116446922D01*
X142954178Y-116483232D01*
X143078660Y-116495492D01*
X143642910Y-116492420D01*
X143801660Y-116333670D01*
X143801660Y-115134420D01*
X142602410Y-115134420D01*
X142443660Y-115293170D01*
X142440588Y-115857420D01*
X138095000Y-115857420D01*
X138095000Y-115717911D01*
X138059068Y-115537271D01*
X137988586Y-115367111D01*
X137886262Y-115213972D01*
X137756028Y-115083738D01*
X137602889Y-114981414D01*
X137432729Y-114910932D01*
X137252089Y-114875000D01*
X137067911Y-114875000D01*
X136887271Y-114910932D01*
X136717111Y-114981414D01*
X136563972Y-115083738D01*
X136433738Y-115213972D01*
X136331414Y-115367111D01*
X136260932Y-115537271D01*
X136225000Y-115717911D01*
X131219503Y-115717911D01*
X131219153Y-114157420D01*
X142440588Y-114157420D01*
X142443660Y-114721670D01*
X142602410Y-114880420D01*
X143801660Y-114880420D01*
X143801660Y-113681170D01*
X144055660Y-113681170D01*
X144055660Y-114880420D01*
X144075660Y-114880420D01*
X144075660Y-115134420D01*
X144055660Y-115134420D01*
X144055660Y-116333670D01*
X144214410Y-116492420D01*
X144778660Y-116495492D01*
X144903142Y-116483232D01*
X145022840Y-116446922D01*
X145133154Y-116387957D01*
X145229845Y-116308605D01*
X145309197Y-116211914D01*
X145368162Y-116101600D01*
X145389053Y-116032733D01*
X145413526Y-116062554D01*
X145639646Y-116248126D01*
X145897626Y-116386019D01*
X146177549Y-116470933D01*
X146395710Y-116492420D01*
X146541610Y-116492420D01*
X146759771Y-116470933D01*
X147039694Y-116386019D01*
X147297674Y-116248126D01*
X147523794Y-116062554D01*
X147709366Y-115836434D01*
X147738660Y-115781629D01*
X147767954Y-115836434D01*
X147953526Y-116062554D01*
X148179646Y-116248126D01*
X148437626Y-116386019D01*
X148717549Y-116470933D01*
X148935710Y-116492420D01*
X149081610Y-116492420D01*
X149299771Y-116470933D01*
X149579694Y-116386019D01*
X149837674Y-116248126D01*
X150063794Y-116062554D01*
X150249366Y-115836434D01*
X150387259Y-115578454D01*
X150472173Y-115298531D01*
X150500845Y-115007420D01*
X150472173Y-114716309D01*
X150387259Y-114436386D01*
X150249366Y-114178406D01*
X150063794Y-113952286D01*
X149837674Y-113766714D01*
X149579694Y-113628821D01*
X149299771Y-113543907D01*
X149081610Y-113522420D01*
X148935710Y-113522420D01*
X148717549Y-113543907D01*
X148437626Y-113628821D01*
X148179646Y-113766714D01*
X147953526Y-113952286D01*
X147767954Y-114178406D01*
X147738660Y-114233211D01*
X147709366Y-114178406D01*
X147523794Y-113952286D01*
X147297674Y-113766714D01*
X147039694Y-113628821D01*
X146759771Y-113543907D01*
X146541610Y-113522420D01*
X146395710Y-113522420D01*
X146177549Y-113543907D01*
X145897626Y-113628821D01*
X145639646Y-113766714D01*
X145413526Y-113952286D01*
X145389053Y-113982107D01*
X145368162Y-113913240D01*
X145309197Y-113802926D01*
X145229845Y-113706235D01*
X145133154Y-113626883D01*
X145022840Y-113567918D01*
X144903142Y-113531608D01*
X144778660Y-113519348D01*
X144214410Y-113522420D01*
X144055660Y-113681170D01*
X143801660Y-113681170D01*
X143642910Y-113522420D01*
X143078660Y-113519348D01*
X142954178Y-113531608D01*
X142834480Y-113567918D01*
X142724166Y-113626883D01*
X142627475Y-113706235D01*
X142548123Y-113802926D01*
X142489158Y-113913240D01*
X142452848Y-114032938D01*
X142440588Y-114157420D01*
X131219153Y-114157420D01*
X131218787Y-112527911D01*
X136465000Y-112527911D01*
X136465000Y-112712089D01*
X136500932Y-112892729D01*
X136571414Y-113062889D01*
X136673738Y-113216028D01*
X136803972Y-113346262D01*
X136957111Y-113448586D01*
X137127271Y-113519068D01*
X137307911Y-113555000D01*
X137492089Y-113555000D01*
X137672729Y-113519068D01*
X137842889Y-113448586D01*
X137996028Y-113346262D01*
X138126262Y-113216028D01*
X138228586Y-113062889D01*
X138299068Y-112892729D01*
X138335000Y-112712089D01*
X138335000Y-112527911D01*
X138299068Y-112347271D01*
X138228586Y-112177111D01*
X138126262Y-112023972D01*
X137996028Y-111893738D01*
X137972342Y-111877911D01*
X142275000Y-111877911D01*
X142275000Y-112062089D01*
X142310932Y-112242729D01*
X142381414Y-112412889D01*
X142483738Y-112566028D01*
X142613972Y-112696262D01*
X142767111Y-112798586D01*
X142937271Y-112869068D01*
X143117911Y-112905000D01*
X143302089Y-112905000D01*
X143482729Y-112869068D01*
X143652889Y-112798586D01*
X143806028Y-112696262D01*
X143936262Y-112566028D01*
X144038586Y-112412889D01*
X144109068Y-112242729D01*
X144145000Y-112062089D01*
X144145000Y-111877911D01*
X144109068Y-111697271D01*
X144038586Y-111527111D01*
X143936262Y-111373972D01*
X143806028Y-111243738D01*
X143652889Y-111141414D01*
X143482729Y-111070932D01*
X143302089Y-111035000D01*
X143117911Y-111035000D01*
X142937271Y-111070932D01*
X142767111Y-111141414D01*
X142613972Y-111243738D01*
X142483738Y-111373972D01*
X142381414Y-111527111D01*
X142310932Y-111697271D01*
X142275000Y-111877911D01*
X137972342Y-111877911D01*
X137842889Y-111791414D01*
X137672729Y-111720932D01*
X137492089Y-111685000D01*
X137307911Y-111685000D01*
X137127271Y-111720932D01*
X136957111Y-111791414D01*
X136803972Y-111893738D01*
X136673738Y-112023972D01*
X136571414Y-112177111D01*
X136500932Y-112347271D01*
X136465000Y-112527911D01*
X131218787Y-112527911D01*
X131217119Y-105107911D01*
X136365000Y-105107911D01*
X136365000Y-105292089D01*
X136400932Y-105472729D01*
X136471414Y-105642889D01*
X136573738Y-105796028D01*
X136703972Y-105926262D01*
X136857111Y-106028586D01*
X137027271Y-106099068D01*
X137207911Y-106135000D01*
X137392089Y-106135000D01*
X137572729Y-106099068D01*
X137645905Y-106068758D01*
X137559042Y-106198757D01*
X137435792Y-106496308D01*
X137372960Y-106812187D01*
X137372960Y-107134253D01*
X137435792Y-107450132D01*
X137559042Y-107747683D01*
X137737973Y-108015472D01*
X137911192Y-108188691D01*
X137792089Y-108165000D01*
X137607911Y-108165000D01*
X137427271Y-108200932D01*
X137257111Y-108271414D01*
X137103972Y-108373738D01*
X136973738Y-108503972D01*
X136871414Y-108657111D01*
X136800932Y-108827271D01*
X136765000Y-109007911D01*
X136765000Y-109192089D01*
X136800932Y-109372729D01*
X136871414Y-109542889D01*
X136973738Y-109696028D01*
X137103972Y-109826262D01*
X137257111Y-109928586D01*
X137427271Y-109999068D01*
X137607911Y-110035000D01*
X137792089Y-110035000D01*
X137972729Y-109999068D01*
X138142889Y-109928586D01*
X138296028Y-109826262D01*
X138426262Y-109696028D01*
X138528586Y-109542889D01*
X138599068Y-109372729D01*
X138635000Y-109192089D01*
X138635000Y-109007911D01*
X138599068Y-108827271D01*
X138528586Y-108657111D01*
X138426262Y-108503972D01*
X138422868Y-108500578D01*
X138531048Y-108545388D01*
X138846927Y-108608220D01*
X139168993Y-108608220D01*
X139484872Y-108545388D01*
X139622906Y-108488212D01*
X142935000Y-108488212D01*
X142935000Y-108711788D01*
X142978617Y-108931067D01*
X143064176Y-109137624D01*
X143188388Y-109323520D01*
X143346480Y-109481612D01*
X143532376Y-109605824D01*
X143738933Y-109691383D01*
X143958212Y-109735000D01*
X144181788Y-109735000D01*
X144269888Y-109717476D01*
X144269888Y-111073220D01*
X144282148Y-111197702D01*
X144318458Y-111317400D01*
X144377423Y-111427714D01*
X144456775Y-111524405D01*
X144553466Y-111603757D01*
X144663780Y-111662722D01*
X144783478Y-111699032D01*
X144907960Y-111711292D01*
X148107960Y-111711292D01*
X148232442Y-111699032D01*
X148352140Y-111662722D01*
X148462454Y-111603757D01*
X148559145Y-111524405D01*
X148638497Y-111427714D01*
X148697462Y-111317400D01*
X148733772Y-111197702D01*
X148746032Y-111073220D01*
X148746032Y-110846971D01*
X151716090Y-110846971D01*
X151716090Y-111050849D01*
X151755864Y-111250808D01*
X151833885Y-111439166D01*
X151947153Y-111608684D01*
X152091316Y-111752847D01*
X152260834Y-111866115D01*
X152449192Y-111944136D01*
X152649151Y-111983910D01*
X152853029Y-111983910D01*
X153052988Y-111944136D01*
X153241346Y-111866115D01*
X153410864Y-111752847D01*
X153555027Y-111608684D01*
X153638612Y-111483590D01*
X153682795Y-111590256D01*
X153796063Y-111759774D01*
X153940226Y-111903937D01*
X154109744Y-112017205D01*
X154298102Y-112095226D01*
X154498061Y-112135000D01*
X154701939Y-112135000D01*
X154901898Y-112095226D01*
X155090256Y-112017205D01*
X155259774Y-111903937D01*
X155403937Y-111759774D01*
X155517205Y-111590256D01*
X155555393Y-111498061D01*
X155765000Y-111498061D01*
X155765000Y-111701939D01*
X155804774Y-111901898D01*
X155882795Y-112090256D01*
X155996063Y-112259774D01*
X156140226Y-112403937D01*
X156309744Y-112517205D01*
X156498102Y-112595226D01*
X156698061Y-112635000D01*
X156901939Y-112635000D01*
X157101898Y-112595226D01*
X157290256Y-112517205D01*
X157459774Y-112403937D01*
X157603937Y-112259774D01*
X157717205Y-112090256D01*
X157795226Y-111901898D01*
X157835000Y-111701939D01*
X157835000Y-111498061D01*
X157795226Y-111298102D01*
X157717205Y-111109744D01*
X157603937Y-110940226D01*
X157563711Y-110900000D01*
X157703937Y-110759774D01*
X157817205Y-110590256D01*
X157895226Y-110401898D01*
X157935000Y-110201939D01*
X157935000Y-109998061D01*
X157895226Y-109798102D01*
X157817205Y-109609744D01*
X157703937Y-109440226D01*
X157559774Y-109296063D01*
X157390256Y-109182795D01*
X157201898Y-109104774D01*
X157001939Y-109065000D01*
X156798061Y-109065000D01*
X156598102Y-109104774D01*
X156409744Y-109182795D01*
X156240226Y-109296063D01*
X156096063Y-109440226D01*
X155982795Y-109609744D01*
X155904774Y-109798102D01*
X155865000Y-109998061D01*
X155865000Y-110201939D01*
X155904774Y-110401898D01*
X155982795Y-110590256D01*
X156096063Y-110759774D01*
X156136289Y-110800000D01*
X155996063Y-110940226D01*
X155882795Y-111109744D01*
X155804774Y-111298102D01*
X155765000Y-111498061D01*
X155555393Y-111498061D01*
X155595226Y-111401898D01*
X155635000Y-111201939D01*
X155635000Y-110998061D01*
X155595226Y-110798102D01*
X155517205Y-110609744D01*
X155403937Y-110440226D01*
X155259774Y-110296063D01*
X155090256Y-110182795D01*
X154901898Y-110104774D01*
X154701939Y-110065000D01*
X154498061Y-110065000D01*
X154298102Y-110104774D01*
X154109744Y-110182795D01*
X153940226Y-110296063D01*
X153796063Y-110440226D01*
X153712478Y-110565320D01*
X153668295Y-110458654D01*
X153555027Y-110289136D01*
X153410864Y-110144973D01*
X153241346Y-110031705D01*
X153052988Y-109953684D01*
X152853029Y-109913910D01*
X152649151Y-109913910D01*
X152449192Y-109953684D01*
X152260834Y-110031705D01*
X152091316Y-110144973D01*
X151947153Y-110289136D01*
X151833885Y-110458654D01*
X151755864Y-110647012D01*
X151716090Y-110846971D01*
X148746032Y-110846971D01*
X148746032Y-109073220D01*
X148733772Y-108948738D01*
X148697462Y-108829040D01*
X148638497Y-108718726D01*
X148559145Y-108622035D01*
X148462454Y-108542683D01*
X148352140Y-108483718D01*
X148232442Y-108447408D01*
X148107960Y-108435148D01*
X145194445Y-108435148D01*
X145161383Y-108268933D01*
X145075824Y-108062376D01*
X144951612Y-107876480D01*
X144793520Y-107718388D01*
X144607624Y-107594176D01*
X144401067Y-107508617D01*
X144181788Y-107465000D01*
X143958212Y-107465000D01*
X143738933Y-107508617D01*
X143532376Y-107594176D01*
X143346480Y-107718388D01*
X143188388Y-107876480D01*
X143064176Y-108062376D01*
X142978617Y-108268933D01*
X142935000Y-108488212D01*
X139622906Y-108488212D01*
X139782423Y-108422138D01*
X140050212Y-108243207D01*
X140277947Y-108015472D01*
X140456878Y-107747683D01*
X140580128Y-107450132D01*
X140642960Y-107134253D01*
X140642960Y-106812187D01*
X140580128Y-106496308D01*
X140456878Y-106198757D01*
X140277947Y-105930968D01*
X140050212Y-105703233D01*
X139953025Y-105638295D01*
X139963768Y-105608633D01*
X139007960Y-104652825D01*
X138993818Y-104666968D01*
X138814213Y-104487363D01*
X138828355Y-104473220D01*
X138814213Y-104459078D01*
X138993818Y-104279473D01*
X139007960Y-104293615D01*
X139022103Y-104279473D01*
X139201708Y-104459078D01*
X139187565Y-104473220D01*
X140143373Y-105429028D01*
X140407774Y-105333264D01*
X140548664Y-105043649D01*
X140611068Y-104805632D01*
X143163660Y-104805632D01*
X143163660Y-105029208D01*
X143207277Y-105248487D01*
X143292836Y-105455044D01*
X143417048Y-105640940D01*
X143575140Y-105799032D01*
X143761036Y-105923244D01*
X143967593Y-106008803D01*
X144186872Y-106052420D01*
X144410448Y-106052420D01*
X144629727Y-106008803D01*
X144836284Y-105923244D01*
X145022180Y-105799032D01*
X145023151Y-105798061D01*
X147165000Y-105798061D01*
X147165000Y-106001939D01*
X147204774Y-106201898D01*
X147282795Y-106390256D01*
X147396063Y-106559774D01*
X147540226Y-106703937D01*
X147709744Y-106817205D01*
X147898102Y-106895226D01*
X148098061Y-106935000D01*
X148301939Y-106935000D01*
X148501898Y-106895226D01*
X148690256Y-106817205D01*
X148697765Y-106812187D01*
X151872960Y-106812187D01*
X151872960Y-107134253D01*
X151935792Y-107450132D01*
X152059042Y-107747683D01*
X152237973Y-108015472D01*
X152465708Y-108243207D01*
X152733497Y-108422138D01*
X153031048Y-108545388D01*
X153346927Y-108608220D01*
X153668993Y-108608220D01*
X153984872Y-108545388D01*
X154282423Y-108422138D01*
X154550212Y-108243207D01*
X154777947Y-108015472D01*
X154956878Y-107747683D01*
X155080128Y-107450132D01*
X155142960Y-107134253D01*
X155142960Y-106812187D01*
X155080128Y-106496308D01*
X154956878Y-106198757D01*
X154777947Y-105930968D01*
X154550212Y-105703233D01*
X154282423Y-105524302D01*
X153984872Y-105401052D01*
X153668993Y-105338220D01*
X153346927Y-105338220D01*
X153031048Y-105401052D01*
X152733497Y-105524302D01*
X152465708Y-105703233D01*
X152237973Y-105930968D01*
X152059042Y-106198757D01*
X151935792Y-106496308D01*
X151872960Y-106812187D01*
X148697765Y-106812187D01*
X148859774Y-106703937D01*
X149003937Y-106559774D01*
X149117205Y-106390256D01*
X149195226Y-106201898D01*
X149235000Y-106001939D01*
X149235000Y-105798061D01*
X149195226Y-105598102D01*
X149117205Y-105409744D01*
X149003937Y-105240226D01*
X148859774Y-105096063D01*
X148690256Y-104982795D01*
X148501898Y-104904774D01*
X148301939Y-104865000D01*
X148098061Y-104865000D01*
X147898102Y-104904774D01*
X147709744Y-104982795D01*
X147540226Y-105096063D01*
X147396063Y-105240226D01*
X147282795Y-105409744D01*
X147204774Y-105598102D01*
X147165000Y-105798061D01*
X145023151Y-105798061D01*
X145180272Y-105640940D01*
X145304484Y-105455044D01*
X145390043Y-105248487D01*
X145433660Y-105029208D01*
X145433660Y-104805632D01*
X145390043Y-104586353D01*
X145304484Y-104379796D01*
X145180272Y-104193900D01*
X145022180Y-104035808D01*
X144836284Y-103911596D01*
X144629727Y-103826037D01*
X144410448Y-103782420D01*
X144186872Y-103782420D01*
X143967593Y-103826037D01*
X143761036Y-103911596D01*
X143575140Y-104035808D01*
X143417048Y-104193900D01*
X143292836Y-104379796D01*
X143207277Y-104586353D01*
X143163660Y-104805632D01*
X140611068Y-104805632D01*
X140630344Y-104732112D01*
X140649678Y-104410625D01*
X140605921Y-104091545D01*
X140500755Y-103787132D01*
X140407774Y-103613176D01*
X140258737Y-103559196D01*
X140362454Y-103503757D01*
X140459145Y-103424405D01*
X140538497Y-103327714D01*
X140597462Y-103217400D01*
X140630456Y-103108633D01*
X152552152Y-103108633D01*
X152647916Y-103373034D01*
X152937531Y-103513924D01*
X153249068Y-103595604D01*
X153570555Y-103614938D01*
X153889635Y-103571181D01*
X154194048Y-103466015D01*
X154368004Y-103373034D01*
X154463768Y-103108633D01*
X153507960Y-102152825D01*
X152552152Y-103108633D01*
X140630456Y-103108633D01*
X140633772Y-103097702D01*
X140646032Y-102973220D01*
X140646032Y-100973220D01*
X140633772Y-100848738D01*
X140597462Y-100729040D01*
X140538497Y-100618726D01*
X140459145Y-100522035D01*
X140362454Y-100442683D01*
X140252140Y-100383718D01*
X140132442Y-100347408D01*
X140007960Y-100335148D01*
X138007960Y-100335148D01*
X137883478Y-100347408D01*
X137763780Y-100383718D01*
X137653466Y-100442683D01*
X137556775Y-100522035D01*
X137477423Y-100618726D01*
X137418458Y-100729040D01*
X137382148Y-100848738D01*
X137369888Y-100973220D01*
X137369888Y-102973220D01*
X137382148Y-103097702D01*
X137418458Y-103217400D01*
X137477423Y-103327714D01*
X137556775Y-103424405D01*
X137653466Y-103503757D01*
X137757183Y-103559196D01*
X137608146Y-103613176D01*
X137467256Y-103902791D01*
X137385576Y-104214328D01*
X137382529Y-104265000D01*
X137207911Y-104265000D01*
X137027271Y-104300932D01*
X136857111Y-104371414D01*
X136703972Y-104473738D01*
X136573738Y-104603972D01*
X136471414Y-104757111D01*
X136400932Y-104927271D01*
X136365000Y-105107911D01*
X131217119Y-105107911D01*
X131215641Y-98534254D01*
X135459991Y-98534254D01*
X135459991Y-98718432D01*
X135495923Y-98899072D01*
X135566405Y-99069232D01*
X135668729Y-99222371D01*
X135798963Y-99352605D01*
X135952102Y-99454929D01*
X136122262Y-99525411D01*
X136302902Y-99561343D01*
X136487080Y-99561343D01*
X136667720Y-99525411D01*
X136709969Y-99507911D01*
X140265000Y-99507911D01*
X140265000Y-99692089D01*
X140300932Y-99872729D01*
X140371414Y-100042889D01*
X140473738Y-100196028D01*
X140603972Y-100326262D01*
X140757111Y-100428586D01*
X140927271Y-100499068D01*
X141107911Y-100535000D01*
X141292089Y-100535000D01*
X141472729Y-100499068D01*
X141642889Y-100428586D01*
X141796028Y-100326262D01*
X141926262Y-100196028D01*
X142028586Y-100042889D01*
X142099068Y-99872729D01*
X142135000Y-99692089D01*
X142135000Y-99507911D01*
X142099068Y-99327271D01*
X142028586Y-99157111D01*
X141926262Y-99003972D01*
X141796028Y-98873738D01*
X141642889Y-98771414D01*
X141472729Y-98700932D01*
X141292089Y-98665000D01*
X141107911Y-98665000D01*
X140927271Y-98700932D01*
X140757111Y-98771414D01*
X140603972Y-98873738D01*
X140473738Y-99003972D01*
X140371414Y-99157111D01*
X140300932Y-99327271D01*
X140265000Y-99507911D01*
X136709969Y-99507911D01*
X136837880Y-99454929D01*
X136991019Y-99352605D01*
X137121253Y-99222371D01*
X137223577Y-99069232D01*
X137294059Y-98899072D01*
X137329991Y-98718432D01*
X137329991Y-98675349D01*
X137442889Y-98628586D01*
X137596028Y-98526262D01*
X137726262Y-98396028D01*
X137828586Y-98242889D01*
X137899068Y-98072729D01*
X137935000Y-97892089D01*
X137935000Y-97707911D01*
X137899068Y-97527271D01*
X137828586Y-97357111D01*
X137726262Y-97203972D01*
X137596028Y-97073738D01*
X137442889Y-96971414D01*
X137272729Y-96900932D01*
X137092089Y-96865000D01*
X136907911Y-96865000D01*
X136727271Y-96900932D01*
X136557111Y-96971414D01*
X136403972Y-97073738D01*
X136273738Y-97203972D01*
X136171414Y-97357111D01*
X136100932Y-97527271D01*
X136065000Y-97707911D01*
X136065000Y-97750994D01*
X135952102Y-97797757D01*
X135798963Y-97900081D01*
X135668729Y-98030315D01*
X135566405Y-98183454D01*
X135495923Y-98353614D01*
X135459991Y-98534254D01*
X131215641Y-98534254D01*
X131215264Y-96858212D01*
X142905000Y-96858212D01*
X142905000Y-97081788D01*
X142948617Y-97301067D01*
X143034176Y-97507624D01*
X143158388Y-97693520D01*
X143316480Y-97851612D01*
X143502376Y-97975824D01*
X143708933Y-98061383D01*
X143928212Y-98105000D01*
X144151788Y-98105000D01*
X144269888Y-98081509D01*
X144269888Y-99873220D01*
X144282148Y-99997702D01*
X144318458Y-100117400D01*
X144377423Y-100227714D01*
X144456775Y-100324405D01*
X144539608Y-100392384D01*
X144401939Y-100365000D01*
X144198061Y-100365000D01*
X143998102Y-100404774D01*
X143809744Y-100482795D01*
X143640226Y-100596063D01*
X143496063Y-100740226D01*
X143382795Y-100909744D01*
X143304774Y-101098102D01*
X143265000Y-101298061D01*
X143265000Y-101501939D01*
X143304774Y-101701898D01*
X143382795Y-101890256D01*
X143496063Y-102059774D01*
X143640226Y-102203937D01*
X143809744Y-102317205D01*
X143998102Y-102395226D01*
X144198061Y-102435000D01*
X144401939Y-102435000D01*
X144601898Y-102395226D01*
X144790256Y-102317205D01*
X144959774Y-102203937D01*
X145103937Y-102059774D01*
X145119945Y-102035815D01*
X151866242Y-102035815D01*
X151909999Y-102354895D01*
X152015165Y-102659308D01*
X152108146Y-102833264D01*
X152372547Y-102929028D01*
X153328355Y-101973220D01*
X153687565Y-101973220D01*
X154643373Y-102929028D01*
X154907774Y-102833264D01*
X155048664Y-102543649D01*
X155130344Y-102232112D01*
X155149678Y-101910625D01*
X155105921Y-101591545D01*
X155000755Y-101287132D01*
X154907774Y-101113176D01*
X154643373Y-101017412D01*
X153687565Y-101973220D01*
X153328355Y-101973220D01*
X152372547Y-101017412D01*
X152108146Y-101113176D01*
X151967256Y-101402791D01*
X151885576Y-101714328D01*
X151866242Y-102035815D01*
X145119945Y-102035815D01*
X145217205Y-101890256D01*
X145295226Y-101701898D01*
X145335000Y-101501939D01*
X145335000Y-101298061D01*
X145295226Y-101098102D01*
X145217205Y-100909744D01*
X145169139Y-100837807D01*
X152552152Y-100837807D01*
X153507960Y-101793615D01*
X154463768Y-100837807D01*
X154368004Y-100573406D01*
X154078389Y-100432516D01*
X153766852Y-100350836D01*
X153445365Y-100331502D01*
X153126285Y-100375259D01*
X152821872Y-100480425D01*
X152647916Y-100573406D01*
X152552152Y-100837807D01*
X145169139Y-100837807D01*
X145103937Y-100740226D01*
X144959774Y-100596063D01*
X144819929Y-100502622D01*
X144907960Y-100511292D01*
X148107960Y-100511292D01*
X148232442Y-100499032D01*
X148352140Y-100462722D01*
X148462454Y-100403757D01*
X148559145Y-100324405D01*
X148638497Y-100227714D01*
X148697462Y-100117400D01*
X148733772Y-99997702D01*
X148746032Y-99873220D01*
X148746032Y-98268705D01*
X148842889Y-98228586D01*
X148996028Y-98126262D01*
X149126262Y-97996028D01*
X149228586Y-97842889D01*
X149299068Y-97672729D01*
X149335000Y-97492089D01*
X149335000Y-97307911D01*
X149299068Y-97127271D01*
X149228586Y-96957111D01*
X149126262Y-96803972D01*
X148996028Y-96673738D01*
X148842889Y-96571414D01*
X148672729Y-96500932D01*
X148492089Y-96465000D01*
X148307911Y-96465000D01*
X148127271Y-96500932D01*
X147957111Y-96571414D01*
X147803972Y-96673738D01*
X147673738Y-96803972D01*
X147571414Y-96957111D01*
X147500932Y-97127271D01*
X147479474Y-97235148D01*
X145144495Y-97235148D01*
X145175000Y-97081788D01*
X145175000Y-96858212D01*
X145131383Y-96638933D01*
X145045824Y-96432376D01*
X144921612Y-96246480D01*
X144763520Y-96088388D01*
X144577624Y-95964176D01*
X144371067Y-95878617D01*
X144151788Y-95835000D01*
X143928212Y-95835000D01*
X143708933Y-95878617D01*
X143502376Y-95964176D01*
X143316480Y-96088388D01*
X143158388Y-96246480D01*
X143034176Y-96432376D01*
X142948617Y-96638933D01*
X142905000Y-96858212D01*
X131215264Y-96858212D01*
X131214794Y-94768947D01*
X135427431Y-94093181D01*
X135403055Y-94152031D01*
X135359438Y-94371310D01*
X135359438Y-94594886D01*
X135403055Y-94814165D01*
X135488614Y-95020722D01*
X135612826Y-95206618D01*
X135770918Y-95364710D01*
X135956814Y-95488922D01*
X136163371Y-95574481D01*
X136382650Y-95618098D01*
X136606226Y-95618098D01*
X136825505Y-95574481D01*
X137032062Y-95488922D01*
X137217958Y-95364710D01*
X137376050Y-95206618D01*
X137500262Y-95020722D01*
X137585821Y-94814165D01*
X137629438Y-94594886D01*
X137629438Y-94371310D01*
X137585821Y-94152031D01*
X137500262Y-93945474D01*
X137388734Y-93778561D01*
X138203775Y-93647817D01*
X138232090Y-93639823D01*
X138254063Y-93628119D01*
X138273332Y-93612353D01*
X138289154Y-93593131D01*
X138300922Y-93571192D01*
X138308183Y-93547378D01*
X138310660Y-93522605D01*
X138310750Y-93460197D01*
X139396985Y-93460197D01*
X139396985Y-93683773D01*
X139440602Y-93903052D01*
X139526161Y-94109609D01*
X139650373Y-94295505D01*
X139808465Y-94453597D01*
X139994361Y-94577809D01*
X140200918Y-94663368D01*
X140420197Y-94706985D01*
X140643773Y-94706985D01*
X140863052Y-94663368D01*
X141069609Y-94577809D01*
X141255505Y-94453597D01*
X141413597Y-94295505D01*
X141537809Y-94109609D01*
X141584085Y-93997888D01*
X141604774Y-94101898D01*
X141682795Y-94290256D01*
X141796063Y-94459774D01*
X141940226Y-94603937D01*
X142109744Y-94717205D01*
X142298102Y-94795226D01*
X142498061Y-94835000D01*
X142701939Y-94835000D01*
X142901898Y-94795226D01*
X143090256Y-94717205D01*
X143259774Y-94603937D01*
X143403937Y-94459774D01*
X143438590Y-94407911D01*
X152165000Y-94407911D01*
X152165000Y-94592089D01*
X152200932Y-94772729D01*
X152271414Y-94942889D01*
X152373738Y-95096028D01*
X152503972Y-95226262D01*
X152657111Y-95328586D01*
X152827271Y-95399068D01*
X153007911Y-95435000D01*
X153192089Y-95435000D01*
X153372729Y-95399068D01*
X153542889Y-95328586D01*
X153696028Y-95226262D01*
X153826262Y-95096028D01*
X153928586Y-94942889D01*
X153999068Y-94772729D01*
X154022364Y-94655614D01*
X154127271Y-94699068D01*
X154307911Y-94735000D01*
X154492089Y-94735000D01*
X154672729Y-94699068D01*
X154842889Y-94628586D01*
X154959522Y-94550655D01*
X154962719Y-94551979D01*
X155081617Y-94575630D01*
X155100932Y-94672729D01*
X155171414Y-94842889D01*
X155273738Y-94996028D01*
X155403972Y-95126262D01*
X155557111Y-95228586D01*
X155727271Y-95299068D01*
X155907911Y-95335000D01*
X156092089Y-95335000D01*
X156272729Y-95299068D01*
X156442889Y-95228586D01*
X156596028Y-95126262D01*
X156726262Y-94996028D01*
X156828586Y-94842889D01*
X156899068Y-94672729D01*
X156935000Y-94492089D01*
X156935000Y-94307911D01*
X156899068Y-94127271D01*
X156828586Y-93957111D01*
X156726262Y-93803972D01*
X156596028Y-93673738D01*
X156442889Y-93571414D01*
X156272729Y-93500932D01*
X156153831Y-93477281D01*
X156134516Y-93380182D01*
X156064034Y-93210022D01*
X155961710Y-93056883D01*
X155831476Y-92926649D01*
X155678337Y-92824325D01*
X155508177Y-92753843D01*
X155327537Y-92717911D01*
X155143359Y-92717911D01*
X154962719Y-92753843D01*
X154792559Y-92824325D01*
X154675926Y-92902256D01*
X154672729Y-92900932D01*
X154492089Y-92865000D01*
X154307911Y-92865000D01*
X154127271Y-92900932D01*
X153957111Y-92971414D01*
X153803972Y-93073738D01*
X153673738Y-93203972D01*
X153571414Y-93357111D01*
X153500932Y-93527271D01*
X153477636Y-93644386D01*
X153372729Y-93600932D01*
X153192089Y-93565000D01*
X153007911Y-93565000D01*
X152827271Y-93600932D01*
X152657111Y-93671414D01*
X152503972Y-93773738D01*
X152373738Y-93903972D01*
X152271414Y-94057111D01*
X152200932Y-94227271D01*
X152165000Y-94407911D01*
X143438590Y-94407911D01*
X143517205Y-94290256D01*
X143595226Y-94101898D01*
X143635000Y-93901939D01*
X143635000Y-93698061D01*
X143595226Y-93498102D01*
X143517205Y-93309744D01*
X143403937Y-93140226D01*
X143259774Y-92996063D01*
X143090256Y-92882795D01*
X142901898Y-92804774D01*
X142701939Y-92765000D01*
X142498061Y-92765000D01*
X142298102Y-92804774D01*
X142109744Y-92882795D01*
X141940226Y-92996063D01*
X141796063Y-93140226D01*
X141682795Y-93309744D01*
X141651896Y-93384340D01*
X141623368Y-93240918D01*
X141537809Y-93034361D01*
X141413597Y-92848465D01*
X141255505Y-92690373D01*
X141069609Y-92566161D01*
X140863052Y-92480602D01*
X140643773Y-92436985D01*
X140420197Y-92436985D01*
X140200918Y-92480602D01*
X139994361Y-92566161D01*
X139808465Y-92690373D01*
X139650373Y-92848465D01*
X139526161Y-93034361D01*
X139440602Y-93240918D01*
X139396985Y-93460197D01*
X138310750Y-93460197D01*
X138315765Y-90018212D01*
X139605000Y-90018212D01*
X139605000Y-90241788D01*
X139648617Y-90461067D01*
X139734176Y-90667624D01*
X139858388Y-90853520D01*
X140016480Y-91011612D01*
X140202376Y-91135824D01*
X140408933Y-91221383D01*
X140628212Y-91265000D01*
X140851788Y-91265000D01*
X141071067Y-91221383D01*
X141277624Y-91135824D01*
X141463520Y-91011612D01*
X141621612Y-90853520D01*
X141745824Y-90667624D01*
X141831383Y-90461067D01*
X141875000Y-90241788D01*
X141875000Y-90018212D01*
X141831383Y-89798933D01*
X141745824Y-89592376D01*
X141621612Y-89406480D01*
X141463520Y-89248388D01*
X141277624Y-89124176D01*
X141071067Y-89038617D01*
X140851788Y-88995000D01*
X140628212Y-88995000D01*
X140408933Y-89038617D01*
X140202376Y-89124176D01*
X140016480Y-89248388D01*
X139858388Y-89406480D01*
X139734176Y-89592376D01*
X139648617Y-89798933D01*
X139605000Y-90018212D01*
X138315765Y-90018212D01*
X138317528Y-88807911D01*
X150365000Y-88807911D01*
X150365000Y-88992089D01*
X150400932Y-89172729D01*
X150471414Y-89342889D01*
X150573738Y-89496028D01*
X150703972Y-89626262D01*
X150857111Y-89728586D01*
X151027271Y-89799068D01*
X151207911Y-89835000D01*
X151392089Y-89835000D01*
X151572729Y-89799068D01*
X151742889Y-89728586D01*
X151896028Y-89626262D01*
X152026262Y-89496028D01*
X152128586Y-89342889D01*
X152199068Y-89172729D01*
X152235000Y-88992089D01*
X152235000Y-88955289D01*
X152382079Y-89053564D01*
X152552239Y-89124046D01*
X152732879Y-89159978D01*
X152917057Y-89159978D01*
X153097697Y-89124046D01*
X153267857Y-89053564D01*
X153420996Y-88951240D01*
X153464325Y-88907911D01*
X154565000Y-88907911D01*
X154565000Y-89092089D01*
X154600932Y-89272729D01*
X154671414Y-89442889D01*
X154773738Y-89596028D01*
X154903972Y-89726262D01*
X155057111Y-89828586D01*
X155227271Y-89899068D01*
X155407911Y-89935000D01*
X155592089Y-89935000D01*
X155772729Y-89899068D01*
X155942889Y-89828586D01*
X156096028Y-89726262D01*
X156226262Y-89596028D01*
X156328586Y-89442889D01*
X156399068Y-89272729D01*
X156435000Y-89092089D01*
X156435000Y-88907911D01*
X156399068Y-88727271D01*
X156328586Y-88557111D01*
X156226262Y-88403972D01*
X156096028Y-88273738D01*
X155942889Y-88171414D01*
X155772729Y-88100932D01*
X155592089Y-88065000D01*
X155407911Y-88065000D01*
X155227271Y-88100932D01*
X155057111Y-88171414D01*
X154903972Y-88273738D01*
X154773738Y-88403972D01*
X154671414Y-88557111D01*
X154600932Y-88727271D01*
X154565000Y-88907911D01*
X153464325Y-88907911D01*
X153551230Y-88821006D01*
X153653554Y-88667867D01*
X153724036Y-88497707D01*
X153759968Y-88317067D01*
X153759968Y-88132889D01*
X153724036Y-87952249D01*
X153653554Y-87782089D01*
X153551230Y-87628950D01*
X153420996Y-87498716D01*
X153328885Y-87437170D01*
X153408586Y-87317889D01*
X153479068Y-87147729D01*
X153515000Y-86967089D01*
X153515000Y-86782911D01*
X153479068Y-86602271D01*
X153408586Y-86432111D01*
X153306262Y-86278972D01*
X153176028Y-86148738D01*
X153022889Y-86046414D01*
X152852729Y-85975932D01*
X152672089Y-85940000D01*
X152487911Y-85940000D01*
X152307271Y-85975932D01*
X152137111Y-86046414D01*
X151983972Y-86148738D01*
X151853738Y-86278972D01*
X151751414Y-86432111D01*
X151680932Y-86602271D01*
X151645000Y-86782911D01*
X151645000Y-86967089D01*
X151680932Y-87147729D01*
X151751414Y-87317889D01*
X151853738Y-87471028D01*
X151983972Y-87601262D01*
X152076083Y-87662808D01*
X151996382Y-87782089D01*
X151925900Y-87952249D01*
X151889968Y-88132889D01*
X151889968Y-88169689D01*
X151742889Y-88071414D01*
X151572729Y-88000932D01*
X151392089Y-87965000D01*
X151207911Y-87965000D01*
X151027271Y-88000932D01*
X150857111Y-88071414D01*
X150703972Y-88173738D01*
X150573738Y-88303972D01*
X150471414Y-88457111D01*
X150400932Y-88627271D01*
X150365000Y-88807911D01*
X138317528Y-88807911D01*
X138324666Y-83907911D01*
X153065000Y-83907911D01*
X153065000Y-84092089D01*
X153100932Y-84272729D01*
X153171414Y-84442889D01*
X153273738Y-84596028D01*
X153403972Y-84726262D01*
X153557111Y-84828586D01*
X153727271Y-84899068D01*
X153907911Y-84935000D01*
X154092089Y-84935000D01*
X154272729Y-84899068D01*
X154442889Y-84828586D01*
X154596028Y-84726262D01*
X154726262Y-84596028D01*
X154828586Y-84442889D01*
X154899068Y-84272729D01*
X154935000Y-84092089D01*
X154935000Y-83907911D01*
X154899068Y-83727271D01*
X154828586Y-83557111D01*
X154726262Y-83403972D01*
X154596028Y-83273738D01*
X154442889Y-83171414D01*
X154272729Y-83100932D01*
X154092089Y-83065000D01*
X153907911Y-83065000D01*
X153727271Y-83100932D01*
X153557111Y-83171414D01*
X153403972Y-83273738D01*
X153273738Y-83403972D01*
X153171414Y-83557111D01*
X153100932Y-83727271D01*
X153065000Y-83907911D01*
X138324666Y-83907911D01*
X138326561Y-82607911D01*
X142465000Y-82607911D01*
X142465000Y-82792089D01*
X142500932Y-82972729D01*
X142571414Y-83142889D01*
X142673738Y-83296028D01*
X142803972Y-83426262D01*
X142957111Y-83528586D01*
X143127271Y-83599068D01*
X143307911Y-83635000D01*
X143492089Y-83635000D01*
X143672729Y-83599068D01*
X143842889Y-83528586D01*
X143996028Y-83426262D01*
X144126262Y-83296028D01*
X144228586Y-83142889D01*
X144299068Y-82972729D01*
X144335000Y-82792089D01*
X144335000Y-82607911D01*
X144299068Y-82427271D01*
X144228586Y-82257111D01*
X144159448Y-82153639D01*
X144164335Y-82153639D01*
X144344975Y-82117707D01*
X144515135Y-82047225D01*
X144668274Y-81944901D01*
X144798508Y-81814667D01*
X144900832Y-81661528D01*
X144971314Y-81491368D01*
X145007246Y-81310728D01*
X145007246Y-81126550D01*
X144971314Y-80945910D01*
X144900832Y-80775750D01*
X144798508Y-80622611D01*
X144668274Y-80492377D01*
X144515135Y-80390053D01*
X144344975Y-80319571D01*
X144164335Y-80283639D01*
X143980157Y-80283639D01*
X143799517Y-80319571D01*
X143629357Y-80390053D01*
X143476218Y-80492377D01*
X143345984Y-80622611D01*
X143243660Y-80775750D01*
X143173178Y-80945910D01*
X143137246Y-81126550D01*
X143137246Y-81310728D01*
X143173178Y-81491368D01*
X143243660Y-81661528D01*
X143312798Y-81765000D01*
X143307911Y-81765000D01*
X143127271Y-81800932D01*
X142957111Y-81871414D01*
X142803972Y-81973738D01*
X142673738Y-82103972D01*
X142571414Y-82257111D01*
X142500932Y-82427271D01*
X142465000Y-82607911D01*
X138326561Y-82607911D01*
X138331806Y-79007911D01*
X144065000Y-79007911D01*
X144065000Y-79192089D01*
X144100932Y-79372729D01*
X144171414Y-79542889D01*
X144273738Y-79696028D01*
X144403972Y-79826262D01*
X144557111Y-79928586D01*
X144727271Y-79999068D01*
X144907911Y-80035000D01*
X145092089Y-80035000D01*
X145272729Y-79999068D01*
X145442889Y-79928586D01*
X145596028Y-79826262D01*
X145726262Y-79696028D01*
X145828586Y-79542889D01*
X145899068Y-79372729D01*
X145935000Y-79192089D01*
X145935000Y-79007911D01*
X148165000Y-79007911D01*
X148165000Y-79192089D01*
X148200932Y-79372729D01*
X148271414Y-79542889D01*
X148373738Y-79696028D01*
X148503972Y-79826262D01*
X148657111Y-79928586D01*
X148827271Y-79999068D01*
X149007911Y-80035000D01*
X149192089Y-80035000D01*
X149372729Y-79999068D01*
X149542889Y-79928586D01*
X149696028Y-79826262D01*
X149826262Y-79696028D01*
X149928586Y-79542889D01*
X149999068Y-79372729D01*
X150035000Y-79192089D01*
X150035000Y-79007911D01*
X150030030Y-78982921D01*
X150610159Y-78982921D01*
X150610159Y-79167099D01*
X150646091Y-79347739D01*
X150716573Y-79517899D01*
X150818897Y-79671038D01*
X150949131Y-79801272D01*
X151102270Y-79903596D01*
X151272430Y-79974078D01*
X151453070Y-80010010D01*
X151637248Y-80010010D01*
X151817888Y-79974078D01*
X151988048Y-79903596D01*
X152141187Y-79801272D01*
X152271421Y-79671038D01*
X152373745Y-79517899D01*
X152444227Y-79347739D01*
X152480159Y-79167099D01*
X152480159Y-78982921D01*
X152444227Y-78802281D01*
X152373745Y-78632121D01*
X152271421Y-78478982D01*
X152141187Y-78348748D01*
X151988048Y-78246424D01*
X151817888Y-78175942D01*
X151637248Y-78140010D01*
X151453070Y-78140010D01*
X151272430Y-78175942D01*
X151102270Y-78246424D01*
X150949131Y-78348748D01*
X150818897Y-78478982D01*
X150716573Y-78632121D01*
X150646091Y-78802281D01*
X150610159Y-78982921D01*
X150030030Y-78982921D01*
X149999068Y-78827271D01*
X149928586Y-78657111D01*
X149826262Y-78503972D01*
X149696028Y-78373738D01*
X149542889Y-78271414D01*
X149372729Y-78200932D01*
X149192089Y-78165000D01*
X149007911Y-78165000D01*
X148827271Y-78200932D01*
X148657111Y-78271414D01*
X148503972Y-78373738D01*
X148373738Y-78503972D01*
X148271414Y-78657111D01*
X148200932Y-78827271D01*
X148165000Y-79007911D01*
X145935000Y-79007911D01*
X145899068Y-78827271D01*
X145828586Y-78657111D01*
X145726262Y-78503972D01*
X145596028Y-78373738D01*
X145442889Y-78271414D01*
X145272729Y-78200932D01*
X145092089Y-78165000D01*
X144907911Y-78165000D01*
X144727271Y-78200932D01*
X144557111Y-78271414D01*
X144403972Y-78373738D01*
X144273738Y-78503972D01*
X144171414Y-78657111D01*
X144100932Y-78827271D01*
X144065000Y-79007911D01*
X138331806Y-79007911D01*
X138336761Y-75607911D01*
X139965000Y-75607911D01*
X139965000Y-75792089D01*
X140000932Y-75972729D01*
X140071414Y-76142889D01*
X140173738Y-76296028D01*
X140303972Y-76426262D01*
X140457111Y-76528586D01*
X140627271Y-76599068D01*
X140807911Y-76635000D01*
X140992089Y-76635000D01*
X141172729Y-76599068D01*
X141342889Y-76528586D01*
X141496028Y-76426262D01*
X141614379Y-76307911D01*
X141965000Y-76307911D01*
X141965000Y-76492089D01*
X142000932Y-76672729D01*
X142071414Y-76842889D01*
X142173738Y-76996028D01*
X142303972Y-77126262D01*
X142457111Y-77228586D01*
X142627271Y-77299068D01*
X142807911Y-77335000D01*
X142992089Y-77335000D01*
X143024089Y-77328635D01*
X143071414Y-77442889D01*
X143173738Y-77596028D01*
X143303972Y-77726262D01*
X143457111Y-77828586D01*
X143627271Y-77899068D01*
X143807911Y-77935000D01*
X143992089Y-77935000D01*
X144172729Y-77899068D01*
X144342889Y-77828586D01*
X144496028Y-77726262D01*
X144626262Y-77596028D01*
X144728586Y-77442889D01*
X144799068Y-77272729D01*
X144835000Y-77092089D01*
X144835000Y-76907911D01*
X144799068Y-76727271D01*
X144794887Y-76717177D01*
X144803972Y-76726262D01*
X144957111Y-76828586D01*
X145127271Y-76899068D01*
X145307911Y-76935000D01*
X145492089Y-76935000D01*
X145672729Y-76899068D01*
X145842889Y-76828586D01*
X145996028Y-76726262D01*
X146126262Y-76596028D01*
X146228586Y-76442889D01*
X146239410Y-76416758D01*
X146257111Y-76428586D01*
X146427271Y-76499068D01*
X146607911Y-76535000D01*
X146792089Y-76535000D01*
X146972729Y-76499068D01*
X147142889Y-76428586D01*
X147296028Y-76326262D01*
X147426262Y-76196028D01*
X147436222Y-76181122D01*
X147526051Y-76315562D01*
X147656285Y-76445796D01*
X147809424Y-76548120D01*
X147979584Y-76618602D01*
X148160224Y-76654534D01*
X148344402Y-76654534D01*
X148525042Y-76618602D01*
X148634964Y-76573071D01*
X149347366Y-76573071D01*
X149347366Y-76776949D01*
X149387140Y-76976908D01*
X149465161Y-77165266D01*
X149578429Y-77334784D01*
X149722592Y-77478947D01*
X149892110Y-77592215D01*
X150080468Y-77670236D01*
X150280427Y-77710010D01*
X150484305Y-77710010D01*
X150684264Y-77670236D01*
X150872622Y-77592215D01*
X151042140Y-77478947D01*
X151186303Y-77334784D01*
X151299571Y-77165266D01*
X151364750Y-77007911D01*
X151380002Y-77007911D01*
X151380002Y-77192089D01*
X151415934Y-77372729D01*
X151486416Y-77542889D01*
X151588740Y-77696028D01*
X151718974Y-77826262D01*
X151872113Y-77928586D01*
X152042273Y-77999068D01*
X152222913Y-78035000D01*
X152407091Y-78035000D01*
X152587731Y-77999068D01*
X152757891Y-77928586D01*
X152911030Y-77826262D01*
X153041264Y-77696028D01*
X153143588Y-77542889D01*
X153214070Y-77372729D01*
X153250002Y-77192089D01*
X153250002Y-77007911D01*
X153214070Y-76827271D01*
X153143588Y-76657111D01*
X153041264Y-76503972D01*
X152911030Y-76373738D01*
X152757891Y-76271414D01*
X152587731Y-76200932D01*
X152407091Y-76165000D01*
X152222913Y-76165000D01*
X152042273Y-76200932D01*
X151872113Y-76271414D01*
X151718974Y-76373738D01*
X151588740Y-76503972D01*
X151486416Y-76657111D01*
X151415934Y-76827271D01*
X151380002Y-77007911D01*
X151364750Y-77007911D01*
X151377592Y-76976908D01*
X151417366Y-76776949D01*
X151417366Y-76573071D01*
X151377592Y-76373112D01*
X151299571Y-76184754D01*
X151186303Y-76015236D01*
X151042140Y-75871073D01*
X150872622Y-75757805D01*
X150684264Y-75679784D01*
X150484305Y-75640010D01*
X150280427Y-75640010D01*
X150080468Y-75679784D01*
X149892110Y-75757805D01*
X149722592Y-75871073D01*
X149578429Y-76015236D01*
X149465161Y-76184754D01*
X149387140Y-76373112D01*
X149347366Y-76573071D01*
X148634964Y-76573071D01*
X148695202Y-76548120D01*
X148848341Y-76445796D01*
X148978575Y-76315562D01*
X149080899Y-76162423D01*
X149151381Y-75992263D01*
X149187313Y-75811623D01*
X149187313Y-75627445D01*
X149151381Y-75446805D01*
X149080899Y-75276645D01*
X148978575Y-75123506D01*
X148848341Y-74993272D01*
X148695202Y-74890948D01*
X148525042Y-74820466D01*
X148344402Y-74784534D01*
X148160224Y-74784534D01*
X147979584Y-74820466D01*
X147809424Y-74890948D01*
X147656285Y-74993272D01*
X147526051Y-75123506D01*
X147516091Y-75138412D01*
X147426262Y-75003972D01*
X147296028Y-74873738D01*
X147142889Y-74771414D01*
X146972729Y-74700932D01*
X146792089Y-74665000D01*
X146607911Y-74665000D01*
X146427271Y-74700932D01*
X146257111Y-74771414D01*
X146103972Y-74873738D01*
X145973738Y-75003972D01*
X145871414Y-75157111D01*
X145860590Y-75183242D01*
X145842889Y-75171414D01*
X145672729Y-75100932D01*
X145492089Y-75065000D01*
X145307911Y-75065000D01*
X145127271Y-75100932D01*
X144957111Y-75171414D01*
X144803972Y-75273738D01*
X144676946Y-75400764D01*
X144653576Y-75344343D01*
X144551252Y-75191204D01*
X144421018Y-75060970D01*
X144267879Y-74958646D01*
X144097719Y-74888164D01*
X143917079Y-74852232D01*
X143732901Y-74852232D01*
X143552261Y-74888164D01*
X143382101Y-74958646D01*
X143228962Y-75060970D01*
X143098728Y-75191204D01*
X142996404Y-75344343D01*
X142946427Y-75465000D01*
X142807911Y-75465000D01*
X142627271Y-75500932D01*
X142457111Y-75571414D01*
X142303972Y-75673738D01*
X142173738Y-75803972D01*
X142071414Y-75957111D01*
X142000932Y-76127271D01*
X141965000Y-76307911D01*
X141614379Y-76307911D01*
X141626262Y-76296028D01*
X141728586Y-76142889D01*
X141799068Y-75972729D01*
X141835000Y-75792089D01*
X141835000Y-75607911D01*
X141799068Y-75427271D01*
X141728586Y-75257111D01*
X141626262Y-75103972D01*
X141496028Y-74973738D01*
X141342889Y-74871414D01*
X141172729Y-74800932D01*
X140992089Y-74765000D01*
X140807911Y-74765000D01*
X140627271Y-74800932D01*
X140457111Y-74871414D01*
X140303972Y-74973738D01*
X140173738Y-75103972D01*
X140071414Y-75257111D01*
X140000932Y-75427271D01*
X139965000Y-75607911D01*
X138336761Y-75607911D01*
X138340660Y-72932605D01*
X138339322Y-72914034D01*
X138333321Y-72889872D01*
X138322721Y-72867345D01*
X138307929Y-72847318D01*
X138289515Y-72830563D01*
X138268187Y-72817721D01*
X138244762Y-72809287D01*
X135072136Y-72007911D01*
X139735000Y-72007911D01*
X139735000Y-72192089D01*
X139770932Y-72372729D01*
X139841414Y-72542889D01*
X139943738Y-72696028D01*
X140073972Y-72826262D01*
X140227111Y-72928586D01*
X140397271Y-72999068D01*
X140577911Y-73035000D01*
X140762089Y-73035000D01*
X140942729Y-72999068D01*
X141112889Y-72928586D01*
X141266028Y-72826262D01*
X141396262Y-72696028D01*
X141498586Y-72542889D01*
X141569068Y-72372729D01*
X141605000Y-72192089D01*
X141605000Y-72101317D01*
X143958406Y-72101317D01*
X143958406Y-72285495D01*
X143994338Y-72466135D01*
X144064820Y-72636295D01*
X144167144Y-72789434D01*
X144297378Y-72919668D01*
X144450517Y-73021992D01*
X144620677Y-73092474D01*
X144801317Y-73128406D01*
X144985495Y-73128406D01*
X145166135Y-73092474D01*
X145336295Y-73021992D01*
X145489434Y-72919668D01*
X145604800Y-72804302D01*
X145677239Y-72912716D01*
X145807473Y-73042950D01*
X145960612Y-73145274D01*
X146130772Y-73215756D01*
X146311412Y-73251688D01*
X146495590Y-73251688D01*
X146676230Y-73215756D01*
X146846390Y-73145274D01*
X146999529Y-73042950D01*
X147082700Y-72959779D01*
X147173738Y-73096028D01*
X147303972Y-73226262D01*
X147457111Y-73328586D01*
X147627271Y-73399068D01*
X147807911Y-73435000D01*
X147992089Y-73435000D01*
X148172729Y-73399068D01*
X148342889Y-73328586D01*
X148496028Y-73226262D01*
X148607303Y-73114987D01*
X148707911Y-73135000D01*
X148892089Y-73135000D01*
X149072729Y-73099068D01*
X149242889Y-73028586D01*
X149368399Y-72944723D01*
X157615000Y-72944723D01*
X157615000Y-73128901D01*
X157650932Y-73309541D01*
X157721414Y-73479701D01*
X157823738Y-73632840D01*
X157953972Y-73763074D01*
X158107111Y-73865398D01*
X158277271Y-73935880D01*
X158457911Y-73971812D01*
X158642089Y-73971812D01*
X158822729Y-73935880D01*
X158992889Y-73865398D01*
X159146028Y-73763074D01*
X159276262Y-73632840D01*
X159378586Y-73479701D01*
X159449068Y-73309541D01*
X159485000Y-73128901D01*
X159485000Y-72944723D01*
X159449068Y-72764083D01*
X159378586Y-72593923D01*
X159276262Y-72440784D01*
X159146028Y-72310550D01*
X158992889Y-72208226D01*
X158822729Y-72137744D01*
X158642089Y-72101812D01*
X158457911Y-72101812D01*
X158277271Y-72137744D01*
X158107111Y-72208226D01*
X157953972Y-72310550D01*
X157823738Y-72440784D01*
X157721414Y-72593923D01*
X157650932Y-72764083D01*
X157615000Y-72944723D01*
X149368399Y-72944723D01*
X149396028Y-72926262D01*
X149526262Y-72796028D01*
X149628586Y-72642889D01*
X149699068Y-72472729D01*
X149735000Y-72292089D01*
X149735000Y-72107911D01*
X149720497Y-72035000D01*
X149792089Y-72035000D01*
X149972729Y-71999068D01*
X150142889Y-71928586D01*
X150296028Y-71826262D01*
X150426262Y-71696028D01*
X150528586Y-71542889D01*
X150599068Y-71372729D01*
X150635000Y-71192089D01*
X150635000Y-71007911D01*
X150599068Y-70827271D01*
X150528586Y-70657111D01*
X150426262Y-70503972D01*
X150296028Y-70373738D01*
X150142889Y-70271414D01*
X149972729Y-70200932D01*
X149792089Y-70165000D01*
X149607911Y-70165000D01*
X149427271Y-70200932D01*
X149257111Y-70271414D01*
X149103972Y-70373738D01*
X148973738Y-70503972D01*
X148871414Y-70657111D01*
X148800932Y-70827271D01*
X148765000Y-71007911D01*
X148765000Y-71192089D01*
X148779503Y-71265000D01*
X148707911Y-71265000D01*
X148527271Y-71300932D01*
X148357111Y-71371414D01*
X148203972Y-71473738D01*
X148092697Y-71585013D01*
X147992089Y-71565000D01*
X147807911Y-71565000D01*
X147627271Y-71600932D01*
X147457111Y-71671414D01*
X147303972Y-71773738D01*
X147220801Y-71856909D01*
X147129763Y-71720660D01*
X146999529Y-71590426D01*
X146846390Y-71488102D01*
X146676230Y-71417620D01*
X146495590Y-71381688D01*
X146311412Y-71381688D01*
X146130772Y-71417620D01*
X145960612Y-71488102D01*
X145807473Y-71590426D01*
X145692107Y-71705792D01*
X145619668Y-71597378D01*
X145489434Y-71467144D01*
X145336295Y-71364820D01*
X145166135Y-71294338D01*
X144985495Y-71258406D01*
X144801317Y-71258406D01*
X144620677Y-71294338D01*
X144450517Y-71364820D01*
X144297378Y-71467144D01*
X144167144Y-71597378D01*
X144064820Y-71750517D01*
X143994338Y-71920677D01*
X143958406Y-72101317D01*
X141605000Y-72101317D01*
X141605000Y-72007911D01*
X141569068Y-71827271D01*
X141498586Y-71657111D01*
X141396262Y-71503972D01*
X141266028Y-71373738D01*
X141112889Y-71271414D01*
X140942729Y-71200932D01*
X140762089Y-71165000D01*
X140577911Y-71165000D01*
X140397271Y-71200932D01*
X140227111Y-71271414D01*
X140073972Y-71373738D01*
X139943738Y-71503972D01*
X139841414Y-71657111D01*
X139770932Y-71827271D01*
X139735000Y-72007911D01*
X135072136Y-72007911D01*
X131209459Y-71032235D01*
X131208726Y-67768212D01*
X134995000Y-67768212D01*
X134995000Y-67991788D01*
X135038617Y-68211067D01*
X135124176Y-68417624D01*
X135248388Y-68603520D01*
X135406480Y-68761612D01*
X135592376Y-68885824D01*
X135798933Y-68971383D01*
X136018212Y-69015000D01*
X136241788Y-69015000D01*
X136461067Y-68971383D01*
X136667624Y-68885824D01*
X136853520Y-68761612D01*
X136965132Y-68650000D01*
X142189509Y-68650000D01*
X142211423Y-68872499D01*
X142276324Y-69086447D01*
X142381716Y-69283623D01*
X142523551Y-69456449D01*
X142696377Y-69598284D01*
X142893553Y-69703676D01*
X143107501Y-69768577D01*
X143274248Y-69785000D01*
X143385752Y-69785000D01*
X143552499Y-69768577D01*
X143766447Y-69703676D01*
X143777621Y-69697703D01*
X143855820Y-69739502D01*
X143975518Y-69775812D01*
X144100000Y-69788072D01*
X145100000Y-69788072D01*
X145224482Y-69775812D01*
X145344180Y-69739502D01*
X145454494Y-69680537D01*
X145551185Y-69601185D01*
X145630537Y-69504494D01*
X145689502Y-69394180D01*
X145725812Y-69274482D01*
X145738072Y-69150000D01*
X145738072Y-68150000D01*
X145725812Y-68025518D01*
X145689502Y-67905820D01*
X145630537Y-67795506D01*
X145551185Y-67698815D01*
X145454494Y-67619463D01*
X145344180Y-67560498D01*
X145224482Y-67524188D01*
X145100000Y-67511928D01*
X144100000Y-67511928D01*
X143975518Y-67524188D01*
X143855820Y-67560498D01*
X143777621Y-67602297D01*
X143766447Y-67596324D01*
X143552499Y-67531423D01*
X143385752Y-67515000D01*
X143274248Y-67515000D01*
X143107501Y-67531423D01*
X142893553Y-67596324D01*
X142696377Y-67701716D01*
X142523551Y-67843551D01*
X142381716Y-68016377D01*
X142276324Y-68213553D01*
X142211423Y-68427501D01*
X142189509Y-68650000D01*
X136965132Y-68650000D01*
X137011612Y-68603520D01*
X137135824Y-68417624D01*
X137221383Y-68211067D01*
X137265000Y-67991788D01*
X137265000Y-67768212D01*
X137221383Y-67548933D01*
X137135824Y-67342376D01*
X137011612Y-67156480D01*
X136853520Y-66998388D01*
X136667624Y-66874176D01*
X136461067Y-66788617D01*
X136241788Y-66745000D01*
X136018212Y-66745000D01*
X135798933Y-66788617D01*
X135592376Y-66874176D01*
X135406480Y-66998388D01*
X135248388Y-67156480D01*
X135124176Y-67342376D01*
X135038617Y-67548933D01*
X134995000Y-67768212D01*
X131208726Y-67768212D01*
X131208436Y-66477911D01*
X155715000Y-66477911D01*
X155715000Y-66662089D01*
X155750932Y-66842729D01*
X155821414Y-67012889D01*
X155923738Y-67166028D01*
X156053972Y-67296262D01*
X156207111Y-67398586D01*
X156377271Y-67469068D01*
X156557911Y-67505000D01*
X156742089Y-67505000D01*
X156922729Y-67469068D01*
X157092889Y-67398586D01*
X157246028Y-67296262D01*
X157376262Y-67166028D01*
X157478586Y-67012889D01*
X157549068Y-66842729D01*
X157585000Y-66662089D01*
X157585000Y-66477911D01*
X157549068Y-66297271D01*
X157478586Y-66127111D01*
X157376262Y-65973972D01*
X157246028Y-65843738D01*
X157092889Y-65741414D01*
X156922729Y-65670932D01*
X156742089Y-65635000D01*
X156557911Y-65635000D01*
X156377271Y-65670932D01*
X156207111Y-65741414D01*
X156053972Y-65843738D01*
X155923738Y-65973972D01*
X155821414Y-66127111D01*
X155750932Y-66297271D01*
X155715000Y-66477911D01*
X131208436Y-66477911D01*
X131208029Y-64668212D01*
X131865000Y-64668212D01*
X131865000Y-64891788D01*
X131908617Y-65111067D01*
X131994176Y-65317624D01*
X132118388Y-65503520D01*
X132276480Y-65661612D01*
X132462376Y-65785824D01*
X132668933Y-65871383D01*
X132888212Y-65915000D01*
X133111788Y-65915000D01*
X133331067Y-65871383D01*
X133537624Y-65785824D01*
X133723520Y-65661612D01*
X133881612Y-65503520D01*
X134005824Y-65317624D01*
X134091383Y-65111067D01*
X134135000Y-64891788D01*
X134135000Y-64668212D01*
X134091383Y-64448933D01*
X134005824Y-64242376D01*
X133881612Y-64056480D01*
X133833043Y-64007911D01*
X134465000Y-64007911D01*
X134465000Y-64192089D01*
X134500932Y-64372729D01*
X134571414Y-64542889D01*
X134673738Y-64696028D01*
X134803972Y-64826262D01*
X134957111Y-64928586D01*
X135127271Y-64999068D01*
X135307911Y-65035000D01*
X135492089Y-65035000D01*
X135672729Y-64999068D01*
X135842889Y-64928586D01*
X135996028Y-64826262D01*
X136126262Y-64696028D01*
X136228586Y-64542889D01*
X136299068Y-64372729D01*
X136335000Y-64192089D01*
X136335000Y-64007911D01*
X136565000Y-64007911D01*
X136565000Y-64192089D01*
X136600932Y-64372729D01*
X136671414Y-64542889D01*
X136773738Y-64696028D01*
X136903972Y-64826262D01*
X137057111Y-64928586D01*
X137227271Y-64999068D01*
X137407911Y-65035000D01*
X137592089Y-65035000D01*
X137772729Y-64999068D01*
X137942889Y-64928586D01*
X138096028Y-64826262D01*
X138226262Y-64696028D01*
X138328586Y-64542889D01*
X138399068Y-64372729D01*
X138435000Y-64192089D01*
X138435000Y-64007911D01*
X138403493Y-63849512D01*
X143565632Y-63849512D01*
X143589477Y-64091614D01*
X143660096Y-64324411D01*
X143774775Y-64538960D01*
X143929106Y-64727013D01*
X144117159Y-64881344D01*
X144331708Y-64996023D01*
X144564505Y-65066642D01*
X144806607Y-65090487D01*
X145048709Y-65066642D01*
X145281506Y-64996023D01*
X145496055Y-64881344D01*
X145636987Y-64765685D01*
X146005622Y-64397050D01*
X146121281Y-64256118D01*
X146235960Y-64041569D01*
X146306579Y-63808773D01*
X146316495Y-63708091D01*
X147299155Y-63708091D01*
X147323000Y-63950193D01*
X147393619Y-64182992D01*
X147508297Y-64397540D01*
X147662628Y-64585593D01*
X147850681Y-64739924D01*
X148065229Y-64854602D01*
X148298028Y-64925221D01*
X148479465Y-64943091D01*
X148600795Y-64943091D01*
X148782232Y-64925221D01*
X149015031Y-64854602D01*
X149229579Y-64739924D01*
X149417632Y-64585593D01*
X149571963Y-64397540D01*
X149686641Y-64182992D01*
X149757260Y-63950193D01*
X149781105Y-63708091D01*
X149757260Y-63465989D01*
X149686641Y-63233190D01*
X149571963Y-63018642D01*
X149505709Y-62937911D01*
X153265000Y-62937911D01*
X153265000Y-63122089D01*
X153300932Y-63302729D01*
X153371414Y-63472889D01*
X153473738Y-63626028D01*
X153603972Y-63756262D01*
X153757111Y-63858586D01*
X153914504Y-63923780D01*
X153951414Y-64012889D01*
X154053738Y-64166028D01*
X154064904Y-64177194D01*
X153971414Y-64317111D01*
X153900932Y-64487271D01*
X153865000Y-64667911D01*
X153865000Y-64852089D01*
X153900932Y-65032729D01*
X153971414Y-65202889D01*
X154073738Y-65356028D01*
X154203972Y-65486262D01*
X154357111Y-65588586D01*
X154527271Y-65659068D01*
X154707911Y-65695000D01*
X154892089Y-65695000D01*
X155072729Y-65659068D01*
X155242889Y-65588586D01*
X155396028Y-65486262D01*
X155526262Y-65356028D01*
X155628586Y-65202889D01*
X155699068Y-65032729D01*
X155735000Y-64852089D01*
X155735000Y-64667911D01*
X155699068Y-64487271D01*
X155628586Y-64317111D01*
X155526262Y-64163972D01*
X155515096Y-64152806D01*
X155608586Y-64012889D01*
X155679068Y-63842729D01*
X155715000Y-63662089D01*
X155715000Y-63477911D01*
X155679068Y-63297271D01*
X155608586Y-63127111D01*
X155604684Y-63121270D01*
X155838335Y-63121270D01*
X155911371Y-63366464D01*
X156168928Y-63488564D01*
X156445358Y-63558071D01*
X156730036Y-63572314D01*
X157012023Y-63530744D01*
X157280482Y-63434961D01*
X157408629Y-63366464D01*
X157481665Y-63121270D01*
X156660000Y-62299605D01*
X155838335Y-63121270D01*
X155604684Y-63121270D01*
X155506262Y-62973972D01*
X155376028Y-62843738D01*
X155222889Y-62741414D01*
X155065496Y-62676220D01*
X155028586Y-62587111D01*
X154926262Y-62433972D01*
X154796028Y-62303738D01*
X154642889Y-62201414D01*
X154615420Y-62190036D01*
X155207686Y-62190036D01*
X155249256Y-62472023D01*
X155345039Y-62740482D01*
X155413536Y-62868629D01*
X155658730Y-62941665D01*
X156480395Y-62120000D01*
X156839605Y-62120000D01*
X157661270Y-62941665D01*
X157906464Y-62868629D01*
X158028564Y-62611072D01*
X158098071Y-62334642D01*
X158112314Y-62049964D01*
X158070744Y-61767977D01*
X157974961Y-61499518D01*
X157906464Y-61371371D01*
X157661270Y-61298335D01*
X156839605Y-62120000D01*
X156480395Y-62120000D01*
X155658730Y-61298335D01*
X155413536Y-61371371D01*
X155291436Y-61628928D01*
X155221929Y-61905358D01*
X155207686Y-62190036D01*
X154615420Y-62190036D01*
X154472729Y-62130932D01*
X154292089Y-62095000D01*
X154107911Y-62095000D01*
X153927271Y-62130932D01*
X153757111Y-62201414D01*
X153603972Y-62303738D01*
X153473738Y-62433972D01*
X153371414Y-62587111D01*
X153300932Y-62757271D01*
X153265000Y-62937911D01*
X149505709Y-62937911D01*
X149417632Y-62830589D01*
X149229579Y-62676258D01*
X149015031Y-62561580D01*
X148782232Y-62490961D01*
X148600795Y-62473091D01*
X148479465Y-62473091D01*
X148298028Y-62490961D01*
X148065229Y-62561580D01*
X147850681Y-62676258D01*
X147662628Y-62830589D01*
X147508297Y-63018642D01*
X147393619Y-63233190D01*
X147323000Y-63465989D01*
X147299155Y-63708091D01*
X146316495Y-63708091D01*
X146330424Y-63566670D01*
X146306579Y-63324568D01*
X146235960Y-63091771D01*
X146121281Y-62877222D01*
X145966950Y-62689169D01*
X145778897Y-62534838D01*
X145564348Y-62420159D01*
X145331551Y-62349540D01*
X145089449Y-62325695D01*
X144847346Y-62349540D01*
X144614550Y-62420159D01*
X144400001Y-62534838D01*
X144259069Y-62650497D01*
X143890434Y-63019132D01*
X143774775Y-63160064D01*
X143660096Y-63374613D01*
X143589477Y-63607410D01*
X143565632Y-63849512D01*
X138403493Y-63849512D01*
X138399068Y-63827271D01*
X138328586Y-63657111D01*
X138226262Y-63503972D01*
X138096028Y-63373738D01*
X137942889Y-63271414D01*
X137772729Y-63200932D01*
X137592089Y-63165000D01*
X137407911Y-63165000D01*
X137227271Y-63200932D01*
X137057111Y-63271414D01*
X136903972Y-63373738D01*
X136773738Y-63503972D01*
X136671414Y-63657111D01*
X136600932Y-63827271D01*
X136565000Y-64007911D01*
X136335000Y-64007911D01*
X136299068Y-63827271D01*
X136228586Y-63657111D01*
X136126262Y-63503972D01*
X135996028Y-63373738D01*
X135842889Y-63271414D01*
X135672729Y-63200932D01*
X135492089Y-63165000D01*
X135307911Y-63165000D01*
X135127271Y-63200932D01*
X134957111Y-63271414D01*
X134803972Y-63373738D01*
X134673738Y-63503972D01*
X134571414Y-63657111D01*
X134500932Y-63827271D01*
X134465000Y-64007911D01*
X133833043Y-64007911D01*
X133723520Y-63898388D01*
X133537624Y-63774176D01*
X133331067Y-63688617D01*
X133111788Y-63645000D01*
X132888212Y-63645000D01*
X132668933Y-63688617D01*
X132462376Y-63774176D01*
X132276480Y-63898388D01*
X132118388Y-64056480D01*
X131994176Y-64242376D01*
X131908617Y-64448933D01*
X131865000Y-64668212D01*
X131208029Y-64668212D01*
X131207429Y-61998212D01*
X131835000Y-61998212D01*
X131835000Y-62221788D01*
X131878617Y-62441067D01*
X131964176Y-62647624D01*
X132088388Y-62833520D01*
X132246480Y-62991612D01*
X132432376Y-63115824D01*
X132638933Y-63201383D01*
X132858212Y-63245000D01*
X133081788Y-63245000D01*
X133301067Y-63201383D01*
X133507624Y-63115824D01*
X133693520Y-62991612D01*
X133851612Y-62833520D01*
X133975824Y-62647624D01*
X134061383Y-62441067D01*
X134105000Y-62221788D01*
X134105000Y-61998212D01*
X134061383Y-61778933D01*
X133975824Y-61572376D01*
X133851612Y-61386480D01*
X133693520Y-61228388D01*
X133507624Y-61104176D01*
X133301067Y-61018617D01*
X133081788Y-60975000D01*
X132858212Y-60975000D01*
X132638933Y-61018617D01*
X132432376Y-61104176D01*
X132246480Y-61228388D01*
X132088388Y-61386480D01*
X131964176Y-61572376D01*
X131878617Y-61778933D01*
X131835000Y-61998212D01*
X131207429Y-61998212D01*
X131207197Y-60961497D01*
X147874226Y-60961497D01*
X147920808Y-61184477D01*
X147995789Y-61224559D01*
X148222520Y-61309454D01*
X148461457Y-61348484D01*
X148703417Y-61340151D01*
X148939102Y-61284774D01*
X149159454Y-61184481D01*
X149173436Y-61118730D01*
X155838335Y-61118730D01*
X156660000Y-61940395D01*
X157481665Y-61118730D01*
X157408629Y-60873536D01*
X157151072Y-60751436D01*
X156874642Y-60681929D01*
X156589964Y-60667686D01*
X156307977Y-60709256D01*
X156039518Y-60805039D01*
X155911371Y-60873536D01*
X155838335Y-61118730D01*
X149173436Y-61118730D01*
X149206726Y-60962189D01*
X148540130Y-60295593D01*
X147874226Y-60961497D01*
X131207197Y-60961497D01*
X131207024Y-60194661D01*
X147307634Y-60194661D01*
X147346664Y-60433598D01*
X147431559Y-60660329D01*
X147471641Y-60735310D01*
X147694621Y-60781892D01*
X148360525Y-60115988D01*
X148719735Y-60115988D01*
X149386331Y-60782584D01*
X149608623Y-60735312D01*
X149708916Y-60514960D01*
X149764293Y-60279275D01*
X149772626Y-60037315D01*
X149733596Y-59798378D01*
X149648701Y-59571647D01*
X149608619Y-59496666D01*
X149385639Y-59450084D01*
X148719735Y-60115988D01*
X148360525Y-60115988D01*
X147693929Y-59449392D01*
X147471637Y-59496664D01*
X147371344Y-59717016D01*
X147315967Y-59952701D01*
X147307634Y-60194661D01*
X131207024Y-60194661D01*
X131206816Y-59269787D01*
X147873534Y-59269787D01*
X148540130Y-59936383D01*
X149206034Y-59270479D01*
X149159452Y-59047499D01*
X149084471Y-59007417D01*
X148857740Y-58922522D01*
X148618803Y-58883492D01*
X148376843Y-58891825D01*
X148141158Y-58947202D01*
X147920806Y-59047495D01*
X147873534Y-59269787D01*
X131206816Y-59269787D01*
X131205999Y-55640586D01*
X161800001Y-55640013D01*
X161800000Y-117220000D01*
M02*
