M48
; DRILL file {KiCad 5.1.2-f72e74a~84~ubuntu19.04.1} date Wed 17 Jul 2019 06:56:21 PM CDT
; FORMAT={-:-/ absolute / inch / decimal}
; #@! TF.CreationDate,2019-07-17T18:56:21-05:00
; #@! TF.GenerationSoftware,Kicad,Pcbnew,5.1.2-f72e74a~84~ubuntu19.04.1
; #@! TF.FileFunction,Plated,1,4,PTH
FMAT,2
INCH
T1C0.0157
T2C0.0236
T3C0.0276
T4C0.0394
T5C0.0591
T6C0.0787
%
G90
G05
T1
X5.2675Y-2.4773
X5.3029Y-4.245
X5.3068Y-2.367
X5.3108Y-2.5796
X5.4171Y-4.0796
X5.4368Y-2.4615
X5.4368Y-4.2568
X5.4525Y-3.2214
X5.4604Y-2.5048
X5.5037Y-3.1544
X5.5037Y-3.2922
X5.5194Y-2.3513
X5.5194Y-4.119
X5.5234Y-4.178
X5.5312Y-3.6269
X5.5549Y-2.5836
X5.5549Y-3.1466
X5.5942Y-2.6072
X5.61Y-3.1505
X5.6218Y-3.5009
X5.6651Y-2.6032
X5.6809Y-2.3985
X5.7005Y-2.6072
X5.7067Y-2.9692
X5.7082Y-2.729
X5.7277Y-2.6756
X5.733Y-2.6466
X5.7434Y-2.9403
X5.7468Y-2.8308
X5.7557Y-2.6111
X5.8226Y-2.972
X5.8305Y-2.5993
X5.8423Y-2.3946
X5.858Y-3.1505
X5.906Y-3.0088
X5.9368Y-2.2804
X5.9919Y-2.3906
X6.0076Y-3.0442
X6.0509Y-2.6741
X6.0588Y-3.3198
X6.0785Y-2.2135
X6.0785Y-2.6072
X6.0942Y-2.7174
X6.1021Y-3.4064
X6.1179Y-2.5836
X6.1257Y-2.993
X6.1287Y-2.8434
X6.1375Y-3.2883
X6.1415Y-2.6584
X6.1572Y-2.6977
X6.2163Y-2.5521
X6.2478Y-2.3316
X6.2635Y-2.5088
X6.2911Y-2.6544
X6.3344Y-2.5954
X6.362Y-2.4576
X6.3698Y-3.0599
T2
X5.8186Y-2.7381
X5.9643Y-2.9182
T3
X5.6737Y-4.4107
X5.7737Y-4.5107
X5.8737Y-4.4107
T4
X5.4604Y-3.4968
X5.4604Y-3.5952
X5.4604Y-3.6937
X6.0313Y-3.4968
X6.0313Y-3.6937
X5.6738Y-2.2548
X5.7738Y-2.2548
X5.8738Y-2.2548
T6
X5.2165Y-2.2413
X5.2169Y-4.5635
X6.3188Y-4.5636
X6.3193Y-2.2415
T5
G00X5.7301Y-3.3748
M15
G01X5.7813Y-3.3748
M16
G05
G00X5.7301Y-3.8157
M15
G01X5.7813Y-3.8157
M16
G05
T0
M30
