G04 #@! TF.GenerationSoftware,KiCad,Pcbnew,5.1.4-e60b266~84~ubuntu19.04.1*
G04 #@! TF.CreationDate,2019-10-11T10:06:12-05:00*
G04 #@! TF.ProjectId,led-controller,6c65642d-636f-46e7-9472-6f6c6c65722e,rev?*
G04 #@! TF.SameCoordinates,Original*
G04 #@! TF.FileFunction,Copper,L4,Bot*
G04 #@! TF.FilePolarity,Positive*
%FSLAX46Y46*%
G04 Gerber Fmt 4.6, Leading zero omitted, Abs format (unit mm)*
G04 Created by KiCad (PCBNEW 5.1.4-e60b266~84~ubuntu19.04.1) date 2019-10-11 10:06:12*
%MOMM*%
%LPD*%
G04 APERTURE LIST*
%ADD10C,0.100000*%
%ADD11C,0.950000*%
%ADD12C,1.200000*%
%ADD13C,1.200000*%
%ADD14C,1.624000*%
%ADD15R,2.000000X2.000000*%
%ADD16C,2.000000*%
%ADD17R,3.200000X2.000000*%
%ADD18O,1.000000X1.000000*%
%ADD19R,1.000000X1.000000*%
%ADD20R,1.000000X3.150000*%
%ADD21R,0.900000X0.800000*%
%ADD22R,3.150000X1.000000*%
%ADD23R,0.900000X1.000000*%
%ADD24R,0.750000X0.300000*%
%ADD25R,0.300000X0.750000*%
%ADD26R,6.400000X5.800000*%
%ADD27R,2.200000X1.200000*%
%ADD28R,1.560000X0.650000*%
%ADD29O,1.700000X1.700000*%
%ADD30R,1.700000X1.700000*%
%ADD31C,3.500000*%
%ADD32C,1.000000*%
%ADD33C,0.600000*%
%ADD34C,0.800000*%
%ADD35C,0.500000*%
%ADD36C,0.400000*%
%ADD37C,0.250000*%
G04 APERTURE END LIST*
D10*
G36*
X159844439Y-84638564D02*
G01*
X159867494Y-84641983D01*
X159890103Y-84647647D01*
X159912047Y-84655499D01*
X159933117Y-84665464D01*
X159953108Y-84677446D01*
X159971828Y-84691330D01*
X159989098Y-84706982D01*
X160004750Y-84724252D01*
X160018634Y-84742972D01*
X160030616Y-84762963D01*
X160040581Y-84784033D01*
X160048433Y-84805977D01*
X160054097Y-84828586D01*
X160057516Y-84851641D01*
X160058660Y-84874920D01*
X160058660Y-85449920D01*
X160057516Y-85473199D01*
X160054097Y-85496254D01*
X160048433Y-85518863D01*
X160040581Y-85540807D01*
X160030616Y-85561877D01*
X160018634Y-85581868D01*
X160004750Y-85600588D01*
X159989098Y-85617858D01*
X159971828Y-85633510D01*
X159953108Y-85647394D01*
X159933117Y-85659376D01*
X159912047Y-85669341D01*
X159890103Y-85677193D01*
X159867494Y-85682857D01*
X159844439Y-85686276D01*
X159821160Y-85687420D01*
X159346160Y-85687420D01*
X159322881Y-85686276D01*
X159299826Y-85682857D01*
X159277217Y-85677193D01*
X159255273Y-85669341D01*
X159234203Y-85659376D01*
X159214212Y-85647394D01*
X159195492Y-85633510D01*
X159178222Y-85617858D01*
X159162570Y-85600588D01*
X159148686Y-85581868D01*
X159136704Y-85561877D01*
X159126739Y-85540807D01*
X159118887Y-85518863D01*
X159113223Y-85496254D01*
X159109804Y-85473199D01*
X159108660Y-85449920D01*
X159108660Y-84874920D01*
X159109804Y-84851641D01*
X159113223Y-84828586D01*
X159118887Y-84805977D01*
X159126739Y-84784033D01*
X159136704Y-84762963D01*
X159148686Y-84742972D01*
X159162570Y-84724252D01*
X159178222Y-84706982D01*
X159195492Y-84691330D01*
X159214212Y-84677446D01*
X159234203Y-84665464D01*
X159255273Y-84655499D01*
X159277217Y-84647647D01*
X159299826Y-84641983D01*
X159322881Y-84638564D01*
X159346160Y-84637420D01*
X159821160Y-84637420D01*
X159844439Y-84638564D01*
X159844439Y-84638564D01*
G37*
D11*
X159583660Y-85162420D03*
D10*
G36*
X159844439Y-86388564D02*
G01*
X159867494Y-86391983D01*
X159890103Y-86397647D01*
X159912047Y-86405499D01*
X159933117Y-86415464D01*
X159953108Y-86427446D01*
X159971828Y-86441330D01*
X159989098Y-86456982D01*
X160004750Y-86474252D01*
X160018634Y-86492972D01*
X160030616Y-86512963D01*
X160040581Y-86534033D01*
X160048433Y-86555977D01*
X160054097Y-86578586D01*
X160057516Y-86601641D01*
X160058660Y-86624920D01*
X160058660Y-87199920D01*
X160057516Y-87223199D01*
X160054097Y-87246254D01*
X160048433Y-87268863D01*
X160040581Y-87290807D01*
X160030616Y-87311877D01*
X160018634Y-87331868D01*
X160004750Y-87350588D01*
X159989098Y-87367858D01*
X159971828Y-87383510D01*
X159953108Y-87397394D01*
X159933117Y-87409376D01*
X159912047Y-87419341D01*
X159890103Y-87427193D01*
X159867494Y-87432857D01*
X159844439Y-87436276D01*
X159821160Y-87437420D01*
X159346160Y-87437420D01*
X159322881Y-87436276D01*
X159299826Y-87432857D01*
X159277217Y-87427193D01*
X159255273Y-87419341D01*
X159234203Y-87409376D01*
X159214212Y-87397394D01*
X159195492Y-87383510D01*
X159178222Y-87367858D01*
X159162570Y-87350588D01*
X159148686Y-87331868D01*
X159136704Y-87311877D01*
X159126739Y-87290807D01*
X159118887Y-87268863D01*
X159113223Y-87246254D01*
X159109804Y-87223199D01*
X159108660Y-87199920D01*
X159108660Y-86624920D01*
X159109804Y-86601641D01*
X159113223Y-86578586D01*
X159118887Y-86555977D01*
X159126739Y-86534033D01*
X159136704Y-86512963D01*
X159148686Y-86492972D01*
X159162570Y-86474252D01*
X159178222Y-86456982D01*
X159195492Y-86441330D01*
X159214212Y-86427446D01*
X159234203Y-86415464D01*
X159255273Y-86405499D01*
X159277217Y-86397647D01*
X159299826Y-86391983D01*
X159322881Y-86388564D01*
X159346160Y-86387420D01*
X159821160Y-86387420D01*
X159844439Y-86388564D01*
X159844439Y-86388564D01*
G37*
D11*
X159583660Y-86912420D03*
D10*
G36*
X159794439Y-88548564D02*
G01*
X159817494Y-88551983D01*
X159840103Y-88557647D01*
X159862047Y-88565499D01*
X159883117Y-88575464D01*
X159903108Y-88587446D01*
X159921828Y-88601330D01*
X159939098Y-88616982D01*
X159954750Y-88634252D01*
X159968634Y-88652972D01*
X159980616Y-88672963D01*
X159990581Y-88694033D01*
X159998433Y-88715977D01*
X160004097Y-88738586D01*
X160007516Y-88761641D01*
X160008660Y-88784920D01*
X160008660Y-89359920D01*
X160007516Y-89383199D01*
X160004097Y-89406254D01*
X159998433Y-89428863D01*
X159990581Y-89450807D01*
X159980616Y-89471877D01*
X159968634Y-89491868D01*
X159954750Y-89510588D01*
X159939098Y-89527858D01*
X159921828Y-89543510D01*
X159903108Y-89557394D01*
X159883117Y-89569376D01*
X159862047Y-89579341D01*
X159840103Y-89587193D01*
X159817494Y-89592857D01*
X159794439Y-89596276D01*
X159771160Y-89597420D01*
X159296160Y-89597420D01*
X159272881Y-89596276D01*
X159249826Y-89592857D01*
X159227217Y-89587193D01*
X159205273Y-89579341D01*
X159184203Y-89569376D01*
X159164212Y-89557394D01*
X159145492Y-89543510D01*
X159128222Y-89527858D01*
X159112570Y-89510588D01*
X159098686Y-89491868D01*
X159086704Y-89471877D01*
X159076739Y-89450807D01*
X159068887Y-89428863D01*
X159063223Y-89406254D01*
X159059804Y-89383199D01*
X159058660Y-89359920D01*
X159058660Y-88784920D01*
X159059804Y-88761641D01*
X159063223Y-88738586D01*
X159068887Y-88715977D01*
X159076739Y-88694033D01*
X159086704Y-88672963D01*
X159098686Y-88652972D01*
X159112570Y-88634252D01*
X159128222Y-88616982D01*
X159145492Y-88601330D01*
X159164212Y-88587446D01*
X159184203Y-88575464D01*
X159205273Y-88565499D01*
X159227217Y-88557647D01*
X159249826Y-88551983D01*
X159272881Y-88548564D01*
X159296160Y-88547420D01*
X159771160Y-88547420D01*
X159794439Y-88548564D01*
X159794439Y-88548564D01*
G37*
D11*
X159533660Y-89072420D03*
D10*
G36*
X159794439Y-90298564D02*
G01*
X159817494Y-90301983D01*
X159840103Y-90307647D01*
X159862047Y-90315499D01*
X159883117Y-90325464D01*
X159903108Y-90337446D01*
X159921828Y-90351330D01*
X159939098Y-90366982D01*
X159954750Y-90384252D01*
X159968634Y-90402972D01*
X159980616Y-90422963D01*
X159990581Y-90444033D01*
X159998433Y-90465977D01*
X160004097Y-90488586D01*
X160007516Y-90511641D01*
X160008660Y-90534920D01*
X160008660Y-91109920D01*
X160007516Y-91133199D01*
X160004097Y-91156254D01*
X159998433Y-91178863D01*
X159990581Y-91200807D01*
X159980616Y-91221877D01*
X159968634Y-91241868D01*
X159954750Y-91260588D01*
X159939098Y-91277858D01*
X159921828Y-91293510D01*
X159903108Y-91307394D01*
X159883117Y-91319376D01*
X159862047Y-91329341D01*
X159840103Y-91337193D01*
X159817494Y-91342857D01*
X159794439Y-91346276D01*
X159771160Y-91347420D01*
X159296160Y-91347420D01*
X159272881Y-91346276D01*
X159249826Y-91342857D01*
X159227217Y-91337193D01*
X159205273Y-91329341D01*
X159184203Y-91319376D01*
X159164212Y-91307394D01*
X159145492Y-91293510D01*
X159128222Y-91277858D01*
X159112570Y-91260588D01*
X159098686Y-91241868D01*
X159086704Y-91221877D01*
X159076739Y-91200807D01*
X159068887Y-91178863D01*
X159063223Y-91156254D01*
X159059804Y-91133199D01*
X159058660Y-91109920D01*
X159058660Y-90534920D01*
X159059804Y-90511641D01*
X159063223Y-90488586D01*
X159068887Y-90465977D01*
X159076739Y-90444033D01*
X159086704Y-90422963D01*
X159098686Y-90402972D01*
X159112570Y-90384252D01*
X159128222Y-90366982D01*
X159145492Y-90351330D01*
X159164212Y-90337446D01*
X159184203Y-90325464D01*
X159205273Y-90315499D01*
X159227217Y-90307647D01*
X159249826Y-90301983D01*
X159272881Y-90298564D01*
X159296160Y-90297420D01*
X159771160Y-90297420D01*
X159794439Y-90298564D01*
X159794439Y-90298564D01*
G37*
D11*
X159533660Y-90822420D03*
D10*
G36*
X159824439Y-80808564D02*
G01*
X159847494Y-80811983D01*
X159870103Y-80817647D01*
X159892047Y-80825499D01*
X159913117Y-80835464D01*
X159933108Y-80847446D01*
X159951828Y-80861330D01*
X159969098Y-80876982D01*
X159984750Y-80894252D01*
X159998634Y-80912972D01*
X160010616Y-80932963D01*
X160020581Y-80954033D01*
X160028433Y-80975977D01*
X160034097Y-80998586D01*
X160037516Y-81021641D01*
X160038660Y-81044920D01*
X160038660Y-81619920D01*
X160037516Y-81643199D01*
X160034097Y-81666254D01*
X160028433Y-81688863D01*
X160020581Y-81710807D01*
X160010616Y-81731877D01*
X159998634Y-81751868D01*
X159984750Y-81770588D01*
X159969098Y-81787858D01*
X159951828Y-81803510D01*
X159933108Y-81817394D01*
X159913117Y-81829376D01*
X159892047Y-81839341D01*
X159870103Y-81847193D01*
X159847494Y-81852857D01*
X159824439Y-81856276D01*
X159801160Y-81857420D01*
X159326160Y-81857420D01*
X159302881Y-81856276D01*
X159279826Y-81852857D01*
X159257217Y-81847193D01*
X159235273Y-81839341D01*
X159214203Y-81829376D01*
X159194212Y-81817394D01*
X159175492Y-81803510D01*
X159158222Y-81787858D01*
X159142570Y-81770588D01*
X159128686Y-81751868D01*
X159116704Y-81731877D01*
X159106739Y-81710807D01*
X159098887Y-81688863D01*
X159093223Y-81666254D01*
X159089804Y-81643199D01*
X159088660Y-81619920D01*
X159088660Y-81044920D01*
X159089804Y-81021641D01*
X159093223Y-80998586D01*
X159098887Y-80975977D01*
X159106739Y-80954033D01*
X159116704Y-80932963D01*
X159128686Y-80912972D01*
X159142570Y-80894252D01*
X159158222Y-80876982D01*
X159175492Y-80861330D01*
X159194212Y-80847446D01*
X159214203Y-80835464D01*
X159235273Y-80825499D01*
X159257217Y-80817647D01*
X159279826Y-80811983D01*
X159302881Y-80808564D01*
X159326160Y-80807420D01*
X159801160Y-80807420D01*
X159824439Y-80808564D01*
X159824439Y-80808564D01*
G37*
D11*
X159563660Y-81332420D03*
D10*
G36*
X159824439Y-82558564D02*
G01*
X159847494Y-82561983D01*
X159870103Y-82567647D01*
X159892047Y-82575499D01*
X159913117Y-82585464D01*
X159933108Y-82597446D01*
X159951828Y-82611330D01*
X159969098Y-82626982D01*
X159984750Y-82644252D01*
X159998634Y-82662972D01*
X160010616Y-82682963D01*
X160020581Y-82704033D01*
X160028433Y-82725977D01*
X160034097Y-82748586D01*
X160037516Y-82771641D01*
X160038660Y-82794920D01*
X160038660Y-83369920D01*
X160037516Y-83393199D01*
X160034097Y-83416254D01*
X160028433Y-83438863D01*
X160020581Y-83460807D01*
X160010616Y-83481877D01*
X159998634Y-83501868D01*
X159984750Y-83520588D01*
X159969098Y-83537858D01*
X159951828Y-83553510D01*
X159933108Y-83567394D01*
X159913117Y-83579376D01*
X159892047Y-83589341D01*
X159870103Y-83597193D01*
X159847494Y-83602857D01*
X159824439Y-83606276D01*
X159801160Y-83607420D01*
X159326160Y-83607420D01*
X159302881Y-83606276D01*
X159279826Y-83602857D01*
X159257217Y-83597193D01*
X159235273Y-83589341D01*
X159214203Y-83579376D01*
X159194212Y-83567394D01*
X159175492Y-83553510D01*
X159158222Y-83537858D01*
X159142570Y-83520588D01*
X159128686Y-83501868D01*
X159116704Y-83481877D01*
X159106739Y-83460807D01*
X159098887Y-83438863D01*
X159093223Y-83416254D01*
X159089804Y-83393199D01*
X159088660Y-83369920D01*
X159088660Y-82794920D01*
X159089804Y-82771641D01*
X159093223Y-82748586D01*
X159098887Y-82725977D01*
X159106739Y-82704033D01*
X159116704Y-82682963D01*
X159128686Y-82662972D01*
X159142570Y-82644252D01*
X159158222Y-82626982D01*
X159175492Y-82611330D01*
X159194212Y-82597446D01*
X159214203Y-82585464D01*
X159235273Y-82575499D01*
X159257217Y-82567647D01*
X159279826Y-82561983D01*
X159302881Y-82558564D01*
X159326160Y-82557420D01*
X159801160Y-82557420D01*
X159824439Y-82558564D01*
X159824439Y-82558564D01*
G37*
D11*
X159563660Y-83082420D03*
D10*
G36*
X159824439Y-78923564D02*
G01*
X159847494Y-78926983D01*
X159870103Y-78932647D01*
X159892047Y-78940499D01*
X159913117Y-78950464D01*
X159933108Y-78962446D01*
X159951828Y-78976330D01*
X159969098Y-78991982D01*
X159984750Y-79009252D01*
X159998634Y-79027972D01*
X160010616Y-79047963D01*
X160020581Y-79069033D01*
X160028433Y-79090977D01*
X160034097Y-79113586D01*
X160037516Y-79136641D01*
X160038660Y-79159920D01*
X160038660Y-79734920D01*
X160037516Y-79758199D01*
X160034097Y-79781254D01*
X160028433Y-79803863D01*
X160020581Y-79825807D01*
X160010616Y-79846877D01*
X159998634Y-79866868D01*
X159984750Y-79885588D01*
X159969098Y-79902858D01*
X159951828Y-79918510D01*
X159933108Y-79932394D01*
X159913117Y-79944376D01*
X159892047Y-79954341D01*
X159870103Y-79962193D01*
X159847494Y-79967857D01*
X159824439Y-79971276D01*
X159801160Y-79972420D01*
X159326160Y-79972420D01*
X159302881Y-79971276D01*
X159279826Y-79967857D01*
X159257217Y-79962193D01*
X159235273Y-79954341D01*
X159214203Y-79944376D01*
X159194212Y-79932394D01*
X159175492Y-79918510D01*
X159158222Y-79902858D01*
X159142570Y-79885588D01*
X159128686Y-79866868D01*
X159116704Y-79846877D01*
X159106739Y-79825807D01*
X159098887Y-79803863D01*
X159093223Y-79781254D01*
X159089804Y-79758199D01*
X159088660Y-79734920D01*
X159088660Y-79159920D01*
X159089804Y-79136641D01*
X159093223Y-79113586D01*
X159098887Y-79090977D01*
X159106739Y-79069033D01*
X159116704Y-79047963D01*
X159128686Y-79027972D01*
X159142570Y-79009252D01*
X159158222Y-78991982D01*
X159175492Y-78976330D01*
X159194212Y-78962446D01*
X159214203Y-78950464D01*
X159235273Y-78940499D01*
X159257217Y-78932647D01*
X159279826Y-78926983D01*
X159302881Y-78923564D01*
X159326160Y-78922420D01*
X159801160Y-78922420D01*
X159824439Y-78923564D01*
X159824439Y-78923564D01*
G37*
D11*
X159563660Y-79447420D03*
D10*
G36*
X159824439Y-77173564D02*
G01*
X159847494Y-77176983D01*
X159870103Y-77182647D01*
X159892047Y-77190499D01*
X159913117Y-77200464D01*
X159933108Y-77212446D01*
X159951828Y-77226330D01*
X159969098Y-77241982D01*
X159984750Y-77259252D01*
X159998634Y-77277972D01*
X160010616Y-77297963D01*
X160020581Y-77319033D01*
X160028433Y-77340977D01*
X160034097Y-77363586D01*
X160037516Y-77386641D01*
X160038660Y-77409920D01*
X160038660Y-77984920D01*
X160037516Y-78008199D01*
X160034097Y-78031254D01*
X160028433Y-78053863D01*
X160020581Y-78075807D01*
X160010616Y-78096877D01*
X159998634Y-78116868D01*
X159984750Y-78135588D01*
X159969098Y-78152858D01*
X159951828Y-78168510D01*
X159933108Y-78182394D01*
X159913117Y-78194376D01*
X159892047Y-78204341D01*
X159870103Y-78212193D01*
X159847494Y-78217857D01*
X159824439Y-78221276D01*
X159801160Y-78222420D01*
X159326160Y-78222420D01*
X159302881Y-78221276D01*
X159279826Y-78217857D01*
X159257217Y-78212193D01*
X159235273Y-78204341D01*
X159214203Y-78194376D01*
X159194212Y-78182394D01*
X159175492Y-78168510D01*
X159158222Y-78152858D01*
X159142570Y-78135588D01*
X159128686Y-78116868D01*
X159116704Y-78096877D01*
X159106739Y-78075807D01*
X159098887Y-78053863D01*
X159093223Y-78031254D01*
X159089804Y-78008199D01*
X159088660Y-77984920D01*
X159088660Y-77409920D01*
X159089804Y-77386641D01*
X159093223Y-77363586D01*
X159098887Y-77340977D01*
X159106739Y-77319033D01*
X159116704Y-77297963D01*
X159128686Y-77277972D01*
X159142570Y-77259252D01*
X159158222Y-77241982D01*
X159175492Y-77226330D01*
X159194212Y-77212446D01*
X159214203Y-77200464D01*
X159235273Y-77190499D01*
X159257217Y-77182647D01*
X159279826Y-77176983D01*
X159302881Y-77173564D01*
X159326160Y-77172420D01*
X159801160Y-77172420D01*
X159824439Y-77173564D01*
X159824439Y-77173564D01*
G37*
D11*
X159563660Y-77697420D03*
D10*
G36*
X141500779Y-67336144D02*
G01*
X141523834Y-67339563D01*
X141546443Y-67345227D01*
X141568387Y-67353079D01*
X141589457Y-67363044D01*
X141609448Y-67375026D01*
X141628168Y-67388910D01*
X141645438Y-67404562D01*
X141661090Y-67421832D01*
X141674974Y-67440552D01*
X141686956Y-67460543D01*
X141696921Y-67481613D01*
X141704773Y-67503557D01*
X141710437Y-67526166D01*
X141713856Y-67549221D01*
X141715000Y-67572500D01*
X141715000Y-68147500D01*
X141713856Y-68170779D01*
X141710437Y-68193834D01*
X141704773Y-68216443D01*
X141696921Y-68238387D01*
X141686956Y-68259457D01*
X141674974Y-68279448D01*
X141661090Y-68298168D01*
X141645438Y-68315438D01*
X141628168Y-68331090D01*
X141609448Y-68344974D01*
X141589457Y-68356956D01*
X141568387Y-68366921D01*
X141546443Y-68374773D01*
X141523834Y-68380437D01*
X141500779Y-68383856D01*
X141477500Y-68385000D01*
X141002500Y-68385000D01*
X140979221Y-68383856D01*
X140956166Y-68380437D01*
X140933557Y-68374773D01*
X140911613Y-68366921D01*
X140890543Y-68356956D01*
X140870552Y-68344974D01*
X140851832Y-68331090D01*
X140834562Y-68315438D01*
X140818910Y-68298168D01*
X140805026Y-68279448D01*
X140793044Y-68259457D01*
X140783079Y-68238387D01*
X140775227Y-68216443D01*
X140769563Y-68193834D01*
X140766144Y-68170779D01*
X140765000Y-68147500D01*
X140765000Y-67572500D01*
X140766144Y-67549221D01*
X140769563Y-67526166D01*
X140775227Y-67503557D01*
X140783079Y-67481613D01*
X140793044Y-67460543D01*
X140805026Y-67440552D01*
X140818910Y-67421832D01*
X140834562Y-67404562D01*
X140851832Y-67388910D01*
X140870552Y-67375026D01*
X140890543Y-67363044D01*
X140911613Y-67353079D01*
X140933557Y-67345227D01*
X140956166Y-67339563D01*
X140979221Y-67336144D01*
X141002500Y-67335000D01*
X141477500Y-67335000D01*
X141500779Y-67336144D01*
X141500779Y-67336144D01*
G37*
D11*
X141240000Y-67860000D03*
D10*
G36*
X141500779Y-69086144D02*
G01*
X141523834Y-69089563D01*
X141546443Y-69095227D01*
X141568387Y-69103079D01*
X141589457Y-69113044D01*
X141609448Y-69125026D01*
X141628168Y-69138910D01*
X141645438Y-69154562D01*
X141661090Y-69171832D01*
X141674974Y-69190552D01*
X141686956Y-69210543D01*
X141696921Y-69231613D01*
X141704773Y-69253557D01*
X141710437Y-69276166D01*
X141713856Y-69299221D01*
X141715000Y-69322500D01*
X141715000Y-69897500D01*
X141713856Y-69920779D01*
X141710437Y-69943834D01*
X141704773Y-69966443D01*
X141696921Y-69988387D01*
X141686956Y-70009457D01*
X141674974Y-70029448D01*
X141661090Y-70048168D01*
X141645438Y-70065438D01*
X141628168Y-70081090D01*
X141609448Y-70094974D01*
X141589457Y-70106956D01*
X141568387Y-70116921D01*
X141546443Y-70124773D01*
X141523834Y-70130437D01*
X141500779Y-70133856D01*
X141477500Y-70135000D01*
X141002500Y-70135000D01*
X140979221Y-70133856D01*
X140956166Y-70130437D01*
X140933557Y-70124773D01*
X140911613Y-70116921D01*
X140890543Y-70106956D01*
X140870552Y-70094974D01*
X140851832Y-70081090D01*
X140834562Y-70065438D01*
X140818910Y-70048168D01*
X140805026Y-70029448D01*
X140793044Y-70009457D01*
X140783079Y-69988387D01*
X140775227Y-69966443D01*
X140769563Y-69943834D01*
X140766144Y-69920779D01*
X140765000Y-69897500D01*
X140765000Y-69322500D01*
X140766144Y-69299221D01*
X140769563Y-69276166D01*
X140775227Y-69253557D01*
X140783079Y-69231613D01*
X140793044Y-69210543D01*
X140805026Y-69190552D01*
X140818910Y-69171832D01*
X140834562Y-69154562D01*
X140851832Y-69138910D01*
X140870552Y-69125026D01*
X140890543Y-69113044D01*
X140911613Y-69103079D01*
X140933557Y-69095227D01*
X140956166Y-69089563D01*
X140979221Y-69086144D01*
X141002500Y-69085000D01*
X141477500Y-69085000D01*
X141500779Y-69086144D01*
X141500779Y-69086144D01*
G37*
D11*
X141240000Y-69610000D03*
D10*
G36*
X153090779Y-68231144D02*
G01*
X153113834Y-68234563D01*
X153136443Y-68240227D01*
X153158387Y-68248079D01*
X153179457Y-68258044D01*
X153199448Y-68270026D01*
X153218168Y-68283910D01*
X153235438Y-68299562D01*
X153251090Y-68316832D01*
X153264974Y-68335552D01*
X153276956Y-68355543D01*
X153286921Y-68376613D01*
X153294773Y-68398557D01*
X153300437Y-68421166D01*
X153303856Y-68444221D01*
X153305000Y-68467500D01*
X153305000Y-69042500D01*
X153303856Y-69065779D01*
X153300437Y-69088834D01*
X153294773Y-69111443D01*
X153286921Y-69133387D01*
X153276956Y-69154457D01*
X153264974Y-69174448D01*
X153251090Y-69193168D01*
X153235438Y-69210438D01*
X153218168Y-69226090D01*
X153199448Y-69239974D01*
X153179457Y-69251956D01*
X153158387Y-69261921D01*
X153136443Y-69269773D01*
X153113834Y-69275437D01*
X153090779Y-69278856D01*
X153067500Y-69280000D01*
X152592500Y-69280000D01*
X152569221Y-69278856D01*
X152546166Y-69275437D01*
X152523557Y-69269773D01*
X152501613Y-69261921D01*
X152480543Y-69251956D01*
X152460552Y-69239974D01*
X152441832Y-69226090D01*
X152424562Y-69210438D01*
X152408910Y-69193168D01*
X152395026Y-69174448D01*
X152383044Y-69154457D01*
X152373079Y-69133387D01*
X152365227Y-69111443D01*
X152359563Y-69088834D01*
X152356144Y-69065779D01*
X152355000Y-69042500D01*
X152355000Y-68467500D01*
X152356144Y-68444221D01*
X152359563Y-68421166D01*
X152365227Y-68398557D01*
X152373079Y-68376613D01*
X152383044Y-68355543D01*
X152395026Y-68335552D01*
X152408910Y-68316832D01*
X152424562Y-68299562D01*
X152441832Y-68283910D01*
X152460552Y-68270026D01*
X152480543Y-68258044D01*
X152501613Y-68248079D01*
X152523557Y-68240227D01*
X152546166Y-68234563D01*
X152569221Y-68231144D01*
X152592500Y-68230000D01*
X153067500Y-68230000D01*
X153090779Y-68231144D01*
X153090779Y-68231144D01*
G37*
D11*
X152830000Y-68755000D03*
D10*
G36*
X153090779Y-69981144D02*
G01*
X153113834Y-69984563D01*
X153136443Y-69990227D01*
X153158387Y-69998079D01*
X153179457Y-70008044D01*
X153199448Y-70020026D01*
X153218168Y-70033910D01*
X153235438Y-70049562D01*
X153251090Y-70066832D01*
X153264974Y-70085552D01*
X153276956Y-70105543D01*
X153286921Y-70126613D01*
X153294773Y-70148557D01*
X153300437Y-70171166D01*
X153303856Y-70194221D01*
X153305000Y-70217500D01*
X153305000Y-70792500D01*
X153303856Y-70815779D01*
X153300437Y-70838834D01*
X153294773Y-70861443D01*
X153286921Y-70883387D01*
X153276956Y-70904457D01*
X153264974Y-70924448D01*
X153251090Y-70943168D01*
X153235438Y-70960438D01*
X153218168Y-70976090D01*
X153199448Y-70989974D01*
X153179457Y-71001956D01*
X153158387Y-71011921D01*
X153136443Y-71019773D01*
X153113834Y-71025437D01*
X153090779Y-71028856D01*
X153067500Y-71030000D01*
X152592500Y-71030000D01*
X152569221Y-71028856D01*
X152546166Y-71025437D01*
X152523557Y-71019773D01*
X152501613Y-71011921D01*
X152480543Y-71001956D01*
X152460552Y-70989974D01*
X152441832Y-70976090D01*
X152424562Y-70960438D01*
X152408910Y-70943168D01*
X152395026Y-70924448D01*
X152383044Y-70904457D01*
X152373079Y-70883387D01*
X152365227Y-70861443D01*
X152359563Y-70838834D01*
X152356144Y-70815779D01*
X152355000Y-70792500D01*
X152355000Y-70217500D01*
X152356144Y-70194221D01*
X152359563Y-70171166D01*
X152365227Y-70148557D01*
X152373079Y-70126613D01*
X152383044Y-70105543D01*
X152395026Y-70085552D01*
X152408910Y-70066832D01*
X152424562Y-70049562D01*
X152441832Y-70033910D01*
X152460552Y-70020026D01*
X152480543Y-70008044D01*
X152501613Y-69998079D01*
X152523557Y-69990227D01*
X152546166Y-69984563D01*
X152569221Y-69981144D01*
X152592500Y-69980000D01*
X153067500Y-69980000D01*
X153090779Y-69981144D01*
X153090779Y-69981144D01*
G37*
D11*
X152830000Y-70505000D03*
D12*
X148540130Y-60115988D03*
D13*
X148540130Y-60115988D02*
X148540130Y-60115988D01*
D12*
X148540130Y-63708091D03*
D13*
X148540130Y-63708091D02*
X148540130Y-63708091D01*
D12*
X144948028Y-63708091D03*
D13*
X144806607Y-63849512D02*
X145089449Y-63566670D01*
D14*
X156660000Y-62120000D03*
D15*
X139007960Y-101973220D03*
D16*
X139007960Y-104473220D03*
X139007960Y-106973220D03*
D17*
X146507960Y-98873220D03*
X146507960Y-110073220D03*
D16*
X153507960Y-101973220D03*
X153507960Y-106973220D03*
D10*
G36*
X146274439Y-76988564D02*
G01*
X146297494Y-76991983D01*
X146320103Y-76997647D01*
X146342047Y-77005499D01*
X146363117Y-77015464D01*
X146383108Y-77027446D01*
X146401828Y-77041330D01*
X146419098Y-77056982D01*
X146434750Y-77074252D01*
X146448634Y-77092972D01*
X146460616Y-77112963D01*
X146470581Y-77134033D01*
X146478433Y-77155977D01*
X146484097Y-77178586D01*
X146487516Y-77201641D01*
X146488660Y-77224920D01*
X146488660Y-77799920D01*
X146487516Y-77823199D01*
X146484097Y-77846254D01*
X146478433Y-77868863D01*
X146470581Y-77890807D01*
X146460616Y-77911877D01*
X146448634Y-77931868D01*
X146434750Y-77950588D01*
X146419098Y-77967858D01*
X146401828Y-77983510D01*
X146383108Y-77997394D01*
X146363117Y-78009376D01*
X146342047Y-78019341D01*
X146320103Y-78027193D01*
X146297494Y-78032857D01*
X146274439Y-78036276D01*
X146251160Y-78037420D01*
X145776160Y-78037420D01*
X145752881Y-78036276D01*
X145729826Y-78032857D01*
X145707217Y-78027193D01*
X145685273Y-78019341D01*
X145664203Y-78009376D01*
X145644212Y-77997394D01*
X145625492Y-77983510D01*
X145608222Y-77967858D01*
X145592570Y-77950588D01*
X145578686Y-77931868D01*
X145566704Y-77911877D01*
X145556739Y-77890807D01*
X145548887Y-77868863D01*
X145543223Y-77846254D01*
X145539804Y-77823199D01*
X145538660Y-77799920D01*
X145538660Y-77224920D01*
X145539804Y-77201641D01*
X145543223Y-77178586D01*
X145548887Y-77155977D01*
X145556739Y-77134033D01*
X145566704Y-77112963D01*
X145578686Y-77092972D01*
X145592570Y-77074252D01*
X145608222Y-77056982D01*
X145625492Y-77041330D01*
X145644212Y-77027446D01*
X145664203Y-77015464D01*
X145685273Y-77005499D01*
X145707217Y-76997647D01*
X145729826Y-76991983D01*
X145752881Y-76988564D01*
X145776160Y-76987420D01*
X146251160Y-76987420D01*
X146274439Y-76988564D01*
X146274439Y-76988564D01*
G37*
D11*
X146013660Y-77512420D03*
D10*
G36*
X146274439Y-78738564D02*
G01*
X146297494Y-78741983D01*
X146320103Y-78747647D01*
X146342047Y-78755499D01*
X146363117Y-78765464D01*
X146383108Y-78777446D01*
X146401828Y-78791330D01*
X146419098Y-78806982D01*
X146434750Y-78824252D01*
X146448634Y-78842972D01*
X146460616Y-78862963D01*
X146470581Y-78884033D01*
X146478433Y-78905977D01*
X146484097Y-78928586D01*
X146487516Y-78951641D01*
X146488660Y-78974920D01*
X146488660Y-79549920D01*
X146487516Y-79573199D01*
X146484097Y-79596254D01*
X146478433Y-79618863D01*
X146470581Y-79640807D01*
X146460616Y-79661877D01*
X146448634Y-79681868D01*
X146434750Y-79700588D01*
X146419098Y-79717858D01*
X146401828Y-79733510D01*
X146383108Y-79747394D01*
X146363117Y-79759376D01*
X146342047Y-79769341D01*
X146320103Y-79777193D01*
X146297494Y-79782857D01*
X146274439Y-79786276D01*
X146251160Y-79787420D01*
X145776160Y-79787420D01*
X145752881Y-79786276D01*
X145729826Y-79782857D01*
X145707217Y-79777193D01*
X145685273Y-79769341D01*
X145664203Y-79759376D01*
X145644212Y-79747394D01*
X145625492Y-79733510D01*
X145608222Y-79717858D01*
X145592570Y-79700588D01*
X145578686Y-79681868D01*
X145566704Y-79661877D01*
X145556739Y-79640807D01*
X145548887Y-79618863D01*
X145543223Y-79596254D01*
X145539804Y-79573199D01*
X145538660Y-79549920D01*
X145538660Y-78974920D01*
X145539804Y-78951641D01*
X145543223Y-78928586D01*
X145548887Y-78905977D01*
X145556739Y-78884033D01*
X145566704Y-78862963D01*
X145578686Y-78842972D01*
X145592570Y-78824252D01*
X145608222Y-78806982D01*
X145625492Y-78791330D01*
X145644212Y-78777446D01*
X145664203Y-78765464D01*
X145685273Y-78755499D01*
X145707217Y-78747647D01*
X145729826Y-78741983D01*
X145752881Y-78738564D01*
X145776160Y-78737420D01*
X146251160Y-78737420D01*
X146274439Y-78738564D01*
X146274439Y-78738564D01*
G37*
D11*
X146013660Y-79262420D03*
D10*
G36*
X146264439Y-80598564D02*
G01*
X146287494Y-80601983D01*
X146310103Y-80607647D01*
X146332047Y-80615499D01*
X146353117Y-80625464D01*
X146373108Y-80637446D01*
X146391828Y-80651330D01*
X146409098Y-80666982D01*
X146424750Y-80684252D01*
X146438634Y-80702972D01*
X146450616Y-80722963D01*
X146460581Y-80744033D01*
X146468433Y-80765977D01*
X146474097Y-80788586D01*
X146477516Y-80811641D01*
X146478660Y-80834920D01*
X146478660Y-81409920D01*
X146477516Y-81433199D01*
X146474097Y-81456254D01*
X146468433Y-81478863D01*
X146460581Y-81500807D01*
X146450616Y-81521877D01*
X146438634Y-81541868D01*
X146424750Y-81560588D01*
X146409098Y-81577858D01*
X146391828Y-81593510D01*
X146373108Y-81607394D01*
X146353117Y-81619376D01*
X146332047Y-81629341D01*
X146310103Y-81637193D01*
X146287494Y-81642857D01*
X146264439Y-81646276D01*
X146241160Y-81647420D01*
X145766160Y-81647420D01*
X145742881Y-81646276D01*
X145719826Y-81642857D01*
X145697217Y-81637193D01*
X145675273Y-81629341D01*
X145654203Y-81619376D01*
X145634212Y-81607394D01*
X145615492Y-81593510D01*
X145598222Y-81577858D01*
X145582570Y-81560588D01*
X145568686Y-81541868D01*
X145556704Y-81521877D01*
X145546739Y-81500807D01*
X145538887Y-81478863D01*
X145533223Y-81456254D01*
X145529804Y-81433199D01*
X145528660Y-81409920D01*
X145528660Y-80834920D01*
X145529804Y-80811641D01*
X145533223Y-80788586D01*
X145538887Y-80765977D01*
X145546739Y-80744033D01*
X145556704Y-80722963D01*
X145568686Y-80702972D01*
X145582570Y-80684252D01*
X145598222Y-80666982D01*
X145615492Y-80651330D01*
X145634212Y-80637446D01*
X145654203Y-80625464D01*
X145675273Y-80615499D01*
X145697217Y-80607647D01*
X145719826Y-80601983D01*
X145742881Y-80598564D01*
X145766160Y-80597420D01*
X146241160Y-80597420D01*
X146264439Y-80598564D01*
X146264439Y-80598564D01*
G37*
D11*
X146003660Y-81122420D03*
D10*
G36*
X146264439Y-82348564D02*
G01*
X146287494Y-82351983D01*
X146310103Y-82357647D01*
X146332047Y-82365499D01*
X146353117Y-82375464D01*
X146373108Y-82387446D01*
X146391828Y-82401330D01*
X146409098Y-82416982D01*
X146424750Y-82434252D01*
X146438634Y-82452972D01*
X146450616Y-82472963D01*
X146460581Y-82494033D01*
X146468433Y-82515977D01*
X146474097Y-82538586D01*
X146477516Y-82561641D01*
X146478660Y-82584920D01*
X146478660Y-83159920D01*
X146477516Y-83183199D01*
X146474097Y-83206254D01*
X146468433Y-83228863D01*
X146460581Y-83250807D01*
X146450616Y-83271877D01*
X146438634Y-83291868D01*
X146424750Y-83310588D01*
X146409098Y-83327858D01*
X146391828Y-83343510D01*
X146373108Y-83357394D01*
X146353117Y-83369376D01*
X146332047Y-83379341D01*
X146310103Y-83387193D01*
X146287494Y-83392857D01*
X146264439Y-83396276D01*
X146241160Y-83397420D01*
X145766160Y-83397420D01*
X145742881Y-83396276D01*
X145719826Y-83392857D01*
X145697217Y-83387193D01*
X145675273Y-83379341D01*
X145654203Y-83369376D01*
X145634212Y-83357394D01*
X145615492Y-83343510D01*
X145598222Y-83327858D01*
X145582570Y-83310588D01*
X145568686Y-83291868D01*
X145556704Y-83271877D01*
X145546739Y-83250807D01*
X145538887Y-83228863D01*
X145533223Y-83206254D01*
X145529804Y-83183199D01*
X145528660Y-83159920D01*
X145528660Y-82584920D01*
X145529804Y-82561641D01*
X145533223Y-82538586D01*
X145538887Y-82515977D01*
X145546739Y-82494033D01*
X145556704Y-82472963D01*
X145568686Y-82452972D01*
X145582570Y-82434252D01*
X145598222Y-82416982D01*
X145615492Y-82401330D01*
X145634212Y-82387446D01*
X145654203Y-82375464D01*
X145675273Y-82365499D01*
X145697217Y-82357647D01*
X145719826Y-82351983D01*
X145742881Y-82348564D01*
X145766160Y-82347420D01*
X146241160Y-82347420D01*
X146264439Y-82348564D01*
X146264439Y-82348564D01*
G37*
D11*
X146003660Y-82872420D03*
D10*
G36*
X146274439Y-84108564D02*
G01*
X146297494Y-84111983D01*
X146320103Y-84117647D01*
X146342047Y-84125499D01*
X146363117Y-84135464D01*
X146383108Y-84147446D01*
X146401828Y-84161330D01*
X146419098Y-84176982D01*
X146434750Y-84194252D01*
X146448634Y-84212972D01*
X146460616Y-84232963D01*
X146470581Y-84254033D01*
X146478433Y-84275977D01*
X146484097Y-84298586D01*
X146487516Y-84321641D01*
X146488660Y-84344920D01*
X146488660Y-84919920D01*
X146487516Y-84943199D01*
X146484097Y-84966254D01*
X146478433Y-84988863D01*
X146470581Y-85010807D01*
X146460616Y-85031877D01*
X146448634Y-85051868D01*
X146434750Y-85070588D01*
X146419098Y-85087858D01*
X146401828Y-85103510D01*
X146383108Y-85117394D01*
X146363117Y-85129376D01*
X146342047Y-85139341D01*
X146320103Y-85147193D01*
X146297494Y-85152857D01*
X146274439Y-85156276D01*
X146251160Y-85157420D01*
X145776160Y-85157420D01*
X145752881Y-85156276D01*
X145729826Y-85152857D01*
X145707217Y-85147193D01*
X145685273Y-85139341D01*
X145664203Y-85129376D01*
X145644212Y-85117394D01*
X145625492Y-85103510D01*
X145608222Y-85087858D01*
X145592570Y-85070588D01*
X145578686Y-85051868D01*
X145566704Y-85031877D01*
X145556739Y-85010807D01*
X145548887Y-84988863D01*
X145543223Y-84966254D01*
X145539804Y-84943199D01*
X145538660Y-84919920D01*
X145538660Y-84344920D01*
X145539804Y-84321641D01*
X145543223Y-84298586D01*
X145548887Y-84275977D01*
X145556739Y-84254033D01*
X145566704Y-84232963D01*
X145578686Y-84212972D01*
X145592570Y-84194252D01*
X145608222Y-84176982D01*
X145625492Y-84161330D01*
X145644212Y-84147446D01*
X145664203Y-84135464D01*
X145685273Y-84125499D01*
X145707217Y-84117647D01*
X145729826Y-84111983D01*
X145752881Y-84108564D01*
X145776160Y-84107420D01*
X146251160Y-84107420D01*
X146274439Y-84108564D01*
X146274439Y-84108564D01*
G37*
D11*
X146013660Y-84632420D03*
D10*
G36*
X146274439Y-85858564D02*
G01*
X146297494Y-85861983D01*
X146320103Y-85867647D01*
X146342047Y-85875499D01*
X146363117Y-85885464D01*
X146383108Y-85897446D01*
X146401828Y-85911330D01*
X146419098Y-85926982D01*
X146434750Y-85944252D01*
X146448634Y-85962972D01*
X146460616Y-85982963D01*
X146470581Y-86004033D01*
X146478433Y-86025977D01*
X146484097Y-86048586D01*
X146487516Y-86071641D01*
X146488660Y-86094920D01*
X146488660Y-86669920D01*
X146487516Y-86693199D01*
X146484097Y-86716254D01*
X146478433Y-86738863D01*
X146470581Y-86760807D01*
X146460616Y-86781877D01*
X146448634Y-86801868D01*
X146434750Y-86820588D01*
X146419098Y-86837858D01*
X146401828Y-86853510D01*
X146383108Y-86867394D01*
X146363117Y-86879376D01*
X146342047Y-86889341D01*
X146320103Y-86897193D01*
X146297494Y-86902857D01*
X146274439Y-86906276D01*
X146251160Y-86907420D01*
X145776160Y-86907420D01*
X145752881Y-86906276D01*
X145729826Y-86902857D01*
X145707217Y-86897193D01*
X145685273Y-86889341D01*
X145664203Y-86879376D01*
X145644212Y-86867394D01*
X145625492Y-86853510D01*
X145608222Y-86837858D01*
X145592570Y-86820588D01*
X145578686Y-86801868D01*
X145566704Y-86781877D01*
X145556739Y-86760807D01*
X145548887Y-86738863D01*
X145543223Y-86716254D01*
X145539804Y-86693199D01*
X145538660Y-86669920D01*
X145538660Y-86094920D01*
X145539804Y-86071641D01*
X145543223Y-86048586D01*
X145548887Y-86025977D01*
X145556739Y-86004033D01*
X145566704Y-85982963D01*
X145578686Y-85962972D01*
X145592570Y-85944252D01*
X145608222Y-85926982D01*
X145625492Y-85911330D01*
X145644212Y-85897446D01*
X145664203Y-85885464D01*
X145685273Y-85875499D01*
X145707217Y-85867647D01*
X145729826Y-85861983D01*
X145752881Y-85858564D01*
X145776160Y-85857420D01*
X146251160Y-85857420D01*
X146274439Y-85858564D01*
X146274439Y-85858564D01*
G37*
D11*
X146013660Y-86382420D03*
D10*
G36*
X146274439Y-87733564D02*
G01*
X146297494Y-87736983D01*
X146320103Y-87742647D01*
X146342047Y-87750499D01*
X146363117Y-87760464D01*
X146383108Y-87772446D01*
X146401828Y-87786330D01*
X146419098Y-87801982D01*
X146434750Y-87819252D01*
X146448634Y-87837972D01*
X146460616Y-87857963D01*
X146470581Y-87879033D01*
X146478433Y-87900977D01*
X146484097Y-87923586D01*
X146487516Y-87946641D01*
X146488660Y-87969920D01*
X146488660Y-88544920D01*
X146487516Y-88568199D01*
X146484097Y-88591254D01*
X146478433Y-88613863D01*
X146470581Y-88635807D01*
X146460616Y-88656877D01*
X146448634Y-88676868D01*
X146434750Y-88695588D01*
X146419098Y-88712858D01*
X146401828Y-88728510D01*
X146383108Y-88742394D01*
X146363117Y-88754376D01*
X146342047Y-88764341D01*
X146320103Y-88772193D01*
X146297494Y-88777857D01*
X146274439Y-88781276D01*
X146251160Y-88782420D01*
X145776160Y-88782420D01*
X145752881Y-88781276D01*
X145729826Y-88777857D01*
X145707217Y-88772193D01*
X145685273Y-88764341D01*
X145664203Y-88754376D01*
X145644212Y-88742394D01*
X145625492Y-88728510D01*
X145608222Y-88712858D01*
X145592570Y-88695588D01*
X145578686Y-88676868D01*
X145566704Y-88656877D01*
X145556739Y-88635807D01*
X145548887Y-88613863D01*
X145543223Y-88591254D01*
X145539804Y-88568199D01*
X145538660Y-88544920D01*
X145538660Y-87969920D01*
X145539804Y-87946641D01*
X145543223Y-87923586D01*
X145548887Y-87900977D01*
X145556739Y-87879033D01*
X145566704Y-87857963D01*
X145578686Y-87837972D01*
X145592570Y-87819252D01*
X145608222Y-87801982D01*
X145625492Y-87786330D01*
X145644212Y-87772446D01*
X145664203Y-87760464D01*
X145685273Y-87750499D01*
X145707217Y-87742647D01*
X145729826Y-87736983D01*
X145752881Y-87733564D01*
X145776160Y-87732420D01*
X146251160Y-87732420D01*
X146274439Y-87733564D01*
X146274439Y-87733564D01*
G37*
D11*
X146013660Y-88257420D03*
D10*
G36*
X146274439Y-89483564D02*
G01*
X146297494Y-89486983D01*
X146320103Y-89492647D01*
X146342047Y-89500499D01*
X146363117Y-89510464D01*
X146383108Y-89522446D01*
X146401828Y-89536330D01*
X146419098Y-89551982D01*
X146434750Y-89569252D01*
X146448634Y-89587972D01*
X146460616Y-89607963D01*
X146470581Y-89629033D01*
X146478433Y-89650977D01*
X146484097Y-89673586D01*
X146487516Y-89696641D01*
X146488660Y-89719920D01*
X146488660Y-90294920D01*
X146487516Y-90318199D01*
X146484097Y-90341254D01*
X146478433Y-90363863D01*
X146470581Y-90385807D01*
X146460616Y-90406877D01*
X146448634Y-90426868D01*
X146434750Y-90445588D01*
X146419098Y-90462858D01*
X146401828Y-90478510D01*
X146383108Y-90492394D01*
X146363117Y-90504376D01*
X146342047Y-90514341D01*
X146320103Y-90522193D01*
X146297494Y-90527857D01*
X146274439Y-90531276D01*
X146251160Y-90532420D01*
X145776160Y-90532420D01*
X145752881Y-90531276D01*
X145729826Y-90527857D01*
X145707217Y-90522193D01*
X145685273Y-90514341D01*
X145664203Y-90504376D01*
X145644212Y-90492394D01*
X145625492Y-90478510D01*
X145608222Y-90462858D01*
X145592570Y-90445588D01*
X145578686Y-90426868D01*
X145566704Y-90406877D01*
X145556739Y-90385807D01*
X145548887Y-90363863D01*
X145543223Y-90341254D01*
X145539804Y-90318199D01*
X145538660Y-90294920D01*
X145538660Y-89719920D01*
X145539804Y-89696641D01*
X145543223Y-89673586D01*
X145548887Y-89650977D01*
X145556739Y-89629033D01*
X145566704Y-89607963D01*
X145578686Y-89587972D01*
X145592570Y-89569252D01*
X145608222Y-89551982D01*
X145625492Y-89536330D01*
X145644212Y-89522446D01*
X145664203Y-89510464D01*
X145685273Y-89500499D01*
X145707217Y-89492647D01*
X145729826Y-89486983D01*
X145752881Y-89483564D01*
X145776160Y-89482420D01*
X146251160Y-89482420D01*
X146274439Y-89483564D01*
X146274439Y-89483564D01*
G37*
D11*
X146013660Y-90007420D03*
D18*
X143330000Y-68650000D03*
D19*
X144600000Y-68650000D03*
D10*
G36*
X143410779Y-70626144D02*
G01*
X143433834Y-70629563D01*
X143456443Y-70635227D01*
X143478387Y-70643079D01*
X143499457Y-70653044D01*
X143519448Y-70665026D01*
X143538168Y-70678910D01*
X143555438Y-70694562D01*
X143571090Y-70711832D01*
X143584974Y-70730552D01*
X143596956Y-70750543D01*
X143606921Y-70771613D01*
X143614773Y-70793557D01*
X143620437Y-70816166D01*
X143623856Y-70839221D01*
X143625000Y-70862500D01*
X143625000Y-71337500D01*
X143623856Y-71360779D01*
X143620437Y-71383834D01*
X143614773Y-71406443D01*
X143606921Y-71428387D01*
X143596956Y-71449457D01*
X143584974Y-71469448D01*
X143571090Y-71488168D01*
X143555438Y-71505438D01*
X143538168Y-71521090D01*
X143519448Y-71534974D01*
X143499457Y-71546956D01*
X143478387Y-71556921D01*
X143456443Y-71564773D01*
X143433834Y-71570437D01*
X143410779Y-71573856D01*
X143387500Y-71575000D01*
X142812500Y-71575000D01*
X142789221Y-71573856D01*
X142766166Y-71570437D01*
X142743557Y-71564773D01*
X142721613Y-71556921D01*
X142700543Y-71546956D01*
X142680552Y-71534974D01*
X142661832Y-71521090D01*
X142644562Y-71505438D01*
X142628910Y-71488168D01*
X142615026Y-71469448D01*
X142603044Y-71449457D01*
X142593079Y-71428387D01*
X142585227Y-71406443D01*
X142579563Y-71383834D01*
X142576144Y-71360779D01*
X142575000Y-71337500D01*
X142575000Y-70862500D01*
X142576144Y-70839221D01*
X142579563Y-70816166D01*
X142585227Y-70793557D01*
X142593079Y-70771613D01*
X142603044Y-70750543D01*
X142615026Y-70730552D01*
X142628910Y-70711832D01*
X142644562Y-70694562D01*
X142661832Y-70678910D01*
X142680552Y-70665026D01*
X142700543Y-70653044D01*
X142721613Y-70643079D01*
X142743557Y-70635227D01*
X142766166Y-70629563D01*
X142789221Y-70626144D01*
X142812500Y-70625000D01*
X143387500Y-70625000D01*
X143410779Y-70626144D01*
X143410779Y-70626144D01*
G37*
D11*
X143100000Y-71100000D03*
D10*
G36*
X145160779Y-70626144D02*
G01*
X145183834Y-70629563D01*
X145206443Y-70635227D01*
X145228387Y-70643079D01*
X145249457Y-70653044D01*
X145269448Y-70665026D01*
X145288168Y-70678910D01*
X145305438Y-70694562D01*
X145321090Y-70711832D01*
X145334974Y-70730552D01*
X145346956Y-70750543D01*
X145356921Y-70771613D01*
X145364773Y-70793557D01*
X145370437Y-70816166D01*
X145373856Y-70839221D01*
X145375000Y-70862500D01*
X145375000Y-71337500D01*
X145373856Y-71360779D01*
X145370437Y-71383834D01*
X145364773Y-71406443D01*
X145356921Y-71428387D01*
X145346956Y-71449457D01*
X145334974Y-71469448D01*
X145321090Y-71488168D01*
X145305438Y-71505438D01*
X145288168Y-71521090D01*
X145269448Y-71534974D01*
X145249457Y-71546956D01*
X145228387Y-71556921D01*
X145206443Y-71564773D01*
X145183834Y-71570437D01*
X145160779Y-71573856D01*
X145137500Y-71575000D01*
X144562500Y-71575000D01*
X144539221Y-71573856D01*
X144516166Y-71570437D01*
X144493557Y-71564773D01*
X144471613Y-71556921D01*
X144450543Y-71546956D01*
X144430552Y-71534974D01*
X144411832Y-71521090D01*
X144394562Y-71505438D01*
X144378910Y-71488168D01*
X144365026Y-71469448D01*
X144353044Y-71449457D01*
X144343079Y-71428387D01*
X144335227Y-71406443D01*
X144329563Y-71383834D01*
X144326144Y-71360779D01*
X144325000Y-71337500D01*
X144325000Y-70862500D01*
X144326144Y-70839221D01*
X144329563Y-70816166D01*
X144335227Y-70793557D01*
X144343079Y-70771613D01*
X144353044Y-70750543D01*
X144365026Y-70730552D01*
X144378910Y-70711832D01*
X144394562Y-70694562D01*
X144411832Y-70678910D01*
X144430552Y-70665026D01*
X144450543Y-70653044D01*
X144471613Y-70643079D01*
X144493557Y-70635227D01*
X144516166Y-70629563D01*
X144539221Y-70626144D01*
X144562500Y-70625000D01*
X145137500Y-70625000D01*
X145160779Y-70626144D01*
X145160779Y-70626144D01*
G37*
D11*
X144850000Y-71100000D03*
D10*
G36*
X157885779Y-65196144D02*
G01*
X157908834Y-65199563D01*
X157931443Y-65205227D01*
X157953387Y-65213079D01*
X157974457Y-65223044D01*
X157994448Y-65235026D01*
X158013168Y-65248910D01*
X158030438Y-65264562D01*
X158046090Y-65281832D01*
X158059974Y-65300552D01*
X158071956Y-65320543D01*
X158081921Y-65341613D01*
X158089773Y-65363557D01*
X158095437Y-65386166D01*
X158098856Y-65409221D01*
X158100000Y-65432500D01*
X158100000Y-65907500D01*
X158098856Y-65930779D01*
X158095437Y-65953834D01*
X158089773Y-65976443D01*
X158081921Y-65998387D01*
X158071956Y-66019457D01*
X158059974Y-66039448D01*
X158046090Y-66058168D01*
X158030438Y-66075438D01*
X158013168Y-66091090D01*
X157994448Y-66104974D01*
X157974457Y-66116956D01*
X157953387Y-66126921D01*
X157931443Y-66134773D01*
X157908834Y-66140437D01*
X157885779Y-66143856D01*
X157862500Y-66145000D01*
X157287500Y-66145000D01*
X157264221Y-66143856D01*
X157241166Y-66140437D01*
X157218557Y-66134773D01*
X157196613Y-66126921D01*
X157175543Y-66116956D01*
X157155552Y-66104974D01*
X157136832Y-66091090D01*
X157119562Y-66075438D01*
X157103910Y-66058168D01*
X157090026Y-66039448D01*
X157078044Y-66019457D01*
X157068079Y-65998387D01*
X157060227Y-65976443D01*
X157054563Y-65953834D01*
X157051144Y-65930779D01*
X157050000Y-65907500D01*
X157050000Y-65432500D01*
X157051144Y-65409221D01*
X157054563Y-65386166D01*
X157060227Y-65363557D01*
X157068079Y-65341613D01*
X157078044Y-65320543D01*
X157090026Y-65300552D01*
X157103910Y-65281832D01*
X157119562Y-65264562D01*
X157136832Y-65248910D01*
X157155552Y-65235026D01*
X157175543Y-65223044D01*
X157196613Y-65213079D01*
X157218557Y-65205227D01*
X157241166Y-65199563D01*
X157264221Y-65196144D01*
X157287500Y-65195000D01*
X157862500Y-65195000D01*
X157885779Y-65196144D01*
X157885779Y-65196144D01*
G37*
D11*
X157575000Y-65670000D03*
D10*
G36*
X156135779Y-65196144D02*
G01*
X156158834Y-65199563D01*
X156181443Y-65205227D01*
X156203387Y-65213079D01*
X156224457Y-65223044D01*
X156244448Y-65235026D01*
X156263168Y-65248910D01*
X156280438Y-65264562D01*
X156296090Y-65281832D01*
X156309974Y-65300552D01*
X156321956Y-65320543D01*
X156331921Y-65341613D01*
X156339773Y-65363557D01*
X156345437Y-65386166D01*
X156348856Y-65409221D01*
X156350000Y-65432500D01*
X156350000Y-65907500D01*
X156348856Y-65930779D01*
X156345437Y-65953834D01*
X156339773Y-65976443D01*
X156331921Y-65998387D01*
X156321956Y-66019457D01*
X156309974Y-66039448D01*
X156296090Y-66058168D01*
X156280438Y-66075438D01*
X156263168Y-66091090D01*
X156244448Y-66104974D01*
X156224457Y-66116956D01*
X156203387Y-66126921D01*
X156181443Y-66134773D01*
X156158834Y-66140437D01*
X156135779Y-66143856D01*
X156112500Y-66145000D01*
X155537500Y-66145000D01*
X155514221Y-66143856D01*
X155491166Y-66140437D01*
X155468557Y-66134773D01*
X155446613Y-66126921D01*
X155425543Y-66116956D01*
X155405552Y-66104974D01*
X155386832Y-66091090D01*
X155369562Y-66075438D01*
X155353910Y-66058168D01*
X155340026Y-66039448D01*
X155328044Y-66019457D01*
X155318079Y-65998387D01*
X155310227Y-65976443D01*
X155304563Y-65953834D01*
X155301144Y-65930779D01*
X155300000Y-65907500D01*
X155300000Y-65432500D01*
X155301144Y-65409221D01*
X155304563Y-65386166D01*
X155310227Y-65363557D01*
X155318079Y-65341613D01*
X155328044Y-65320543D01*
X155340026Y-65300552D01*
X155353910Y-65281832D01*
X155369562Y-65264562D01*
X155386832Y-65248910D01*
X155405552Y-65235026D01*
X155425543Y-65223044D01*
X155446613Y-65213079D01*
X155468557Y-65205227D01*
X155491166Y-65199563D01*
X155514221Y-65196144D01*
X155537500Y-65195000D01*
X156112500Y-65195000D01*
X156135779Y-65196144D01*
X156135779Y-65196144D01*
G37*
D11*
X155825000Y-65670000D03*
D10*
G36*
X139600779Y-94026144D02*
G01*
X139623834Y-94029563D01*
X139646443Y-94035227D01*
X139668387Y-94043079D01*
X139689457Y-94053044D01*
X139709448Y-94065026D01*
X139728168Y-94078910D01*
X139745438Y-94094562D01*
X139761090Y-94111832D01*
X139774974Y-94130552D01*
X139786956Y-94150543D01*
X139796921Y-94171613D01*
X139804773Y-94193557D01*
X139810437Y-94216166D01*
X139813856Y-94239221D01*
X139815000Y-94262500D01*
X139815000Y-94737500D01*
X139813856Y-94760779D01*
X139810437Y-94783834D01*
X139804773Y-94806443D01*
X139796921Y-94828387D01*
X139786956Y-94849457D01*
X139774974Y-94869448D01*
X139761090Y-94888168D01*
X139745438Y-94905438D01*
X139728168Y-94921090D01*
X139709448Y-94934974D01*
X139689457Y-94946956D01*
X139668387Y-94956921D01*
X139646443Y-94964773D01*
X139623834Y-94970437D01*
X139600779Y-94973856D01*
X139577500Y-94975000D01*
X139002500Y-94975000D01*
X138979221Y-94973856D01*
X138956166Y-94970437D01*
X138933557Y-94964773D01*
X138911613Y-94956921D01*
X138890543Y-94946956D01*
X138870552Y-94934974D01*
X138851832Y-94921090D01*
X138834562Y-94905438D01*
X138818910Y-94888168D01*
X138805026Y-94869448D01*
X138793044Y-94849457D01*
X138783079Y-94828387D01*
X138775227Y-94806443D01*
X138769563Y-94783834D01*
X138766144Y-94760779D01*
X138765000Y-94737500D01*
X138765000Y-94262500D01*
X138766144Y-94239221D01*
X138769563Y-94216166D01*
X138775227Y-94193557D01*
X138783079Y-94171613D01*
X138793044Y-94150543D01*
X138805026Y-94130552D01*
X138818910Y-94111832D01*
X138834562Y-94094562D01*
X138851832Y-94078910D01*
X138870552Y-94065026D01*
X138890543Y-94053044D01*
X138911613Y-94043079D01*
X138933557Y-94035227D01*
X138956166Y-94029563D01*
X138979221Y-94026144D01*
X139002500Y-94025000D01*
X139577500Y-94025000D01*
X139600779Y-94026144D01*
X139600779Y-94026144D01*
G37*
D11*
X139290000Y-94500000D03*
D10*
G36*
X141350779Y-94026144D02*
G01*
X141373834Y-94029563D01*
X141396443Y-94035227D01*
X141418387Y-94043079D01*
X141439457Y-94053044D01*
X141459448Y-94065026D01*
X141478168Y-94078910D01*
X141495438Y-94094562D01*
X141511090Y-94111832D01*
X141524974Y-94130552D01*
X141536956Y-94150543D01*
X141546921Y-94171613D01*
X141554773Y-94193557D01*
X141560437Y-94216166D01*
X141563856Y-94239221D01*
X141565000Y-94262500D01*
X141565000Y-94737500D01*
X141563856Y-94760779D01*
X141560437Y-94783834D01*
X141554773Y-94806443D01*
X141546921Y-94828387D01*
X141536956Y-94849457D01*
X141524974Y-94869448D01*
X141511090Y-94888168D01*
X141495438Y-94905438D01*
X141478168Y-94921090D01*
X141459448Y-94934974D01*
X141439457Y-94946956D01*
X141418387Y-94956921D01*
X141396443Y-94964773D01*
X141373834Y-94970437D01*
X141350779Y-94973856D01*
X141327500Y-94975000D01*
X140752500Y-94975000D01*
X140729221Y-94973856D01*
X140706166Y-94970437D01*
X140683557Y-94964773D01*
X140661613Y-94956921D01*
X140640543Y-94946956D01*
X140620552Y-94934974D01*
X140601832Y-94921090D01*
X140584562Y-94905438D01*
X140568910Y-94888168D01*
X140555026Y-94869448D01*
X140543044Y-94849457D01*
X140533079Y-94828387D01*
X140525227Y-94806443D01*
X140519563Y-94783834D01*
X140516144Y-94760779D01*
X140515000Y-94737500D01*
X140515000Y-94262500D01*
X140516144Y-94239221D01*
X140519563Y-94216166D01*
X140525227Y-94193557D01*
X140533079Y-94171613D01*
X140543044Y-94150543D01*
X140555026Y-94130552D01*
X140568910Y-94111832D01*
X140584562Y-94094562D01*
X140601832Y-94078910D01*
X140620552Y-94065026D01*
X140640543Y-94053044D01*
X140661613Y-94043079D01*
X140683557Y-94035227D01*
X140706166Y-94029563D01*
X140729221Y-94026144D01*
X140752500Y-94025000D01*
X141327500Y-94025000D01*
X141350779Y-94026144D01*
X141350779Y-94026144D01*
G37*
D11*
X141040000Y-94500000D03*
D10*
G36*
X151235779Y-70001144D02*
G01*
X151258834Y-70004563D01*
X151281443Y-70010227D01*
X151303387Y-70018079D01*
X151324457Y-70028044D01*
X151344448Y-70040026D01*
X151363168Y-70053910D01*
X151380438Y-70069562D01*
X151396090Y-70086832D01*
X151409974Y-70105552D01*
X151421956Y-70125543D01*
X151431921Y-70146613D01*
X151439773Y-70168557D01*
X151445437Y-70191166D01*
X151448856Y-70214221D01*
X151450000Y-70237500D01*
X151450000Y-70812500D01*
X151448856Y-70835779D01*
X151445437Y-70858834D01*
X151439773Y-70881443D01*
X151431921Y-70903387D01*
X151421956Y-70924457D01*
X151409974Y-70944448D01*
X151396090Y-70963168D01*
X151380438Y-70980438D01*
X151363168Y-70996090D01*
X151344448Y-71009974D01*
X151324457Y-71021956D01*
X151303387Y-71031921D01*
X151281443Y-71039773D01*
X151258834Y-71045437D01*
X151235779Y-71048856D01*
X151212500Y-71050000D01*
X150737500Y-71050000D01*
X150714221Y-71048856D01*
X150691166Y-71045437D01*
X150668557Y-71039773D01*
X150646613Y-71031921D01*
X150625543Y-71021956D01*
X150605552Y-71009974D01*
X150586832Y-70996090D01*
X150569562Y-70980438D01*
X150553910Y-70963168D01*
X150540026Y-70944448D01*
X150528044Y-70924457D01*
X150518079Y-70903387D01*
X150510227Y-70881443D01*
X150504563Y-70858834D01*
X150501144Y-70835779D01*
X150500000Y-70812500D01*
X150500000Y-70237500D01*
X150501144Y-70214221D01*
X150504563Y-70191166D01*
X150510227Y-70168557D01*
X150518079Y-70146613D01*
X150528044Y-70125543D01*
X150540026Y-70105552D01*
X150553910Y-70086832D01*
X150569562Y-70069562D01*
X150586832Y-70053910D01*
X150605552Y-70040026D01*
X150625543Y-70028044D01*
X150646613Y-70018079D01*
X150668557Y-70010227D01*
X150691166Y-70004563D01*
X150714221Y-70001144D01*
X150737500Y-70000000D01*
X151212500Y-70000000D01*
X151235779Y-70001144D01*
X151235779Y-70001144D01*
G37*
D11*
X150975000Y-70525000D03*
D10*
G36*
X151235779Y-68251144D02*
G01*
X151258834Y-68254563D01*
X151281443Y-68260227D01*
X151303387Y-68268079D01*
X151324457Y-68278044D01*
X151344448Y-68290026D01*
X151363168Y-68303910D01*
X151380438Y-68319562D01*
X151396090Y-68336832D01*
X151409974Y-68355552D01*
X151421956Y-68375543D01*
X151431921Y-68396613D01*
X151439773Y-68418557D01*
X151445437Y-68441166D01*
X151448856Y-68464221D01*
X151450000Y-68487500D01*
X151450000Y-69062500D01*
X151448856Y-69085779D01*
X151445437Y-69108834D01*
X151439773Y-69131443D01*
X151431921Y-69153387D01*
X151421956Y-69174457D01*
X151409974Y-69194448D01*
X151396090Y-69213168D01*
X151380438Y-69230438D01*
X151363168Y-69246090D01*
X151344448Y-69259974D01*
X151324457Y-69271956D01*
X151303387Y-69281921D01*
X151281443Y-69289773D01*
X151258834Y-69295437D01*
X151235779Y-69298856D01*
X151212500Y-69300000D01*
X150737500Y-69300000D01*
X150714221Y-69298856D01*
X150691166Y-69295437D01*
X150668557Y-69289773D01*
X150646613Y-69281921D01*
X150625543Y-69271956D01*
X150605552Y-69259974D01*
X150586832Y-69246090D01*
X150569562Y-69230438D01*
X150553910Y-69213168D01*
X150540026Y-69194448D01*
X150528044Y-69174457D01*
X150518079Y-69153387D01*
X150510227Y-69131443D01*
X150504563Y-69108834D01*
X150501144Y-69085779D01*
X150500000Y-69062500D01*
X150500000Y-68487500D01*
X150501144Y-68464221D01*
X150504563Y-68441166D01*
X150510227Y-68418557D01*
X150518079Y-68396613D01*
X150528044Y-68375543D01*
X150540026Y-68355552D01*
X150553910Y-68336832D01*
X150569562Y-68319562D01*
X150586832Y-68303910D01*
X150605552Y-68290026D01*
X150625543Y-68278044D01*
X150646613Y-68268079D01*
X150668557Y-68260227D01*
X150691166Y-68254563D01*
X150714221Y-68251144D01*
X150737500Y-68250000D01*
X151212500Y-68250000D01*
X151235779Y-68251144D01*
X151235779Y-68251144D01*
G37*
D11*
X150975000Y-68775000D03*
D10*
G36*
X156140779Y-68506144D02*
G01*
X156163834Y-68509563D01*
X156186443Y-68515227D01*
X156208387Y-68523079D01*
X156229457Y-68533044D01*
X156249448Y-68545026D01*
X156268168Y-68558910D01*
X156285438Y-68574562D01*
X156301090Y-68591832D01*
X156314974Y-68610552D01*
X156326956Y-68630543D01*
X156336921Y-68651613D01*
X156344773Y-68673557D01*
X156350437Y-68696166D01*
X156353856Y-68719221D01*
X156355000Y-68742500D01*
X156355000Y-69217500D01*
X156353856Y-69240779D01*
X156350437Y-69263834D01*
X156344773Y-69286443D01*
X156336921Y-69308387D01*
X156326956Y-69329457D01*
X156314974Y-69349448D01*
X156301090Y-69368168D01*
X156285438Y-69385438D01*
X156268168Y-69401090D01*
X156249448Y-69414974D01*
X156229457Y-69426956D01*
X156208387Y-69436921D01*
X156186443Y-69444773D01*
X156163834Y-69450437D01*
X156140779Y-69453856D01*
X156117500Y-69455000D01*
X155542500Y-69455000D01*
X155519221Y-69453856D01*
X155496166Y-69450437D01*
X155473557Y-69444773D01*
X155451613Y-69436921D01*
X155430543Y-69426956D01*
X155410552Y-69414974D01*
X155391832Y-69401090D01*
X155374562Y-69385438D01*
X155358910Y-69368168D01*
X155345026Y-69349448D01*
X155333044Y-69329457D01*
X155323079Y-69308387D01*
X155315227Y-69286443D01*
X155309563Y-69263834D01*
X155306144Y-69240779D01*
X155305000Y-69217500D01*
X155305000Y-68742500D01*
X155306144Y-68719221D01*
X155309563Y-68696166D01*
X155315227Y-68673557D01*
X155323079Y-68651613D01*
X155333044Y-68630543D01*
X155345026Y-68610552D01*
X155358910Y-68591832D01*
X155374562Y-68574562D01*
X155391832Y-68558910D01*
X155410552Y-68545026D01*
X155430543Y-68533044D01*
X155451613Y-68523079D01*
X155473557Y-68515227D01*
X155496166Y-68509563D01*
X155519221Y-68506144D01*
X155542500Y-68505000D01*
X156117500Y-68505000D01*
X156140779Y-68506144D01*
X156140779Y-68506144D01*
G37*
D11*
X155830000Y-68980000D03*
D10*
G36*
X157890779Y-68506144D02*
G01*
X157913834Y-68509563D01*
X157936443Y-68515227D01*
X157958387Y-68523079D01*
X157979457Y-68533044D01*
X157999448Y-68545026D01*
X158018168Y-68558910D01*
X158035438Y-68574562D01*
X158051090Y-68591832D01*
X158064974Y-68610552D01*
X158076956Y-68630543D01*
X158086921Y-68651613D01*
X158094773Y-68673557D01*
X158100437Y-68696166D01*
X158103856Y-68719221D01*
X158105000Y-68742500D01*
X158105000Y-69217500D01*
X158103856Y-69240779D01*
X158100437Y-69263834D01*
X158094773Y-69286443D01*
X158086921Y-69308387D01*
X158076956Y-69329457D01*
X158064974Y-69349448D01*
X158051090Y-69368168D01*
X158035438Y-69385438D01*
X158018168Y-69401090D01*
X157999448Y-69414974D01*
X157979457Y-69426956D01*
X157958387Y-69436921D01*
X157936443Y-69444773D01*
X157913834Y-69450437D01*
X157890779Y-69453856D01*
X157867500Y-69455000D01*
X157292500Y-69455000D01*
X157269221Y-69453856D01*
X157246166Y-69450437D01*
X157223557Y-69444773D01*
X157201613Y-69436921D01*
X157180543Y-69426956D01*
X157160552Y-69414974D01*
X157141832Y-69401090D01*
X157124562Y-69385438D01*
X157108910Y-69368168D01*
X157095026Y-69349448D01*
X157083044Y-69329457D01*
X157073079Y-69308387D01*
X157065227Y-69286443D01*
X157059563Y-69263834D01*
X157056144Y-69240779D01*
X157055000Y-69217500D01*
X157055000Y-68742500D01*
X157056144Y-68719221D01*
X157059563Y-68696166D01*
X157065227Y-68673557D01*
X157073079Y-68651613D01*
X157083044Y-68630543D01*
X157095026Y-68610552D01*
X157108910Y-68591832D01*
X157124562Y-68574562D01*
X157141832Y-68558910D01*
X157160552Y-68545026D01*
X157180543Y-68533044D01*
X157201613Y-68523079D01*
X157223557Y-68515227D01*
X157246166Y-68509563D01*
X157269221Y-68506144D01*
X157292500Y-68505000D01*
X157867500Y-68505000D01*
X157890779Y-68506144D01*
X157890779Y-68506144D01*
G37*
D11*
X157580000Y-68980000D03*
D20*
X157013660Y-98262420D03*
X157013660Y-103312420D03*
X159553660Y-98262420D03*
X159553660Y-103312420D03*
D21*
X155813660Y-110622420D03*
X157813660Y-111572420D03*
X157813660Y-109672420D03*
D10*
G36*
X140610779Y-111476144D02*
G01*
X140633834Y-111479563D01*
X140656443Y-111485227D01*
X140678387Y-111493079D01*
X140699457Y-111503044D01*
X140719448Y-111515026D01*
X140738168Y-111528910D01*
X140755438Y-111544562D01*
X140771090Y-111561832D01*
X140784974Y-111580552D01*
X140796956Y-111600543D01*
X140806921Y-111621613D01*
X140814773Y-111643557D01*
X140820437Y-111666166D01*
X140823856Y-111689221D01*
X140825000Y-111712500D01*
X140825000Y-112287500D01*
X140823856Y-112310779D01*
X140820437Y-112333834D01*
X140814773Y-112356443D01*
X140806921Y-112378387D01*
X140796956Y-112399457D01*
X140784974Y-112419448D01*
X140771090Y-112438168D01*
X140755438Y-112455438D01*
X140738168Y-112471090D01*
X140719448Y-112484974D01*
X140699457Y-112496956D01*
X140678387Y-112506921D01*
X140656443Y-112514773D01*
X140633834Y-112520437D01*
X140610779Y-112523856D01*
X140587500Y-112525000D01*
X140112500Y-112525000D01*
X140089221Y-112523856D01*
X140066166Y-112520437D01*
X140043557Y-112514773D01*
X140021613Y-112506921D01*
X140000543Y-112496956D01*
X139980552Y-112484974D01*
X139961832Y-112471090D01*
X139944562Y-112455438D01*
X139928910Y-112438168D01*
X139915026Y-112419448D01*
X139903044Y-112399457D01*
X139893079Y-112378387D01*
X139885227Y-112356443D01*
X139879563Y-112333834D01*
X139876144Y-112310779D01*
X139875000Y-112287500D01*
X139875000Y-111712500D01*
X139876144Y-111689221D01*
X139879563Y-111666166D01*
X139885227Y-111643557D01*
X139893079Y-111621613D01*
X139903044Y-111600543D01*
X139915026Y-111580552D01*
X139928910Y-111561832D01*
X139944562Y-111544562D01*
X139961832Y-111528910D01*
X139980552Y-111515026D01*
X140000543Y-111503044D01*
X140021613Y-111493079D01*
X140043557Y-111485227D01*
X140066166Y-111479563D01*
X140089221Y-111476144D01*
X140112500Y-111475000D01*
X140587500Y-111475000D01*
X140610779Y-111476144D01*
X140610779Y-111476144D01*
G37*
D11*
X140350000Y-112000000D03*
D10*
G36*
X140610779Y-109726144D02*
G01*
X140633834Y-109729563D01*
X140656443Y-109735227D01*
X140678387Y-109743079D01*
X140699457Y-109753044D01*
X140719448Y-109765026D01*
X140738168Y-109778910D01*
X140755438Y-109794562D01*
X140771090Y-109811832D01*
X140784974Y-109830552D01*
X140796956Y-109850543D01*
X140806921Y-109871613D01*
X140814773Y-109893557D01*
X140820437Y-109916166D01*
X140823856Y-109939221D01*
X140825000Y-109962500D01*
X140825000Y-110537500D01*
X140823856Y-110560779D01*
X140820437Y-110583834D01*
X140814773Y-110606443D01*
X140806921Y-110628387D01*
X140796956Y-110649457D01*
X140784974Y-110669448D01*
X140771090Y-110688168D01*
X140755438Y-110705438D01*
X140738168Y-110721090D01*
X140719448Y-110734974D01*
X140699457Y-110746956D01*
X140678387Y-110756921D01*
X140656443Y-110764773D01*
X140633834Y-110770437D01*
X140610779Y-110773856D01*
X140587500Y-110775000D01*
X140112500Y-110775000D01*
X140089221Y-110773856D01*
X140066166Y-110770437D01*
X140043557Y-110764773D01*
X140021613Y-110756921D01*
X140000543Y-110746956D01*
X139980552Y-110734974D01*
X139961832Y-110721090D01*
X139944562Y-110705438D01*
X139928910Y-110688168D01*
X139915026Y-110669448D01*
X139903044Y-110649457D01*
X139893079Y-110628387D01*
X139885227Y-110606443D01*
X139879563Y-110583834D01*
X139876144Y-110560779D01*
X139875000Y-110537500D01*
X139875000Y-109962500D01*
X139876144Y-109939221D01*
X139879563Y-109916166D01*
X139885227Y-109893557D01*
X139893079Y-109871613D01*
X139903044Y-109850543D01*
X139915026Y-109830552D01*
X139928910Y-109811832D01*
X139944562Y-109794562D01*
X139961832Y-109778910D01*
X139980552Y-109765026D01*
X140000543Y-109753044D01*
X140021613Y-109743079D01*
X140043557Y-109735227D01*
X140066166Y-109729563D01*
X140089221Y-109726144D01*
X140112500Y-109725000D01*
X140587500Y-109725000D01*
X140610779Y-109726144D01*
X140610779Y-109726144D01*
G37*
D11*
X140350000Y-110250000D03*
D10*
G36*
X139615779Y-95826144D02*
G01*
X139638834Y-95829563D01*
X139661443Y-95835227D01*
X139683387Y-95843079D01*
X139704457Y-95853044D01*
X139724448Y-95865026D01*
X139743168Y-95878910D01*
X139760438Y-95894562D01*
X139776090Y-95911832D01*
X139789974Y-95930552D01*
X139801956Y-95950543D01*
X139811921Y-95971613D01*
X139819773Y-95993557D01*
X139825437Y-96016166D01*
X139828856Y-96039221D01*
X139830000Y-96062500D01*
X139830000Y-96537500D01*
X139828856Y-96560779D01*
X139825437Y-96583834D01*
X139819773Y-96606443D01*
X139811921Y-96628387D01*
X139801956Y-96649457D01*
X139789974Y-96669448D01*
X139776090Y-96688168D01*
X139760438Y-96705438D01*
X139743168Y-96721090D01*
X139724448Y-96734974D01*
X139704457Y-96746956D01*
X139683387Y-96756921D01*
X139661443Y-96764773D01*
X139638834Y-96770437D01*
X139615779Y-96773856D01*
X139592500Y-96775000D01*
X139017500Y-96775000D01*
X138994221Y-96773856D01*
X138971166Y-96770437D01*
X138948557Y-96764773D01*
X138926613Y-96756921D01*
X138905543Y-96746956D01*
X138885552Y-96734974D01*
X138866832Y-96721090D01*
X138849562Y-96705438D01*
X138833910Y-96688168D01*
X138820026Y-96669448D01*
X138808044Y-96649457D01*
X138798079Y-96628387D01*
X138790227Y-96606443D01*
X138784563Y-96583834D01*
X138781144Y-96560779D01*
X138780000Y-96537500D01*
X138780000Y-96062500D01*
X138781144Y-96039221D01*
X138784563Y-96016166D01*
X138790227Y-95993557D01*
X138798079Y-95971613D01*
X138808044Y-95950543D01*
X138820026Y-95930552D01*
X138833910Y-95911832D01*
X138849562Y-95894562D01*
X138866832Y-95878910D01*
X138885552Y-95865026D01*
X138905543Y-95853044D01*
X138926613Y-95843079D01*
X138948557Y-95835227D01*
X138971166Y-95829563D01*
X138994221Y-95826144D01*
X139017500Y-95825000D01*
X139592500Y-95825000D01*
X139615779Y-95826144D01*
X139615779Y-95826144D01*
G37*
D11*
X139305000Y-96300000D03*
D10*
G36*
X141365779Y-95826144D02*
G01*
X141388834Y-95829563D01*
X141411443Y-95835227D01*
X141433387Y-95843079D01*
X141454457Y-95853044D01*
X141474448Y-95865026D01*
X141493168Y-95878910D01*
X141510438Y-95894562D01*
X141526090Y-95911832D01*
X141539974Y-95930552D01*
X141551956Y-95950543D01*
X141561921Y-95971613D01*
X141569773Y-95993557D01*
X141575437Y-96016166D01*
X141578856Y-96039221D01*
X141580000Y-96062500D01*
X141580000Y-96537500D01*
X141578856Y-96560779D01*
X141575437Y-96583834D01*
X141569773Y-96606443D01*
X141561921Y-96628387D01*
X141551956Y-96649457D01*
X141539974Y-96669448D01*
X141526090Y-96688168D01*
X141510438Y-96705438D01*
X141493168Y-96721090D01*
X141474448Y-96734974D01*
X141454457Y-96746956D01*
X141433387Y-96756921D01*
X141411443Y-96764773D01*
X141388834Y-96770437D01*
X141365779Y-96773856D01*
X141342500Y-96775000D01*
X140767500Y-96775000D01*
X140744221Y-96773856D01*
X140721166Y-96770437D01*
X140698557Y-96764773D01*
X140676613Y-96756921D01*
X140655543Y-96746956D01*
X140635552Y-96734974D01*
X140616832Y-96721090D01*
X140599562Y-96705438D01*
X140583910Y-96688168D01*
X140570026Y-96669448D01*
X140558044Y-96649457D01*
X140548079Y-96628387D01*
X140540227Y-96606443D01*
X140534563Y-96583834D01*
X140531144Y-96560779D01*
X140530000Y-96537500D01*
X140530000Y-96062500D01*
X140531144Y-96039221D01*
X140534563Y-96016166D01*
X140540227Y-95993557D01*
X140548079Y-95971613D01*
X140558044Y-95950543D01*
X140570026Y-95930552D01*
X140583910Y-95911832D01*
X140599562Y-95894562D01*
X140616832Y-95878910D01*
X140635552Y-95865026D01*
X140655543Y-95853044D01*
X140676613Y-95843079D01*
X140698557Y-95835227D01*
X140721166Y-95829563D01*
X140744221Y-95826144D01*
X140767500Y-95825000D01*
X141342500Y-95825000D01*
X141365779Y-95826144D01*
X141365779Y-95826144D01*
G37*
D11*
X141055000Y-96300000D03*
D10*
G36*
X142360779Y-109696144D02*
G01*
X142383834Y-109699563D01*
X142406443Y-109705227D01*
X142428387Y-109713079D01*
X142449457Y-109723044D01*
X142469448Y-109735026D01*
X142488168Y-109748910D01*
X142505438Y-109764562D01*
X142521090Y-109781832D01*
X142534974Y-109800552D01*
X142546956Y-109820543D01*
X142556921Y-109841613D01*
X142564773Y-109863557D01*
X142570437Y-109886166D01*
X142573856Y-109909221D01*
X142575000Y-109932500D01*
X142575000Y-110507500D01*
X142573856Y-110530779D01*
X142570437Y-110553834D01*
X142564773Y-110576443D01*
X142556921Y-110598387D01*
X142546956Y-110619457D01*
X142534974Y-110639448D01*
X142521090Y-110658168D01*
X142505438Y-110675438D01*
X142488168Y-110691090D01*
X142469448Y-110704974D01*
X142449457Y-110716956D01*
X142428387Y-110726921D01*
X142406443Y-110734773D01*
X142383834Y-110740437D01*
X142360779Y-110743856D01*
X142337500Y-110745000D01*
X141862500Y-110745000D01*
X141839221Y-110743856D01*
X141816166Y-110740437D01*
X141793557Y-110734773D01*
X141771613Y-110726921D01*
X141750543Y-110716956D01*
X141730552Y-110704974D01*
X141711832Y-110691090D01*
X141694562Y-110675438D01*
X141678910Y-110658168D01*
X141665026Y-110639448D01*
X141653044Y-110619457D01*
X141643079Y-110598387D01*
X141635227Y-110576443D01*
X141629563Y-110553834D01*
X141626144Y-110530779D01*
X141625000Y-110507500D01*
X141625000Y-109932500D01*
X141626144Y-109909221D01*
X141629563Y-109886166D01*
X141635227Y-109863557D01*
X141643079Y-109841613D01*
X141653044Y-109820543D01*
X141665026Y-109800552D01*
X141678910Y-109781832D01*
X141694562Y-109764562D01*
X141711832Y-109748910D01*
X141730552Y-109735026D01*
X141750543Y-109723044D01*
X141771613Y-109713079D01*
X141793557Y-109705227D01*
X141816166Y-109699563D01*
X141839221Y-109696144D01*
X141862500Y-109695000D01*
X142337500Y-109695000D01*
X142360779Y-109696144D01*
X142360779Y-109696144D01*
G37*
D11*
X142100000Y-110220000D03*
D10*
G36*
X142360779Y-111446144D02*
G01*
X142383834Y-111449563D01*
X142406443Y-111455227D01*
X142428387Y-111463079D01*
X142449457Y-111473044D01*
X142469448Y-111485026D01*
X142488168Y-111498910D01*
X142505438Y-111514562D01*
X142521090Y-111531832D01*
X142534974Y-111550552D01*
X142546956Y-111570543D01*
X142556921Y-111591613D01*
X142564773Y-111613557D01*
X142570437Y-111636166D01*
X142573856Y-111659221D01*
X142575000Y-111682500D01*
X142575000Y-112257500D01*
X142573856Y-112280779D01*
X142570437Y-112303834D01*
X142564773Y-112326443D01*
X142556921Y-112348387D01*
X142546956Y-112369457D01*
X142534974Y-112389448D01*
X142521090Y-112408168D01*
X142505438Y-112425438D01*
X142488168Y-112441090D01*
X142469448Y-112454974D01*
X142449457Y-112466956D01*
X142428387Y-112476921D01*
X142406443Y-112484773D01*
X142383834Y-112490437D01*
X142360779Y-112493856D01*
X142337500Y-112495000D01*
X141862500Y-112495000D01*
X141839221Y-112493856D01*
X141816166Y-112490437D01*
X141793557Y-112484773D01*
X141771613Y-112476921D01*
X141750543Y-112466956D01*
X141730552Y-112454974D01*
X141711832Y-112441090D01*
X141694562Y-112425438D01*
X141678910Y-112408168D01*
X141665026Y-112389448D01*
X141653044Y-112369457D01*
X141643079Y-112348387D01*
X141635227Y-112326443D01*
X141629563Y-112303834D01*
X141626144Y-112280779D01*
X141625000Y-112257500D01*
X141625000Y-111682500D01*
X141626144Y-111659221D01*
X141629563Y-111636166D01*
X141635227Y-111613557D01*
X141643079Y-111591613D01*
X141653044Y-111570543D01*
X141665026Y-111550552D01*
X141678910Y-111531832D01*
X141694562Y-111514562D01*
X141711832Y-111498910D01*
X141730552Y-111485026D01*
X141750543Y-111473044D01*
X141771613Y-111463079D01*
X141793557Y-111455227D01*
X141816166Y-111449563D01*
X141839221Y-111446144D01*
X141862500Y-111445000D01*
X142337500Y-111445000D01*
X142360779Y-111446144D01*
X142360779Y-111446144D01*
G37*
D11*
X142100000Y-111970000D03*
D10*
G36*
X134535779Y-66026144D02*
G01*
X134558834Y-66029563D01*
X134581443Y-66035227D01*
X134603387Y-66043079D01*
X134624457Y-66053044D01*
X134644448Y-66065026D01*
X134663168Y-66078910D01*
X134680438Y-66094562D01*
X134696090Y-66111832D01*
X134709974Y-66130552D01*
X134721956Y-66150543D01*
X134731921Y-66171613D01*
X134739773Y-66193557D01*
X134745437Y-66216166D01*
X134748856Y-66239221D01*
X134750000Y-66262500D01*
X134750000Y-66837500D01*
X134748856Y-66860779D01*
X134745437Y-66883834D01*
X134739773Y-66906443D01*
X134731921Y-66928387D01*
X134721956Y-66949457D01*
X134709974Y-66969448D01*
X134696090Y-66988168D01*
X134680438Y-67005438D01*
X134663168Y-67021090D01*
X134644448Y-67034974D01*
X134624457Y-67046956D01*
X134603387Y-67056921D01*
X134581443Y-67064773D01*
X134558834Y-67070437D01*
X134535779Y-67073856D01*
X134512500Y-67075000D01*
X134037500Y-67075000D01*
X134014221Y-67073856D01*
X133991166Y-67070437D01*
X133968557Y-67064773D01*
X133946613Y-67056921D01*
X133925543Y-67046956D01*
X133905552Y-67034974D01*
X133886832Y-67021090D01*
X133869562Y-67005438D01*
X133853910Y-66988168D01*
X133840026Y-66969448D01*
X133828044Y-66949457D01*
X133818079Y-66928387D01*
X133810227Y-66906443D01*
X133804563Y-66883834D01*
X133801144Y-66860779D01*
X133800000Y-66837500D01*
X133800000Y-66262500D01*
X133801144Y-66239221D01*
X133804563Y-66216166D01*
X133810227Y-66193557D01*
X133818079Y-66171613D01*
X133828044Y-66150543D01*
X133840026Y-66130552D01*
X133853910Y-66111832D01*
X133869562Y-66094562D01*
X133886832Y-66078910D01*
X133905552Y-66065026D01*
X133925543Y-66053044D01*
X133946613Y-66043079D01*
X133968557Y-66035227D01*
X133991166Y-66029563D01*
X134014221Y-66026144D01*
X134037500Y-66025000D01*
X134512500Y-66025000D01*
X134535779Y-66026144D01*
X134535779Y-66026144D01*
G37*
D11*
X134275000Y-66550000D03*
D10*
G36*
X134535779Y-64276144D02*
G01*
X134558834Y-64279563D01*
X134581443Y-64285227D01*
X134603387Y-64293079D01*
X134624457Y-64303044D01*
X134644448Y-64315026D01*
X134663168Y-64328910D01*
X134680438Y-64344562D01*
X134696090Y-64361832D01*
X134709974Y-64380552D01*
X134721956Y-64400543D01*
X134731921Y-64421613D01*
X134739773Y-64443557D01*
X134745437Y-64466166D01*
X134748856Y-64489221D01*
X134750000Y-64512500D01*
X134750000Y-65087500D01*
X134748856Y-65110779D01*
X134745437Y-65133834D01*
X134739773Y-65156443D01*
X134731921Y-65178387D01*
X134721956Y-65199457D01*
X134709974Y-65219448D01*
X134696090Y-65238168D01*
X134680438Y-65255438D01*
X134663168Y-65271090D01*
X134644448Y-65284974D01*
X134624457Y-65296956D01*
X134603387Y-65306921D01*
X134581443Y-65314773D01*
X134558834Y-65320437D01*
X134535779Y-65323856D01*
X134512500Y-65325000D01*
X134037500Y-65325000D01*
X134014221Y-65323856D01*
X133991166Y-65320437D01*
X133968557Y-65314773D01*
X133946613Y-65306921D01*
X133925543Y-65296956D01*
X133905552Y-65284974D01*
X133886832Y-65271090D01*
X133869562Y-65255438D01*
X133853910Y-65238168D01*
X133840026Y-65219448D01*
X133828044Y-65199457D01*
X133818079Y-65178387D01*
X133810227Y-65156443D01*
X133804563Y-65133834D01*
X133801144Y-65110779D01*
X133800000Y-65087500D01*
X133800000Y-64512500D01*
X133801144Y-64489221D01*
X133804563Y-64466166D01*
X133810227Y-64443557D01*
X133818079Y-64421613D01*
X133828044Y-64400543D01*
X133840026Y-64380552D01*
X133853910Y-64361832D01*
X133869562Y-64344562D01*
X133886832Y-64328910D01*
X133905552Y-64315026D01*
X133925543Y-64303044D01*
X133946613Y-64293079D01*
X133968557Y-64285227D01*
X133991166Y-64279563D01*
X134014221Y-64276144D01*
X134037500Y-64275000D01*
X134512500Y-64275000D01*
X134535779Y-64276144D01*
X134535779Y-64276144D01*
G37*
D11*
X134275000Y-64800000D03*
D10*
G36*
X154385779Y-104126144D02*
G01*
X154408834Y-104129563D01*
X154431443Y-104135227D01*
X154453387Y-104143079D01*
X154474457Y-104153044D01*
X154494448Y-104165026D01*
X154513168Y-104178910D01*
X154530438Y-104194562D01*
X154546090Y-104211832D01*
X154559974Y-104230552D01*
X154571956Y-104250543D01*
X154581921Y-104271613D01*
X154589773Y-104293557D01*
X154595437Y-104316166D01*
X154598856Y-104339221D01*
X154600000Y-104362500D01*
X154600000Y-104837500D01*
X154598856Y-104860779D01*
X154595437Y-104883834D01*
X154589773Y-104906443D01*
X154581921Y-104928387D01*
X154571956Y-104949457D01*
X154559974Y-104969448D01*
X154546090Y-104988168D01*
X154530438Y-105005438D01*
X154513168Y-105021090D01*
X154494448Y-105034974D01*
X154474457Y-105046956D01*
X154453387Y-105056921D01*
X154431443Y-105064773D01*
X154408834Y-105070437D01*
X154385779Y-105073856D01*
X154362500Y-105075000D01*
X153787500Y-105075000D01*
X153764221Y-105073856D01*
X153741166Y-105070437D01*
X153718557Y-105064773D01*
X153696613Y-105056921D01*
X153675543Y-105046956D01*
X153655552Y-105034974D01*
X153636832Y-105021090D01*
X153619562Y-105005438D01*
X153603910Y-104988168D01*
X153590026Y-104969448D01*
X153578044Y-104949457D01*
X153568079Y-104928387D01*
X153560227Y-104906443D01*
X153554563Y-104883834D01*
X153551144Y-104860779D01*
X153550000Y-104837500D01*
X153550000Y-104362500D01*
X153551144Y-104339221D01*
X153554563Y-104316166D01*
X153560227Y-104293557D01*
X153568079Y-104271613D01*
X153578044Y-104250543D01*
X153590026Y-104230552D01*
X153603910Y-104211832D01*
X153619562Y-104194562D01*
X153636832Y-104178910D01*
X153655552Y-104165026D01*
X153675543Y-104153044D01*
X153696613Y-104143079D01*
X153718557Y-104135227D01*
X153741166Y-104129563D01*
X153764221Y-104126144D01*
X153787500Y-104125000D01*
X154362500Y-104125000D01*
X154385779Y-104126144D01*
X154385779Y-104126144D01*
G37*
D11*
X154075000Y-104600000D03*
D10*
G36*
X152635779Y-104126144D02*
G01*
X152658834Y-104129563D01*
X152681443Y-104135227D01*
X152703387Y-104143079D01*
X152724457Y-104153044D01*
X152744448Y-104165026D01*
X152763168Y-104178910D01*
X152780438Y-104194562D01*
X152796090Y-104211832D01*
X152809974Y-104230552D01*
X152821956Y-104250543D01*
X152831921Y-104271613D01*
X152839773Y-104293557D01*
X152845437Y-104316166D01*
X152848856Y-104339221D01*
X152850000Y-104362500D01*
X152850000Y-104837500D01*
X152848856Y-104860779D01*
X152845437Y-104883834D01*
X152839773Y-104906443D01*
X152831921Y-104928387D01*
X152821956Y-104949457D01*
X152809974Y-104969448D01*
X152796090Y-104988168D01*
X152780438Y-105005438D01*
X152763168Y-105021090D01*
X152744448Y-105034974D01*
X152724457Y-105046956D01*
X152703387Y-105056921D01*
X152681443Y-105064773D01*
X152658834Y-105070437D01*
X152635779Y-105073856D01*
X152612500Y-105075000D01*
X152037500Y-105075000D01*
X152014221Y-105073856D01*
X151991166Y-105070437D01*
X151968557Y-105064773D01*
X151946613Y-105056921D01*
X151925543Y-105046956D01*
X151905552Y-105034974D01*
X151886832Y-105021090D01*
X151869562Y-105005438D01*
X151853910Y-104988168D01*
X151840026Y-104969448D01*
X151828044Y-104949457D01*
X151818079Y-104928387D01*
X151810227Y-104906443D01*
X151804563Y-104883834D01*
X151801144Y-104860779D01*
X151800000Y-104837500D01*
X151800000Y-104362500D01*
X151801144Y-104339221D01*
X151804563Y-104316166D01*
X151810227Y-104293557D01*
X151818079Y-104271613D01*
X151828044Y-104250543D01*
X151840026Y-104230552D01*
X151853910Y-104211832D01*
X151869562Y-104194562D01*
X151886832Y-104178910D01*
X151905552Y-104165026D01*
X151925543Y-104153044D01*
X151946613Y-104143079D01*
X151968557Y-104135227D01*
X151991166Y-104129563D01*
X152014221Y-104126144D01*
X152037500Y-104125000D01*
X152612500Y-104125000D01*
X152635779Y-104126144D01*
X152635779Y-104126144D01*
G37*
D11*
X152325000Y-104600000D03*
D10*
G36*
X158210779Y-93526144D02*
G01*
X158233834Y-93529563D01*
X158256443Y-93535227D01*
X158278387Y-93543079D01*
X158299457Y-93553044D01*
X158319448Y-93565026D01*
X158338168Y-93578910D01*
X158355438Y-93594562D01*
X158371090Y-93611832D01*
X158384974Y-93630552D01*
X158396956Y-93650543D01*
X158406921Y-93671613D01*
X158414773Y-93693557D01*
X158420437Y-93716166D01*
X158423856Y-93739221D01*
X158425000Y-93762500D01*
X158425000Y-94237500D01*
X158423856Y-94260779D01*
X158420437Y-94283834D01*
X158414773Y-94306443D01*
X158406921Y-94328387D01*
X158396956Y-94349457D01*
X158384974Y-94369448D01*
X158371090Y-94388168D01*
X158355438Y-94405438D01*
X158338168Y-94421090D01*
X158319448Y-94434974D01*
X158299457Y-94446956D01*
X158278387Y-94456921D01*
X158256443Y-94464773D01*
X158233834Y-94470437D01*
X158210779Y-94473856D01*
X158187500Y-94475000D01*
X157612500Y-94475000D01*
X157589221Y-94473856D01*
X157566166Y-94470437D01*
X157543557Y-94464773D01*
X157521613Y-94456921D01*
X157500543Y-94446956D01*
X157480552Y-94434974D01*
X157461832Y-94421090D01*
X157444562Y-94405438D01*
X157428910Y-94388168D01*
X157415026Y-94369448D01*
X157403044Y-94349457D01*
X157393079Y-94328387D01*
X157385227Y-94306443D01*
X157379563Y-94283834D01*
X157376144Y-94260779D01*
X157375000Y-94237500D01*
X157375000Y-93762500D01*
X157376144Y-93739221D01*
X157379563Y-93716166D01*
X157385227Y-93693557D01*
X157393079Y-93671613D01*
X157403044Y-93650543D01*
X157415026Y-93630552D01*
X157428910Y-93611832D01*
X157444562Y-93594562D01*
X157461832Y-93578910D01*
X157480552Y-93565026D01*
X157500543Y-93553044D01*
X157521613Y-93543079D01*
X157543557Y-93535227D01*
X157566166Y-93529563D01*
X157589221Y-93526144D01*
X157612500Y-93525000D01*
X158187500Y-93525000D01*
X158210779Y-93526144D01*
X158210779Y-93526144D01*
G37*
D11*
X157900000Y-94000000D03*
D10*
G36*
X159960779Y-93526144D02*
G01*
X159983834Y-93529563D01*
X160006443Y-93535227D01*
X160028387Y-93543079D01*
X160049457Y-93553044D01*
X160069448Y-93565026D01*
X160088168Y-93578910D01*
X160105438Y-93594562D01*
X160121090Y-93611832D01*
X160134974Y-93630552D01*
X160146956Y-93650543D01*
X160156921Y-93671613D01*
X160164773Y-93693557D01*
X160170437Y-93716166D01*
X160173856Y-93739221D01*
X160175000Y-93762500D01*
X160175000Y-94237500D01*
X160173856Y-94260779D01*
X160170437Y-94283834D01*
X160164773Y-94306443D01*
X160156921Y-94328387D01*
X160146956Y-94349457D01*
X160134974Y-94369448D01*
X160121090Y-94388168D01*
X160105438Y-94405438D01*
X160088168Y-94421090D01*
X160069448Y-94434974D01*
X160049457Y-94446956D01*
X160028387Y-94456921D01*
X160006443Y-94464773D01*
X159983834Y-94470437D01*
X159960779Y-94473856D01*
X159937500Y-94475000D01*
X159362500Y-94475000D01*
X159339221Y-94473856D01*
X159316166Y-94470437D01*
X159293557Y-94464773D01*
X159271613Y-94456921D01*
X159250543Y-94446956D01*
X159230552Y-94434974D01*
X159211832Y-94421090D01*
X159194562Y-94405438D01*
X159178910Y-94388168D01*
X159165026Y-94369448D01*
X159153044Y-94349457D01*
X159143079Y-94328387D01*
X159135227Y-94306443D01*
X159129563Y-94283834D01*
X159126144Y-94260779D01*
X159125000Y-94237500D01*
X159125000Y-93762500D01*
X159126144Y-93739221D01*
X159129563Y-93716166D01*
X159135227Y-93693557D01*
X159143079Y-93671613D01*
X159153044Y-93650543D01*
X159165026Y-93630552D01*
X159178910Y-93611832D01*
X159194562Y-93594562D01*
X159211832Y-93578910D01*
X159230552Y-93565026D01*
X159250543Y-93553044D01*
X159271613Y-93543079D01*
X159293557Y-93535227D01*
X159316166Y-93529563D01*
X159339221Y-93526144D01*
X159362500Y-93525000D01*
X159937500Y-93525000D01*
X159960779Y-93526144D01*
X159960779Y-93526144D01*
G37*
D11*
X159650000Y-94000000D03*
D10*
G36*
X138720779Y-111536144D02*
G01*
X138743834Y-111539563D01*
X138766443Y-111545227D01*
X138788387Y-111553079D01*
X138809457Y-111563044D01*
X138829448Y-111575026D01*
X138848168Y-111588910D01*
X138865438Y-111604562D01*
X138881090Y-111621832D01*
X138894974Y-111640552D01*
X138906956Y-111660543D01*
X138916921Y-111681613D01*
X138924773Y-111703557D01*
X138930437Y-111726166D01*
X138933856Y-111749221D01*
X138935000Y-111772500D01*
X138935000Y-112347500D01*
X138933856Y-112370779D01*
X138930437Y-112393834D01*
X138924773Y-112416443D01*
X138916921Y-112438387D01*
X138906956Y-112459457D01*
X138894974Y-112479448D01*
X138881090Y-112498168D01*
X138865438Y-112515438D01*
X138848168Y-112531090D01*
X138829448Y-112544974D01*
X138809457Y-112556956D01*
X138788387Y-112566921D01*
X138766443Y-112574773D01*
X138743834Y-112580437D01*
X138720779Y-112583856D01*
X138697500Y-112585000D01*
X138222500Y-112585000D01*
X138199221Y-112583856D01*
X138176166Y-112580437D01*
X138153557Y-112574773D01*
X138131613Y-112566921D01*
X138110543Y-112556956D01*
X138090552Y-112544974D01*
X138071832Y-112531090D01*
X138054562Y-112515438D01*
X138038910Y-112498168D01*
X138025026Y-112479448D01*
X138013044Y-112459457D01*
X138003079Y-112438387D01*
X137995227Y-112416443D01*
X137989563Y-112393834D01*
X137986144Y-112370779D01*
X137985000Y-112347500D01*
X137985000Y-111772500D01*
X137986144Y-111749221D01*
X137989563Y-111726166D01*
X137995227Y-111703557D01*
X138003079Y-111681613D01*
X138013044Y-111660543D01*
X138025026Y-111640552D01*
X138038910Y-111621832D01*
X138054562Y-111604562D01*
X138071832Y-111588910D01*
X138090552Y-111575026D01*
X138110543Y-111563044D01*
X138131613Y-111553079D01*
X138153557Y-111545227D01*
X138176166Y-111539563D01*
X138199221Y-111536144D01*
X138222500Y-111535000D01*
X138697500Y-111535000D01*
X138720779Y-111536144D01*
X138720779Y-111536144D01*
G37*
D11*
X138460000Y-112060000D03*
D10*
G36*
X138720779Y-109786144D02*
G01*
X138743834Y-109789563D01*
X138766443Y-109795227D01*
X138788387Y-109803079D01*
X138809457Y-109813044D01*
X138829448Y-109825026D01*
X138848168Y-109838910D01*
X138865438Y-109854562D01*
X138881090Y-109871832D01*
X138894974Y-109890552D01*
X138906956Y-109910543D01*
X138916921Y-109931613D01*
X138924773Y-109953557D01*
X138930437Y-109976166D01*
X138933856Y-109999221D01*
X138935000Y-110022500D01*
X138935000Y-110597500D01*
X138933856Y-110620779D01*
X138930437Y-110643834D01*
X138924773Y-110666443D01*
X138916921Y-110688387D01*
X138906956Y-110709457D01*
X138894974Y-110729448D01*
X138881090Y-110748168D01*
X138865438Y-110765438D01*
X138848168Y-110781090D01*
X138829448Y-110794974D01*
X138809457Y-110806956D01*
X138788387Y-110816921D01*
X138766443Y-110824773D01*
X138743834Y-110830437D01*
X138720779Y-110833856D01*
X138697500Y-110835000D01*
X138222500Y-110835000D01*
X138199221Y-110833856D01*
X138176166Y-110830437D01*
X138153557Y-110824773D01*
X138131613Y-110816921D01*
X138110543Y-110806956D01*
X138090552Y-110794974D01*
X138071832Y-110781090D01*
X138054562Y-110765438D01*
X138038910Y-110748168D01*
X138025026Y-110729448D01*
X138013044Y-110709457D01*
X138003079Y-110688387D01*
X137995227Y-110666443D01*
X137989563Y-110643834D01*
X137986144Y-110620779D01*
X137985000Y-110597500D01*
X137985000Y-110022500D01*
X137986144Y-109999221D01*
X137989563Y-109976166D01*
X137995227Y-109953557D01*
X138003079Y-109931613D01*
X138013044Y-109910543D01*
X138025026Y-109890552D01*
X138038910Y-109871832D01*
X138054562Y-109854562D01*
X138071832Y-109838910D01*
X138090552Y-109825026D01*
X138110543Y-109813044D01*
X138131613Y-109803079D01*
X138153557Y-109795227D01*
X138176166Y-109789563D01*
X138199221Y-109786144D01*
X138222500Y-109785000D01*
X138697500Y-109785000D01*
X138720779Y-109786144D01*
X138720779Y-109786144D01*
G37*
D11*
X138460000Y-110310000D03*
D10*
G36*
X138750779Y-113316144D02*
G01*
X138773834Y-113319563D01*
X138796443Y-113325227D01*
X138818387Y-113333079D01*
X138839457Y-113343044D01*
X138859448Y-113355026D01*
X138878168Y-113368910D01*
X138895438Y-113384562D01*
X138911090Y-113401832D01*
X138924974Y-113420552D01*
X138936956Y-113440543D01*
X138946921Y-113461613D01*
X138954773Y-113483557D01*
X138960437Y-113506166D01*
X138963856Y-113529221D01*
X138965000Y-113552500D01*
X138965000Y-114127500D01*
X138963856Y-114150779D01*
X138960437Y-114173834D01*
X138954773Y-114196443D01*
X138946921Y-114218387D01*
X138936956Y-114239457D01*
X138924974Y-114259448D01*
X138911090Y-114278168D01*
X138895438Y-114295438D01*
X138878168Y-114311090D01*
X138859448Y-114324974D01*
X138839457Y-114336956D01*
X138818387Y-114346921D01*
X138796443Y-114354773D01*
X138773834Y-114360437D01*
X138750779Y-114363856D01*
X138727500Y-114365000D01*
X138252500Y-114365000D01*
X138229221Y-114363856D01*
X138206166Y-114360437D01*
X138183557Y-114354773D01*
X138161613Y-114346921D01*
X138140543Y-114336956D01*
X138120552Y-114324974D01*
X138101832Y-114311090D01*
X138084562Y-114295438D01*
X138068910Y-114278168D01*
X138055026Y-114259448D01*
X138043044Y-114239457D01*
X138033079Y-114218387D01*
X138025227Y-114196443D01*
X138019563Y-114173834D01*
X138016144Y-114150779D01*
X138015000Y-114127500D01*
X138015000Y-113552500D01*
X138016144Y-113529221D01*
X138019563Y-113506166D01*
X138025227Y-113483557D01*
X138033079Y-113461613D01*
X138043044Y-113440543D01*
X138055026Y-113420552D01*
X138068910Y-113401832D01*
X138084562Y-113384562D01*
X138101832Y-113368910D01*
X138120552Y-113355026D01*
X138140543Y-113343044D01*
X138161613Y-113333079D01*
X138183557Y-113325227D01*
X138206166Y-113319563D01*
X138229221Y-113316144D01*
X138252500Y-113315000D01*
X138727500Y-113315000D01*
X138750779Y-113316144D01*
X138750779Y-113316144D01*
G37*
D11*
X138490000Y-113840000D03*
D10*
G36*
X138750779Y-115066144D02*
G01*
X138773834Y-115069563D01*
X138796443Y-115075227D01*
X138818387Y-115083079D01*
X138839457Y-115093044D01*
X138859448Y-115105026D01*
X138878168Y-115118910D01*
X138895438Y-115134562D01*
X138911090Y-115151832D01*
X138924974Y-115170552D01*
X138936956Y-115190543D01*
X138946921Y-115211613D01*
X138954773Y-115233557D01*
X138960437Y-115256166D01*
X138963856Y-115279221D01*
X138965000Y-115302500D01*
X138965000Y-115877500D01*
X138963856Y-115900779D01*
X138960437Y-115923834D01*
X138954773Y-115946443D01*
X138946921Y-115968387D01*
X138936956Y-115989457D01*
X138924974Y-116009448D01*
X138911090Y-116028168D01*
X138895438Y-116045438D01*
X138878168Y-116061090D01*
X138859448Y-116074974D01*
X138839457Y-116086956D01*
X138818387Y-116096921D01*
X138796443Y-116104773D01*
X138773834Y-116110437D01*
X138750779Y-116113856D01*
X138727500Y-116115000D01*
X138252500Y-116115000D01*
X138229221Y-116113856D01*
X138206166Y-116110437D01*
X138183557Y-116104773D01*
X138161613Y-116096921D01*
X138140543Y-116086956D01*
X138120552Y-116074974D01*
X138101832Y-116061090D01*
X138084562Y-116045438D01*
X138068910Y-116028168D01*
X138055026Y-116009448D01*
X138043044Y-115989457D01*
X138033079Y-115968387D01*
X138025227Y-115946443D01*
X138019563Y-115923834D01*
X138016144Y-115900779D01*
X138015000Y-115877500D01*
X138015000Y-115302500D01*
X138016144Y-115279221D01*
X138019563Y-115256166D01*
X138025227Y-115233557D01*
X138033079Y-115211613D01*
X138043044Y-115190543D01*
X138055026Y-115170552D01*
X138068910Y-115151832D01*
X138084562Y-115134562D01*
X138101832Y-115118910D01*
X138120552Y-115105026D01*
X138140543Y-115093044D01*
X138161613Y-115083079D01*
X138183557Y-115075227D01*
X138206166Y-115069563D01*
X138229221Y-115066144D01*
X138252500Y-115065000D01*
X138727500Y-115065000D01*
X138750779Y-115066144D01*
X138750779Y-115066144D01*
G37*
D11*
X138490000Y-115590000D03*
D10*
G36*
X135260779Y-94946144D02*
G01*
X135283834Y-94949563D01*
X135306443Y-94955227D01*
X135328387Y-94963079D01*
X135349457Y-94973044D01*
X135369448Y-94985026D01*
X135388168Y-94998910D01*
X135405438Y-95014562D01*
X135421090Y-95031832D01*
X135434974Y-95050552D01*
X135446956Y-95070543D01*
X135456921Y-95091613D01*
X135464773Y-95113557D01*
X135470437Y-95136166D01*
X135473856Y-95159221D01*
X135475000Y-95182500D01*
X135475000Y-95657500D01*
X135473856Y-95680779D01*
X135470437Y-95703834D01*
X135464773Y-95726443D01*
X135456921Y-95748387D01*
X135446956Y-95769457D01*
X135434974Y-95789448D01*
X135421090Y-95808168D01*
X135405438Y-95825438D01*
X135388168Y-95841090D01*
X135369448Y-95854974D01*
X135349457Y-95866956D01*
X135328387Y-95876921D01*
X135306443Y-95884773D01*
X135283834Y-95890437D01*
X135260779Y-95893856D01*
X135237500Y-95895000D01*
X134662500Y-95895000D01*
X134639221Y-95893856D01*
X134616166Y-95890437D01*
X134593557Y-95884773D01*
X134571613Y-95876921D01*
X134550543Y-95866956D01*
X134530552Y-95854974D01*
X134511832Y-95841090D01*
X134494562Y-95825438D01*
X134478910Y-95808168D01*
X134465026Y-95789448D01*
X134453044Y-95769457D01*
X134443079Y-95748387D01*
X134435227Y-95726443D01*
X134429563Y-95703834D01*
X134426144Y-95680779D01*
X134425000Y-95657500D01*
X134425000Y-95182500D01*
X134426144Y-95159221D01*
X134429563Y-95136166D01*
X134435227Y-95113557D01*
X134443079Y-95091613D01*
X134453044Y-95070543D01*
X134465026Y-95050552D01*
X134478910Y-95031832D01*
X134494562Y-95014562D01*
X134511832Y-94998910D01*
X134530552Y-94985026D01*
X134550543Y-94973044D01*
X134571613Y-94963079D01*
X134593557Y-94955227D01*
X134616166Y-94949563D01*
X134639221Y-94946144D01*
X134662500Y-94945000D01*
X135237500Y-94945000D01*
X135260779Y-94946144D01*
X135260779Y-94946144D01*
G37*
D11*
X134950000Y-95420000D03*
D10*
G36*
X133510779Y-94946144D02*
G01*
X133533834Y-94949563D01*
X133556443Y-94955227D01*
X133578387Y-94963079D01*
X133599457Y-94973044D01*
X133619448Y-94985026D01*
X133638168Y-94998910D01*
X133655438Y-95014562D01*
X133671090Y-95031832D01*
X133684974Y-95050552D01*
X133696956Y-95070543D01*
X133706921Y-95091613D01*
X133714773Y-95113557D01*
X133720437Y-95136166D01*
X133723856Y-95159221D01*
X133725000Y-95182500D01*
X133725000Y-95657500D01*
X133723856Y-95680779D01*
X133720437Y-95703834D01*
X133714773Y-95726443D01*
X133706921Y-95748387D01*
X133696956Y-95769457D01*
X133684974Y-95789448D01*
X133671090Y-95808168D01*
X133655438Y-95825438D01*
X133638168Y-95841090D01*
X133619448Y-95854974D01*
X133599457Y-95866956D01*
X133578387Y-95876921D01*
X133556443Y-95884773D01*
X133533834Y-95890437D01*
X133510779Y-95893856D01*
X133487500Y-95895000D01*
X132912500Y-95895000D01*
X132889221Y-95893856D01*
X132866166Y-95890437D01*
X132843557Y-95884773D01*
X132821613Y-95876921D01*
X132800543Y-95866956D01*
X132780552Y-95854974D01*
X132761832Y-95841090D01*
X132744562Y-95825438D01*
X132728910Y-95808168D01*
X132715026Y-95789448D01*
X132703044Y-95769457D01*
X132693079Y-95748387D01*
X132685227Y-95726443D01*
X132679563Y-95703834D01*
X132676144Y-95680779D01*
X132675000Y-95657500D01*
X132675000Y-95182500D01*
X132676144Y-95159221D01*
X132679563Y-95136166D01*
X132685227Y-95113557D01*
X132693079Y-95091613D01*
X132703044Y-95070543D01*
X132715026Y-95050552D01*
X132728910Y-95031832D01*
X132744562Y-95014562D01*
X132761832Y-94998910D01*
X132780552Y-94985026D01*
X132800543Y-94973044D01*
X132821613Y-94963079D01*
X132843557Y-94955227D01*
X132866166Y-94949563D01*
X132889221Y-94946144D01*
X132912500Y-94945000D01*
X133487500Y-94945000D01*
X133510779Y-94946144D01*
X133510779Y-94946144D01*
G37*
D11*
X133200000Y-95420000D03*
D19*
X151140000Y-110060000D03*
X153640000Y-110060000D03*
D22*
X150290000Y-90270000D03*
X155340000Y-90270000D03*
X150290000Y-87730000D03*
X155340000Y-87730000D03*
X150290000Y-85190000D03*
X155340000Y-85190000D03*
X150290000Y-82650000D03*
X155340000Y-82650000D03*
X150290000Y-80110000D03*
X155340000Y-80110000D03*
X150290000Y-77570000D03*
X155340000Y-77570000D03*
X150290000Y-75030000D03*
X155340000Y-75030000D03*
D10*
G36*
X140690779Y-113301144D02*
G01*
X140713834Y-113304563D01*
X140736443Y-113310227D01*
X140758387Y-113318079D01*
X140779457Y-113328044D01*
X140799448Y-113340026D01*
X140818168Y-113353910D01*
X140835438Y-113369562D01*
X140851090Y-113386832D01*
X140864974Y-113405552D01*
X140876956Y-113425543D01*
X140886921Y-113446613D01*
X140894773Y-113468557D01*
X140900437Y-113491166D01*
X140903856Y-113514221D01*
X140905000Y-113537500D01*
X140905000Y-114112500D01*
X140903856Y-114135779D01*
X140900437Y-114158834D01*
X140894773Y-114181443D01*
X140886921Y-114203387D01*
X140876956Y-114224457D01*
X140864974Y-114244448D01*
X140851090Y-114263168D01*
X140835438Y-114280438D01*
X140818168Y-114296090D01*
X140799448Y-114309974D01*
X140779457Y-114321956D01*
X140758387Y-114331921D01*
X140736443Y-114339773D01*
X140713834Y-114345437D01*
X140690779Y-114348856D01*
X140667500Y-114350000D01*
X140192500Y-114350000D01*
X140169221Y-114348856D01*
X140146166Y-114345437D01*
X140123557Y-114339773D01*
X140101613Y-114331921D01*
X140080543Y-114321956D01*
X140060552Y-114309974D01*
X140041832Y-114296090D01*
X140024562Y-114280438D01*
X140008910Y-114263168D01*
X139995026Y-114244448D01*
X139983044Y-114224457D01*
X139973079Y-114203387D01*
X139965227Y-114181443D01*
X139959563Y-114158834D01*
X139956144Y-114135779D01*
X139955000Y-114112500D01*
X139955000Y-113537500D01*
X139956144Y-113514221D01*
X139959563Y-113491166D01*
X139965227Y-113468557D01*
X139973079Y-113446613D01*
X139983044Y-113425543D01*
X139995026Y-113405552D01*
X140008910Y-113386832D01*
X140024562Y-113369562D01*
X140041832Y-113353910D01*
X140060552Y-113340026D01*
X140080543Y-113328044D01*
X140101613Y-113318079D01*
X140123557Y-113310227D01*
X140146166Y-113304563D01*
X140169221Y-113301144D01*
X140192500Y-113300000D01*
X140667500Y-113300000D01*
X140690779Y-113301144D01*
X140690779Y-113301144D01*
G37*
D11*
X140430000Y-113825000D03*
D10*
G36*
X140690779Y-115051144D02*
G01*
X140713834Y-115054563D01*
X140736443Y-115060227D01*
X140758387Y-115068079D01*
X140779457Y-115078044D01*
X140799448Y-115090026D01*
X140818168Y-115103910D01*
X140835438Y-115119562D01*
X140851090Y-115136832D01*
X140864974Y-115155552D01*
X140876956Y-115175543D01*
X140886921Y-115196613D01*
X140894773Y-115218557D01*
X140900437Y-115241166D01*
X140903856Y-115264221D01*
X140905000Y-115287500D01*
X140905000Y-115862500D01*
X140903856Y-115885779D01*
X140900437Y-115908834D01*
X140894773Y-115931443D01*
X140886921Y-115953387D01*
X140876956Y-115974457D01*
X140864974Y-115994448D01*
X140851090Y-116013168D01*
X140835438Y-116030438D01*
X140818168Y-116046090D01*
X140799448Y-116059974D01*
X140779457Y-116071956D01*
X140758387Y-116081921D01*
X140736443Y-116089773D01*
X140713834Y-116095437D01*
X140690779Y-116098856D01*
X140667500Y-116100000D01*
X140192500Y-116100000D01*
X140169221Y-116098856D01*
X140146166Y-116095437D01*
X140123557Y-116089773D01*
X140101613Y-116081921D01*
X140080543Y-116071956D01*
X140060552Y-116059974D01*
X140041832Y-116046090D01*
X140024562Y-116030438D01*
X140008910Y-116013168D01*
X139995026Y-115994448D01*
X139983044Y-115974457D01*
X139973079Y-115953387D01*
X139965227Y-115931443D01*
X139959563Y-115908834D01*
X139956144Y-115885779D01*
X139955000Y-115862500D01*
X139955000Y-115287500D01*
X139956144Y-115264221D01*
X139959563Y-115241166D01*
X139965227Y-115218557D01*
X139973079Y-115196613D01*
X139983044Y-115175543D01*
X139995026Y-115155552D01*
X140008910Y-115136832D01*
X140024562Y-115119562D01*
X140041832Y-115103910D01*
X140060552Y-115090026D01*
X140080543Y-115078044D01*
X140101613Y-115068079D01*
X140123557Y-115060227D01*
X140146166Y-115054563D01*
X140169221Y-115051144D01*
X140192500Y-115050000D01*
X140667500Y-115050000D01*
X140690779Y-115051144D01*
X140690779Y-115051144D01*
G37*
D11*
X140430000Y-115575000D03*
D10*
G36*
X135260779Y-96666144D02*
G01*
X135283834Y-96669563D01*
X135306443Y-96675227D01*
X135328387Y-96683079D01*
X135349457Y-96693044D01*
X135369448Y-96705026D01*
X135388168Y-96718910D01*
X135405438Y-96734562D01*
X135421090Y-96751832D01*
X135434974Y-96770552D01*
X135446956Y-96790543D01*
X135456921Y-96811613D01*
X135464773Y-96833557D01*
X135470437Y-96856166D01*
X135473856Y-96879221D01*
X135475000Y-96902500D01*
X135475000Y-97377500D01*
X135473856Y-97400779D01*
X135470437Y-97423834D01*
X135464773Y-97446443D01*
X135456921Y-97468387D01*
X135446956Y-97489457D01*
X135434974Y-97509448D01*
X135421090Y-97528168D01*
X135405438Y-97545438D01*
X135388168Y-97561090D01*
X135369448Y-97574974D01*
X135349457Y-97586956D01*
X135328387Y-97596921D01*
X135306443Y-97604773D01*
X135283834Y-97610437D01*
X135260779Y-97613856D01*
X135237500Y-97615000D01*
X134662500Y-97615000D01*
X134639221Y-97613856D01*
X134616166Y-97610437D01*
X134593557Y-97604773D01*
X134571613Y-97596921D01*
X134550543Y-97586956D01*
X134530552Y-97574974D01*
X134511832Y-97561090D01*
X134494562Y-97545438D01*
X134478910Y-97528168D01*
X134465026Y-97509448D01*
X134453044Y-97489457D01*
X134443079Y-97468387D01*
X134435227Y-97446443D01*
X134429563Y-97423834D01*
X134426144Y-97400779D01*
X134425000Y-97377500D01*
X134425000Y-96902500D01*
X134426144Y-96879221D01*
X134429563Y-96856166D01*
X134435227Y-96833557D01*
X134443079Y-96811613D01*
X134453044Y-96790543D01*
X134465026Y-96770552D01*
X134478910Y-96751832D01*
X134494562Y-96734562D01*
X134511832Y-96718910D01*
X134530552Y-96705026D01*
X134550543Y-96693044D01*
X134571613Y-96683079D01*
X134593557Y-96675227D01*
X134616166Y-96669563D01*
X134639221Y-96666144D01*
X134662500Y-96665000D01*
X135237500Y-96665000D01*
X135260779Y-96666144D01*
X135260779Y-96666144D01*
G37*
D11*
X134950000Y-97140000D03*
D10*
G36*
X133510779Y-96666144D02*
G01*
X133533834Y-96669563D01*
X133556443Y-96675227D01*
X133578387Y-96683079D01*
X133599457Y-96693044D01*
X133619448Y-96705026D01*
X133638168Y-96718910D01*
X133655438Y-96734562D01*
X133671090Y-96751832D01*
X133684974Y-96770552D01*
X133696956Y-96790543D01*
X133706921Y-96811613D01*
X133714773Y-96833557D01*
X133720437Y-96856166D01*
X133723856Y-96879221D01*
X133725000Y-96902500D01*
X133725000Y-97377500D01*
X133723856Y-97400779D01*
X133720437Y-97423834D01*
X133714773Y-97446443D01*
X133706921Y-97468387D01*
X133696956Y-97489457D01*
X133684974Y-97509448D01*
X133671090Y-97528168D01*
X133655438Y-97545438D01*
X133638168Y-97561090D01*
X133619448Y-97574974D01*
X133599457Y-97586956D01*
X133578387Y-97596921D01*
X133556443Y-97604773D01*
X133533834Y-97610437D01*
X133510779Y-97613856D01*
X133487500Y-97615000D01*
X132912500Y-97615000D01*
X132889221Y-97613856D01*
X132866166Y-97610437D01*
X132843557Y-97604773D01*
X132821613Y-97596921D01*
X132800543Y-97586956D01*
X132780552Y-97574974D01*
X132761832Y-97561090D01*
X132744562Y-97545438D01*
X132728910Y-97528168D01*
X132715026Y-97509448D01*
X132703044Y-97489457D01*
X132693079Y-97468387D01*
X132685227Y-97446443D01*
X132679563Y-97423834D01*
X132676144Y-97400779D01*
X132675000Y-97377500D01*
X132675000Y-96902500D01*
X132676144Y-96879221D01*
X132679563Y-96856166D01*
X132685227Y-96833557D01*
X132693079Y-96811613D01*
X132703044Y-96790543D01*
X132715026Y-96770552D01*
X132728910Y-96751832D01*
X132744562Y-96734562D01*
X132761832Y-96718910D01*
X132780552Y-96705026D01*
X132800543Y-96693044D01*
X132821613Y-96683079D01*
X132843557Y-96675227D01*
X132866166Y-96669563D01*
X132889221Y-96666144D01*
X132912500Y-96665000D01*
X133487500Y-96665000D01*
X133510779Y-96666144D01*
X133510779Y-96666144D01*
G37*
D11*
X133200000Y-97140000D03*
D10*
G36*
X136385779Y-64276144D02*
G01*
X136408834Y-64279563D01*
X136431443Y-64285227D01*
X136453387Y-64293079D01*
X136474457Y-64303044D01*
X136494448Y-64315026D01*
X136513168Y-64328910D01*
X136530438Y-64344562D01*
X136546090Y-64361832D01*
X136559974Y-64380552D01*
X136571956Y-64400543D01*
X136581921Y-64421613D01*
X136589773Y-64443557D01*
X136595437Y-64466166D01*
X136598856Y-64489221D01*
X136600000Y-64512500D01*
X136600000Y-65087500D01*
X136598856Y-65110779D01*
X136595437Y-65133834D01*
X136589773Y-65156443D01*
X136581921Y-65178387D01*
X136571956Y-65199457D01*
X136559974Y-65219448D01*
X136546090Y-65238168D01*
X136530438Y-65255438D01*
X136513168Y-65271090D01*
X136494448Y-65284974D01*
X136474457Y-65296956D01*
X136453387Y-65306921D01*
X136431443Y-65314773D01*
X136408834Y-65320437D01*
X136385779Y-65323856D01*
X136362500Y-65325000D01*
X135887500Y-65325000D01*
X135864221Y-65323856D01*
X135841166Y-65320437D01*
X135818557Y-65314773D01*
X135796613Y-65306921D01*
X135775543Y-65296956D01*
X135755552Y-65284974D01*
X135736832Y-65271090D01*
X135719562Y-65255438D01*
X135703910Y-65238168D01*
X135690026Y-65219448D01*
X135678044Y-65199457D01*
X135668079Y-65178387D01*
X135660227Y-65156443D01*
X135654563Y-65133834D01*
X135651144Y-65110779D01*
X135650000Y-65087500D01*
X135650000Y-64512500D01*
X135651144Y-64489221D01*
X135654563Y-64466166D01*
X135660227Y-64443557D01*
X135668079Y-64421613D01*
X135678044Y-64400543D01*
X135690026Y-64380552D01*
X135703910Y-64361832D01*
X135719562Y-64344562D01*
X135736832Y-64328910D01*
X135755552Y-64315026D01*
X135775543Y-64303044D01*
X135796613Y-64293079D01*
X135818557Y-64285227D01*
X135841166Y-64279563D01*
X135864221Y-64276144D01*
X135887500Y-64275000D01*
X136362500Y-64275000D01*
X136385779Y-64276144D01*
X136385779Y-64276144D01*
G37*
D11*
X136125000Y-64800000D03*
D10*
G36*
X136385779Y-66026144D02*
G01*
X136408834Y-66029563D01*
X136431443Y-66035227D01*
X136453387Y-66043079D01*
X136474457Y-66053044D01*
X136494448Y-66065026D01*
X136513168Y-66078910D01*
X136530438Y-66094562D01*
X136546090Y-66111832D01*
X136559974Y-66130552D01*
X136571956Y-66150543D01*
X136581921Y-66171613D01*
X136589773Y-66193557D01*
X136595437Y-66216166D01*
X136598856Y-66239221D01*
X136600000Y-66262500D01*
X136600000Y-66837500D01*
X136598856Y-66860779D01*
X136595437Y-66883834D01*
X136589773Y-66906443D01*
X136581921Y-66928387D01*
X136571956Y-66949457D01*
X136559974Y-66969448D01*
X136546090Y-66988168D01*
X136530438Y-67005438D01*
X136513168Y-67021090D01*
X136494448Y-67034974D01*
X136474457Y-67046956D01*
X136453387Y-67056921D01*
X136431443Y-67064773D01*
X136408834Y-67070437D01*
X136385779Y-67073856D01*
X136362500Y-67075000D01*
X135887500Y-67075000D01*
X135864221Y-67073856D01*
X135841166Y-67070437D01*
X135818557Y-67064773D01*
X135796613Y-67056921D01*
X135775543Y-67046956D01*
X135755552Y-67034974D01*
X135736832Y-67021090D01*
X135719562Y-67005438D01*
X135703910Y-66988168D01*
X135690026Y-66969448D01*
X135678044Y-66949457D01*
X135668079Y-66928387D01*
X135660227Y-66906443D01*
X135654563Y-66883834D01*
X135651144Y-66860779D01*
X135650000Y-66837500D01*
X135650000Y-66262500D01*
X135651144Y-66239221D01*
X135654563Y-66216166D01*
X135660227Y-66193557D01*
X135668079Y-66171613D01*
X135678044Y-66150543D01*
X135690026Y-66130552D01*
X135703910Y-66111832D01*
X135719562Y-66094562D01*
X135736832Y-66078910D01*
X135755552Y-66065026D01*
X135775543Y-66053044D01*
X135796613Y-66043079D01*
X135818557Y-66035227D01*
X135841166Y-66029563D01*
X135864221Y-66026144D01*
X135887500Y-66025000D01*
X136362500Y-66025000D01*
X136385779Y-66026144D01*
X136385779Y-66026144D01*
G37*
D11*
X136125000Y-66550000D03*
D10*
G36*
X138195779Y-64316144D02*
G01*
X138218834Y-64319563D01*
X138241443Y-64325227D01*
X138263387Y-64333079D01*
X138284457Y-64343044D01*
X138304448Y-64355026D01*
X138323168Y-64368910D01*
X138340438Y-64384562D01*
X138356090Y-64401832D01*
X138369974Y-64420552D01*
X138381956Y-64440543D01*
X138391921Y-64461613D01*
X138399773Y-64483557D01*
X138405437Y-64506166D01*
X138408856Y-64529221D01*
X138410000Y-64552500D01*
X138410000Y-65127500D01*
X138408856Y-65150779D01*
X138405437Y-65173834D01*
X138399773Y-65196443D01*
X138391921Y-65218387D01*
X138381956Y-65239457D01*
X138369974Y-65259448D01*
X138356090Y-65278168D01*
X138340438Y-65295438D01*
X138323168Y-65311090D01*
X138304448Y-65324974D01*
X138284457Y-65336956D01*
X138263387Y-65346921D01*
X138241443Y-65354773D01*
X138218834Y-65360437D01*
X138195779Y-65363856D01*
X138172500Y-65365000D01*
X137697500Y-65365000D01*
X137674221Y-65363856D01*
X137651166Y-65360437D01*
X137628557Y-65354773D01*
X137606613Y-65346921D01*
X137585543Y-65336956D01*
X137565552Y-65324974D01*
X137546832Y-65311090D01*
X137529562Y-65295438D01*
X137513910Y-65278168D01*
X137500026Y-65259448D01*
X137488044Y-65239457D01*
X137478079Y-65218387D01*
X137470227Y-65196443D01*
X137464563Y-65173834D01*
X137461144Y-65150779D01*
X137460000Y-65127500D01*
X137460000Y-64552500D01*
X137461144Y-64529221D01*
X137464563Y-64506166D01*
X137470227Y-64483557D01*
X137478079Y-64461613D01*
X137488044Y-64440543D01*
X137500026Y-64420552D01*
X137513910Y-64401832D01*
X137529562Y-64384562D01*
X137546832Y-64368910D01*
X137565552Y-64355026D01*
X137585543Y-64343044D01*
X137606613Y-64333079D01*
X137628557Y-64325227D01*
X137651166Y-64319563D01*
X137674221Y-64316144D01*
X137697500Y-64315000D01*
X138172500Y-64315000D01*
X138195779Y-64316144D01*
X138195779Y-64316144D01*
G37*
D11*
X137935000Y-64840000D03*
D10*
G36*
X138195779Y-66066144D02*
G01*
X138218834Y-66069563D01*
X138241443Y-66075227D01*
X138263387Y-66083079D01*
X138284457Y-66093044D01*
X138304448Y-66105026D01*
X138323168Y-66118910D01*
X138340438Y-66134562D01*
X138356090Y-66151832D01*
X138369974Y-66170552D01*
X138381956Y-66190543D01*
X138391921Y-66211613D01*
X138399773Y-66233557D01*
X138405437Y-66256166D01*
X138408856Y-66279221D01*
X138410000Y-66302500D01*
X138410000Y-66877500D01*
X138408856Y-66900779D01*
X138405437Y-66923834D01*
X138399773Y-66946443D01*
X138391921Y-66968387D01*
X138381956Y-66989457D01*
X138369974Y-67009448D01*
X138356090Y-67028168D01*
X138340438Y-67045438D01*
X138323168Y-67061090D01*
X138304448Y-67074974D01*
X138284457Y-67086956D01*
X138263387Y-67096921D01*
X138241443Y-67104773D01*
X138218834Y-67110437D01*
X138195779Y-67113856D01*
X138172500Y-67115000D01*
X137697500Y-67115000D01*
X137674221Y-67113856D01*
X137651166Y-67110437D01*
X137628557Y-67104773D01*
X137606613Y-67096921D01*
X137585543Y-67086956D01*
X137565552Y-67074974D01*
X137546832Y-67061090D01*
X137529562Y-67045438D01*
X137513910Y-67028168D01*
X137500026Y-67009448D01*
X137488044Y-66989457D01*
X137478079Y-66968387D01*
X137470227Y-66946443D01*
X137464563Y-66923834D01*
X137461144Y-66900779D01*
X137460000Y-66877500D01*
X137460000Y-66302500D01*
X137461144Y-66279221D01*
X137464563Y-66256166D01*
X137470227Y-66233557D01*
X137478079Y-66211613D01*
X137488044Y-66190543D01*
X137500026Y-66170552D01*
X137513910Y-66151832D01*
X137529562Y-66134562D01*
X137546832Y-66118910D01*
X137565552Y-66105026D01*
X137585543Y-66093044D01*
X137606613Y-66083079D01*
X137628557Y-66075227D01*
X137651166Y-66069563D01*
X137674221Y-66066144D01*
X137697500Y-66065000D01*
X138172500Y-66065000D01*
X138195779Y-66066144D01*
X138195779Y-66066144D01*
G37*
D11*
X137935000Y-66590000D03*
D10*
G36*
X161630779Y-109346144D02*
G01*
X161653834Y-109349563D01*
X161676443Y-109355227D01*
X161698387Y-109363079D01*
X161719457Y-109373044D01*
X161739448Y-109385026D01*
X161758168Y-109398910D01*
X161775438Y-109414562D01*
X161791090Y-109431832D01*
X161804974Y-109450552D01*
X161816956Y-109470543D01*
X161826921Y-109491613D01*
X161834773Y-109513557D01*
X161840437Y-109536166D01*
X161843856Y-109559221D01*
X161845000Y-109582500D01*
X161845000Y-110157500D01*
X161843856Y-110180779D01*
X161840437Y-110203834D01*
X161834773Y-110226443D01*
X161826921Y-110248387D01*
X161816956Y-110269457D01*
X161804974Y-110289448D01*
X161791090Y-110308168D01*
X161775438Y-110325438D01*
X161758168Y-110341090D01*
X161739448Y-110354974D01*
X161719457Y-110366956D01*
X161698387Y-110376921D01*
X161676443Y-110384773D01*
X161653834Y-110390437D01*
X161630779Y-110393856D01*
X161607500Y-110395000D01*
X161132500Y-110395000D01*
X161109221Y-110393856D01*
X161086166Y-110390437D01*
X161063557Y-110384773D01*
X161041613Y-110376921D01*
X161020543Y-110366956D01*
X161000552Y-110354974D01*
X160981832Y-110341090D01*
X160964562Y-110325438D01*
X160948910Y-110308168D01*
X160935026Y-110289448D01*
X160923044Y-110269457D01*
X160913079Y-110248387D01*
X160905227Y-110226443D01*
X160899563Y-110203834D01*
X160896144Y-110180779D01*
X160895000Y-110157500D01*
X160895000Y-109582500D01*
X160896144Y-109559221D01*
X160899563Y-109536166D01*
X160905227Y-109513557D01*
X160913079Y-109491613D01*
X160923044Y-109470543D01*
X160935026Y-109450552D01*
X160948910Y-109431832D01*
X160964562Y-109414562D01*
X160981832Y-109398910D01*
X161000552Y-109385026D01*
X161020543Y-109373044D01*
X161041613Y-109363079D01*
X161063557Y-109355227D01*
X161086166Y-109349563D01*
X161109221Y-109346144D01*
X161132500Y-109345000D01*
X161607500Y-109345000D01*
X161630779Y-109346144D01*
X161630779Y-109346144D01*
G37*
D11*
X161370000Y-109870000D03*
D10*
G36*
X161630779Y-111096144D02*
G01*
X161653834Y-111099563D01*
X161676443Y-111105227D01*
X161698387Y-111113079D01*
X161719457Y-111123044D01*
X161739448Y-111135026D01*
X161758168Y-111148910D01*
X161775438Y-111164562D01*
X161791090Y-111181832D01*
X161804974Y-111200552D01*
X161816956Y-111220543D01*
X161826921Y-111241613D01*
X161834773Y-111263557D01*
X161840437Y-111286166D01*
X161843856Y-111309221D01*
X161845000Y-111332500D01*
X161845000Y-111907500D01*
X161843856Y-111930779D01*
X161840437Y-111953834D01*
X161834773Y-111976443D01*
X161826921Y-111998387D01*
X161816956Y-112019457D01*
X161804974Y-112039448D01*
X161791090Y-112058168D01*
X161775438Y-112075438D01*
X161758168Y-112091090D01*
X161739448Y-112104974D01*
X161719457Y-112116956D01*
X161698387Y-112126921D01*
X161676443Y-112134773D01*
X161653834Y-112140437D01*
X161630779Y-112143856D01*
X161607500Y-112145000D01*
X161132500Y-112145000D01*
X161109221Y-112143856D01*
X161086166Y-112140437D01*
X161063557Y-112134773D01*
X161041613Y-112126921D01*
X161020543Y-112116956D01*
X161000552Y-112104974D01*
X160981832Y-112091090D01*
X160964562Y-112075438D01*
X160948910Y-112058168D01*
X160935026Y-112039448D01*
X160923044Y-112019457D01*
X160913079Y-111998387D01*
X160905227Y-111976443D01*
X160899563Y-111953834D01*
X160896144Y-111930779D01*
X160895000Y-111907500D01*
X160895000Y-111332500D01*
X160896144Y-111309221D01*
X160899563Y-111286166D01*
X160905227Y-111263557D01*
X160913079Y-111241613D01*
X160923044Y-111220543D01*
X160935026Y-111200552D01*
X160948910Y-111181832D01*
X160964562Y-111164562D01*
X160981832Y-111148910D01*
X161000552Y-111135026D01*
X161020543Y-111123044D01*
X161041613Y-111113079D01*
X161063557Y-111105227D01*
X161086166Y-111099563D01*
X161109221Y-111096144D01*
X161132500Y-111095000D01*
X161607500Y-111095000D01*
X161630779Y-111096144D01*
X161630779Y-111096144D01*
G37*
D11*
X161370000Y-111620000D03*
D10*
G36*
X156110779Y-66806144D02*
G01*
X156133834Y-66809563D01*
X156156443Y-66815227D01*
X156178387Y-66823079D01*
X156199457Y-66833044D01*
X156219448Y-66845026D01*
X156238168Y-66858910D01*
X156255438Y-66874562D01*
X156271090Y-66891832D01*
X156284974Y-66910552D01*
X156296956Y-66930543D01*
X156306921Y-66951613D01*
X156314773Y-66973557D01*
X156320437Y-66996166D01*
X156323856Y-67019221D01*
X156325000Y-67042500D01*
X156325000Y-67517500D01*
X156323856Y-67540779D01*
X156320437Y-67563834D01*
X156314773Y-67586443D01*
X156306921Y-67608387D01*
X156296956Y-67629457D01*
X156284974Y-67649448D01*
X156271090Y-67668168D01*
X156255438Y-67685438D01*
X156238168Y-67701090D01*
X156219448Y-67714974D01*
X156199457Y-67726956D01*
X156178387Y-67736921D01*
X156156443Y-67744773D01*
X156133834Y-67750437D01*
X156110779Y-67753856D01*
X156087500Y-67755000D01*
X155512500Y-67755000D01*
X155489221Y-67753856D01*
X155466166Y-67750437D01*
X155443557Y-67744773D01*
X155421613Y-67736921D01*
X155400543Y-67726956D01*
X155380552Y-67714974D01*
X155361832Y-67701090D01*
X155344562Y-67685438D01*
X155328910Y-67668168D01*
X155315026Y-67649448D01*
X155303044Y-67629457D01*
X155293079Y-67608387D01*
X155285227Y-67586443D01*
X155279563Y-67563834D01*
X155276144Y-67540779D01*
X155275000Y-67517500D01*
X155275000Y-67042500D01*
X155276144Y-67019221D01*
X155279563Y-66996166D01*
X155285227Y-66973557D01*
X155293079Y-66951613D01*
X155303044Y-66930543D01*
X155315026Y-66910552D01*
X155328910Y-66891832D01*
X155344562Y-66874562D01*
X155361832Y-66858910D01*
X155380552Y-66845026D01*
X155400543Y-66833044D01*
X155421613Y-66823079D01*
X155443557Y-66815227D01*
X155466166Y-66809563D01*
X155489221Y-66806144D01*
X155512500Y-66805000D01*
X156087500Y-66805000D01*
X156110779Y-66806144D01*
X156110779Y-66806144D01*
G37*
D11*
X155800000Y-67280000D03*
D10*
G36*
X157860779Y-66806144D02*
G01*
X157883834Y-66809563D01*
X157906443Y-66815227D01*
X157928387Y-66823079D01*
X157949457Y-66833044D01*
X157969448Y-66845026D01*
X157988168Y-66858910D01*
X158005438Y-66874562D01*
X158021090Y-66891832D01*
X158034974Y-66910552D01*
X158046956Y-66930543D01*
X158056921Y-66951613D01*
X158064773Y-66973557D01*
X158070437Y-66996166D01*
X158073856Y-67019221D01*
X158075000Y-67042500D01*
X158075000Y-67517500D01*
X158073856Y-67540779D01*
X158070437Y-67563834D01*
X158064773Y-67586443D01*
X158056921Y-67608387D01*
X158046956Y-67629457D01*
X158034974Y-67649448D01*
X158021090Y-67668168D01*
X158005438Y-67685438D01*
X157988168Y-67701090D01*
X157969448Y-67714974D01*
X157949457Y-67726956D01*
X157928387Y-67736921D01*
X157906443Y-67744773D01*
X157883834Y-67750437D01*
X157860779Y-67753856D01*
X157837500Y-67755000D01*
X157262500Y-67755000D01*
X157239221Y-67753856D01*
X157216166Y-67750437D01*
X157193557Y-67744773D01*
X157171613Y-67736921D01*
X157150543Y-67726956D01*
X157130552Y-67714974D01*
X157111832Y-67701090D01*
X157094562Y-67685438D01*
X157078910Y-67668168D01*
X157065026Y-67649448D01*
X157053044Y-67629457D01*
X157043079Y-67608387D01*
X157035227Y-67586443D01*
X157029563Y-67563834D01*
X157026144Y-67540779D01*
X157025000Y-67517500D01*
X157025000Y-67042500D01*
X157026144Y-67019221D01*
X157029563Y-66996166D01*
X157035227Y-66973557D01*
X157043079Y-66951613D01*
X157053044Y-66930543D01*
X157065026Y-66910552D01*
X157078910Y-66891832D01*
X157094562Y-66874562D01*
X157111832Y-66858910D01*
X157130552Y-66845026D01*
X157150543Y-66833044D01*
X157171613Y-66823079D01*
X157193557Y-66815227D01*
X157216166Y-66809563D01*
X157239221Y-66806144D01*
X157262500Y-66805000D01*
X157837500Y-66805000D01*
X157860779Y-66806144D01*
X157860779Y-66806144D01*
G37*
D11*
X157550000Y-67280000D03*
D10*
G36*
X153585779Y-111586144D02*
G01*
X153608834Y-111589563D01*
X153631443Y-111595227D01*
X153653387Y-111603079D01*
X153674457Y-111613044D01*
X153694448Y-111625026D01*
X153713168Y-111638910D01*
X153730438Y-111654562D01*
X153746090Y-111671832D01*
X153759974Y-111690552D01*
X153771956Y-111710543D01*
X153781921Y-111731613D01*
X153789773Y-111753557D01*
X153795437Y-111776166D01*
X153798856Y-111799221D01*
X153800000Y-111822500D01*
X153800000Y-112297500D01*
X153798856Y-112320779D01*
X153795437Y-112343834D01*
X153789773Y-112366443D01*
X153781921Y-112388387D01*
X153771956Y-112409457D01*
X153759974Y-112429448D01*
X153746090Y-112448168D01*
X153730438Y-112465438D01*
X153713168Y-112481090D01*
X153694448Y-112494974D01*
X153674457Y-112506956D01*
X153653387Y-112516921D01*
X153631443Y-112524773D01*
X153608834Y-112530437D01*
X153585779Y-112533856D01*
X153562500Y-112535000D01*
X152987500Y-112535000D01*
X152964221Y-112533856D01*
X152941166Y-112530437D01*
X152918557Y-112524773D01*
X152896613Y-112516921D01*
X152875543Y-112506956D01*
X152855552Y-112494974D01*
X152836832Y-112481090D01*
X152819562Y-112465438D01*
X152803910Y-112448168D01*
X152790026Y-112429448D01*
X152778044Y-112409457D01*
X152768079Y-112388387D01*
X152760227Y-112366443D01*
X152754563Y-112343834D01*
X152751144Y-112320779D01*
X152750000Y-112297500D01*
X152750000Y-111822500D01*
X152751144Y-111799221D01*
X152754563Y-111776166D01*
X152760227Y-111753557D01*
X152768079Y-111731613D01*
X152778044Y-111710543D01*
X152790026Y-111690552D01*
X152803910Y-111671832D01*
X152819562Y-111654562D01*
X152836832Y-111638910D01*
X152855552Y-111625026D01*
X152875543Y-111613044D01*
X152896613Y-111603079D01*
X152918557Y-111595227D01*
X152941166Y-111589563D01*
X152964221Y-111586144D01*
X152987500Y-111585000D01*
X153562500Y-111585000D01*
X153585779Y-111586144D01*
X153585779Y-111586144D01*
G37*
D11*
X153275000Y-112060000D03*
D10*
G36*
X151835779Y-111586144D02*
G01*
X151858834Y-111589563D01*
X151881443Y-111595227D01*
X151903387Y-111603079D01*
X151924457Y-111613044D01*
X151944448Y-111625026D01*
X151963168Y-111638910D01*
X151980438Y-111654562D01*
X151996090Y-111671832D01*
X152009974Y-111690552D01*
X152021956Y-111710543D01*
X152031921Y-111731613D01*
X152039773Y-111753557D01*
X152045437Y-111776166D01*
X152048856Y-111799221D01*
X152050000Y-111822500D01*
X152050000Y-112297500D01*
X152048856Y-112320779D01*
X152045437Y-112343834D01*
X152039773Y-112366443D01*
X152031921Y-112388387D01*
X152021956Y-112409457D01*
X152009974Y-112429448D01*
X151996090Y-112448168D01*
X151980438Y-112465438D01*
X151963168Y-112481090D01*
X151944448Y-112494974D01*
X151924457Y-112506956D01*
X151903387Y-112516921D01*
X151881443Y-112524773D01*
X151858834Y-112530437D01*
X151835779Y-112533856D01*
X151812500Y-112535000D01*
X151237500Y-112535000D01*
X151214221Y-112533856D01*
X151191166Y-112530437D01*
X151168557Y-112524773D01*
X151146613Y-112516921D01*
X151125543Y-112506956D01*
X151105552Y-112494974D01*
X151086832Y-112481090D01*
X151069562Y-112465438D01*
X151053910Y-112448168D01*
X151040026Y-112429448D01*
X151028044Y-112409457D01*
X151018079Y-112388387D01*
X151010227Y-112366443D01*
X151004563Y-112343834D01*
X151001144Y-112320779D01*
X151000000Y-112297500D01*
X151000000Y-111822500D01*
X151001144Y-111799221D01*
X151004563Y-111776166D01*
X151010227Y-111753557D01*
X151018079Y-111731613D01*
X151028044Y-111710543D01*
X151040026Y-111690552D01*
X151053910Y-111671832D01*
X151069562Y-111654562D01*
X151086832Y-111638910D01*
X151105552Y-111625026D01*
X151125543Y-111613044D01*
X151146613Y-111603079D01*
X151168557Y-111595227D01*
X151191166Y-111589563D01*
X151214221Y-111586144D01*
X151237500Y-111585000D01*
X151812500Y-111585000D01*
X151835779Y-111586144D01*
X151835779Y-111586144D01*
G37*
D11*
X151525000Y-112060000D03*
D10*
G36*
X152514439Y-115238564D02*
G01*
X152537494Y-115241983D01*
X152560103Y-115247647D01*
X152582047Y-115255499D01*
X152603117Y-115265464D01*
X152623108Y-115277446D01*
X152641828Y-115291330D01*
X152659098Y-115306982D01*
X152674750Y-115324252D01*
X152688634Y-115342972D01*
X152700616Y-115362963D01*
X152710581Y-115384033D01*
X152718433Y-115405977D01*
X152724097Y-115428586D01*
X152727516Y-115451641D01*
X152728660Y-115474920D01*
X152728660Y-116049920D01*
X152727516Y-116073199D01*
X152724097Y-116096254D01*
X152718433Y-116118863D01*
X152710581Y-116140807D01*
X152700616Y-116161877D01*
X152688634Y-116181868D01*
X152674750Y-116200588D01*
X152659098Y-116217858D01*
X152641828Y-116233510D01*
X152623108Y-116247394D01*
X152603117Y-116259376D01*
X152582047Y-116269341D01*
X152560103Y-116277193D01*
X152537494Y-116282857D01*
X152514439Y-116286276D01*
X152491160Y-116287420D01*
X152016160Y-116287420D01*
X151992881Y-116286276D01*
X151969826Y-116282857D01*
X151947217Y-116277193D01*
X151925273Y-116269341D01*
X151904203Y-116259376D01*
X151884212Y-116247394D01*
X151865492Y-116233510D01*
X151848222Y-116217858D01*
X151832570Y-116200588D01*
X151818686Y-116181868D01*
X151806704Y-116161877D01*
X151796739Y-116140807D01*
X151788887Y-116118863D01*
X151783223Y-116096254D01*
X151779804Y-116073199D01*
X151778660Y-116049920D01*
X151778660Y-115474920D01*
X151779804Y-115451641D01*
X151783223Y-115428586D01*
X151788887Y-115405977D01*
X151796739Y-115384033D01*
X151806704Y-115362963D01*
X151818686Y-115342972D01*
X151832570Y-115324252D01*
X151848222Y-115306982D01*
X151865492Y-115291330D01*
X151884212Y-115277446D01*
X151904203Y-115265464D01*
X151925273Y-115255499D01*
X151947217Y-115247647D01*
X151969826Y-115241983D01*
X151992881Y-115238564D01*
X152016160Y-115237420D01*
X152491160Y-115237420D01*
X152514439Y-115238564D01*
X152514439Y-115238564D01*
G37*
D11*
X152253660Y-115762420D03*
D10*
G36*
X152514439Y-113488564D02*
G01*
X152537494Y-113491983D01*
X152560103Y-113497647D01*
X152582047Y-113505499D01*
X152603117Y-113515464D01*
X152623108Y-113527446D01*
X152641828Y-113541330D01*
X152659098Y-113556982D01*
X152674750Y-113574252D01*
X152688634Y-113592972D01*
X152700616Y-113612963D01*
X152710581Y-113634033D01*
X152718433Y-113655977D01*
X152724097Y-113678586D01*
X152727516Y-113701641D01*
X152728660Y-113724920D01*
X152728660Y-114299920D01*
X152727516Y-114323199D01*
X152724097Y-114346254D01*
X152718433Y-114368863D01*
X152710581Y-114390807D01*
X152700616Y-114411877D01*
X152688634Y-114431868D01*
X152674750Y-114450588D01*
X152659098Y-114467858D01*
X152641828Y-114483510D01*
X152623108Y-114497394D01*
X152603117Y-114509376D01*
X152582047Y-114519341D01*
X152560103Y-114527193D01*
X152537494Y-114532857D01*
X152514439Y-114536276D01*
X152491160Y-114537420D01*
X152016160Y-114537420D01*
X151992881Y-114536276D01*
X151969826Y-114532857D01*
X151947217Y-114527193D01*
X151925273Y-114519341D01*
X151904203Y-114509376D01*
X151884212Y-114497394D01*
X151865492Y-114483510D01*
X151848222Y-114467858D01*
X151832570Y-114450588D01*
X151818686Y-114431868D01*
X151806704Y-114411877D01*
X151796739Y-114390807D01*
X151788887Y-114368863D01*
X151783223Y-114346254D01*
X151779804Y-114323199D01*
X151778660Y-114299920D01*
X151778660Y-113724920D01*
X151779804Y-113701641D01*
X151783223Y-113678586D01*
X151788887Y-113655977D01*
X151796739Y-113634033D01*
X151806704Y-113612963D01*
X151818686Y-113592972D01*
X151832570Y-113574252D01*
X151848222Y-113556982D01*
X151865492Y-113541330D01*
X151884212Y-113527446D01*
X151904203Y-113515464D01*
X151925273Y-113505499D01*
X151947217Y-113497647D01*
X151969826Y-113491983D01*
X151992881Y-113488564D01*
X152016160Y-113487420D01*
X152491160Y-113487420D01*
X152514439Y-113488564D01*
X152514439Y-113488564D01*
G37*
D11*
X152253660Y-114012420D03*
D23*
X132080000Y-107010000D03*
X132080000Y-105410000D03*
X136180000Y-107010000D03*
X136180000Y-105410000D03*
X132110000Y-111930000D03*
X132110000Y-110330000D03*
X136210000Y-111930000D03*
X136210000Y-110330000D03*
X132095000Y-100700000D03*
X132095000Y-99100000D03*
X136195000Y-100700000D03*
X136195000Y-99100000D03*
D24*
X146469340Y-68905580D03*
X146469340Y-69405580D03*
X146469340Y-69905580D03*
X146469340Y-70405580D03*
D25*
X147169340Y-68145580D03*
X147669340Y-68145580D03*
X148169340Y-68145580D03*
X148669340Y-68145580D03*
X148669340Y-71125580D03*
X148169340Y-71125580D03*
X147669340Y-71125580D03*
X147169340Y-71125580D03*
D24*
X149389340Y-69365580D03*
X149389340Y-68865580D03*
X149389340Y-69865580D03*
X149389340Y-70365580D03*
D26*
X144298660Y-104917420D03*
D27*
X150598660Y-107197420D03*
X150598660Y-102637420D03*
D28*
X154680000Y-113730000D03*
X154680000Y-115630000D03*
X157380000Y-115630000D03*
X157380000Y-114680000D03*
X157380000Y-113730000D03*
D10*
G36*
X145610779Y-95836144D02*
G01*
X145633834Y-95839563D01*
X145656443Y-95845227D01*
X145678387Y-95853079D01*
X145699457Y-95863044D01*
X145719448Y-95875026D01*
X145738168Y-95888910D01*
X145755438Y-95904562D01*
X145771090Y-95921832D01*
X145784974Y-95940552D01*
X145796956Y-95960543D01*
X145806921Y-95981613D01*
X145814773Y-96003557D01*
X145820437Y-96026166D01*
X145823856Y-96049221D01*
X145825000Y-96072500D01*
X145825000Y-96547500D01*
X145823856Y-96570779D01*
X145820437Y-96593834D01*
X145814773Y-96616443D01*
X145806921Y-96638387D01*
X145796956Y-96659457D01*
X145784974Y-96679448D01*
X145771090Y-96698168D01*
X145755438Y-96715438D01*
X145738168Y-96731090D01*
X145719448Y-96744974D01*
X145699457Y-96756956D01*
X145678387Y-96766921D01*
X145656443Y-96774773D01*
X145633834Y-96780437D01*
X145610779Y-96783856D01*
X145587500Y-96785000D01*
X145012500Y-96785000D01*
X144989221Y-96783856D01*
X144966166Y-96780437D01*
X144943557Y-96774773D01*
X144921613Y-96766921D01*
X144900543Y-96756956D01*
X144880552Y-96744974D01*
X144861832Y-96731090D01*
X144844562Y-96715438D01*
X144828910Y-96698168D01*
X144815026Y-96679448D01*
X144803044Y-96659457D01*
X144793079Y-96638387D01*
X144785227Y-96616443D01*
X144779563Y-96593834D01*
X144776144Y-96570779D01*
X144775000Y-96547500D01*
X144775000Y-96072500D01*
X144776144Y-96049221D01*
X144779563Y-96026166D01*
X144785227Y-96003557D01*
X144793079Y-95981613D01*
X144803044Y-95960543D01*
X144815026Y-95940552D01*
X144828910Y-95921832D01*
X144844562Y-95904562D01*
X144861832Y-95888910D01*
X144880552Y-95875026D01*
X144900543Y-95863044D01*
X144921613Y-95853079D01*
X144943557Y-95845227D01*
X144966166Y-95839563D01*
X144989221Y-95836144D01*
X145012500Y-95835000D01*
X145587500Y-95835000D01*
X145610779Y-95836144D01*
X145610779Y-95836144D01*
G37*
D11*
X145300000Y-96310000D03*
D10*
G36*
X147360779Y-95836144D02*
G01*
X147383834Y-95839563D01*
X147406443Y-95845227D01*
X147428387Y-95853079D01*
X147449457Y-95863044D01*
X147469448Y-95875026D01*
X147488168Y-95888910D01*
X147505438Y-95904562D01*
X147521090Y-95921832D01*
X147534974Y-95940552D01*
X147546956Y-95960543D01*
X147556921Y-95981613D01*
X147564773Y-96003557D01*
X147570437Y-96026166D01*
X147573856Y-96049221D01*
X147575000Y-96072500D01*
X147575000Y-96547500D01*
X147573856Y-96570779D01*
X147570437Y-96593834D01*
X147564773Y-96616443D01*
X147556921Y-96638387D01*
X147546956Y-96659457D01*
X147534974Y-96679448D01*
X147521090Y-96698168D01*
X147505438Y-96715438D01*
X147488168Y-96731090D01*
X147469448Y-96744974D01*
X147449457Y-96756956D01*
X147428387Y-96766921D01*
X147406443Y-96774773D01*
X147383834Y-96780437D01*
X147360779Y-96783856D01*
X147337500Y-96785000D01*
X146762500Y-96785000D01*
X146739221Y-96783856D01*
X146716166Y-96780437D01*
X146693557Y-96774773D01*
X146671613Y-96766921D01*
X146650543Y-96756956D01*
X146630552Y-96744974D01*
X146611832Y-96731090D01*
X146594562Y-96715438D01*
X146578910Y-96698168D01*
X146565026Y-96679448D01*
X146553044Y-96659457D01*
X146543079Y-96638387D01*
X146535227Y-96616443D01*
X146529563Y-96593834D01*
X146526144Y-96570779D01*
X146525000Y-96547500D01*
X146525000Y-96072500D01*
X146526144Y-96049221D01*
X146529563Y-96026166D01*
X146535227Y-96003557D01*
X146543079Y-95981613D01*
X146553044Y-95960543D01*
X146565026Y-95940552D01*
X146578910Y-95921832D01*
X146594562Y-95904562D01*
X146611832Y-95888910D01*
X146630552Y-95875026D01*
X146650543Y-95863044D01*
X146671613Y-95853079D01*
X146693557Y-95845227D01*
X146716166Y-95839563D01*
X146739221Y-95836144D01*
X146762500Y-95835000D01*
X147337500Y-95835000D01*
X147360779Y-95836144D01*
X147360779Y-95836144D01*
G37*
D11*
X147050000Y-96310000D03*
D10*
G36*
X145715779Y-94156144D02*
G01*
X145738834Y-94159563D01*
X145761443Y-94165227D01*
X145783387Y-94173079D01*
X145804457Y-94183044D01*
X145824448Y-94195026D01*
X145843168Y-94208910D01*
X145860438Y-94224562D01*
X145876090Y-94241832D01*
X145889974Y-94260552D01*
X145901956Y-94280543D01*
X145911921Y-94301613D01*
X145919773Y-94323557D01*
X145925437Y-94346166D01*
X145928856Y-94369221D01*
X145930000Y-94392500D01*
X145930000Y-94867500D01*
X145928856Y-94890779D01*
X145925437Y-94913834D01*
X145919773Y-94936443D01*
X145911921Y-94958387D01*
X145901956Y-94979457D01*
X145889974Y-94999448D01*
X145876090Y-95018168D01*
X145860438Y-95035438D01*
X145843168Y-95051090D01*
X145824448Y-95064974D01*
X145804457Y-95076956D01*
X145783387Y-95086921D01*
X145761443Y-95094773D01*
X145738834Y-95100437D01*
X145715779Y-95103856D01*
X145692500Y-95105000D01*
X145117500Y-95105000D01*
X145094221Y-95103856D01*
X145071166Y-95100437D01*
X145048557Y-95094773D01*
X145026613Y-95086921D01*
X145005543Y-95076956D01*
X144985552Y-95064974D01*
X144966832Y-95051090D01*
X144949562Y-95035438D01*
X144933910Y-95018168D01*
X144920026Y-94999448D01*
X144908044Y-94979457D01*
X144898079Y-94958387D01*
X144890227Y-94936443D01*
X144884563Y-94913834D01*
X144881144Y-94890779D01*
X144880000Y-94867500D01*
X144880000Y-94392500D01*
X144881144Y-94369221D01*
X144884563Y-94346166D01*
X144890227Y-94323557D01*
X144898079Y-94301613D01*
X144908044Y-94280543D01*
X144920026Y-94260552D01*
X144933910Y-94241832D01*
X144949562Y-94224562D01*
X144966832Y-94208910D01*
X144985552Y-94195026D01*
X145005543Y-94183044D01*
X145026613Y-94173079D01*
X145048557Y-94165227D01*
X145071166Y-94159563D01*
X145094221Y-94156144D01*
X145117500Y-94155000D01*
X145692500Y-94155000D01*
X145715779Y-94156144D01*
X145715779Y-94156144D01*
G37*
D11*
X145405000Y-94630000D03*
D10*
G36*
X147465779Y-94156144D02*
G01*
X147488834Y-94159563D01*
X147511443Y-94165227D01*
X147533387Y-94173079D01*
X147554457Y-94183044D01*
X147574448Y-94195026D01*
X147593168Y-94208910D01*
X147610438Y-94224562D01*
X147626090Y-94241832D01*
X147639974Y-94260552D01*
X147651956Y-94280543D01*
X147661921Y-94301613D01*
X147669773Y-94323557D01*
X147675437Y-94346166D01*
X147678856Y-94369221D01*
X147680000Y-94392500D01*
X147680000Y-94867500D01*
X147678856Y-94890779D01*
X147675437Y-94913834D01*
X147669773Y-94936443D01*
X147661921Y-94958387D01*
X147651956Y-94979457D01*
X147639974Y-94999448D01*
X147626090Y-95018168D01*
X147610438Y-95035438D01*
X147593168Y-95051090D01*
X147574448Y-95064974D01*
X147554457Y-95076956D01*
X147533387Y-95086921D01*
X147511443Y-95094773D01*
X147488834Y-95100437D01*
X147465779Y-95103856D01*
X147442500Y-95105000D01*
X146867500Y-95105000D01*
X146844221Y-95103856D01*
X146821166Y-95100437D01*
X146798557Y-95094773D01*
X146776613Y-95086921D01*
X146755543Y-95076956D01*
X146735552Y-95064974D01*
X146716832Y-95051090D01*
X146699562Y-95035438D01*
X146683910Y-95018168D01*
X146670026Y-94999448D01*
X146658044Y-94979457D01*
X146648079Y-94958387D01*
X146640227Y-94936443D01*
X146634563Y-94913834D01*
X146631144Y-94890779D01*
X146630000Y-94867500D01*
X146630000Y-94392500D01*
X146631144Y-94369221D01*
X146634563Y-94346166D01*
X146640227Y-94323557D01*
X146648079Y-94301613D01*
X146658044Y-94280543D01*
X146670026Y-94260552D01*
X146683910Y-94241832D01*
X146699562Y-94224562D01*
X146716832Y-94208910D01*
X146735552Y-94195026D01*
X146755543Y-94183044D01*
X146776613Y-94173079D01*
X146798557Y-94165227D01*
X146821166Y-94159563D01*
X146844221Y-94156144D01*
X146867500Y-94155000D01*
X147442500Y-94155000D01*
X147465779Y-94156144D01*
X147465779Y-94156144D01*
G37*
D11*
X147155000Y-94630000D03*
D10*
G36*
X142145779Y-97996144D02*
G01*
X142168834Y-97999563D01*
X142191443Y-98005227D01*
X142213387Y-98013079D01*
X142234457Y-98023044D01*
X142254448Y-98035026D01*
X142273168Y-98048910D01*
X142290438Y-98064562D01*
X142306090Y-98081832D01*
X142319974Y-98100552D01*
X142331956Y-98120543D01*
X142341921Y-98141613D01*
X142349773Y-98163557D01*
X142355437Y-98186166D01*
X142358856Y-98209221D01*
X142360000Y-98232500D01*
X142360000Y-98707500D01*
X142358856Y-98730779D01*
X142355437Y-98753834D01*
X142349773Y-98776443D01*
X142341921Y-98798387D01*
X142331956Y-98819457D01*
X142319974Y-98839448D01*
X142306090Y-98858168D01*
X142290438Y-98875438D01*
X142273168Y-98891090D01*
X142254448Y-98904974D01*
X142234457Y-98916956D01*
X142213387Y-98926921D01*
X142191443Y-98934773D01*
X142168834Y-98940437D01*
X142145779Y-98943856D01*
X142122500Y-98945000D01*
X141547500Y-98945000D01*
X141524221Y-98943856D01*
X141501166Y-98940437D01*
X141478557Y-98934773D01*
X141456613Y-98926921D01*
X141435543Y-98916956D01*
X141415552Y-98904974D01*
X141396832Y-98891090D01*
X141379562Y-98875438D01*
X141363910Y-98858168D01*
X141350026Y-98839448D01*
X141338044Y-98819457D01*
X141328079Y-98798387D01*
X141320227Y-98776443D01*
X141314563Y-98753834D01*
X141311144Y-98730779D01*
X141310000Y-98707500D01*
X141310000Y-98232500D01*
X141311144Y-98209221D01*
X141314563Y-98186166D01*
X141320227Y-98163557D01*
X141328079Y-98141613D01*
X141338044Y-98120543D01*
X141350026Y-98100552D01*
X141363910Y-98081832D01*
X141379562Y-98064562D01*
X141396832Y-98048910D01*
X141415552Y-98035026D01*
X141435543Y-98023044D01*
X141456613Y-98013079D01*
X141478557Y-98005227D01*
X141501166Y-97999563D01*
X141524221Y-97996144D01*
X141547500Y-97995000D01*
X142122500Y-97995000D01*
X142145779Y-97996144D01*
X142145779Y-97996144D01*
G37*
D11*
X141835000Y-98470000D03*
D10*
G36*
X143895779Y-97996144D02*
G01*
X143918834Y-97999563D01*
X143941443Y-98005227D01*
X143963387Y-98013079D01*
X143984457Y-98023044D01*
X144004448Y-98035026D01*
X144023168Y-98048910D01*
X144040438Y-98064562D01*
X144056090Y-98081832D01*
X144069974Y-98100552D01*
X144081956Y-98120543D01*
X144091921Y-98141613D01*
X144099773Y-98163557D01*
X144105437Y-98186166D01*
X144108856Y-98209221D01*
X144110000Y-98232500D01*
X144110000Y-98707500D01*
X144108856Y-98730779D01*
X144105437Y-98753834D01*
X144099773Y-98776443D01*
X144091921Y-98798387D01*
X144081956Y-98819457D01*
X144069974Y-98839448D01*
X144056090Y-98858168D01*
X144040438Y-98875438D01*
X144023168Y-98891090D01*
X144004448Y-98904974D01*
X143984457Y-98916956D01*
X143963387Y-98926921D01*
X143941443Y-98934773D01*
X143918834Y-98940437D01*
X143895779Y-98943856D01*
X143872500Y-98945000D01*
X143297500Y-98945000D01*
X143274221Y-98943856D01*
X143251166Y-98940437D01*
X143228557Y-98934773D01*
X143206613Y-98926921D01*
X143185543Y-98916956D01*
X143165552Y-98904974D01*
X143146832Y-98891090D01*
X143129562Y-98875438D01*
X143113910Y-98858168D01*
X143100026Y-98839448D01*
X143088044Y-98819457D01*
X143078079Y-98798387D01*
X143070227Y-98776443D01*
X143064563Y-98753834D01*
X143061144Y-98730779D01*
X143060000Y-98707500D01*
X143060000Y-98232500D01*
X143061144Y-98209221D01*
X143064563Y-98186166D01*
X143070227Y-98163557D01*
X143078079Y-98141613D01*
X143088044Y-98120543D01*
X143100026Y-98100552D01*
X143113910Y-98081832D01*
X143129562Y-98064562D01*
X143146832Y-98048910D01*
X143165552Y-98035026D01*
X143185543Y-98023044D01*
X143206613Y-98013079D01*
X143228557Y-98005227D01*
X143251166Y-97999563D01*
X143274221Y-97996144D01*
X143297500Y-97995000D01*
X143872500Y-97995000D01*
X143895779Y-97996144D01*
X143895779Y-97996144D01*
G37*
D11*
X143585000Y-98470000D03*
D29*
X149008660Y-115007420D03*
X146468660Y-115007420D03*
D30*
X143928660Y-115007420D03*
D20*
X139940000Y-80395000D03*
X139940000Y-85445000D03*
X142480000Y-80395000D03*
X142480000Y-85445000D03*
D10*
G36*
X159790779Y-111071144D02*
G01*
X159813834Y-111074563D01*
X159836443Y-111080227D01*
X159858387Y-111088079D01*
X159879457Y-111098044D01*
X159899448Y-111110026D01*
X159918168Y-111123910D01*
X159935438Y-111139562D01*
X159951090Y-111156832D01*
X159964974Y-111175552D01*
X159976956Y-111195543D01*
X159986921Y-111216613D01*
X159994773Y-111238557D01*
X160000437Y-111261166D01*
X160003856Y-111284221D01*
X160005000Y-111307500D01*
X160005000Y-111882500D01*
X160003856Y-111905779D01*
X160000437Y-111928834D01*
X159994773Y-111951443D01*
X159986921Y-111973387D01*
X159976956Y-111994457D01*
X159964974Y-112014448D01*
X159951090Y-112033168D01*
X159935438Y-112050438D01*
X159918168Y-112066090D01*
X159899448Y-112079974D01*
X159879457Y-112091956D01*
X159858387Y-112101921D01*
X159836443Y-112109773D01*
X159813834Y-112115437D01*
X159790779Y-112118856D01*
X159767500Y-112120000D01*
X159292500Y-112120000D01*
X159269221Y-112118856D01*
X159246166Y-112115437D01*
X159223557Y-112109773D01*
X159201613Y-112101921D01*
X159180543Y-112091956D01*
X159160552Y-112079974D01*
X159141832Y-112066090D01*
X159124562Y-112050438D01*
X159108910Y-112033168D01*
X159095026Y-112014448D01*
X159083044Y-111994457D01*
X159073079Y-111973387D01*
X159065227Y-111951443D01*
X159059563Y-111928834D01*
X159056144Y-111905779D01*
X159055000Y-111882500D01*
X159055000Y-111307500D01*
X159056144Y-111284221D01*
X159059563Y-111261166D01*
X159065227Y-111238557D01*
X159073079Y-111216613D01*
X159083044Y-111195543D01*
X159095026Y-111175552D01*
X159108910Y-111156832D01*
X159124562Y-111139562D01*
X159141832Y-111123910D01*
X159160552Y-111110026D01*
X159180543Y-111098044D01*
X159201613Y-111088079D01*
X159223557Y-111080227D01*
X159246166Y-111074563D01*
X159269221Y-111071144D01*
X159292500Y-111070000D01*
X159767500Y-111070000D01*
X159790779Y-111071144D01*
X159790779Y-111071144D01*
G37*
D11*
X159530000Y-111595000D03*
D10*
G36*
X159790779Y-109321144D02*
G01*
X159813834Y-109324563D01*
X159836443Y-109330227D01*
X159858387Y-109338079D01*
X159879457Y-109348044D01*
X159899448Y-109360026D01*
X159918168Y-109373910D01*
X159935438Y-109389562D01*
X159951090Y-109406832D01*
X159964974Y-109425552D01*
X159976956Y-109445543D01*
X159986921Y-109466613D01*
X159994773Y-109488557D01*
X160000437Y-109511166D01*
X160003856Y-109534221D01*
X160005000Y-109557500D01*
X160005000Y-110132500D01*
X160003856Y-110155779D01*
X160000437Y-110178834D01*
X159994773Y-110201443D01*
X159986921Y-110223387D01*
X159976956Y-110244457D01*
X159964974Y-110264448D01*
X159951090Y-110283168D01*
X159935438Y-110300438D01*
X159918168Y-110316090D01*
X159899448Y-110329974D01*
X159879457Y-110341956D01*
X159858387Y-110351921D01*
X159836443Y-110359773D01*
X159813834Y-110365437D01*
X159790779Y-110368856D01*
X159767500Y-110370000D01*
X159292500Y-110370000D01*
X159269221Y-110368856D01*
X159246166Y-110365437D01*
X159223557Y-110359773D01*
X159201613Y-110351921D01*
X159180543Y-110341956D01*
X159160552Y-110329974D01*
X159141832Y-110316090D01*
X159124562Y-110300438D01*
X159108910Y-110283168D01*
X159095026Y-110264448D01*
X159083044Y-110244457D01*
X159073079Y-110223387D01*
X159065227Y-110201443D01*
X159059563Y-110178834D01*
X159056144Y-110155779D01*
X159055000Y-110132500D01*
X159055000Y-109557500D01*
X159056144Y-109534221D01*
X159059563Y-109511166D01*
X159065227Y-109488557D01*
X159073079Y-109466613D01*
X159083044Y-109445543D01*
X159095026Y-109425552D01*
X159108910Y-109406832D01*
X159124562Y-109389562D01*
X159141832Y-109373910D01*
X159160552Y-109360026D01*
X159180543Y-109348044D01*
X159201613Y-109338079D01*
X159223557Y-109330227D01*
X159246166Y-109324563D01*
X159269221Y-109321144D01*
X159292500Y-109320000D01*
X159767500Y-109320000D01*
X159790779Y-109321144D01*
X159790779Y-109321144D01*
G37*
D11*
X159530000Y-109845000D03*
D10*
G36*
X145250779Y-61016144D02*
G01*
X145273834Y-61019563D01*
X145296443Y-61025227D01*
X145318387Y-61033079D01*
X145339457Y-61043044D01*
X145359448Y-61055026D01*
X145378168Y-61068910D01*
X145395438Y-61084562D01*
X145411090Y-61101832D01*
X145424974Y-61120552D01*
X145436956Y-61140543D01*
X145446921Y-61161613D01*
X145454773Y-61183557D01*
X145460437Y-61206166D01*
X145463856Y-61229221D01*
X145465000Y-61252500D01*
X145465000Y-61727500D01*
X145463856Y-61750779D01*
X145460437Y-61773834D01*
X145454773Y-61796443D01*
X145446921Y-61818387D01*
X145436956Y-61839457D01*
X145424974Y-61859448D01*
X145411090Y-61878168D01*
X145395438Y-61895438D01*
X145378168Y-61911090D01*
X145359448Y-61924974D01*
X145339457Y-61936956D01*
X145318387Y-61946921D01*
X145296443Y-61954773D01*
X145273834Y-61960437D01*
X145250779Y-61963856D01*
X145227500Y-61965000D01*
X144652500Y-61965000D01*
X144629221Y-61963856D01*
X144606166Y-61960437D01*
X144583557Y-61954773D01*
X144561613Y-61946921D01*
X144540543Y-61936956D01*
X144520552Y-61924974D01*
X144501832Y-61911090D01*
X144484562Y-61895438D01*
X144468910Y-61878168D01*
X144455026Y-61859448D01*
X144443044Y-61839457D01*
X144433079Y-61818387D01*
X144425227Y-61796443D01*
X144419563Y-61773834D01*
X144416144Y-61750779D01*
X144415000Y-61727500D01*
X144415000Y-61252500D01*
X144416144Y-61229221D01*
X144419563Y-61206166D01*
X144425227Y-61183557D01*
X144433079Y-61161613D01*
X144443044Y-61140543D01*
X144455026Y-61120552D01*
X144468910Y-61101832D01*
X144484562Y-61084562D01*
X144501832Y-61068910D01*
X144520552Y-61055026D01*
X144540543Y-61043044D01*
X144561613Y-61033079D01*
X144583557Y-61025227D01*
X144606166Y-61019563D01*
X144629221Y-61016144D01*
X144652500Y-61015000D01*
X145227500Y-61015000D01*
X145250779Y-61016144D01*
X145250779Y-61016144D01*
G37*
D11*
X144940000Y-61490000D03*
D10*
G36*
X147000779Y-61016144D02*
G01*
X147023834Y-61019563D01*
X147046443Y-61025227D01*
X147068387Y-61033079D01*
X147089457Y-61043044D01*
X147109448Y-61055026D01*
X147128168Y-61068910D01*
X147145438Y-61084562D01*
X147161090Y-61101832D01*
X147174974Y-61120552D01*
X147186956Y-61140543D01*
X147196921Y-61161613D01*
X147204773Y-61183557D01*
X147210437Y-61206166D01*
X147213856Y-61229221D01*
X147215000Y-61252500D01*
X147215000Y-61727500D01*
X147213856Y-61750779D01*
X147210437Y-61773834D01*
X147204773Y-61796443D01*
X147196921Y-61818387D01*
X147186956Y-61839457D01*
X147174974Y-61859448D01*
X147161090Y-61878168D01*
X147145438Y-61895438D01*
X147128168Y-61911090D01*
X147109448Y-61924974D01*
X147089457Y-61936956D01*
X147068387Y-61946921D01*
X147046443Y-61954773D01*
X147023834Y-61960437D01*
X147000779Y-61963856D01*
X146977500Y-61965000D01*
X146402500Y-61965000D01*
X146379221Y-61963856D01*
X146356166Y-61960437D01*
X146333557Y-61954773D01*
X146311613Y-61946921D01*
X146290543Y-61936956D01*
X146270552Y-61924974D01*
X146251832Y-61911090D01*
X146234562Y-61895438D01*
X146218910Y-61878168D01*
X146205026Y-61859448D01*
X146193044Y-61839457D01*
X146183079Y-61818387D01*
X146175227Y-61796443D01*
X146169563Y-61773834D01*
X146166144Y-61750779D01*
X146165000Y-61727500D01*
X146165000Y-61252500D01*
X146166144Y-61229221D01*
X146169563Y-61206166D01*
X146175227Y-61183557D01*
X146183079Y-61161613D01*
X146193044Y-61140543D01*
X146205026Y-61120552D01*
X146218910Y-61101832D01*
X146234562Y-61084562D01*
X146251832Y-61068910D01*
X146270552Y-61055026D01*
X146290543Y-61043044D01*
X146311613Y-61033079D01*
X146333557Y-61025227D01*
X146356166Y-61019563D01*
X146379221Y-61016144D01*
X146402500Y-61015000D01*
X146977500Y-61015000D01*
X147000779Y-61016144D01*
X147000779Y-61016144D01*
G37*
D11*
X146690000Y-61490000D03*
D31*
X132510000Y-115930000D03*
X160530000Y-115930000D03*
X160530000Y-56920000D03*
X132510000Y-56920000D03*
D12*
X139220000Y-90050000D03*
D32*
X134180000Y-111930000D03*
X134050000Y-106950000D03*
X134070000Y-100670000D03*
D33*
X158510000Y-64780000D03*
X145200000Y-77430000D03*
D34*
X147950000Y-80990000D03*
X150430000Y-83830000D03*
X147920000Y-86360000D03*
X139310000Y-75780000D03*
X139790000Y-82990000D03*
D33*
X147400000Y-69400000D03*
X139000000Y-62200000D03*
X136300000Y-60500000D03*
D34*
X132900000Y-66500000D03*
X148600000Y-102600000D03*
X143200000Y-110200000D03*
X155800000Y-98200000D03*
X155700000Y-103500000D03*
X157800000Y-92700000D03*
X159100000Y-114100000D03*
D33*
X143102788Y-72174996D03*
D12*
X138842698Y-94560469D03*
D34*
X151000000Y-113200000D03*
X150897468Y-72025010D03*
D33*
X158361450Y-89644990D03*
X159563660Y-80463660D03*
X154200000Y-76100000D03*
X146013660Y-83813660D03*
X160974990Y-85650355D03*
X145425010Y-88300000D03*
X137160000Y-115810000D03*
X137400000Y-112620000D03*
X143210000Y-111970000D03*
D32*
X144298660Y-104917420D03*
X144070000Y-108600000D03*
X140740000Y-90130000D03*
X144040000Y-96970000D03*
X136130000Y-67880000D03*
X133000000Y-64780000D03*
X132970000Y-62110000D03*
D33*
X154800000Y-64760000D03*
X149700000Y-71100000D03*
D34*
X144300000Y-101400000D03*
X148200000Y-105900000D03*
D33*
X144893406Y-72193406D03*
D32*
X136494438Y-94483098D03*
D34*
X150382366Y-76675010D03*
D33*
X141200000Y-99600000D03*
D32*
X140531985Y-93571985D03*
D33*
X142900000Y-76400000D03*
X143824990Y-75787232D03*
X144072246Y-81218639D03*
X143900000Y-77000000D03*
X145400000Y-76000000D03*
X146700000Y-75600000D03*
X156000000Y-94400000D03*
X148400000Y-97400000D03*
X149100000Y-79100000D03*
X148800000Y-72200000D03*
D34*
X156800000Y-111600000D03*
X154600000Y-111100000D03*
X152751090Y-110948910D03*
X156900000Y-110100000D03*
X142600000Y-93800000D03*
D33*
X137500000Y-64100000D03*
X147900000Y-72500000D03*
X148252313Y-75719534D03*
X151545159Y-79075010D03*
X145000000Y-79100000D03*
X158550000Y-73036812D03*
X135400000Y-64100000D03*
X146403501Y-72316688D03*
X152315002Y-77100000D03*
X140670000Y-72100000D03*
X140900000Y-75700000D03*
X152580000Y-86875000D03*
X153100000Y-94500000D03*
X154400000Y-93800000D03*
X154000000Y-84000000D03*
X136394991Y-98626343D03*
X152824968Y-88224978D03*
X155500000Y-89000000D03*
X151300000Y-88900000D03*
X155235448Y-93652911D03*
X137000000Y-97800000D03*
X137700000Y-109100000D03*
X137300000Y-105200000D03*
X143400000Y-82700000D03*
X156650000Y-66570000D03*
X154780000Y-63570000D03*
X154200000Y-63030000D03*
D35*
X139305000Y-94515000D02*
X139290000Y-94500000D01*
X139305000Y-96300000D02*
X139305000Y-94515000D01*
X132110000Y-111930000D02*
X134180000Y-111930000D01*
X136210000Y-111930000D02*
X134180000Y-111930000D01*
X132080000Y-107010000D02*
X133990000Y-107010000D01*
X133990000Y-107010000D02*
X134050000Y-106950000D01*
X134110000Y-107010000D02*
X134050000Y-106950000D01*
X136180000Y-107010000D02*
X134110000Y-107010000D01*
X132095000Y-100700000D02*
X134040000Y-100700000D01*
X134040000Y-100700000D02*
X134070000Y-100670000D01*
X134100000Y-100700000D02*
X134070000Y-100670000D01*
X136195000Y-100700000D02*
X134100000Y-100700000D01*
X157550000Y-65695000D02*
X157575000Y-65670000D01*
X157550000Y-67280000D02*
X157550000Y-65695000D01*
D36*
X157575000Y-65670000D02*
X157620000Y-65670000D01*
X157620000Y-65670000D02*
X158510000Y-64780000D01*
D37*
X146313660Y-77512420D02*
X145282420Y-77512420D01*
X145282420Y-77512420D02*
X145200000Y-77430000D01*
D36*
X150290000Y-75030000D02*
X150290000Y-75290000D01*
X139940000Y-85445000D02*
X139940000Y-83140000D01*
X139940000Y-83140000D02*
X139790000Y-82990000D01*
D37*
X146469340Y-69405580D02*
X147394420Y-69405580D01*
X147394420Y-69405580D02*
X147400000Y-69400000D01*
X148169340Y-68630660D02*
X147400000Y-69400000D01*
X148169340Y-68145580D02*
X148169340Y-68630660D01*
X147865580Y-69865580D02*
X147400000Y-69400000D01*
X149389340Y-69865580D02*
X147865580Y-69865580D01*
X147166118Y-61490000D02*
X148540130Y-60115988D01*
X146690000Y-61490000D02*
X147166118Y-61490000D01*
D36*
X134275000Y-66550000D02*
X132950000Y-66550000D01*
X132950000Y-66550000D02*
X132900000Y-66500000D01*
X152843760Y-102637420D02*
X153507960Y-101973220D01*
X150598660Y-102637420D02*
X152843760Y-102637420D01*
X150598660Y-102637420D02*
X148637420Y-102637420D01*
X148637420Y-102637420D02*
X148600000Y-102600000D01*
X142100000Y-110220000D02*
X143180000Y-110220000D01*
X143180000Y-110220000D02*
X143200000Y-110200000D01*
X157013660Y-98262420D02*
X155862420Y-98262420D01*
X155862420Y-98262420D02*
X155800000Y-98200000D01*
X157013660Y-103312420D02*
X155887580Y-103312420D01*
X155887580Y-103312420D02*
X155700000Y-103500000D01*
X157900000Y-94000000D02*
X157900000Y-92800000D01*
X157900000Y-92800000D02*
X157800000Y-92700000D01*
X157380000Y-114680000D02*
X158520000Y-114680000D01*
X158520000Y-114680000D02*
X159100000Y-114100000D01*
D37*
X143100000Y-71100000D02*
X143100000Y-72172208D01*
X143100000Y-72172208D02*
X143102788Y-72174996D01*
D35*
X138903167Y-94500000D02*
X138842698Y-94560469D01*
X139290000Y-94500000D02*
X138903167Y-94500000D01*
X152253660Y-112788660D02*
X151525000Y-112060000D01*
X152253660Y-114012420D02*
X152253660Y-112788660D01*
X151525000Y-112060000D02*
X151525000Y-112675000D01*
X151525000Y-112675000D02*
X151000000Y-113200000D01*
D36*
X150975000Y-70525000D02*
X150975000Y-71947478D01*
X150975000Y-71947478D02*
X150897468Y-72025010D01*
X150290000Y-75030000D02*
X150290000Y-72632478D01*
X150290000Y-72632478D02*
X150497469Y-72425009D01*
X150497469Y-72425009D02*
X150897468Y-72025010D01*
D37*
X158961090Y-89644990D02*
X158785714Y-89644990D01*
X158785714Y-89644990D02*
X158361450Y-89644990D01*
X159533660Y-89072420D02*
X158961090Y-89644990D01*
X159563660Y-81332420D02*
X159563660Y-80463660D01*
X159563660Y-79447420D02*
X159563660Y-80463660D01*
X155340000Y-75030000D02*
X155270000Y-75030000D01*
X155270000Y-75030000D02*
X154200000Y-76100000D01*
X146003660Y-83803660D02*
X146013660Y-83813660D01*
X146003660Y-82872420D02*
X146003660Y-83803660D01*
X146013660Y-84632420D02*
X146013660Y-83813660D01*
X159583660Y-85162420D02*
X160487055Y-85162420D01*
X160674991Y-85350356D02*
X160974990Y-85650355D01*
X160487055Y-85162420D02*
X160674991Y-85350356D01*
X145425010Y-88271070D02*
X145425010Y-88300000D01*
X145438660Y-88257420D02*
X145425010Y-88271070D01*
X146013660Y-88257420D02*
X145438660Y-88257420D01*
D36*
X154075000Y-102540260D02*
X153507960Y-101973220D01*
X154075000Y-104600000D02*
X154075000Y-102540260D01*
D37*
X138660000Y-110310000D02*
X138460000Y-110310000D01*
X140350000Y-112000000D02*
X138660000Y-110310000D01*
X140225000Y-115575000D02*
X140430000Y-115575000D01*
X138490000Y-113840000D02*
X140225000Y-115575000D01*
D35*
X134920000Y-97140000D02*
X133200000Y-95420000D01*
X134950000Y-97140000D02*
X134920000Y-97140000D01*
D37*
X138490000Y-115590000D02*
X137380000Y-115590000D01*
X137380000Y-115590000D02*
X137160000Y-115810000D01*
X138460000Y-112060000D02*
X137960000Y-112060000D01*
X137960000Y-112060000D02*
X137400000Y-112620000D01*
X142100000Y-111970000D02*
X143210000Y-111970000D01*
D36*
X144298660Y-104917420D02*
X144298660Y-108371340D01*
X144298660Y-108371340D02*
X144070000Y-108600000D01*
D35*
X141055000Y-94515000D02*
X141040000Y-94500000D01*
X141055000Y-96300000D02*
X141055000Y-94515000D01*
X145300000Y-96310000D02*
X144700000Y-96310000D01*
X144700000Y-96310000D02*
X144040000Y-96970000D01*
X145405000Y-96205000D02*
X145300000Y-96310000D01*
X145405000Y-94630000D02*
X145405000Y-96205000D01*
X136165000Y-66590000D02*
X136125000Y-66550000D01*
X137935000Y-66590000D02*
X136165000Y-66590000D01*
X136125000Y-66550000D02*
X136125000Y-67875000D01*
X136125000Y-67875000D02*
X136130000Y-67880000D01*
X134275000Y-64800000D02*
X133020000Y-64800000D01*
X133020000Y-64800000D02*
X133000000Y-64780000D01*
D37*
X155825000Y-65670000D02*
X155710000Y-65670000D01*
X155710000Y-65670000D02*
X154800000Y-64760000D01*
X147143760Y-71100000D02*
X147169340Y-71125580D01*
X144850000Y-71100000D02*
X147143760Y-71100000D01*
X144940000Y-63700063D02*
X144948028Y-63708091D01*
X144940000Y-61490000D02*
X144940000Y-63700063D01*
X149389340Y-70365580D02*
X149389340Y-70789340D01*
X149389340Y-70789340D02*
X149700000Y-71100000D01*
X147669340Y-71125580D02*
X147169340Y-71125580D01*
D36*
X144298660Y-104917420D02*
X144298660Y-101401340D01*
X144298660Y-101401340D02*
X144300000Y-101400000D01*
X148200000Y-105218760D02*
X148200000Y-105900000D01*
X144298660Y-104917420D02*
X147898660Y-104917420D01*
X147898660Y-104917420D02*
X148200000Y-105218760D01*
D37*
X144850000Y-72150000D02*
X144893406Y-72193406D01*
X144850000Y-71100000D02*
X144850000Y-72150000D01*
D35*
X135886902Y-94483098D02*
X136494438Y-94483098D01*
X134950000Y-95420000D02*
X135886902Y-94483098D01*
D36*
X150382366Y-77240695D02*
X150382366Y-76675010D01*
X150290000Y-77570000D02*
X150382366Y-77477634D01*
X150382366Y-77477634D02*
X150382366Y-77240695D01*
D37*
X141835000Y-98470000D02*
X141835000Y-98965000D01*
X141835000Y-98965000D02*
X141200000Y-99600000D01*
D35*
X140531985Y-93991985D02*
X140531985Y-93571985D01*
X141040000Y-94500000D02*
X140531985Y-93991985D01*
D37*
X142480000Y-80395000D02*
X142480000Y-76820000D01*
X142480000Y-76820000D02*
X142900000Y-76400000D01*
X142212768Y-75787232D02*
X143400726Y-75787232D01*
X143400726Y-75787232D02*
X143824990Y-75787232D01*
X139940000Y-78060000D02*
X142212768Y-75787232D01*
X139940000Y-80395000D02*
X139940000Y-78060000D01*
X139007960Y-101973220D02*
X140081780Y-101973220D01*
X140081780Y-101973220D02*
X143085928Y-98969072D01*
X143085928Y-98969072D02*
X143585000Y-98470000D01*
X143085928Y-95699272D02*
X144325011Y-94460189D01*
X144325011Y-94460189D02*
X144325011Y-89590711D01*
X143999989Y-89265689D02*
X143999989Y-87534311D01*
X144072246Y-87462054D02*
X144072246Y-81642903D01*
X143085928Y-97970928D02*
X143085928Y-95699272D01*
X144072246Y-81642903D02*
X144072246Y-81218639D01*
X143999989Y-87534311D02*
X144072246Y-87462054D01*
X143585000Y-98470000D02*
X143085928Y-97970928D01*
X144325011Y-89590711D02*
X143999989Y-89265689D01*
X146200000Y-96659800D02*
X146200000Y-95585000D01*
X144500000Y-99200000D02*
X144500000Y-97800000D01*
X146200000Y-95585000D02*
X147155000Y-94630000D01*
X140400000Y-105581180D02*
X140400000Y-102221078D01*
X141621078Y-101000000D02*
X142700000Y-101000000D01*
X145459800Y-97400000D02*
X146200000Y-96659800D01*
X139007960Y-106973220D02*
X140400000Y-105581180D01*
X144900000Y-97400000D02*
X145459800Y-97400000D01*
X144500000Y-97800000D02*
X144900000Y-97400000D01*
X142700000Y-101000000D02*
X144500000Y-99200000D01*
X140400000Y-102221078D02*
X141621078Y-101000000D01*
X147155000Y-94630000D02*
X147155000Y-93755000D01*
X145263650Y-91863650D02*
X145263650Y-89963650D01*
X147155000Y-93755000D02*
X145263650Y-91863650D01*
X145263650Y-89963650D02*
X144800000Y-89500000D01*
X144800000Y-89500000D02*
X144800000Y-80500000D01*
X144800000Y-80500000D02*
X143900000Y-79600000D01*
X143900000Y-79600000D02*
X143900000Y-77000000D01*
X145400000Y-76000000D02*
X146300000Y-76000000D01*
X146300000Y-76000000D02*
X146700000Y-75600000D01*
X154090000Y-96310000D02*
X147675000Y-96310000D01*
X147675000Y-96310000D02*
X147050000Y-96310000D01*
X156000000Y-94400000D02*
X154090000Y-96310000D01*
X148140000Y-97400000D02*
X147050000Y-96310000D01*
X148400000Y-97400000D02*
X148140000Y-97400000D01*
X149100000Y-79100000D02*
X147300000Y-77300000D01*
X147300000Y-77300000D02*
X147300000Y-74600000D01*
X147300000Y-74600000D02*
X148800000Y-73100000D01*
X148800000Y-73100000D02*
X148800000Y-72200000D01*
D36*
X159553660Y-94096340D02*
X159650000Y-94000000D01*
X159553660Y-98262420D02*
X159553660Y-94096340D01*
X156200000Y-115630000D02*
X157380000Y-115630000D01*
X156000000Y-115430000D02*
X156200000Y-115630000D01*
X156000000Y-111608760D02*
X156000000Y-115430000D01*
X155813660Y-111422420D02*
X156000000Y-111608760D01*
X155813660Y-110622420D02*
X155813660Y-111422420D01*
X155813660Y-109822420D02*
X158300000Y-107336080D01*
X155813660Y-110622420D02*
X155813660Y-109822420D01*
X159553660Y-100237420D02*
X159553660Y-98262420D01*
X158300000Y-101491080D02*
X159553660Y-100237420D01*
X158300000Y-107336080D02*
X158300000Y-101491080D01*
X153640000Y-109160000D02*
X153640000Y-110060000D01*
X151677420Y-107197420D02*
X153640000Y-109160000D01*
X150598660Y-107197420D02*
X151677420Y-107197420D01*
D35*
X157813660Y-111572420D02*
X156827580Y-111572420D01*
X156827580Y-111572420D02*
X156800000Y-111600000D01*
X154600000Y-111020000D02*
X153640000Y-110060000D01*
X154600000Y-111100000D02*
X154600000Y-111020000D01*
D36*
X152325000Y-105471080D02*
X150598660Y-107197420D01*
X152325000Y-104600000D02*
X152325000Y-105471080D01*
X159555000Y-111620000D02*
X159530000Y-111595000D01*
X161370000Y-111620000D02*
X159555000Y-111620000D01*
X158704990Y-110670010D02*
X159030928Y-110344072D01*
X157380000Y-113730000D02*
X157835000Y-113730000D01*
X159030928Y-110344072D02*
X159530000Y-109845000D01*
X158704990Y-112860010D02*
X158704990Y-110670010D01*
X157835000Y-113730000D02*
X158704990Y-112860010D01*
X149008660Y-113805339D02*
X149008660Y-115007420D01*
X149008660Y-111291340D02*
X149008660Y-113805339D01*
X150240000Y-110060000D02*
X149008660Y-111291340D01*
X151140000Y-110060000D02*
X150240000Y-110060000D01*
X159553660Y-105287420D02*
X159553660Y-103312420D01*
X159553660Y-107132420D02*
X159553660Y-105287420D01*
X157813660Y-108872420D02*
X159553660Y-107132420D01*
X157813660Y-109672420D02*
X157813660Y-108872420D01*
X161370000Y-108948760D02*
X159553660Y-107132420D01*
X161370000Y-109870000D02*
X161370000Y-108948760D01*
D35*
X151498660Y-115007420D02*
X152253660Y-115762420D01*
X149008660Y-115007420D02*
X151498660Y-115007420D01*
X154547580Y-115762420D02*
X154680000Y-115630000D01*
X152253660Y-115762420D02*
X154547580Y-115762420D01*
X151140000Y-110060000D02*
X151862180Y-110060000D01*
X151862180Y-110060000D02*
X152751090Y-110948910D01*
X157386080Y-110100000D02*
X157813660Y-109672420D01*
X156900000Y-110100000D02*
X157386080Y-110100000D01*
X142600000Y-85565000D02*
X142480000Y-85445000D01*
X142600000Y-93800000D02*
X142600000Y-85565000D01*
D37*
X159436240Y-77570000D02*
X159563660Y-77697420D01*
X155340000Y-77570000D02*
X159436240Y-77570000D01*
X137500000Y-64405000D02*
X137935000Y-64840000D01*
X137500000Y-64100000D02*
X137500000Y-64405000D01*
X138434072Y-65339072D02*
X138639072Y-65339072D01*
X137935000Y-64840000D02*
X138434072Y-65339072D01*
X138639072Y-65339072D02*
X139900000Y-66600000D01*
X139900000Y-66600000D02*
X139900000Y-72400000D01*
X139900000Y-72400000D02*
X140500000Y-73000000D01*
X140500000Y-73000000D02*
X145300000Y-73000000D01*
X145300000Y-73000000D02*
X145700000Y-72600000D01*
X145700000Y-72600000D02*
X145700000Y-72100000D01*
X145700000Y-72100000D02*
X146200000Y-71600000D01*
X146200000Y-71600000D02*
X146500000Y-71600000D01*
X146500000Y-71600000D02*
X147400000Y-72500000D01*
X147400000Y-72500000D02*
X147900000Y-72500000D01*
X154265000Y-80110000D02*
X155340000Y-80110000D01*
X152900000Y-78745000D02*
X154265000Y-80110000D01*
X152900000Y-76400000D02*
X152900000Y-78745000D01*
X152900000Y-76400000D02*
X151600000Y-76400000D01*
X151600000Y-76400000D02*
X151200000Y-76000000D01*
X151200000Y-76000000D02*
X148532779Y-76000000D01*
X148532779Y-76000000D02*
X148252313Y-75719534D01*
X151120895Y-79075010D02*
X151545159Y-79075010D01*
X150574990Y-79075010D02*
X151120895Y-79075010D01*
X150290000Y-79360000D02*
X150574990Y-79075010D01*
X145851240Y-79100000D02*
X146013660Y-79262420D01*
X145000000Y-79100000D02*
X145851240Y-79100000D01*
X150290000Y-79360000D02*
X150290000Y-80110000D01*
X149888508Y-79761492D02*
X150290000Y-79360000D01*
X146512732Y-79761492D02*
X149888508Y-79761492D01*
X146013660Y-79262420D02*
X146512732Y-79761492D01*
X157580000Y-68980000D02*
X157580000Y-72066812D01*
X158250001Y-72736813D02*
X158550000Y-73036812D01*
X157580000Y-72066812D02*
X158250001Y-72736813D01*
X135425000Y-64100000D02*
X136125000Y-64800000D01*
X135400000Y-64100000D02*
X135425000Y-64100000D01*
X139499989Y-72565689D02*
X140334311Y-73400011D01*
X138389990Y-65789990D02*
X139499989Y-66899989D01*
X139499989Y-66899989D02*
X139499989Y-72565689D01*
X136125000Y-64800000D02*
X137114990Y-65789990D01*
X145744442Y-73400011D02*
X146403501Y-72740952D01*
X140334311Y-73400011D02*
X145744442Y-73400011D01*
X137114990Y-65789990D02*
X138389990Y-65789990D01*
X146403501Y-72740952D02*
X146403501Y-72316688D01*
X154265000Y-82650000D02*
X155340000Y-82650000D01*
X152315002Y-80700002D02*
X154265000Y-82650000D01*
X152315002Y-77100000D02*
X152315002Y-80700002D01*
X141240000Y-69610000D02*
X141240000Y-71530000D01*
X141240000Y-71530000D02*
X140670000Y-72100000D01*
X147531240Y-82650000D02*
X146003660Y-81122420D01*
X150290000Y-82650000D02*
X147531240Y-82650000D01*
X141500000Y-75100000D02*
X141199999Y-75400001D01*
X146003660Y-81122420D02*
X144400000Y-79518760D01*
X144400000Y-77351004D02*
X144475002Y-77276002D01*
X144100000Y-75100000D02*
X141500000Y-75100000D01*
X144475002Y-75475002D02*
X144100000Y-75100000D01*
X141199999Y-75400001D02*
X140900000Y-75700000D01*
X144400000Y-79518760D02*
X144400000Y-77351004D01*
X144475002Y-77276002D02*
X144475002Y-75475002D01*
X155340000Y-85190000D02*
X154265000Y-85190000D01*
X154265000Y-85190000D02*
X152580000Y-86875000D01*
X157456080Y-85190000D02*
X159563660Y-83082420D01*
X155340000Y-85190000D02*
X157456080Y-85190000D01*
X161200000Y-81446080D02*
X161200000Y-77365700D01*
X154339300Y-70505000D02*
X153405000Y-70505000D01*
X153405000Y-70505000D02*
X152830000Y-70505000D01*
X161200000Y-77365700D02*
X154339300Y-70505000D01*
X159563660Y-83082420D02*
X161200000Y-81446080D01*
X133200000Y-97715000D02*
X133200000Y-97140000D01*
X133200000Y-98695000D02*
X133200000Y-97715000D01*
X132795000Y-99100000D02*
X133200000Y-98695000D01*
X132095000Y-99100000D02*
X132795000Y-99100000D01*
X132095000Y-99100000D02*
X136195000Y-99100000D01*
X153700000Y-94500000D02*
X154400000Y-93800000D01*
X153100000Y-94500000D02*
X153700000Y-94500000D01*
X151480000Y-84000000D02*
X150290000Y-85190000D01*
X154000000Y-84000000D02*
X151480000Y-84000000D01*
X136094992Y-98999992D02*
X136094992Y-98926342D01*
X136195000Y-99100000D02*
X136094992Y-98999992D01*
X136094992Y-98926342D02*
X136394991Y-98626343D01*
X158766080Y-87730000D02*
X159583660Y-86912420D01*
X155340000Y-87730000D02*
X158766080Y-87730000D01*
X149389340Y-68465580D02*
X150154920Y-67700000D01*
X149389340Y-68865580D02*
X149389340Y-68465580D01*
X150154920Y-67700000D02*
X151400000Y-67700000D01*
X151400000Y-67700000D02*
X151900000Y-68200000D01*
X152380210Y-69555010D02*
X153955010Y-69555010D01*
X151900000Y-68200000D02*
X151900000Y-69074800D01*
X151900000Y-69074800D02*
X152380210Y-69555010D01*
X153955010Y-69555010D02*
X161600000Y-77200000D01*
X161600000Y-77200000D02*
X161600000Y-86300000D01*
X160987580Y-86912420D02*
X159583660Y-86912420D01*
X161600000Y-86300000D02*
X160987580Y-86912420D01*
X153319946Y-87730000D02*
X153124967Y-87924979D01*
X155340000Y-87730000D02*
X153319946Y-87730000D01*
X153124967Y-87924979D02*
X152824968Y-88224978D01*
X155075736Y-89000000D02*
X155500000Y-89000000D01*
X151365000Y-87730000D02*
X152434988Y-88799988D01*
X150290000Y-87730000D02*
X151365000Y-87730000D01*
X152434988Y-88799988D02*
X154875724Y-88799988D01*
X154875724Y-88799988D02*
X155075736Y-89000000D01*
X146013660Y-86382420D02*
X147361240Y-87730000D01*
X147361240Y-87730000D02*
X150290000Y-87730000D01*
X151599999Y-89199999D02*
X153194999Y-89199999D01*
X151300000Y-88900000D02*
X151599999Y-89199999D01*
X154265000Y-90270000D02*
X155340000Y-90270000D01*
X153194999Y-89199999D02*
X154265000Y-90270000D01*
X158981240Y-90270000D02*
X159533660Y-90822420D01*
X155340000Y-90270000D02*
X158981240Y-90270000D01*
X150290000Y-90270000D02*
X151365000Y-90270000D01*
X154807535Y-93224998D02*
X154935449Y-93352912D01*
X151365000Y-90270000D02*
X154319998Y-93224998D01*
X154935449Y-93352912D02*
X155235448Y-93652911D01*
X154319998Y-93224998D02*
X154807535Y-93224998D01*
X150027420Y-90007420D02*
X150290000Y-90270000D01*
X146013660Y-90007420D02*
X150027420Y-90007420D01*
X145788750Y-70349990D02*
X145844340Y-70405580D01*
X145844340Y-70405580D02*
X146469340Y-70405580D01*
X144322884Y-70349990D02*
X145788750Y-70349990D01*
X143330000Y-69357106D02*
X144322884Y-70349990D01*
X143330000Y-68650000D02*
X143330000Y-69357106D01*
X145105580Y-69905580D02*
X145844340Y-69905580D01*
X145844340Y-69905580D02*
X146469340Y-69905580D01*
X144600000Y-69400000D02*
X145105580Y-69905580D01*
X144600000Y-68650000D02*
X144600000Y-69400000D01*
X132080000Y-105410000D02*
X136180000Y-105410000D01*
X136180000Y-105460000D02*
X137500000Y-106780000D01*
X136180000Y-105410000D02*
X136180000Y-105460000D01*
X137500000Y-106780000D02*
X137500000Y-107700000D01*
X137500000Y-107700000D02*
X138400000Y-108600000D01*
X138400000Y-108600000D02*
X139700000Y-108600000D01*
X140350000Y-109250000D02*
X140350000Y-110250000D01*
X139700000Y-108600000D02*
X140350000Y-109250000D01*
X136180000Y-102250002D02*
X136970001Y-101460001D01*
X136180000Y-105410000D02*
X136180000Y-102250002D01*
X136970001Y-101460001D02*
X136970001Y-97829999D01*
X136970001Y-97829999D02*
X137000000Y-97800000D01*
X136910000Y-110330000D02*
X136210000Y-110330000D01*
X137690010Y-111110010D02*
X136910000Y-110330000D01*
X138759810Y-111110010D02*
X137690010Y-111110010D01*
X139599990Y-111950190D02*
X138759810Y-111110010D01*
X139599990Y-112994990D02*
X139599990Y-111950190D01*
X140430000Y-113825000D02*
X139599990Y-112994990D01*
X132110000Y-110330000D02*
X136210000Y-110330000D01*
X136910000Y-110330000D02*
X137300000Y-109940000D01*
X137300000Y-109940000D02*
X137300000Y-109500000D01*
X137300000Y-109500000D02*
X137700000Y-109100000D01*
X137300000Y-101695702D02*
X137575012Y-101420690D01*
X137575012Y-101420690D02*
X137575012Y-94519992D01*
X141200000Y-83300000D02*
X141800000Y-82700000D01*
X137300000Y-105200000D02*
X137300000Y-101695702D01*
X141674989Y-88174989D02*
X141200000Y-87700000D01*
X141200000Y-87700000D02*
X141200000Y-83300000D01*
X141674989Y-90420015D02*
X141674989Y-88174989D01*
X137575012Y-94519992D02*
X141674989Y-90420015D01*
X142975736Y-82700000D02*
X143400000Y-82700000D01*
X141800000Y-82700000D02*
X142975736Y-82700000D01*
X155800000Y-67280000D02*
X155940000Y-67280000D01*
X155940000Y-67280000D02*
X156650000Y-66570000D01*
X155830000Y-67310000D02*
X155800000Y-67280000D01*
X155830000Y-68980000D02*
X155830000Y-67310000D01*
X150384420Y-69365580D02*
X150975000Y-68775000D01*
X149389340Y-69365580D02*
X150384420Y-69365580D01*
D35*
X153275000Y-112325000D02*
X154680000Y-113730000D01*
X153275000Y-112060000D02*
X153275000Y-112325000D01*
D37*
X152830000Y-68755000D02*
X152830000Y-65520000D01*
X152830000Y-65520000D02*
X154780000Y-63570000D01*
X149914931Y-67299989D02*
X149069340Y-68145580D01*
X151999989Y-67299989D02*
X149914931Y-67299989D01*
X149069340Y-68145580D02*
X148669340Y-68145580D01*
X152830000Y-68130000D02*
X151999989Y-67299989D01*
X152830000Y-68755000D02*
X152830000Y-68130000D01*
X153900001Y-63329999D02*
X153900001Y-63339999D01*
X154200000Y-63030000D02*
X153900001Y-63329999D01*
X153900001Y-63339999D02*
X150420000Y-66820000D01*
X148369920Y-66820000D02*
X147669340Y-67520580D01*
X150420000Y-66820000D02*
X148369920Y-66820000D01*
X141739072Y-67360928D02*
X141240000Y-67860000D01*
X147509688Y-67360928D02*
X141739072Y-67360928D01*
X147669340Y-67520580D02*
X147509688Y-67360928D01*
X147669340Y-68145580D02*
X147669340Y-67520580D01*
M02*
