G04 #@! TF.GenerationSoftware,KiCad,Pcbnew,5.1.2-f72e74a~84~ubuntu19.04.1*
G04 #@! TF.CreationDate,2019-07-17T18:56:16-05:00*
G04 #@! TF.ProjectId,led-controller,6c65642d-636f-46e7-9472-6f6c6c65722e,rev?*
G04 #@! TF.SameCoordinates,Original*
G04 #@! TF.FileFunction,Copper,L3,Inr*
G04 #@! TF.FilePolarity,Positive*
%FSLAX46Y46*%
G04 Gerber Fmt 4.6, Leading zero omitted, Abs format (unit mm)*
G04 Created by KiCad (PCBNEW 5.1.2-f72e74a~84~ubuntu19.04.1) date 2019-07-17 18:56:16*
%MOMM*%
%LPD*%
G04 APERTURE LIST*
%ADD10O,1.700000X1.700000*%
%ADD11R,1.700000X1.700000*%
%ADD12O,1.200000X1.200000*%
%ADD13O,1.600000X1.200000*%
%ADD14R,2.000000X2.000000*%
%ADD15C,2.000000*%
%ADD16R,3.200000X2.000000*%
%ADD17C,3.500000*%
%ADD18C,0.800000*%
%ADD19C,0.600000*%
%ADD20C,1.000000*%
%ADD21C,0.254000*%
G04 APERTURE END LIST*
D10*
X144114520Y-57271920D03*
X146654520Y-57271920D03*
D11*
X149194520Y-57271920D03*
D12*
X149191980Y-112031780D03*
X146651980Y-114571780D03*
D13*
X144111980Y-112031780D03*
D14*
X138694160Y-88818720D03*
D15*
X138694160Y-91318720D03*
X138694160Y-93818720D03*
D16*
X146194160Y-85718720D03*
X146194160Y-96918720D03*
D15*
X153194160Y-88818720D03*
X153194160Y-93818720D03*
D17*
X132509260Y-115912900D03*
X160497520Y-115915440D03*
X160510220Y-56934100D03*
X132499100Y-56929020D03*
D18*
X134793660Y-60122420D03*
X134893660Y-65522420D03*
X144293660Y-60922420D03*
X148393660Y-60822420D03*
X155593660Y-76022420D03*
X161793660Y-77722420D03*
X154393660Y-56222420D03*
X158693660Y-59222420D03*
X161593660Y-62422420D03*
X139793660Y-83622420D03*
X138493660Y-81822420D03*
X139793660Y-80122420D03*
X138693660Y-63622420D03*
X150793660Y-57922420D03*
D19*
X138093660Y-108122420D03*
D20*
X151493660Y-74122420D03*
D18*
X155993660Y-67522420D03*
X159793660Y-67422420D03*
X155668650Y-72222420D03*
D20*
X147793660Y-69547441D03*
D18*
X138093660Y-62522420D03*
D19*
X157893660Y-64822420D03*
D18*
X140193660Y-59722420D03*
X152193660Y-60722420D03*
X140493660Y-92122420D03*
X142793660Y-88922420D03*
X160893660Y-65922420D03*
X140293660Y-106122420D03*
D19*
X134693660Y-107822420D03*
X152593660Y-77322420D03*
D18*
X141093660Y-65622400D03*
D19*
X143893660Y-66122420D03*
X144793660Y-66222420D03*
X137593660Y-103622420D03*
X148793660Y-80022420D03*
X142493660Y-80022420D03*
X140193660Y-104622420D03*
X145968681Y-71901776D03*
X141093660Y-79922420D03*
X144987066Y-69315826D03*
X145881232Y-74684505D03*
X154793660Y-69022420D03*
X156393660Y-68522420D03*
X145484808Y-67960393D03*
X146193660Y-66322420D03*
X148093660Y-66022420D03*
X154393660Y-66222420D03*
X145618650Y-67222420D03*
X147893660Y-75489378D03*
X142093660Y-66222420D03*
D18*
X133793660Y-62922420D03*
D19*
X150011402Y-76422420D03*
X155893660Y-83522420D03*
D18*
X159093660Y-63722420D03*
D19*
X155393660Y-65622420D03*
X153693660Y-67922420D03*
X144949909Y-75417371D03*
D18*
X154993660Y-86522420D03*
X153893660Y-84322420D03*
D21*
G36*
X157776455Y-58732164D02*
G01*
X157698434Y-58920522D01*
X157658660Y-59120481D01*
X157658660Y-59324359D01*
X157698434Y-59524318D01*
X157776455Y-59712676D01*
X157889723Y-59882194D01*
X158033886Y-60026357D01*
X158203404Y-60139625D01*
X158391762Y-60217646D01*
X158591721Y-60257420D01*
X158666660Y-60257420D01*
X158666660Y-60622420D01*
X158669100Y-60647196D01*
X158676327Y-60671021D01*
X158688063Y-60692977D01*
X158703857Y-60712223D01*
X158723103Y-60728017D01*
X158745059Y-60739753D01*
X158768884Y-60746980D01*
X158793660Y-60749420D01*
X161066660Y-60749420D01*
X161066660Y-61529766D01*
X160933886Y-61618483D01*
X160789723Y-61762646D01*
X160676455Y-61932164D01*
X160598434Y-62120522D01*
X160558660Y-62320481D01*
X160558660Y-62524359D01*
X160598434Y-62724318D01*
X160676455Y-62912676D01*
X160789723Y-63082194D01*
X160933886Y-63226357D01*
X161066660Y-63315074D01*
X161066660Y-76985709D01*
X160989723Y-77062646D01*
X160876455Y-77232164D01*
X160798434Y-77420522D01*
X160758660Y-77620481D01*
X160758660Y-77824359D01*
X160798434Y-78024318D01*
X160876455Y-78212676D01*
X160989723Y-78382194D01*
X161066660Y-78459131D01*
X161066660Y-84495420D01*
X156793660Y-84495420D01*
X156768884Y-84497860D01*
X156745059Y-84505087D01*
X156723103Y-84516823D01*
X156703857Y-84532617D01*
X156688063Y-84551863D01*
X156676327Y-84573819D01*
X156669100Y-84597644D01*
X156666660Y-84622420D01*
X156666660Y-111195420D01*
X151693660Y-111195420D01*
X151668884Y-111197860D01*
X151645059Y-111205087D01*
X151623103Y-111216823D01*
X151603857Y-111232617D01*
X151588063Y-111251863D01*
X151576327Y-111273819D01*
X151569100Y-111297644D01*
X151566660Y-111322420D01*
X151566660Y-113795420D01*
X147612487Y-113795420D01*
X147529482Y-113694278D01*
X147341429Y-113539947D01*
X147126881Y-113425269D01*
X146894082Y-113354650D01*
X146712645Y-113336780D01*
X146591315Y-113336780D01*
X146409878Y-113354650D01*
X146177079Y-113425269D01*
X145962531Y-113539947D01*
X145774478Y-113694278D01*
X145691473Y-113795420D01*
X142320660Y-113795420D01*
X142320660Y-112349389D01*
X142718518Y-112349389D01*
X142724503Y-112391942D01*
X142817584Y-112616687D01*
X142952722Y-112818954D01*
X143124724Y-112990971D01*
X143326980Y-113126126D01*
X143551717Y-113219226D01*
X143790299Y-113266693D01*
X143984980Y-113111774D01*
X143984980Y-112158780D01*
X144238980Y-112158780D01*
X144238980Y-113111774D01*
X144433661Y-113266693D01*
X144672243Y-113219226D01*
X144896980Y-113126126D01*
X145099236Y-112990971D01*
X145271238Y-112818954D01*
X145406376Y-112616687D01*
X145499457Y-112391942D01*
X145505442Y-112349389D01*
X145380711Y-112158780D01*
X144238980Y-112158780D01*
X143984980Y-112158780D01*
X142843249Y-112158780D01*
X142718518Y-112349389D01*
X142320660Y-112349389D01*
X142320660Y-112031780D01*
X147951005Y-112031780D01*
X147974850Y-112273882D01*
X148045469Y-112506681D01*
X148160147Y-112721229D01*
X148314478Y-112909282D01*
X148502531Y-113063613D01*
X148717079Y-113178291D01*
X148949878Y-113248910D01*
X149131315Y-113266780D01*
X149252645Y-113266780D01*
X149434082Y-113248910D01*
X149666881Y-113178291D01*
X149881429Y-113063613D01*
X150069482Y-112909282D01*
X150223813Y-112721229D01*
X150338491Y-112506681D01*
X150409110Y-112273882D01*
X150432955Y-112031780D01*
X150409110Y-111789678D01*
X150338491Y-111556879D01*
X150223813Y-111342331D01*
X150069482Y-111154278D01*
X149881429Y-110999947D01*
X149666881Y-110885269D01*
X149434082Y-110814650D01*
X149252645Y-110796780D01*
X149131315Y-110796780D01*
X148949878Y-110814650D01*
X148717079Y-110885269D01*
X148502531Y-110999947D01*
X148314478Y-111154278D01*
X148160147Y-111342331D01*
X148045469Y-111556879D01*
X147974850Y-111789678D01*
X147951005Y-112031780D01*
X142320660Y-112031780D01*
X142320660Y-111714171D01*
X142718518Y-111714171D01*
X142843249Y-111904780D01*
X143984980Y-111904780D01*
X143984980Y-110951786D01*
X144238980Y-110951786D01*
X144238980Y-111904780D01*
X145380711Y-111904780D01*
X145505442Y-111714171D01*
X145499457Y-111671618D01*
X145406376Y-111446873D01*
X145271238Y-111244606D01*
X145099236Y-111072589D01*
X144896980Y-110937434D01*
X144672243Y-110844334D01*
X144433661Y-110796867D01*
X144238980Y-110951786D01*
X143984980Y-110951786D01*
X143790299Y-110796867D01*
X143551717Y-110844334D01*
X143326980Y-110937434D01*
X143124724Y-111072589D01*
X142952722Y-111244606D01*
X142817584Y-111446873D01*
X142724503Y-111671618D01*
X142718518Y-111714171D01*
X142320660Y-111714171D01*
X142320660Y-111222420D01*
X142318220Y-111197644D01*
X142310993Y-111173819D01*
X142299257Y-111151863D01*
X142283463Y-111132617D01*
X142264217Y-111116823D01*
X142242261Y-111105087D01*
X142218436Y-111097860D01*
X142193660Y-111095420D01*
X134120660Y-111095420D01*
X134120660Y-108030331D01*
X137158660Y-108030331D01*
X137158660Y-108214509D01*
X137194592Y-108395149D01*
X137265074Y-108565309D01*
X137367398Y-108718448D01*
X137497632Y-108848682D01*
X137650771Y-108951006D01*
X137820931Y-109021488D01*
X138001571Y-109057420D01*
X138185749Y-109057420D01*
X138366389Y-109021488D01*
X138536549Y-108951006D01*
X138689688Y-108848682D01*
X138819922Y-108718448D01*
X138922246Y-108565309D01*
X138992728Y-108395149D01*
X139028660Y-108214509D01*
X139028660Y-108030331D01*
X138992728Y-107849691D01*
X138922246Y-107679531D01*
X138819922Y-107526392D01*
X138689688Y-107396158D01*
X138536549Y-107293834D01*
X138366389Y-107223352D01*
X138185749Y-107187420D01*
X138001571Y-107187420D01*
X137820931Y-107223352D01*
X137650771Y-107293834D01*
X137497632Y-107396158D01*
X137367398Y-107526392D01*
X137265074Y-107679531D01*
X137194592Y-107849691D01*
X137158660Y-108030331D01*
X134120660Y-108030331D01*
X134120660Y-103530331D01*
X136658660Y-103530331D01*
X136658660Y-103714509D01*
X136694592Y-103895149D01*
X136765074Y-104065309D01*
X136867398Y-104218448D01*
X136997632Y-104348682D01*
X137150771Y-104451006D01*
X137320931Y-104521488D01*
X137501571Y-104557420D01*
X137685749Y-104557420D01*
X137821932Y-104530331D01*
X139258660Y-104530331D01*
X139258660Y-104714509D01*
X139294592Y-104895149D01*
X139365074Y-105065309D01*
X139467398Y-105218448D01*
X139597632Y-105348682D01*
X139750771Y-105451006D01*
X139920931Y-105521488D01*
X140101571Y-105557420D01*
X140285749Y-105557420D01*
X140466389Y-105521488D01*
X140636549Y-105451006D01*
X140789688Y-105348682D01*
X140919922Y-105218448D01*
X141022246Y-105065309D01*
X141092728Y-104895149D01*
X141128660Y-104714509D01*
X141128660Y-104530331D01*
X141092728Y-104349691D01*
X141022246Y-104179531D01*
X140919922Y-104026392D01*
X140789688Y-103896158D01*
X140636549Y-103793834D01*
X140466389Y-103723352D01*
X140285749Y-103687420D01*
X140101571Y-103687420D01*
X139920931Y-103723352D01*
X139750771Y-103793834D01*
X139597632Y-103896158D01*
X139467398Y-104026392D01*
X139365074Y-104179531D01*
X139294592Y-104349691D01*
X139258660Y-104530331D01*
X137821932Y-104530331D01*
X137866389Y-104521488D01*
X138036549Y-104451006D01*
X138189688Y-104348682D01*
X138319922Y-104218448D01*
X138422246Y-104065309D01*
X138492728Y-103895149D01*
X138528660Y-103714509D01*
X138528660Y-103530331D01*
X138492728Y-103349691D01*
X138422246Y-103179531D01*
X138319922Y-103026392D01*
X138189688Y-102896158D01*
X138036549Y-102793834D01*
X137866389Y-102723352D01*
X137685749Y-102687420D01*
X137501571Y-102687420D01*
X137320931Y-102723352D01*
X137150771Y-102793834D01*
X136997632Y-102896158D01*
X136867398Y-103026392D01*
X136765074Y-103179531D01*
X136694592Y-103349691D01*
X136658660Y-103530331D01*
X134120660Y-103530331D01*
X134120660Y-95918720D01*
X143956088Y-95918720D01*
X143956088Y-97918720D01*
X143968348Y-98043202D01*
X144004658Y-98162900D01*
X144063623Y-98273214D01*
X144142975Y-98369905D01*
X144239666Y-98449257D01*
X144349980Y-98508222D01*
X144469678Y-98544532D01*
X144594160Y-98556792D01*
X147794160Y-98556792D01*
X147918642Y-98544532D01*
X148038340Y-98508222D01*
X148148654Y-98449257D01*
X148245345Y-98369905D01*
X148324697Y-98273214D01*
X148383662Y-98162900D01*
X148419972Y-98043202D01*
X148432232Y-97918720D01*
X148432232Y-95918720D01*
X148419972Y-95794238D01*
X148383662Y-95674540D01*
X148324697Y-95564226D01*
X148245345Y-95467535D01*
X148148654Y-95388183D01*
X148038340Y-95329218D01*
X147918642Y-95292908D01*
X147794160Y-95280648D01*
X144594160Y-95280648D01*
X144469678Y-95292908D01*
X144349980Y-95329218D01*
X144239666Y-95388183D01*
X144142975Y-95467535D01*
X144063623Y-95564226D01*
X144004658Y-95674540D01*
X143968348Y-95794238D01*
X143956088Y-95918720D01*
X134120660Y-95918720D01*
X134120660Y-87818720D01*
X137056088Y-87818720D01*
X137056088Y-89818720D01*
X137068348Y-89943202D01*
X137104658Y-90062900D01*
X137163623Y-90173214D01*
X137242975Y-90269905D01*
X137339666Y-90349257D01*
X137366097Y-90363385D01*
X137245242Y-90544257D01*
X137121992Y-90841808D01*
X137059160Y-91157687D01*
X137059160Y-91479753D01*
X137121992Y-91795632D01*
X137245242Y-92093183D01*
X137424173Y-92360972D01*
X137631921Y-92568720D01*
X137424173Y-92776468D01*
X137245242Y-93044257D01*
X137121992Y-93341808D01*
X137059160Y-93657687D01*
X137059160Y-93979753D01*
X137121992Y-94295632D01*
X137245242Y-94593183D01*
X137424173Y-94860972D01*
X137651908Y-95088707D01*
X137919697Y-95267638D01*
X138217248Y-95390888D01*
X138533127Y-95453720D01*
X138855193Y-95453720D01*
X139171072Y-95390888D01*
X139468623Y-95267638D01*
X139736412Y-95088707D01*
X139964147Y-94860972D01*
X140143078Y-94593183D01*
X140266328Y-94295632D01*
X140329160Y-93979753D01*
X140329160Y-93657687D01*
X151559160Y-93657687D01*
X151559160Y-93979753D01*
X151621992Y-94295632D01*
X151745242Y-94593183D01*
X151924173Y-94860972D01*
X152151908Y-95088707D01*
X152419697Y-95267638D01*
X152717248Y-95390888D01*
X153033127Y-95453720D01*
X153355193Y-95453720D01*
X153671072Y-95390888D01*
X153968623Y-95267638D01*
X154236412Y-95088707D01*
X154464147Y-94860972D01*
X154643078Y-94593183D01*
X154766328Y-94295632D01*
X154829160Y-93979753D01*
X154829160Y-93657687D01*
X154766328Y-93341808D01*
X154643078Y-93044257D01*
X154464147Y-92776468D01*
X154236412Y-92548733D01*
X153968623Y-92369802D01*
X153671072Y-92246552D01*
X153355193Y-92183720D01*
X153033127Y-92183720D01*
X152717248Y-92246552D01*
X152419697Y-92369802D01*
X152151908Y-92548733D01*
X151924173Y-92776468D01*
X151745242Y-93044257D01*
X151621992Y-93341808D01*
X151559160Y-93657687D01*
X140329160Y-93657687D01*
X140266328Y-93341808D01*
X140143078Y-93044257D01*
X139964147Y-92776468D01*
X139756399Y-92568720D01*
X139964147Y-92360972D01*
X140143078Y-92093183D01*
X140266328Y-91795632D01*
X140329160Y-91479753D01*
X140329160Y-91157687D01*
X140266328Y-90841808D01*
X140143078Y-90544257D01*
X140022223Y-90363385D01*
X140048654Y-90349257D01*
X140145345Y-90269905D01*
X140224697Y-90173214D01*
X140283662Y-90062900D01*
X140319972Y-89943202D01*
X140332232Y-89818720D01*
X140332232Y-88657687D01*
X151559160Y-88657687D01*
X151559160Y-88979753D01*
X151621992Y-89295632D01*
X151745242Y-89593183D01*
X151924173Y-89860972D01*
X152151908Y-90088707D01*
X152419697Y-90267638D01*
X152717248Y-90390888D01*
X153033127Y-90453720D01*
X153355193Y-90453720D01*
X153671072Y-90390888D01*
X153968623Y-90267638D01*
X154236412Y-90088707D01*
X154464147Y-89860972D01*
X154643078Y-89593183D01*
X154766328Y-89295632D01*
X154829160Y-88979753D01*
X154829160Y-88657687D01*
X154766328Y-88341808D01*
X154643078Y-88044257D01*
X154464147Y-87776468D01*
X154236412Y-87548733D01*
X153968623Y-87369802D01*
X153671072Y-87246552D01*
X153355193Y-87183720D01*
X153033127Y-87183720D01*
X152717248Y-87246552D01*
X152419697Y-87369802D01*
X152151908Y-87548733D01*
X151924173Y-87776468D01*
X151745242Y-88044257D01*
X151621992Y-88341808D01*
X151559160Y-88657687D01*
X140332232Y-88657687D01*
X140332232Y-87818720D01*
X140319972Y-87694238D01*
X140283662Y-87574540D01*
X140224697Y-87464226D01*
X140145345Y-87367535D01*
X140048654Y-87288183D01*
X139938340Y-87229218D01*
X139818642Y-87192908D01*
X139694160Y-87180648D01*
X137694160Y-87180648D01*
X137569678Y-87192908D01*
X137449980Y-87229218D01*
X137339666Y-87288183D01*
X137242975Y-87367535D01*
X137163623Y-87464226D01*
X137104658Y-87574540D01*
X137068348Y-87694238D01*
X137056088Y-87818720D01*
X134120660Y-87818720D01*
X134120660Y-84718720D01*
X143956088Y-84718720D01*
X143956088Y-86718720D01*
X143968348Y-86843202D01*
X144004658Y-86962900D01*
X144063623Y-87073214D01*
X144142975Y-87169905D01*
X144239666Y-87249257D01*
X144349980Y-87308222D01*
X144469678Y-87344532D01*
X144594160Y-87356792D01*
X147794160Y-87356792D01*
X147918642Y-87344532D01*
X148038340Y-87308222D01*
X148148654Y-87249257D01*
X148245345Y-87169905D01*
X148324697Y-87073214D01*
X148383662Y-86962900D01*
X148419972Y-86843202D01*
X148432232Y-86718720D01*
X148432232Y-86420481D01*
X153958660Y-86420481D01*
X153958660Y-86624359D01*
X153998434Y-86824318D01*
X154076455Y-87012676D01*
X154189723Y-87182194D01*
X154333886Y-87326357D01*
X154503404Y-87439625D01*
X154691762Y-87517646D01*
X154891721Y-87557420D01*
X155095599Y-87557420D01*
X155295558Y-87517646D01*
X155483916Y-87439625D01*
X155653434Y-87326357D01*
X155797597Y-87182194D01*
X155910865Y-87012676D01*
X155988886Y-86824318D01*
X156028660Y-86624359D01*
X156028660Y-86420481D01*
X155988886Y-86220522D01*
X155910865Y-86032164D01*
X155797597Y-85862646D01*
X155653434Y-85718483D01*
X155483916Y-85605215D01*
X155295558Y-85527194D01*
X155095599Y-85487420D01*
X154891721Y-85487420D01*
X154691762Y-85527194D01*
X154503404Y-85605215D01*
X154333886Y-85718483D01*
X154189723Y-85862646D01*
X154076455Y-86032164D01*
X153998434Y-86220522D01*
X153958660Y-86420481D01*
X148432232Y-86420481D01*
X148432232Y-84718720D01*
X148419972Y-84594238D01*
X148383662Y-84474540D01*
X148324697Y-84364226D01*
X148245345Y-84267535D01*
X148188010Y-84220481D01*
X152858660Y-84220481D01*
X152858660Y-84424359D01*
X152898434Y-84624318D01*
X152976455Y-84812676D01*
X153089723Y-84982194D01*
X153233886Y-85126357D01*
X153403404Y-85239625D01*
X153591762Y-85317646D01*
X153791721Y-85357420D01*
X153995599Y-85357420D01*
X154195558Y-85317646D01*
X154383916Y-85239625D01*
X154553434Y-85126357D01*
X154697597Y-84982194D01*
X154810865Y-84812676D01*
X154888886Y-84624318D01*
X154928660Y-84424359D01*
X154928660Y-84220481D01*
X154888886Y-84020522D01*
X154810865Y-83832164D01*
X154697597Y-83662646D01*
X154553434Y-83518483D01*
X154421505Y-83430331D01*
X154958660Y-83430331D01*
X154958660Y-83614509D01*
X154994592Y-83795149D01*
X155065074Y-83965309D01*
X155167398Y-84118448D01*
X155297632Y-84248682D01*
X155450771Y-84351006D01*
X155620931Y-84421488D01*
X155801571Y-84457420D01*
X155985749Y-84457420D01*
X156166389Y-84421488D01*
X156336549Y-84351006D01*
X156489688Y-84248682D01*
X156619922Y-84118448D01*
X156722246Y-83965309D01*
X156792728Y-83795149D01*
X156828660Y-83614509D01*
X156828660Y-83430331D01*
X156792728Y-83249691D01*
X156722246Y-83079531D01*
X156619922Y-82926392D01*
X156489688Y-82796158D01*
X156336549Y-82693834D01*
X156166389Y-82623352D01*
X155985749Y-82587420D01*
X155801571Y-82587420D01*
X155620931Y-82623352D01*
X155450771Y-82693834D01*
X155297632Y-82796158D01*
X155167398Y-82926392D01*
X155065074Y-83079531D01*
X154994592Y-83249691D01*
X154958660Y-83430331D01*
X154421505Y-83430331D01*
X154383916Y-83405215D01*
X154195558Y-83327194D01*
X153995599Y-83287420D01*
X153791721Y-83287420D01*
X153591762Y-83327194D01*
X153403404Y-83405215D01*
X153233886Y-83518483D01*
X153089723Y-83662646D01*
X152976455Y-83832164D01*
X152898434Y-84020522D01*
X152858660Y-84220481D01*
X148188010Y-84220481D01*
X148148654Y-84188183D01*
X148038340Y-84129218D01*
X147918642Y-84092908D01*
X147794160Y-84080648D01*
X144594160Y-84080648D01*
X144469678Y-84092908D01*
X144349980Y-84129218D01*
X144239666Y-84188183D01*
X144142975Y-84267535D01*
X144063623Y-84364226D01*
X144004658Y-84474540D01*
X143968348Y-84594238D01*
X143956088Y-84718720D01*
X134120660Y-84718720D01*
X134120660Y-83520481D01*
X138758660Y-83520481D01*
X138758660Y-83724359D01*
X138798434Y-83924318D01*
X138876455Y-84112676D01*
X138989723Y-84282194D01*
X139133886Y-84426357D01*
X139303404Y-84539625D01*
X139491762Y-84617646D01*
X139691721Y-84657420D01*
X139895599Y-84657420D01*
X140095558Y-84617646D01*
X140283916Y-84539625D01*
X140453434Y-84426357D01*
X140597597Y-84282194D01*
X140710865Y-84112676D01*
X140788886Y-83924318D01*
X140828660Y-83724359D01*
X140828660Y-83520481D01*
X140788886Y-83320522D01*
X140710865Y-83132164D01*
X140597597Y-82962646D01*
X140453434Y-82818483D01*
X140283916Y-82705215D01*
X140095558Y-82627194D01*
X139895599Y-82587420D01*
X139691721Y-82587420D01*
X139491762Y-82627194D01*
X139303404Y-82705215D01*
X139133886Y-82818483D01*
X138989723Y-82962646D01*
X138876455Y-83132164D01*
X138798434Y-83320522D01*
X138758660Y-83520481D01*
X134120660Y-83520481D01*
X134120660Y-81720481D01*
X137458660Y-81720481D01*
X137458660Y-81924359D01*
X137498434Y-82124318D01*
X137576455Y-82312676D01*
X137689723Y-82482194D01*
X137833886Y-82626357D01*
X138003404Y-82739625D01*
X138191762Y-82817646D01*
X138391721Y-82857420D01*
X138595599Y-82857420D01*
X138795558Y-82817646D01*
X138983916Y-82739625D01*
X139153434Y-82626357D01*
X139297597Y-82482194D01*
X139410865Y-82312676D01*
X139488886Y-82124318D01*
X139528660Y-81924359D01*
X139528660Y-81720481D01*
X139488886Y-81520522D01*
X139410865Y-81332164D01*
X139297597Y-81162646D01*
X139153434Y-81018483D01*
X138983916Y-80905215D01*
X138795558Y-80827194D01*
X138595599Y-80787420D01*
X138391721Y-80787420D01*
X138191762Y-80827194D01*
X138003404Y-80905215D01*
X137833886Y-81018483D01*
X137689723Y-81162646D01*
X137576455Y-81332164D01*
X137498434Y-81520522D01*
X137458660Y-81720481D01*
X134120660Y-81720481D01*
X134120660Y-80020481D01*
X138758660Y-80020481D01*
X138758660Y-80224359D01*
X138798434Y-80424318D01*
X138876455Y-80612676D01*
X138989723Y-80782194D01*
X139133886Y-80926357D01*
X139303404Y-81039625D01*
X139491762Y-81117646D01*
X139691721Y-81157420D01*
X139895599Y-81157420D01*
X140095558Y-81117646D01*
X140283916Y-81039625D01*
X140453434Y-80926357D01*
X140597597Y-80782194D01*
X140628417Y-80736069D01*
X140650771Y-80751006D01*
X140820931Y-80821488D01*
X141001571Y-80857420D01*
X141185749Y-80857420D01*
X141366389Y-80821488D01*
X141536549Y-80751006D01*
X141689688Y-80648682D01*
X141748382Y-80589988D01*
X141767398Y-80618448D01*
X141897632Y-80748682D01*
X142050771Y-80851006D01*
X142220931Y-80921488D01*
X142401571Y-80957420D01*
X142585749Y-80957420D01*
X142766389Y-80921488D01*
X142936549Y-80851006D01*
X143089688Y-80748682D01*
X143219922Y-80618448D01*
X143322246Y-80465309D01*
X143392728Y-80295149D01*
X143428660Y-80114509D01*
X143428660Y-79930331D01*
X147858660Y-79930331D01*
X147858660Y-80114509D01*
X147894592Y-80295149D01*
X147965074Y-80465309D01*
X148067398Y-80618448D01*
X148197632Y-80748682D01*
X148350771Y-80851006D01*
X148520931Y-80921488D01*
X148701571Y-80957420D01*
X148885749Y-80957420D01*
X149066389Y-80921488D01*
X149236549Y-80851006D01*
X149389688Y-80748682D01*
X149519922Y-80618448D01*
X149622246Y-80465309D01*
X149692728Y-80295149D01*
X149728660Y-80114509D01*
X149728660Y-79930331D01*
X149692728Y-79749691D01*
X149622246Y-79579531D01*
X149519922Y-79426392D01*
X149389688Y-79296158D01*
X149236549Y-79193834D01*
X149066389Y-79123352D01*
X148885749Y-79087420D01*
X148701571Y-79087420D01*
X148520931Y-79123352D01*
X148350771Y-79193834D01*
X148197632Y-79296158D01*
X148067398Y-79426392D01*
X147965074Y-79579531D01*
X147894592Y-79749691D01*
X147858660Y-79930331D01*
X143428660Y-79930331D01*
X143392728Y-79749691D01*
X143322246Y-79579531D01*
X143219922Y-79426392D01*
X143089688Y-79296158D01*
X142936549Y-79193834D01*
X142766389Y-79123352D01*
X142585749Y-79087420D01*
X142401571Y-79087420D01*
X142220931Y-79123352D01*
X142050771Y-79193834D01*
X141897632Y-79296158D01*
X141838938Y-79354852D01*
X141819922Y-79326392D01*
X141689688Y-79196158D01*
X141536549Y-79093834D01*
X141366389Y-79023352D01*
X141185749Y-78987420D01*
X141001571Y-78987420D01*
X140820931Y-79023352D01*
X140650771Y-79093834D01*
X140497632Y-79196158D01*
X140406600Y-79287190D01*
X140283916Y-79205215D01*
X140095558Y-79127194D01*
X139895599Y-79087420D01*
X139691721Y-79087420D01*
X139491762Y-79127194D01*
X139303404Y-79205215D01*
X139133886Y-79318483D01*
X138989723Y-79462646D01*
X138876455Y-79632164D01*
X138798434Y-79820522D01*
X138758660Y-80020481D01*
X134120660Y-80020481D01*
X134120660Y-75325282D01*
X144014909Y-75325282D01*
X144014909Y-75509460D01*
X144050841Y-75690100D01*
X144121323Y-75860260D01*
X144223647Y-76013399D01*
X144353881Y-76143633D01*
X144507020Y-76245957D01*
X144677180Y-76316439D01*
X144857820Y-76352371D01*
X145041998Y-76352371D01*
X145222638Y-76316439D01*
X145392798Y-76245957D01*
X145545937Y-76143633D01*
X145676171Y-76013399D01*
X145778495Y-75860260D01*
X145848977Y-75690100D01*
X145863019Y-75619505D01*
X145973321Y-75619505D01*
X146153961Y-75583573D01*
X146324121Y-75513091D01*
X146477260Y-75410767D01*
X146490738Y-75397289D01*
X146958660Y-75397289D01*
X146958660Y-75581467D01*
X146994592Y-75762107D01*
X147065074Y-75932267D01*
X147167398Y-76085406D01*
X147297632Y-76215640D01*
X147450771Y-76317964D01*
X147620931Y-76388446D01*
X147801571Y-76424378D01*
X147985749Y-76424378D01*
X148166389Y-76388446D01*
X148306692Y-76330331D01*
X149076402Y-76330331D01*
X149076402Y-76514509D01*
X149112334Y-76695149D01*
X149182816Y-76865309D01*
X149285140Y-77018448D01*
X149415374Y-77148682D01*
X149568513Y-77251006D01*
X149738673Y-77321488D01*
X149919313Y-77357420D01*
X150103491Y-77357420D01*
X150284131Y-77321488D01*
X150454291Y-77251006D01*
X150607430Y-77148682D01*
X150737664Y-77018448D01*
X150839988Y-76865309D01*
X150910470Y-76695149D01*
X150946402Y-76514509D01*
X150946402Y-76330331D01*
X150910470Y-76149691D01*
X150839988Y-75979531D01*
X150800533Y-75920481D01*
X154558660Y-75920481D01*
X154558660Y-76124359D01*
X154598434Y-76324318D01*
X154676455Y-76512676D01*
X154789723Y-76682194D01*
X154933886Y-76826357D01*
X155103404Y-76939625D01*
X155291762Y-77017646D01*
X155491721Y-77057420D01*
X155695599Y-77057420D01*
X155895558Y-77017646D01*
X156083916Y-76939625D01*
X156253434Y-76826357D01*
X156397597Y-76682194D01*
X156510865Y-76512676D01*
X156588886Y-76324318D01*
X156628660Y-76124359D01*
X156628660Y-75920481D01*
X156588886Y-75720522D01*
X156510865Y-75532164D01*
X156397597Y-75362646D01*
X156253434Y-75218483D01*
X156083916Y-75105215D01*
X155895558Y-75027194D01*
X155695599Y-74987420D01*
X155491721Y-74987420D01*
X155291762Y-75027194D01*
X155103404Y-75105215D01*
X154933886Y-75218483D01*
X154789723Y-75362646D01*
X154676455Y-75532164D01*
X154598434Y-75720522D01*
X154558660Y-75920481D01*
X150800533Y-75920481D01*
X150737664Y-75826392D01*
X150607430Y-75696158D01*
X150454291Y-75593834D01*
X150284131Y-75523352D01*
X150103491Y-75487420D01*
X149919313Y-75487420D01*
X149738673Y-75523352D01*
X149568513Y-75593834D01*
X149415374Y-75696158D01*
X149285140Y-75826392D01*
X149182816Y-75979531D01*
X149112334Y-76149691D01*
X149076402Y-76330331D01*
X148306692Y-76330331D01*
X148336549Y-76317964D01*
X148489688Y-76215640D01*
X148619922Y-76085406D01*
X148722246Y-75932267D01*
X148792728Y-75762107D01*
X148828660Y-75581467D01*
X148828660Y-75397289D01*
X148792728Y-75216649D01*
X148722246Y-75046489D01*
X148619922Y-74893350D01*
X148489688Y-74763116D01*
X148336549Y-74660792D01*
X148166389Y-74590310D01*
X147985749Y-74554378D01*
X147801571Y-74554378D01*
X147620931Y-74590310D01*
X147450771Y-74660792D01*
X147297632Y-74763116D01*
X147167398Y-74893350D01*
X147065074Y-75046489D01*
X146994592Y-75216649D01*
X146958660Y-75397289D01*
X146490738Y-75397289D01*
X146607494Y-75280533D01*
X146709818Y-75127394D01*
X146780300Y-74957234D01*
X146816232Y-74776594D01*
X146816232Y-74592416D01*
X146780300Y-74411776D01*
X146709818Y-74241616D01*
X146607494Y-74088477D01*
X146529649Y-74010632D01*
X150358660Y-74010632D01*
X150358660Y-74234208D01*
X150402277Y-74453487D01*
X150487836Y-74660044D01*
X150612048Y-74845940D01*
X150770140Y-75004032D01*
X150956036Y-75128244D01*
X151162593Y-75213803D01*
X151381872Y-75257420D01*
X151605448Y-75257420D01*
X151824727Y-75213803D01*
X152031284Y-75128244D01*
X152217180Y-75004032D01*
X152375272Y-74845940D01*
X152499484Y-74660044D01*
X152585043Y-74453487D01*
X152628660Y-74234208D01*
X152628660Y-74010632D01*
X152585043Y-73791353D01*
X152499484Y-73584796D01*
X152375272Y-73398900D01*
X152217180Y-73240808D01*
X152031284Y-73116596D01*
X151824727Y-73031037D01*
X151605448Y-72987420D01*
X151381872Y-72987420D01*
X151162593Y-73031037D01*
X150956036Y-73116596D01*
X150770140Y-73240808D01*
X150612048Y-73398900D01*
X150487836Y-73584796D01*
X150402277Y-73791353D01*
X150358660Y-74010632D01*
X146529649Y-74010632D01*
X146477260Y-73958243D01*
X146324121Y-73855919D01*
X146153961Y-73785437D01*
X145973321Y-73749505D01*
X145789143Y-73749505D01*
X145608503Y-73785437D01*
X145438343Y-73855919D01*
X145285204Y-73958243D01*
X145154970Y-74088477D01*
X145052646Y-74241616D01*
X144982164Y-74411776D01*
X144968122Y-74482371D01*
X144857820Y-74482371D01*
X144677180Y-74518303D01*
X144507020Y-74588785D01*
X144353881Y-74691109D01*
X144223647Y-74821343D01*
X144121323Y-74974482D01*
X144050841Y-75144642D01*
X144014909Y-75325282D01*
X134120660Y-75325282D01*
X134120660Y-71809687D01*
X145033681Y-71809687D01*
X145033681Y-71993865D01*
X145069613Y-72174505D01*
X145140095Y-72344665D01*
X145242419Y-72497804D01*
X145372653Y-72628038D01*
X145525792Y-72730362D01*
X145695952Y-72800844D01*
X145876592Y-72836776D01*
X146060770Y-72836776D01*
X146241410Y-72800844D01*
X146411570Y-72730362D01*
X146564709Y-72628038D01*
X146694943Y-72497804D01*
X146797267Y-72344665D01*
X146867749Y-72174505D01*
X146878495Y-72120481D01*
X154633650Y-72120481D01*
X154633650Y-72324359D01*
X154673424Y-72524318D01*
X154751445Y-72712676D01*
X154864713Y-72882194D01*
X155008876Y-73026357D01*
X155178394Y-73139625D01*
X155366752Y-73217646D01*
X155566711Y-73257420D01*
X155770589Y-73257420D01*
X155970548Y-73217646D01*
X156158906Y-73139625D01*
X156328424Y-73026357D01*
X156472587Y-72882194D01*
X156585855Y-72712676D01*
X156663876Y-72524318D01*
X156703650Y-72324359D01*
X156703650Y-72120481D01*
X156663876Y-71920522D01*
X156585855Y-71732164D01*
X156472587Y-71562646D01*
X156328424Y-71418483D01*
X156158906Y-71305215D01*
X155970548Y-71227194D01*
X155770589Y-71187420D01*
X155566711Y-71187420D01*
X155366752Y-71227194D01*
X155178394Y-71305215D01*
X155008876Y-71418483D01*
X154864713Y-71562646D01*
X154751445Y-71732164D01*
X154673424Y-71920522D01*
X154633650Y-72120481D01*
X146878495Y-72120481D01*
X146903681Y-71993865D01*
X146903681Y-71809687D01*
X146867749Y-71629047D01*
X146797267Y-71458887D01*
X146694943Y-71305748D01*
X146564709Y-71175514D01*
X146411570Y-71073190D01*
X146241410Y-71002708D01*
X146060770Y-70966776D01*
X145876592Y-70966776D01*
X145695952Y-71002708D01*
X145525792Y-71073190D01*
X145372653Y-71175514D01*
X145242419Y-71305748D01*
X145140095Y-71458887D01*
X145069613Y-71629047D01*
X145033681Y-71809687D01*
X134120660Y-71809687D01*
X134120660Y-66213131D01*
X134233886Y-66326357D01*
X134403404Y-66439625D01*
X134591762Y-66517646D01*
X134791721Y-66557420D01*
X134995599Y-66557420D01*
X135195558Y-66517646D01*
X135383916Y-66439625D01*
X135553434Y-66326357D01*
X135697597Y-66182194D01*
X135732250Y-66130331D01*
X141158660Y-66130331D01*
X141158660Y-66314509D01*
X141194592Y-66495149D01*
X141265074Y-66665309D01*
X141367398Y-66818448D01*
X141497632Y-66948682D01*
X141650771Y-67051006D01*
X141820931Y-67121488D01*
X142001571Y-67157420D01*
X142185749Y-67157420D01*
X142366389Y-67121488D01*
X142536549Y-67051006D01*
X142689688Y-66948682D01*
X142819922Y-66818448D01*
X142922246Y-66665309D01*
X142992728Y-66495149D01*
X143006771Y-66424552D01*
X143065074Y-66565309D01*
X143167398Y-66718448D01*
X143297632Y-66848682D01*
X143450771Y-66951006D01*
X143620931Y-67021488D01*
X143801571Y-67057420D01*
X143985749Y-67057420D01*
X144166389Y-67021488D01*
X144252940Y-66985638D01*
X144350771Y-67051006D01*
X144520931Y-67121488D01*
X144683650Y-67153855D01*
X144683650Y-67314509D01*
X144708474Y-67439304D01*
X144656222Y-67517504D01*
X144585740Y-67687664D01*
X144549808Y-67868304D01*
X144549808Y-68052482D01*
X144585740Y-68233122D01*
X144656222Y-68403282D01*
X144675872Y-68432691D01*
X144544177Y-68487240D01*
X144391038Y-68589564D01*
X144260804Y-68719798D01*
X144158480Y-68872937D01*
X144087998Y-69043097D01*
X144052066Y-69223737D01*
X144052066Y-69407915D01*
X144087998Y-69588555D01*
X144158480Y-69758715D01*
X144260804Y-69911854D01*
X144391038Y-70042088D01*
X144544177Y-70144412D01*
X144714337Y-70214894D01*
X144894977Y-70250826D01*
X145079155Y-70250826D01*
X145259795Y-70214894D01*
X145429955Y-70144412D01*
X145583094Y-70042088D01*
X145713328Y-69911854D01*
X145815652Y-69758715D01*
X145886134Y-69588555D01*
X145916548Y-69435653D01*
X146658660Y-69435653D01*
X146658660Y-69659229D01*
X146702277Y-69878508D01*
X146787836Y-70085065D01*
X146912048Y-70270961D01*
X147070140Y-70429053D01*
X147256036Y-70553265D01*
X147462593Y-70638824D01*
X147681872Y-70682441D01*
X147905448Y-70682441D01*
X148124727Y-70638824D01*
X148331284Y-70553265D01*
X148517180Y-70429053D01*
X148675272Y-70270961D01*
X148799484Y-70085065D01*
X148885043Y-69878508D01*
X148928660Y-69659229D01*
X148928660Y-69435653D01*
X148885043Y-69216374D01*
X148799484Y-69009817D01*
X148675272Y-68823921D01*
X148517180Y-68665829D01*
X148331284Y-68541617D01*
X148124727Y-68456058D01*
X147905448Y-68412441D01*
X147681872Y-68412441D01*
X147462593Y-68456058D01*
X147256036Y-68541617D01*
X147070140Y-68665829D01*
X146912048Y-68823921D01*
X146787836Y-69009817D01*
X146702277Y-69216374D01*
X146658660Y-69435653D01*
X145916548Y-69435653D01*
X145922066Y-69407915D01*
X145922066Y-69223737D01*
X145886134Y-69043097D01*
X145815652Y-68872937D01*
X145796002Y-68843528D01*
X145927697Y-68788979D01*
X146080836Y-68686655D01*
X146211070Y-68556421D01*
X146313394Y-68403282D01*
X146383876Y-68233122D01*
X146419808Y-68052482D01*
X146419808Y-67868304D01*
X146412255Y-67830331D01*
X152758660Y-67830331D01*
X152758660Y-68014509D01*
X152794592Y-68195149D01*
X152865074Y-68365309D01*
X152967398Y-68518448D01*
X153097632Y-68648682D01*
X153250771Y-68751006D01*
X153420931Y-68821488D01*
X153601571Y-68857420D01*
X153785749Y-68857420D01*
X153876764Y-68839316D01*
X153858660Y-68930331D01*
X153858660Y-69114509D01*
X153894592Y-69295149D01*
X153965074Y-69465309D01*
X154067398Y-69618448D01*
X154197632Y-69748682D01*
X154350771Y-69851006D01*
X154520931Y-69921488D01*
X154701571Y-69957420D01*
X154885749Y-69957420D01*
X155066389Y-69921488D01*
X155236549Y-69851006D01*
X155389688Y-69748682D01*
X155519922Y-69618448D01*
X155622246Y-69465309D01*
X155692728Y-69295149D01*
X155717842Y-69168892D01*
X155797632Y-69248682D01*
X155950771Y-69351006D01*
X156120931Y-69421488D01*
X156301571Y-69457420D01*
X156485749Y-69457420D01*
X156666389Y-69421488D01*
X156836549Y-69351006D01*
X156989688Y-69248682D01*
X157119922Y-69118448D01*
X157222246Y-68965309D01*
X157292728Y-68795149D01*
X157328660Y-68614509D01*
X157328660Y-68430331D01*
X157292728Y-68249691D01*
X157222246Y-68079531D01*
X157119922Y-67926392D01*
X156993691Y-67800161D01*
X157028660Y-67624359D01*
X157028660Y-67420481D01*
X157008769Y-67320481D01*
X158758660Y-67320481D01*
X158758660Y-67524359D01*
X158798434Y-67724318D01*
X158876455Y-67912676D01*
X158989723Y-68082194D01*
X159133886Y-68226357D01*
X159303404Y-68339625D01*
X159491762Y-68417646D01*
X159691721Y-68457420D01*
X159895599Y-68457420D01*
X160095558Y-68417646D01*
X160283916Y-68339625D01*
X160453434Y-68226357D01*
X160597597Y-68082194D01*
X160710865Y-67912676D01*
X160788886Y-67724318D01*
X160828660Y-67524359D01*
X160828660Y-67320481D01*
X160788886Y-67120522D01*
X160710865Y-66932164D01*
X160597597Y-66762646D01*
X160453434Y-66618483D01*
X160283916Y-66505215D01*
X160095558Y-66427194D01*
X159895599Y-66387420D01*
X159691721Y-66387420D01*
X159491762Y-66427194D01*
X159303404Y-66505215D01*
X159133886Y-66618483D01*
X158989723Y-66762646D01*
X158876455Y-66932164D01*
X158798434Y-67120522D01*
X158758660Y-67320481D01*
X157008769Y-67320481D01*
X156988886Y-67220522D01*
X156910865Y-67032164D01*
X156797597Y-66862646D01*
X156653434Y-66718483D01*
X156483916Y-66605215D01*
X156295558Y-66527194D01*
X156095599Y-66487420D01*
X155891721Y-66487420D01*
X155691762Y-66527194D01*
X155503404Y-66605215D01*
X155333886Y-66718483D01*
X155189723Y-66862646D01*
X155076455Y-67032164D01*
X154998434Y-67220522D01*
X154958660Y-67420481D01*
X154958660Y-67624359D01*
X154998434Y-67824318D01*
X155076455Y-68012676D01*
X155182558Y-68171470D01*
X155066389Y-68123352D01*
X154885749Y-68087420D01*
X154701571Y-68087420D01*
X154610556Y-68105524D01*
X154628660Y-68014509D01*
X154628660Y-67830331D01*
X154592728Y-67649691D01*
X154522246Y-67479531D01*
X154419922Y-67326392D01*
X154289688Y-67196158D01*
X154202100Y-67137634D01*
X154301571Y-67157420D01*
X154485749Y-67157420D01*
X154666389Y-67121488D01*
X154836549Y-67051006D01*
X154989688Y-66948682D01*
X155119922Y-66818448D01*
X155222246Y-66665309D01*
X155269571Y-66551055D01*
X155301571Y-66557420D01*
X155485749Y-66557420D01*
X155666389Y-66521488D01*
X155836549Y-66451006D01*
X155989688Y-66348682D01*
X156119922Y-66218448D01*
X156222246Y-66065309D01*
X156292728Y-65895149D01*
X156328660Y-65714509D01*
X156328660Y-65530331D01*
X156292728Y-65349691D01*
X156222246Y-65179531D01*
X156119922Y-65026392D01*
X155989688Y-64896158D01*
X155836549Y-64793834D01*
X155683238Y-64730331D01*
X156958660Y-64730331D01*
X156958660Y-64914509D01*
X156994592Y-65095149D01*
X157065074Y-65265309D01*
X157167398Y-65418448D01*
X157297632Y-65548682D01*
X157450771Y-65651006D01*
X157620931Y-65721488D01*
X157801571Y-65757420D01*
X157985749Y-65757420D01*
X158166389Y-65721488D01*
X158336549Y-65651006D01*
X158489688Y-65548682D01*
X158619922Y-65418448D01*
X158722246Y-65265309D01*
X158792728Y-65095149D01*
X158828660Y-64914509D01*
X158828660Y-64730331D01*
X158827553Y-64724765D01*
X158991721Y-64757420D01*
X159195599Y-64757420D01*
X159395558Y-64717646D01*
X159583916Y-64639625D01*
X159753434Y-64526357D01*
X159897597Y-64382194D01*
X160010865Y-64212676D01*
X160088886Y-64024318D01*
X160128660Y-63824359D01*
X160128660Y-63620481D01*
X160088886Y-63420522D01*
X160010865Y-63232164D01*
X159897597Y-63062646D01*
X159753434Y-62918483D01*
X159583916Y-62805215D01*
X159395558Y-62727194D01*
X159195599Y-62687420D01*
X158991721Y-62687420D01*
X158791762Y-62727194D01*
X158603404Y-62805215D01*
X158433886Y-62918483D01*
X158289723Y-63062646D01*
X158176455Y-63232164D01*
X158098434Y-63420522D01*
X158058660Y-63620481D01*
X158058660Y-63824359D01*
X158074724Y-63905118D01*
X157985749Y-63887420D01*
X157801571Y-63887420D01*
X157620931Y-63923352D01*
X157450771Y-63993834D01*
X157297632Y-64096158D01*
X157167398Y-64226392D01*
X157065074Y-64379531D01*
X156994592Y-64549691D01*
X156958660Y-64730331D01*
X155683238Y-64730331D01*
X155666389Y-64723352D01*
X155485749Y-64687420D01*
X155301571Y-64687420D01*
X155120931Y-64723352D01*
X154950771Y-64793834D01*
X154797632Y-64896158D01*
X154667398Y-65026392D01*
X154565074Y-65179531D01*
X154517749Y-65293785D01*
X154485749Y-65287420D01*
X154301571Y-65287420D01*
X154120931Y-65323352D01*
X153950771Y-65393834D01*
X153797632Y-65496158D01*
X153667398Y-65626392D01*
X153565074Y-65779531D01*
X153494592Y-65949691D01*
X153458660Y-66130331D01*
X153458660Y-66314509D01*
X153494592Y-66495149D01*
X153565074Y-66665309D01*
X153667398Y-66818448D01*
X153797632Y-66948682D01*
X153885220Y-67007206D01*
X153785749Y-66987420D01*
X153601571Y-66987420D01*
X153420931Y-67023352D01*
X153250771Y-67093834D01*
X153097632Y-67196158D01*
X152967398Y-67326392D01*
X152865074Y-67479531D01*
X152794592Y-67649691D01*
X152758660Y-67830331D01*
X146412255Y-67830331D01*
X146394984Y-67743509D01*
X146447236Y-67665309D01*
X146517718Y-67495149D01*
X146553650Y-67314509D01*
X146553650Y-67185344D01*
X146636549Y-67151006D01*
X146789688Y-67048682D01*
X146919922Y-66918448D01*
X147022246Y-66765309D01*
X147092728Y-66595149D01*
X147128660Y-66414509D01*
X147128660Y-66230331D01*
X147092728Y-66049691D01*
X147043288Y-65930331D01*
X147158660Y-65930331D01*
X147158660Y-66114509D01*
X147194592Y-66295149D01*
X147265074Y-66465309D01*
X147367398Y-66618448D01*
X147497632Y-66748682D01*
X147650771Y-66851006D01*
X147820931Y-66921488D01*
X148001571Y-66957420D01*
X148185749Y-66957420D01*
X148366389Y-66921488D01*
X148536549Y-66851006D01*
X148689688Y-66748682D01*
X148819922Y-66618448D01*
X148922246Y-66465309D01*
X148992728Y-66295149D01*
X149028660Y-66114509D01*
X149028660Y-65930331D01*
X148992728Y-65749691D01*
X148922246Y-65579531D01*
X148819922Y-65426392D01*
X148689688Y-65296158D01*
X148536549Y-65193834D01*
X148366389Y-65123352D01*
X148185749Y-65087420D01*
X148001571Y-65087420D01*
X147820931Y-65123352D01*
X147650771Y-65193834D01*
X147497632Y-65296158D01*
X147367398Y-65426392D01*
X147265074Y-65579531D01*
X147194592Y-65749691D01*
X147158660Y-65930331D01*
X147043288Y-65930331D01*
X147022246Y-65879531D01*
X146919922Y-65726392D01*
X146789688Y-65596158D01*
X146636549Y-65493834D01*
X146466389Y-65423352D01*
X146285749Y-65387420D01*
X146101571Y-65387420D01*
X145920931Y-65423352D01*
X145750771Y-65493834D01*
X145597632Y-65596158D01*
X145538938Y-65654852D01*
X145519922Y-65626392D01*
X145389688Y-65496158D01*
X145236549Y-65393834D01*
X145066389Y-65323352D01*
X144885749Y-65287420D01*
X144701571Y-65287420D01*
X144520931Y-65323352D01*
X144434380Y-65359202D01*
X144336549Y-65293834D01*
X144166389Y-65223352D01*
X143985749Y-65187420D01*
X143801571Y-65187420D01*
X143620931Y-65223352D01*
X143450771Y-65293834D01*
X143297632Y-65396158D01*
X143167398Y-65526392D01*
X143065074Y-65679531D01*
X142994592Y-65849691D01*
X142980549Y-65920288D01*
X142922246Y-65779531D01*
X142819922Y-65626392D01*
X142689688Y-65496158D01*
X142536549Y-65393834D01*
X142366389Y-65323352D01*
X142185749Y-65287420D01*
X142001571Y-65287420D01*
X141820931Y-65323352D01*
X141650771Y-65393834D01*
X141497632Y-65496158D01*
X141367398Y-65626392D01*
X141265074Y-65779531D01*
X141194592Y-65949691D01*
X141158660Y-66130331D01*
X135732250Y-66130331D01*
X135810865Y-66012676D01*
X135888886Y-65824318D01*
X135928660Y-65624359D01*
X135928660Y-65420481D01*
X135888886Y-65220522D01*
X135810865Y-65032164D01*
X135697597Y-64862646D01*
X135553434Y-64718483D01*
X135383916Y-64605215D01*
X135195558Y-64527194D01*
X134995599Y-64487420D01*
X134791721Y-64487420D01*
X134591762Y-64527194D01*
X134403404Y-64605215D01*
X134233886Y-64718483D01*
X134120660Y-64831709D01*
X134120660Y-63907248D01*
X134283916Y-63839625D01*
X134453434Y-63726357D01*
X134597597Y-63582194D01*
X134710865Y-63412676D01*
X134788886Y-63224318D01*
X134828660Y-63024359D01*
X134828660Y-62820481D01*
X134788886Y-62620522D01*
X134710865Y-62432164D01*
X134703059Y-62420481D01*
X137058660Y-62420481D01*
X137058660Y-62624359D01*
X137098434Y-62824318D01*
X137176455Y-63012676D01*
X137289723Y-63182194D01*
X137433886Y-63326357D01*
X137603404Y-63439625D01*
X137669313Y-63466926D01*
X137658660Y-63520481D01*
X137658660Y-63724359D01*
X137698434Y-63924318D01*
X137776455Y-64112676D01*
X137889723Y-64282194D01*
X138033886Y-64426357D01*
X138203404Y-64539625D01*
X138391762Y-64617646D01*
X138591721Y-64657420D01*
X138795599Y-64657420D01*
X138995558Y-64617646D01*
X139183916Y-64539625D01*
X139353434Y-64426357D01*
X139497597Y-64282194D01*
X139610865Y-64112676D01*
X139688886Y-63924318D01*
X139728660Y-63724359D01*
X139728660Y-63520481D01*
X139688886Y-63320522D01*
X139610865Y-63132164D01*
X139497597Y-62962646D01*
X139353434Y-62818483D01*
X139183916Y-62705215D01*
X139118007Y-62677914D01*
X139128660Y-62624359D01*
X139128660Y-62420481D01*
X139088886Y-62220522D01*
X139010865Y-62032164D01*
X138897597Y-61862646D01*
X138753434Y-61718483D01*
X138583916Y-61605215D01*
X138395558Y-61527194D01*
X138195599Y-61487420D01*
X137991721Y-61487420D01*
X137791762Y-61527194D01*
X137603404Y-61605215D01*
X137433886Y-61718483D01*
X137289723Y-61862646D01*
X137176455Y-62032164D01*
X137098434Y-62220522D01*
X137058660Y-62420481D01*
X134703059Y-62420481D01*
X134597597Y-62262646D01*
X134453434Y-62118483D01*
X134283916Y-62005215D01*
X134120660Y-61937592D01*
X134120660Y-60913131D01*
X134133886Y-60926357D01*
X134303404Y-61039625D01*
X134491762Y-61117646D01*
X134691721Y-61157420D01*
X134895599Y-61157420D01*
X135095558Y-61117646D01*
X135283916Y-61039625D01*
X135453434Y-60926357D01*
X135559310Y-60820481D01*
X143258660Y-60820481D01*
X143258660Y-61024359D01*
X143298434Y-61224318D01*
X143376455Y-61412676D01*
X143489723Y-61582194D01*
X143633886Y-61726357D01*
X143803404Y-61839625D01*
X143991762Y-61917646D01*
X144191721Y-61957420D01*
X144395599Y-61957420D01*
X144595558Y-61917646D01*
X144783916Y-61839625D01*
X144953434Y-61726357D01*
X145097597Y-61582194D01*
X145210865Y-61412676D01*
X145288886Y-61224318D01*
X145328660Y-61024359D01*
X145328660Y-60820481D01*
X145308769Y-60720481D01*
X147358660Y-60720481D01*
X147358660Y-60924359D01*
X147398434Y-61124318D01*
X147476455Y-61312676D01*
X147589723Y-61482194D01*
X147733886Y-61626357D01*
X147903404Y-61739625D01*
X148091762Y-61817646D01*
X148291721Y-61857420D01*
X148495599Y-61857420D01*
X148695558Y-61817646D01*
X148883916Y-61739625D01*
X149053434Y-61626357D01*
X149197597Y-61482194D01*
X149310865Y-61312676D01*
X149388886Y-61124318D01*
X149428660Y-60924359D01*
X149428660Y-60720481D01*
X149388886Y-60520522D01*
X149310865Y-60332164D01*
X149197597Y-60162646D01*
X149053434Y-60018483D01*
X148883916Y-59905215D01*
X148695558Y-59827194D01*
X148495599Y-59787420D01*
X148291721Y-59787420D01*
X148091762Y-59827194D01*
X147903404Y-59905215D01*
X147733886Y-60018483D01*
X147589723Y-60162646D01*
X147476455Y-60332164D01*
X147398434Y-60520522D01*
X147358660Y-60720481D01*
X145308769Y-60720481D01*
X145288886Y-60620522D01*
X145210865Y-60432164D01*
X145097597Y-60262646D01*
X144953434Y-60118483D01*
X144783916Y-60005215D01*
X144595558Y-59927194D01*
X144395599Y-59887420D01*
X144191721Y-59887420D01*
X143991762Y-59927194D01*
X143803404Y-60005215D01*
X143633886Y-60118483D01*
X143489723Y-60262646D01*
X143376455Y-60432164D01*
X143298434Y-60620522D01*
X143258660Y-60820481D01*
X135559310Y-60820481D01*
X135597597Y-60782194D01*
X135710865Y-60612676D01*
X135788886Y-60424318D01*
X135828660Y-60224359D01*
X135828660Y-60020481D01*
X135788886Y-59820522D01*
X135710865Y-59632164D01*
X135597597Y-59462646D01*
X135453434Y-59318483D01*
X135283916Y-59205215D01*
X135095558Y-59127194D01*
X134895599Y-59087420D01*
X134691721Y-59087420D01*
X134491762Y-59127194D01*
X134303404Y-59205215D01*
X134133886Y-59318483D01*
X134120660Y-59331709D01*
X134120660Y-59049420D01*
X149793660Y-59049420D01*
X149818436Y-59046980D01*
X149842261Y-59039753D01*
X149864217Y-59028017D01*
X149883463Y-59012223D01*
X149899257Y-58992977D01*
X149910993Y-58971021D01*
X149918220Y-58947196D01*
X149920660Y-58922420D01*
X149920660Y-58759992D01*
X150044520Y-58759992D01*
X150166278Y-58748000D01*
X150303404Y-58839625D01*
X150491762Y-58917646D01*
X150691721Y-58957420D01*
X150895599Y-58957420D01*
X151095558Y-58917646D01*
X151283916Y-58839625D01*
X151453434Y-58726357D01*
X151530371Y-58649420D01*
X157831743Y-58649420D01*
X157776455Y-58732164D01*
X157776455Y-58732164D01*
G37*
X157776455Y-58732164D02*
X157698434Y-58920522D01*
X157658660Y-59120481D01*
X157658660Y-59324359D01*
X157698434Y-59524318D01*
X157776455Y-59712676D01*
X157889723Y-59882194D01*
X158033886Y-60026357D01*
X158203404Y-60139625D01*
X158391762Y-60217646D01*
X158591721Y-60257420D01*
X158666660Y-60257420D01*
X158666660Y-60622420D01*
X158669100Y-60647196D01*
X158676327Y-60671021D01*
X158688063Y-60692977D01*
X158703857Y-60712223D01*
X158723103Y-60728017D01*
X158745059Y-60739753D01*
X158768884Y-60746980D01*
X158793660Y-60749420D01*
X161066660Y-60749420D01*
X161066660Y-61529766D01*
X160933886Y-61618483D01*
X160789723Y-61762646D01*
X160676455Y-61932164D01*
X160598434Y-62120522D01*
X160558660Y-62320481D01*
X160558660Y-62524359D01*
X160598434Y-62724318D01*
X160676455Y-62912676D01*
X160789723Y-63082194D01*
X160933886Y-63226357D01*
X161066660Y-63315074D01*
X161066660Y-76985709D01*
X160989723Y-77062646D01*
X160876455Y-77232164D01*
X160798434Y-77420522D01*
X160758660Y-77620481D01*
X160758660Y-77824359D01*
X160798434Y-78024318D01*
X160876455Y-78212676D01*
X160989723Y-78382194D01*
X161066660Y-78459131D01*
X161066660Y-84495420D01*
X156793660Y-84495420D01*
X156768884Y-84497860D01*
X156745059Y-84505087D01*
X156723103Y-84516823D01*
X156703857Y-84532617D01*
X156688063Y-84551863D01*
X156676327Y-84573819D01*
X156669100Y-84597644D01*
X156666660Y-84622420D01*
X156666660Y-111195420D01*
X151693660Y-111195420D01*
X151668884Y-111197860D01*
X151645059Y-111205087D01*
X151623103Y-111216823D01*
X151603857Y-111232617D01*
X151588063Y-111251863D01*
X151576327Y-111273819D01*
X151569100Y-111297644D01*
X151566660Y-111322420D01*
X151566660Y-113795420D01*
X147612487Y-113795420D01*
X147529482Y-113694278D01*
X147341429Y-113539947D01*
X147126881Y-113425269D01*
X146894082Y-113354650D01*
X146712645Y-113336780D01*
X146591315Y-113336780D01*
X146409878Y-113354650D01*
X146177079Y-113425269D01*
X145962531Y-113539947D01*
X145774478Y-113694278D01*
X145691473Y-113795420D01*
X142320660Y-113795420D01*
X142320660Y-112349389D01*
X142718518Y-112349389D01*
X142724503Y-112391942D01*
X142817584Y-112616687D01*
X142952722Y-112818954D01*
X143124724Y-112990971D01*
X143326980Y-113126126D01*
X143551717Y-113219226D01*
X143790299Y-113266693D01*
X143984980Y-113111774D01*
X143984980Y-112158780D01*
X144238980Y-112158780D01*
X144238980Y-113111774D01*
X144433661Y-113266693D01*
X144672243Y-113219226D01*
X144896980Y-113126126D01*
X145099236Y-112990971D01*
X145271238Y-112818954D01*
X145406376Y-112616687D01*
X145499457Y-112391942D01*
X145505442Y-112349389D01*
X145380711Y-112158780D01*
X144238980Y-112158780D01*
X143984980Y-112158780D01*
X142843249Y-112158780D01*
X142718518Y-112349389D01*
X142320660Y-112349389D01*
X142320660Y-112031780D01*
X147951005Y-112031780D01*
X147974850Y-112273882D01*
X148045469Y-112506681D01*
X148160147Y-112721229D01*
X148314478Y-112909282D01*
X148502531Y-113063613D01*
X148717079Y-113178291D01*
X148949878Y-113248910D01*
X149131315Y-113266780D01*
X149252645Y-113266780D01*
X149434082Y-113248910D01*
X149666881Y-113178291D01*
X149881429Y-113063613D01*
X150069482Y-112909282D01*
X150223813Y-112721229D01*
X150338491Y-112506681D01*
X150409110Y-112273882D01*
X150432955Y-112031780D01*
X150409110Y-111789678D01*
X150338491Y-111556879D01*
X150223813Y-111342331D01*
X150069482Y-111154278D01*
X149881429Y-110999947D01*
X149666881Y-110885269D01*
X149434082Y-110814650D01*
X149252645Y-110796780D01*
X149131315Y-110796780D01*
X148949878Y-110814650D01*
X148717079Y-110885269D01*
X148502531Y-110999947D01*
X148314478Y-111154278D01*
X148160147Y-111342331D01*
X148045469Y-111556879D01*
X147974850Y-111789678D01*
X147951005Y-112031780D01*
X142320660Y-112031780D01*
X142320660Y-111714171D01*
X142718518Y-111714171D01*
X142843249Y-111904780D01*
X143984980Y-111904780D01*
X143984980Y-110951786D01*
X144238980Y-110951786D01*
X144238980Y-111904780D01*
X145380711Y-111904780D01*
X145505442Y-111714171D01*
X145499457Y-111671618D01*
X145406376Y-111446873D01*
X145271238Y-111244606D01*
X145099236Y-111072589D01*
X144896980Y-110937434D01*
X144672243Y-110844334D01*
X144433661Y-110796867D01*
X144238980Y-110951786D01*
X143984980Y-110951786D01*
X143790299Y-110796867D01*
X143551717Y-110844334D01*
X143326980Y-110937434D01*
X143124724Y-111072589D01*
X142952722Y-111244606D01*
X142817584Y-111446873D01*
X142724503Y-111671618D01*
X142718518Y-111714171D01*
X142320660Y-111714171D01*
X142320660Y-111222420D01*
X142318220Y-111197644D01*
X142310993Y-111173819D01*
X142299257Y-111151863D01*
X142283463Y-111132617D01*
X142264217Y-111116823D01*
X142242261Y-111105087D01*
X142218436Y-111097860D01*
X142193660Y-111095420D01*
X134120660Y-111095420D01*
X134120660Y-108030331D01*
X137158660Y-108030331D01*
X137158660Y-108214509D01*
X137194592Y-108395149D01*
X137265074Y-108565309D01*
X137367398Y-108718448D01*
X137497632Y-108848682D01*
X137650771Y-108951006D01*
X137820931Y-109021488D01*
X138001571Y-109057420D01*
X138185749Y-109057420D01*
X138366389Y-109021488D01*
X138536549Y-108951006D01*
X138689688Y-108848682D01*
X138819922Y-108718448D01*
X138922246Y-108565309D01*
X138992728Y-108395149D01*
X139028660Y-108214509D01*
X139028660Y-108030331D01*
X138992728Y-107849691D01*
X138922246Y-107679531D01*
X138819922Y-107526392D01*
X138689688Y-107396158D01*
X138536549Y-107293834D01*
X138366389Y-107223352D01*
X138185749Y-107187420D01*
X138001571Y-107187420D01*
X137820931Y-107223352D01*
X137650771Y-107293834D01*
X137497632Y-107396158D01*
X137367398Y-107526392D01*
X137265074Y-107679531D01*
X137194592Y-107849691D01*
X137158660Y-108030331D01*
X134120660Y-108030331D01*
X134120660Y-103530331D01*
X136658660Y-103530331D01*
X136658660Y-103714509D01*
X136694592Y-103895149D01*
X136765074Y-104065309D01*
X136867398Y-104218448D01*
X136997632Y-104348682D01*
X137150771Y-104451006D01*
X137320931Y-104521488D01*
X137501571Y-104557420D01*
X137685749Y-104557420D01*
X137821932Y-104530331D01*
X139258660Y-104530331D01*
X139258660Y-104714509D01*
X139294592Y-104895149D01*
X139365074Y-105065309D01*
X139467398Y-105218448D01*
X139597632Y-105348682D01*
X139750771Y-105451006D01*
X139920931Y-105521488D01*
X140101571Y-105557420D01*
X140285749Y-105557420D01*
X140466389Y-105521488D01*
X140636549Y-105451006D01*
X140789688Y-105348682D01*
X140919922Y-105218448D01*
X141022246Y-105065309D01*
X141092728Y-104895149D01*
X141128660Y-104714509D01*
X141128660Y-104530331D01*
X141092728Y-104349691D01*
X141022246Y-104179531D01*
X140919922Y-104026392D01*
X140789688Y-103896158D01*
X140636549Y-103793834D01*
X140466389Y-103723352D01*
X140285749Y-103687420D01*
X140101571Y-103687420D01*
X139920931Y-103723352D01*
X139750771Y-103793834D01*
X139597632Y-103896158D01*
X139467398Y-104026392D01*
X139365074Y-104179531D01*
X139294592Y-104349691D01*
X139258660Y-104530331D01*
X137821932Y-104530331D01*
X137866389Y-104521488D01*
X138036549Y-104451006D01*
X138189688Y-104348682D01*
X138319922Y-104218448D01*
X138422246Y-104065309D01*
X138492728Y-103895149D01*
X138528660Y-103714509D01*
X138528660Y-103530331D01*
X138492728Y-103349691D01*
X138422246Y-103179531D01*
X138319922Y-103026392D01*
X138189688Y-102896158D01*
X138036549Y-102793834D01*
X137866389Y-102723352D01*
X137685749Y-102687420D01*
X137501571Y-102687420D01*
X137320931Y-102723352D01*
X137150771Y-102793834D01*
X136997632Y-102896158D01*
X136867398Y-103026392D01*
X136765074Y-103179531D01*
X136694592Y-103349691D01*
X136658660Y-103530331D01*
X134120660Y-103530331D01*
X134120660Y-95918720D01*
X143956088Y-95918720D01*
X143956088Y-97918720D01*
X143968348Y-98043202D01*
X144004658Y-98162900D01*
X144063623Y-98273214D01*
X144142975Y-98369905D01*
X144239666Y-98449257D01*
X144349980Y-98508222D01*
X144469678Y-98544532D01*
X144594160Y-98556792D01*
X147794160Y-98556792D01*
X147918642Y-98544532D01*
X148038340Y-98508222D01*
X148148654Y-98449257D01*
X148245345Y-98369905D01*
X148324697Y-98273214D01*
X148383662Y-98162900D01*
X148419972Y-98043202D01*
X148432232Y-97918720D01*
X148432232Y-95918720D01*
X148419972Y-95794238D01*
X148383662Y-95674540D01*
X148324697Y-95564226D01*
X148245345Y-95467535D01*
X148148654Y-95388183D01*
X148038340Y-95329218D01*
X147918642Y-95292908D01*
X147794160Y-95280648D01*
X144594160Y-95280648D01*
X144469678Y-95292908D01*
X144349980Y-95329218D01*
X144239666Y-95388183D01*
X144142975Y-95467535D01*
X144063623Y-95564226D01*
X144004658Y-95674540D01*
X143968348Y-95794238D01*
X143956088Y-95918720D01*
X134120660Y-95918720D01*
X134120660Y-87818720D01*
X137056088Y-87818720D01*
X137056088Y-89818720D01*
X137068348Y-89943202D01*
X137104658Y-90062900D01*
X137163623Y-90173214D01*
X137242975Y-90269905D01*
X137339666Y-90349257D01*
X137366097Y-90363385D01*
X137245242Y-90544257D01*
X137121992Y-90841808D01*
X137059160Y-91157687D01*
X137059160Y-91479753D01*
X137121992Y-91795632D01*
X137245242Y-92093183D01*
X137424173Y-92360972D01*
X137631921Y-92568720D01*
X137424173Y-92776468D01*
X137245242Y-93044257D01*
X137121992Y-93341808D01*
X137059160Y-93657687D01*
X137059160Y-93979753D01*
X137121992Y-94295632D01*
X137245242Y-94593183D01*
X137424173Y-94860972D01*
X137651908Y-95088707D01*
X137919697Y-95267638D01*
X138217248Y-95390888D01*
X138533127Y-95453720D01*
X138855193Y-95453720D01*
X139171072Y-95390888D01*
X139468623Y-95267638D01*
X139736412Y-95088707D01*
X139964147Y-94860972D01*
X140143078Y-94593183D01*
X140266328Y-94295632D01*
X140329160Y-93979753D01*
X140329160Y-93657687D01*
X151559160Y-93657687D01*
X151559160Y-93979753D01*
X151621992Y-94295632D01*
X151745242Y-94593183D01*
X151924173Y-94860972D01*
X152151908Y-95088707D01*
X152419697Y-95267638D01*
X152717248Y-95390888D01*
X153033127Y-95453720D01*
X153355193Y-95453720D01*
X153671072Y-95390888D01*
X153968623Y-95267638D01*
X154236412Y-95088707D01*
X154464147Y-94860972D01*
X154643078Y-94593183D01*
X154766328Y-94295632D01*
X154829160Y-93979753D01*
X154829160Y-93657687D01*
X154766328Y-93341808D01*
X154643078Y-93044257D01*
X154464147Y-92776468D01*
X154236412Y-92548733D01*
X153968623Y-92369802D01*
X153671072Y-92246552D01*
X153355193Y-92183720D01*
X153033127Y-92183720D01*
X152717248Y-92246552D01*
X152419697Y-92369802D01*
X152151908Y-92548733D01*
X151924173Y-92776468D01*
X151745242Y-93044257D01*
X151621992Y-93341808D01*
X151559160Y-93657687D01*
X140329160Y-93657687D01*
X140266328Y-93341808D01*
X140143078Y-93044257D01*
X139964147Y-92776468D01*
X139756399Y-92568720D01*
X139964147Y-92360972D01*
X140143078Y-92093183D01*
X140266328Y-91795632D01*
X140329160Y-91479753D01*
X140329160Y-91157687D01*
X140266328Y-90841808D01*
X140143078Y-90544257D01*
X140022223Y-90363385D01*
X140048654Y-90349257D01*
X140145345Y-90269905D01*
X140224697Y-90173214D01*
X140283662Y-90062900D01*
X140319972Y-89943202D01*
X140332232Y-89818720D01*
X140332232Y-88657687D01*
X151559160Y-88657687D01*
X151559160Y-88979753D01*
X151621992Y-89295632D01*
X151745242Y-89593183D01*
X151924173Y-89860972D01*
X152151908Y-90088707D01*
X152419697Y-90267638D01*
X152717248Y-90390888D01*
X153033127Y-90453720D01*
X153355193Y-90453720D01*
X153671072Y-90390888D01*
X153968623Y-90267638D01*
X154236412Y-90088707D01*
X154464147Y-89860972D01*
X154643078Y-89593183D01*
X154766328Y-89295632D01*
X154829160Y-88979753D01*
X154829160Y-88657687D01*
X154766328Y-88341808D01*
X154643078Y-88044257D01*
X154464147Y-87776468D01*
X154236412Y-87548733D01*
X153968623Y-87369802D01*
X153671072Y-87246552D01*
X153355193Y-87183720D01*
X153033127Y-87183720D01*
X152717248Y-87246552D01*
X152419697Y-87369802D01*
X152151908Y-87548733D01*
X151924173Y-87776468D01*
X151745242Y-88044257D01*
X151621992Y-88341808D01*
X151559160Y-88657687D01*
X140332232Y-88657687D01*
X140332232Y-87818720D01*
X140319972Y-87694238D01*
X140283662Y-87574540D01*
X140224697Y-87464226D01*
X140145345Y-87367535D01*
X140048654Y-87288183D01*
X139938340Y-87229218D01*
X139818642Y-87192908D01*
X139694160Y-87180648D01*
X137694160Y-87180648D01*
X137569678Y-87192908D01*
X137449980Y-87229218D01*
X137339666Y-87288183D01*
X137242975Y-87367535D01*
X137163623Y-87464226D01*
X137104658Y-87574540D01*
X137068348Y-87694238D01*
X137056088Y-87818720D01*
X134120660Y-87818720D01*
X134120660Y-84718720D01*
X143956088Y-84718720D01*
X143956088Y-86718720D01*
X143968348Y-86843202D01*
X144004658Y-86962900D01*
X144063623Y-87073214D01*
X144142975Y-87169905D01*
X144239666Y-87249257D01*
X144349980Y-87308222D01*
X144469678Y-87344532D01*
X144594160Y-87356792D01*
X147794160Y-87356792D01*
X147918642Y-87344532D01*
X148038340Y-87308222D01*
X148148654Y-87249257D01*
X148245345Y-87169905D01*
X148324697Y-87073214D01*
X148383662Y-86962900D01*
X148419972Y-86843202D01*
X148432232Y-86718720D01*
X148432232Y-86420481D01*
X153958660Y-86420481D01*
X153958660Y-86624359D01*
X153998434Y-86824318D01*
X154076455Y-87012676D01*
X154189723Y-87182194D01*
X154333886Y-87326357D01*
X154503404Y-87439625D01*
X154691762Y-87517646D01*
X154891721Y-87557420D01*
X155095599Y-87557420D01*
X155295558Y-87517646D01*
X155483916Y-87439625D01*
X155653434Y-87326357D01*
X155797597Y-87182194D01*
X155910865Y-87012676D01*
X155988886Y-86824318D01*
X156028660Y-86624359D01*
X156028660Y-86420481D01*
X155988886Y-86220522D01*
X155910865Y-86032164D01*
X155797597Y-85862646D01*
X155653434Y-85718483D01*
X155483916Y-85605215D01*
X155295558Y-85527194D01*
X155095599Y-85487420D01*
X154891721Y-85487420D01*
X154691762Y-85527194D01*
X154503404Y-85605215D01*
X154333886Y-85718483D01*
X154189723Y-85862646D01*
X154076455Y-86032164D01*
X153998434Y-86220522D01*
X153958660Y-86420481D01*
X148432232Y-86420481D01*
X148432232Y-84718720D01*
X148419972Y-84594238D01*
X148383662Y-84474540D01*
X148324697Y-84364226D01*
X148245345Y-84267535D01*
X148188010Y-84220481D01*
X152858660Y-84220481D01*
X152858660Y-84424359D01*
X152898434Y-84624318D01*
X152976455Y-84812676D01*
X153089723Y-84982194D01*
X153233886Y-85126357D01*
X153403404Y-85239625D01*
X153591762Y-85317646D01*
X153791721Y-85357420D01*
X153995599Y-85357420D01*
X154195558Y-85317646D01*
X154383916Y-85239625D01*
X154553434Y-85126357D01*
X154697597Y-84982194D01*
X154810865Y-84812676D01*
X154888886Y-84624318D01*
X154928660Y-84424359D01*
X154928660Y-84220481D01*
X154888886Y-84020522D01*
X154810865Y-83832164D01*
X154697597Y-83662646D01*
X154553434Y-83518483D01*
X154421505Y-83430331D01*
X154958660Y-83430331D01*
X154958660Y-83614509D01*
X154994592Y-83795149D01*
X155065074Y-83965309D01*
X155167398Y-84118448D01*
X155297632Y-84248682D01*
X155450771Y-84351006D01*
X155620931Y-84421488D01*
X155801571Y-84457420D01*
X155985749Y-84457420D01*
X156166389Y-84421488D01*
X156336549Y-84351006D01*
X156489688Y-84248682D01*
X156619922Y-84118448D01*
X156722246Y-83965309D01*
X156792728Y-83795149D01*
X156828660Y-83614509D01*
X156828660Y-83430331D01*
X156792728Y-83249691D01*
X156722246Y-83079531D01*
X156619922Y-82926392D01*
X156489688Y-82796158D01*
X156336549Y-82693834D01*
X156166389Y-82623352D01*
X155985749Y-82587420D01*
X155801571Y-82587420D01*
X155620931Y-82623352D01*
X155450771Y-82693834D01*
X155297632Y-82796158D01*
X155167398Y-82926392D01*
X155065074Y-83079531D01*
X154994592Y-83249691D01*
X154958660Y-83430331D01*
X154421505Y-83430331D01*
X154383916Y-83405215D01*
X154195558Y-83327194D01*
X153995599Y-83287420D01*
X153791721Y-83287420D01*
X153591762Y-83327194D01*
X153403404Y-83405215D01*
X153233886Y-83518483D01*
X153089723Y-83662646D01*
X152976455Y-83832164D01*
X152898434Y-84020522D01*
X152858660Y-84220481D01*
X148188010Y-84220481D01*
X148148654Y-84188183D01*
X148038340Y-84129218D01*
X147918642Y-84092908D01*
X147794160Y-84080648D01*
X144594160Y-84080648D01*
X144469678Y-84092908D01*
X144349980Y-84129218D01*
X144239666Y-84188183D01*
X144142975Y-84267535D01*
X144063623Y-84364226D01*
X144004658Y-84474540D01*
X143968348Y-84594238D01*
X143956088Y-84718720D01*
X134120660Y-84718720D01*
X134120660Y-83520481D01*
X138758660Y-83520481D01*
X138758660Y-83724359D01*
X138798434Y-83924318D01*
X138876455Y-84112676D01*
X138989723Y-84282194D01*
X139133886Y-84426357D01*
X139303404Y-84539625D01*
X139491762Y-84617646D01*
X139691721Y-84657420D01*
X139895599Y-84657420D01*
X140095558Y-84617646D01*
X140283916Y-84539625D01*
X140453434Y-84426357D01*
X140597597Y-84282194D01*
X140710865Y-84112676D01*
X140788886Y-83924318D01*
X140828660Y-83724359D01*
X140828660Y-83520481D01*
X140788886Y-83320522D01*
X140710865Y-83132164D01*
X140597597Y-82962646D01*
X140453434Y-82818483D01*
X140283916Y-82705215D01*
X140095558Y-82627194D01*
X139895599Y-82587420D01*
X139691721Y-82587420D01*
X139491762Y-82627194D01*
X139303404Y-82705215D01*
X139133886Y-82818483D01*
X138989723Y-82962646D01*
X138876455Y-83132164D01*
X138798434Y-83320522D01*
X138758660Y-83520481D01*
X134120660Y-83520481D01*
X134120660Y-81720481D01*
X137458660Y-81720481D01*
X137458660Y-81924359D01*
X137498434Y-82124318D01*
X137576455Y-82312676D01*
X137689723Y-82482194D01*
X137833886Y-82626357D01*
X138003404Y-82739625D01*
X138191762Y-82817646D01*
X138391721Y-82857420D01*
X138595599Y-82857420D01*
X138795558Y-82817646D01*
X138983916Y-82739625D01*
X139153434Y-82626357D01*
X139297597Y-82482194D01*
X139410865Y-82312676D01*
X139488886Y-82124318D01*
X139528660Y-81924359D01*
X139528660Y-81720481D01*
X139488886Y-81520522D01*
X139410865Y-81332164D01*
X139297597Y-81162646D01*
X139153434Y-81018483D01*
X138983916Y-80905215D01*
X138795558Y-80827194D01*
X138595599Y-80787420D01*
X138391721Y-80787420D01*
X138191762Y-80827194D01*
X138003404Y-80905215D01*
X137833886Y-81018483D01*
X137689723Y-81162646D01*
X137576455Y-81332164D01*
X137498434Y-81520522D01*
X137458660Y-81720481D01*
X134120660Y-81720481D01*
X134120660Y-80020481D01*
X138758660Y-80020481D01*
X138758660Y-80224359D01*
X138798434Y-80424318D01*
X138876455Y-80612676D01*
X138989723Y-80782194D01*
X139133886Y-80926357D01*
X139303404Y-81039625D01*
X139491762Y-81117646D01*
X139691721Y-81157420D01*
X139895599Y-81157420D01*
X140095558Y-81117646D01*
X140283916Y-81039625D01*
X140453434Y-80926357D01*
X140597597Y-80782194D01*
X140628417Y-80736069D01*
X140650771Y-80751006D01*
X140820931Y-80821488D01*
X141001571Y-80857420D01*
X141185749Y-80857420D01*
X141366389Y-80821488D01*
X141536549Y-80751006D01*
X141689688Y-80648682D01*
X141748382Y-80589988D01*
X141767398Y-80618448D01*
X141897632Y-80748682D01*
X142050771Y-80851006D01*
X142220931Y-80921488D01*
X142401571Y-80957420D01*
X142585749Y-80957420D01*
X142766389Y-80921488D01*
X142936549Y-80851006D01*
X143089688Y-80748682D01*
X143219922Y-80618448D01*
X143322246Y-80465309D01*
X143392728Y-80295149D01*
X143428660Y-80114509D01*
X143428660Y-79930331D01*
X147858660Y-79930331D01*
X147858660Y-80114509D01*
X147894592Y-80295149D01*
X147965074Y-80465309D01*
X148067398Y-80618448D01*
X148197632Y-80748682D01*
X148350771Y-80851006D01*
X148520931Y-80921488D01*
X148701571Y-80957420D01*
X148885749Y-80957420D01*
X149066389Y-80921488D01*
X149236549Y-80851006D01*
X149389688Y-80748682D01*
X149519922Y-80618448D01*
X149622246Y-80465309D01*
X149692728Y-80295149D01*
X149728660Y-80114509D01*
X149728660Y-79930331D01*
X149692728Y-79749691D01*
X149622246Y-79579531D01*
X149519922Y-79426392D01*
X149389688Y-79296158D01*
X149236549Y-79193834D01*
X149066389Y-79123352D01*
X148885749Y-79087420D01*
X148701571Y-79087420D01*
X148520931Y-79123352D01*
X148350771Y-79193834D01*
X148197632Y-79296158D01*
X148067398Y-79426392D01*
X147965074Y-79579531D01*
X147894592Y-79749691D01*
X147858660Y-79930331D01*
X143428660Y-79930331D01*
X143392728Y-79749691D01*
X143322246Y-79579531D01*
X143219922Y-79426392D01*
X143089688Y-79296158D01*
X142936549Y-79193834D01*
X142766389Y-79123352D01*
X142585749Y-79087420D01*
X142401571Y-79087420D01*
X142220931Y-79123352D01*
X142050771Y-79193834D01*
X141897632Y-79296158D01*
X141838938Y-79354852D01*
X141819922Y-79326392D01*
X141689688Y-79196158D01*
X141536549Y-79093834D01*
X141366389Y-79023352D01*
X141185749Y-78987420D01*
X141001571Y-78987420D01*
X140820931Y-79023352D01*
X140650771Y-79093834D01*
X140497632Y-79196158D01*
X140406600Y-79287190D01*
X140283916Y-79205215D01*
X140095558Y-79127194D01*
X139895599Y-79087420D01*
X139691721Y-79087420D01*
X139491762Y-79127194D01*
X139303404Y-79205215D01*
X139133886Y-79318483D01*
X138989723Y-79462646D01*
X138876455Y-79632164D01*
X138798434Y-79820522D01*
X138758660Y-80020481D01*
X134120660Y-80020481D01*
X134120660Y-75325282D01*
X144014909Y-75325282D01*
X144014909Y-75509460D01*
X144050841Y-75690100D01*
X144121323Y-75860260D01*
X144223647Y-76013399D01*
X144353881Y-76143633D01*
X144507020Y-76245957D01*
X144677180Y-76316439D01*
X144857820Y-76352371D01*
X145041998Y-76352371D01*
X145222638Y-76316439D01*
X145392798Y-76245957D01*
X145545937Y-76143633D01*
X145676171Y-76013399D01*
X145778495Y-75860260D01*
X145848977Y-75690100D01*
X145863019Y-75619505D01*
X145973321Y-75619505D01*
X146153961Y-75583573D01*
X146324121Y-75513091D01*
X146477260Y-75410767D01*
X146490738Y-75397289D01*
X146958660Y-75397289D01*
X146958660Y-75581467D01*
X146994592Y-75762107D01*
X147065074Y-75932267D01*
X147167398Y-76085406D01*
X147297632Y-76215640D01*
X147450771Y-76317964D01*
X147620931Y-76388446D01*
X147801571Y-76424378D01*
X147985749Y-76424378D01*
X148166389Y-76388446D01*
X148306692Y-76330331D01*
X149076402Y-76330331D01*
X149076402Y-76514509D01*
X149112334Y-76695149D01*
X149182816Y-76865309D01*
X149285140Y-77018448D01*
X149415374Y-77148682D01*
X149568513Y-77251006D01*
X149738673Y-77321488D01*
X149919313Y-77357420D01*
X150103491Y-77357420D01*
X150284131Y-77321488D01*
X150454291Y-77251006D01*
X150607430Y-77148682D01*
X150737664Y-77018448D01*
X150839988Y-76865309D01*
X150910470Y-76695149D01*
X150946402Y-76514509D01*
X150946402Y-76330331D01*
X150910470Y-76149691D01*
X150839988Y-75979531D01*
X150800533Y-75920481D01*
X154558660Y-75920481D01*
X154558660Y-76124359D01*
X154598434Y-76324318D01*
X154676455Y-76512676D01*
X154789723Y-76682194D01*
X154933886Y-76826357D01*
X155103404Y-76939625D01*
X155291762Y-77017646D01*
X155491721Y-77057420D01*
X155695599Y-77057420D01*
X155895558Y-77017646D01*
X156083916Y-76939625D01*
X156253434Y-76826357D01*
X156397597Y-76682194D01*
X156510865Y-76512676D01*
X156588886Y-76324318D01*
X156628660Y-76124359D01*
X156628660Y-75920481D01*
X156588886Y-75720522D01*
X156510865Y-75532164D01*
X156397597Y-75362646D01*
X156253434Y-75218483D01*
X156083916Y-75105215D01*
X155895558Y-75027194D01*
X155695599Y-74987420D01*
X155491721Y-74987420D01*
X155291762Y-75027194D01*
X155103404Y-75105215D01*
X154933886Y-75218483D01*
X154789723Y-75362646D01*
X154676455Y-75532164D01*
X154598434Y-75720522D01*
X154558660Y-75920481D01*
X150800533Y-75920481D01*
X150737664Y-75826392D01*
X150607430Y-75696158D01*
X150454291Y-75593834D01*
X150284131Y-75523352D01*
X150103491Y-75487420D01*
X149919313Y-75487420D01*
X149738673Y-75523352D01*
X149568513Y-75593834D01*
X149415374Y-75696158D01*
X149285140Y-75826392D01*
X149182816Y-75979531D01*
X149112334Y-76149691D01*
X149076402Y-76330331D01*
X148306692Y-76330331D01*
X148336549Y-76317964D01*
X148489688Y-76215640D01*
X148619922Y-76085406D01*
X148722246Y-75932267D01*
X148792728Y-75762107D01*
X148828660Y-75581467D01*
X148828660Y-75397289D01*
X148792728Y-75216649D01*
X148722246Y-75046489D01*
X148619922Y-74893350D01*
X148489688Y-74763116D01*
X148336549Y-74660792D01*
X148166389Y-74590310D01*
X147985749Y-74554378D01*
X147801571Y-74554378D01*
X147620931Y-74590310D01*
X147450771Y-74660792D01*
X147297632Y-74763116D01*
X147167398Y-74893350D01*
X147065074Y-75046489D01*
X146994592Y-75216649D01*
X146958660Y-75397289D01*
X146490738Y-75397289D01*
X146607494Y-75280533D01*
X146709818Y-75127394D01*
X146780300Y-74957234D01*
X146816232Y-74776594D01*
X146816232Y-74592416D01*
X146780300Y-74411776D01*
X146709818Y-74241616D01*
X146607494Y-74088477D01*
X146529649Y-74010632D01*
X150358660Y-74010632D01*
X150358660Y-74234208D01*
X150402277Y-74453487D01*
X150487836Y-74660044D01*
X150612048Y-74845940D01*
X150770140Y-75004032D01*
X150956036Y-75128244D01*
X151162593Y-75213803D01*
X151381872Y-75257420D01*
X151605448Y-75257420D01*
X151824727Y-75213803D01*
X152031284Y-75128244D01*
X152217180Y-75004032D01*
X152375272Y-74845940D01*
X152499484Y-74660044D01*
X152585043Y-74453487D01*
X152628660Y-74234208D01*
X152628660Y-74010632D01*
X152585043Y-73791353D01*
X152499484Y-73584796D01*
X152375272Y-73398900D01*
X152217180Y-73240808D01*
X152031284Y-73116596D01*
X151824727Y-73031037D01*
X151605448Y-72987420D01*
X151381872Y-72987420D01*
X151162593Y-73031037D01*
X150956036Y-73116596D01*
X150770140Y-73240808D01*
X150612048Y-73398900D01*
X150487836Y-73584796D01*
X150402277Y-73791353D01*
X150358660Y-74010632D01*
X146529649Y-74010632D01*
X146477260Y-73958243D01*
X146324121Y-73855919D01*
X146153961Y-73785437D01*
X145973321Y-73749505D01*
X145789143Y-73749505D01*
X145608503Y-73785437D01*
X145438343Y-73855919D01*
X145285204Y-73958243D01*
X145154970Y-74088477D01*
X145052646Y-74241616D01*
X144982164Y-74411776D01*
X144968122Y-74482371D01*
X144857820Y-74482371D01*
X144677180Y-74518303D01*
X144507020Y-74588785D01*
X144353881Y-74691109D01*
X144223647Y-74821343D01*
X144121323Y-74974482D01*
X144050841Y-75144642D01*
X144014909Y-75325282D01*
X134120660Y-75325282D01*
X134120660Y-71809687D01*
X145033681Y-71809687D01*
X145033681Y-71993865D01*
X145069613Y-72174505D01*
X145140095Y-72344665D01*
X145242419Y-72497804D01*
X145372653Y-72628038D01*
X145525792Y-72730362D01*
X145695952Y-72800844D01*
X145876592Y-72836776D01*
X146060770Y-72836776D01*
X146241410Y-72800844D01*
X146411570Y-72730362D01*
X146564709Y-72628038D01*
X146694943Y-72497804D01*
X146797267Y-72344665D01*
X146867749Y-72174505D01*
X146878495Y-72120481D01*
X154633650Y-72120481D01*
X154633650Y-72324359D01*
X154673424Y-72524318D01*
X154751445Y-72712676D01*
X154864713Y-72882194D01*
X155008876Y-73026357D01*
X155178394Y-73139625D01*
X155366752Y-73217646D01*
X155566711Y-73257420D01*
X155770589Y-73257420D01*
X155970548Y-73217646D01*
X156158906Y-73139625D01*
X156328424Y-73026357D01*
X156472587Y-72882194D01*
X156585855Y-72712676D01*
X156663876Y-72524318D01*
X156703650Y-72324359D01*
X156703650Y-72120481D01*
X156663876Y-71920522D01*
X156585855Y-71732164D01*
X156472587Y-71562646D01*
X156328424Y-71418483D01*
X156158906Y-71305215D01*
X155970548Y-71227194D01*
X155770589Y-71187420D01*
X155566711Y-71187420D01*
X155366752Y-71227194D01*
X155178394Y-71305215D01*
X155008876Y-71418483D01*
X154864713Y-71562646D01*
X154751445Y-71732164D01*
X154673424Y-71920522D01*
X154633650Y-72120481D01*
X146878495Y-72120481D01*
X146903681Y-71993865D01*
X146903681Y-71809687D01*
X146867749Y-71629047D01*
X146797267Y-71458887D01*
X146694943Y-71305748D01*
X146564709Y-71175514D01*
X146411570Y-71073190D01*
X146241410Y-71002708D01*
X146060770Y-70966776D01*
X145876592Y-70966776D01*
X145695952Y-71002708D01*
X145525792Y-71073190D01*
X145372653Y-71175514D01*
X145242419Y-71305748D01*
X145140095Y-71458887D01*
X145069613Y-71629047D01*
X145033681Y-71809687D01*
X134120660Y-71809687D01*
X134120660Y-66213131D01*
X134233886Y-66326357D01*
X134403404Y-66439625D01*
X134591762Y-66517646D01*
X134791721Y-66557420D01*
X134995599Y-66557420D01*
X135195558Y-66517646D01*
X135383916Y-66439625D01*
X135553434Y-66326357D01*
X135697597Y-66182194D01*
X135732250Y-66130331D01*
X141158660Y-66130331D01*
X141158660Y-66314509D01*
X141194592Y-66495149D01*
X141265074Y-66665309D01*
X141367398Y-66818448D01*
X141497632Y-66948682D01*
X141650771Y-67051006D01*
X141820931Y-67121488D01*
X142001571Y-67157420D01*
X142185749Y-67157420D01*
X142366389Y-67121488D01*
X142536549Y-67051006D01*
X142689688Y-66948682D01*
X142819922Y-66818448D01*
X142922246Y-66665309D01*
X142992728Y-66495149D01*
X143006771Y-66424552D01*
X143065074Y-66565309D01*
X143167398Y-66718448D01*
X143297632Y-66848682D01*
X143450771Y-66951006D01*
X143620931Y-67021488D01*
X143801571Y-67057420D01*
X143985749Y-67057420D01*
X144166389Y-67021488D01*
X144252940Y-66985638D01*
X144350771Y-67051006D01*
X144520931Y-67121488D01*
X144683650Y-67153855D01*
X144683650Y-67314509D01*
X144708474Y-67439304D01*
X144656222Y-67517504D01*
X144585740Y-67687664D01*
X144549808Y-67868304D01*
X144549808Y-68052482D01*
X144585740Y-68233122D01*
X144656222Y-68403282D01*
X144675872Y-68432691D01*
X144544177Y-68487240D01*
X144391038Y-68589564D01*
X144260804Y-68719798D01*
X144158480Y-68872937D01*
X144087998Y-69043097D01*
X144052066Y-69223737D01*
X144052066Y-69407915D01*
X144087998Y-69588555D01*
X144158480Y-69758715D01*
X144260804Y-69911854D01*
X144391038Y-70042088D01*
X144544177Y-70144412D01*
X144714337Y-70214894D01*
X144894977Y-70250826D01*
X145079155Y-70250826D01*
X145259795Y-70214894D01*
X145429955Y-70144412D01*
X145583094Y-70042088D01*
X145713328Y-69911854D01*
X145815652Y-69758715D01*
X145886134Y-69588555D01*
X145916548Y-69435653D01*
X146658660Y-69435653D01*
X146658660Y-69659229D01*
X146702277Y-69878508D01*
X146787836Y-70085065D01*
X146912048Y-70270961D01*
X147070140Y-70429053D01*
X147256036Y-70553265D01*
X147462593Y-70638824D01*
X147681872Y-70682441D01*
X147905448Y-70682441D01*
X148124727Y-70638824D01*
X148331284Y-70553265D01*
X148517180Y-70429053D01*
X148675272Y-70270961D01*
X148799484Y-70085065D01*
X148885043Y-69878508D01*
X148928660Y-69659229D01*
X148928660Y-69435653D01*
X148885043Y-69216374D01*
X148799484Y-69009817D01*
X148675272Y-68823921D01*
X148517180Y-68665829D01*
X148331284Y-68541617D01*
X148124727Y-68456058D01*
X147905448Y-68412441D01*
X147681872Y-68412441D01*
X147462593Y-68456058D01*
X147256036Y-68541617D01*
X147070140Y-68665829D01*
X146912048Y-68823921D01*
X146787836Y-69009817D01*
X146702277Y-69216374D01*
X146658660Y-69435653D01*
X145916548Y-69435653D01*
X145922066Y-69407915D01*
X145922066Y-69223737D01*
X145886134Y-69043097D01*
X145815652Y-68872937D01*
X145796002Y-68843528D01*
X145927697Y-68788979D01*
X146080836Y-68686655D01*
X146211070Y-68556421D01*
X146313394Y-68403282D01*
X146383876Y-68233122D01*
X146419808Y-68052482D01*
X146419808Y-67868304D01*
X146412255Y-67830331D01*
X152758660Y-67830331D01*
X152758660Y-68014509D01*
X152794592Y-68195149D01*
X152865074Y-68365309D01*
X152967398Y-68518448D01*
X153097632Y-68648682D01*
X153250771Y-68751006D01*
X153420931Y-68821488D01*
X153601571Y-68857420D01*
X153785749Y-68857420D01*
X153876764Y-68839316D01*
X153858660Y-68930331D01*
X153858660Y-69114509D01*
X153894592Y-69295149D01*
X153965074Y-69465309D01*
X154067398Y-69618448D01*
X154197632Y-69748682D01*
X154350771Y-69851006D01*
X154520931Y-69921488D01*
X154701571Y-69957420D01*
X154885749Y-69957420D01*
X155066389Y-69921488D01*
X155236549Y-69851006D01*
X155389688Y-69748682D01*
X155519922Y-69618448D01*
X155622246Y-69465309D01*
X155692728Y-69295149D01*
X155717842Y-69168892D01*
X155797632Y-69248682D01*
X155950771Y-69351006D01*
X156120931Y-69421488D01*
X156301571Y-69457420D01*
X156485749Y-69457420D01*
X156666389Y-69421488D01*
X156836549Y-69351006D01*
X156989688Y-69248682D01*
X157119922Y-69118448D01*
X157222246Y-68965309D01*
X157292728Y-68795149D01*
X157328660Y-68614509D01*
X157328660Y-68430331D01*
X157292728Y-68249691D01*
X157222246Y-68079531D01*
X157119922Y-67926392D01*
X156993691Y-67800161D01*
X157028660Y-67624359D01*
X157028660Y-67420481D01*
X157008769Y-67320481D01*
X158758660Y-67320481D01*
X158758660Y-67524359D01*
X158798434Y-67724318D01*
X158876455Y-67912676D01*
X158989723Y-68082194D01*
X159133886Y-68226357D01*
X159303404Y-68339625D01*
X159491762Y-68417646D01*
X159691721Y-68457420D01*
X159895599Y-68457420D01*
X160095558Y-68417646D01*
X160283916Y-68339625D01*
X160453434Y-68226357D01*
X160597597Y-68082194D01*
X160710865Y-67912676D01*
X160788886Y-67724318D01*
X160828660Y-67524359D01*
X160828660Y-67320481D01*
X160788886Y-67120522D01*
X160710865Y-66932164D01*
X160597597Y-66762646D01*
X160453434Y-66618483D01*
X160283916Y-66505215D01*
X160095558Y-66427194D01*
X159895599Y-66387420D01*
X159691721Y-66387420D01*
X159491762Y-66427194D01*
X159303404Y-66505215D01*
X159133886Y-66618483D01*
X158989723Y-66762646D01*
X158876455Y-66932164D01*
X158798434Y-67120522D01*
X158758660Y-67320481D01*
X157008769Y-67320481D01*
X156988886Y-67220522D01*
X156910865Y-67032164D01*
X156797597Y-66862646D01*
X156653434Y-66718483D01*
X156483916Y-66605215D01*
X156295558Y-66527194D01*
X156095599Y-66487420D01*
X155891721Y-66487420D01*
X155691762Y-66527194D01*
X155503404Y-66605215D01*
X155333886Y-66718483D01*
X155189723Y-66862646D01*
X155076455Y-67032164D01*
X154998434Y-67220522D01*
X154958660Y-67420481D01*
X154958660Y-67624359D01*
X154998434Y-67824318D01*
X155076455Y-68012676D01*
X155182558Y-68171470D01*
X155066389Y-68123352D01*
X154885749Y-68087420D01*
X154701571Y-68087420D01*
X154610556Y-68105524D01*
X154628660Y-68014509D01*
X154628660Y-67830331D01*
X154592728Y-67649691D01*
X154522246Y-67479531D01*
X154419922Y-67326392D01*
X154289688Y-67196158D01*
X154202100Y-67137634D01*
X154301571Y-67157420D01*
X154485749Y-67157420D01*
X154666389Y-67121488D01*
X154836549Y-67051006D01*
X154989688Y-66948682D01*
X155119922Y-66818448D01*
X155222246Y-66665309D01*
X155269571Y-66551055D01*
X155301571Y-66557420D01*
X155485749Y-66557420D01*
X155666389Y-66521488D01*
X155836549Y-66451006D01*
X155989688Y-66348682D01*
X156119922Y-66218448D01*
X156222246Y-66065309D01*
X156292728Y-65895149D01*
X156328660Y-65714509D01*
X156328660Y-65530331D01*
X156292728Y-65349691D01*
X156222246Y-65179531D01*
X156119922Y-65026392D01*
X155989688Y-64896158D01*
X155836549Y-64793834D01*
X155683238Y-64730331D01*
X156958660Y-64730331D01*
X156958660Y-64914509D01*
X156994592Y-65095149D01*
X157065074Y-65265309D01*
X157167398Y-65418448D01*
X157297632Y-65548682D01*
X157450771Y-65651006D01*
X157620931Y-65721488D01*
X157801571Y-65757420D01*
X157985749Y-65757420D01*
X158166389Y-65721488D01*
X158336549Y-65651006D01*
X158489688Y-65548682D01*
X158619922Y-65418448D01*
X158722246Y-65265309D01*
X158792728Y-65095149D01*
X158828660Y-64914509D01*
X158828660Y-64730331D01*
X158827553Y-64724765D01*
X158991721Y-64757420D01*
X159195599Y-64757420D01*
X159395558Y-64717646D01*
X159583916Y-64639625D01*
X159753434Y-64526357D01*
X159897597Y-64382194D01*
X160010865Y-64212676D01*
X160088886Y-64024318D01*
X160128660Y-63824359D01*
X160128660Y-63620481D01*
X160088886Y-63420522D01*
X160010865Y-63232164D01*
X159897597Y-63062646D01*
X159753434Y-62918483D01*
X159583916Y-62805215D01*
X159395558Y-62727194D01*
X159195599Y-62687420D01*
X158991721Y-62687420D01*
X158791762Y-62727194D01*
X158603404Y-62805215D01*
X158433886Y-62918483D01*
X158289723Y-63062646D01*
X158176455Y-63232164D01*
X158098434Y-63420522D01*
X158058660Y-63620481D01*
X158058660Y-63824359D01*
X158074724Y-63905118D01*
X157985749Y-63887420D01*
X157801571Y-63887420D01*
X157620931Y-63923352D01*
X157450771Y-63993834D01*
X157297632Y-64096158D01*
X157167398Y-64226392D01*
X157065074Y-64379531D01*
X156994592Y-64549691D01*
X156958660Y-64730331D01*
X155683238Y-64730331D01*
X155666389Y-64723352D01*
X155485749Y-64687420D01*
X155301571Y-64687420D01*
X155120931Y-64723352D01*
X154950771Y-64793834D01*
X154797632Y-64896158D01*
X154667398Y-65026392D01*
X154565074Y-65179531D01*
X154517749Y-65293785D01*
X154485749Y-65287420D01*
X154301571Y-65287420D01*
X154120931Y-65323352D01*
X153950771Y-65393834D01*
X153797632Y-65496158D01*
X153667398Y-65626392D01*
X153565074Y-65779531D01*
X153494592Y-65949691D01*
X153458660Y-66130331D01*
X153458660Y-66314509D01*
X153494592Y-66495149D01*
X153565074Y-66665309D01*
X153667398Y-66818448D01*
X153797632Y-66948682D01*
X153885220Y-67007206D01*
X153785749Y-66987420D01*
X153601571Y-66987420D01*
X153420931Y-67023352D01*
X153250771Y-67093834D01*
X153097632Y-67196158D01*
X152967398Y-67326392D01*
X152865074Y-67479531D01*
X152794592Y-67649691D01*
X152758660Y-67830331D01*
X146412255Y-67830331D01*
X146394984Y-67743509D01*
X146447236Y-67665309D01*
X146517718Y-67495149D01*
X146553650Y-67314509D01*
X146553650Y-67185344D01*
X146636549Y-67151006D01*
X146789688Y-67048682D01*
X146919922Y-66918448D01*
X147022246Y-66765309D01*
X147092728Y-66595149D01*
X147128660Y-66414509D01*
X147128660Y-66230331D01*
X147092728Y-66049691D01*
X147043288Y-65930331D01*
X147158660Y-65930331D01*
X147158660Y-66114509D01*
X147194592Y-66295149D01*
X147265074Y-66465309D01*
X147367398Y-66618448D01*
X147497632Y-66748682D01*
X147650771Y-66851006D01*
X147820931Y-66921488D01*
X148001571Y-66957420D01*
X148185749Y-66957420D01*
X148366389Y-66921488D01*
X148536549Y-66851006D01*
X148689688Y-66748682D01*
X148819922Y-66618448D01*
X148922246Y-66465309D01*
X148992728Y-66295149D01*
X149028660Y-66114509D01*
X149028660Y-65930331D01*
X148992728Y-65749691D01*
X148922246Y-65579531D01*
X148819922Y-65426392D01*
X148689688Y-65296158D01*
X148536549Y-65193834D01*
X148366389Y-65123352D01*
X148185749Y-65087420D01*
X148001571Y-65087420D01*
X147820931Y-65123352D01*
X147650771Y-65193834D01*
X147497632Y-65296158D01*
X147367398Y-65426392D01*
X147265074Y-65579531D01*
X147194592Y-65749691D01*
X147158660Y-65930331D01*
X147043288Y-65930331D01*
X147022246Y-65879531D01*
X146919922Y-65726392D01*
X146789688Y-65596158D01*
X146636549Y-65493834D01*
X146466389Y-65423352D01*
X146285749Y-65387420D01*
X146101571Y-65387420D01*
X145920931Y-65423352D01*
X145750771Y-65493834D01*
X145597632Y-65596158D01*
X145538938Y-65654852D01*
X145519922Y-65626392D01*
X145389688Y-65496158D01*
X145236549Y-65393834D01*
X145066389Y-65323352D01*
X144885749Y-65287420D01*
X144701571Y-65287420D01*
X144520931Y-65323352D01*
X144434380Y-65359202D01*
X144336549Y-65293834D01*
X144166389Y-65223352D01*
X143985749Y-65187420D01*
X143801571Y-65187420D01*
X143620931Y-65223352D01*
X143450771Y-65293834D01*
X143297632Y-65396158D01*
X143167398Y-65526392D01*
X143065074Y-65679531D01*
X142994592Y-65849691D01*
X142980549Y-65920288D01*
X142922246Y-65779531D01*
X142819922Y-65626392D01*
X142689688Y-65496158D01*
X142536549Y-65393834D01*
X142366389Y-65323352D01*
X142185749Y-65287420D01*
X142001571Y-65287420D01*
X141820931Y-65323352D01*
X141650771Y-65393834D01*
X141497632Y-65496158D01*
X141367398Y-65626392D01*
X141265074Y-65779531D01*
X141194592Y-65949691D01*
X141158660Y-66130331D01*
X135732250Y-66130331D01*
X135810865Y-66012676D01*
X135888886Y-65824318D01*
X135928660Y-65624359D01*
X135928660Y-65420481D01*
X135888886Y-65220522D01*
X135810865Y-65032164D01*
X135697597Y-64862646D01*
X135553434Y-64718483D01*
X135383916Y-64605215D01*
X135195558Y-64527194D01*
X134995599Y-64487420D01*
X134791721Y-64487420D01*
X134591762Y-64527194D01*
X134403404Y-64605215D01*
X134233886Y-64718483D01*
X134120660Y-64831709D01*
X134120660Y-63907248D01*
X134283916Y-63839625D01*
X134453434Y-63726357D01*
X134597597Y-63582194D01*
X134710865Y-63412676D01*
X134788886Y-63224318D01*
X134828660Y-63024359D01*
X134828660Y-62820481D01*
X134788886Y-62620522D01*
X134710865Y-62432164D01*
X134703059Y-62420481D01*
X137058660Y-62420481D01*
X137058660Y-62624359D01*
X137098434Y-62824318D01*
X137176455Y-63012676D01*
X137289723Y-63182194D01*
X137433886Y-63326357D01*
X137603404Y-63439625D01*
X137669313Y-63466926D01*
X137658660Y-63520481D01*
X137658660Y-63724359D01*
X137698434Y-63924318D01*
X137776455Y-64112676D01*
X137889723Y-64282194D01*
X138033886Y-64426357D01*
X138203404Y-64539625D01*
X138391762Y-64617646D01*
X138591721Y-64657420D01*
X138795599Y-64657420D01*
X138995558Y-64617646D01*
X139183916Y-64539625D01*
X139353434Y-64426357D01*
X139497597Y-64282194D01*
X139610865Y-64112676D01*
X139688886Y-63924318D01*
X139728660Y-63724359D01*
X139728660Y-63520481D01*
X139688886Y-63320522D01*
X139610865Y-63132164D01*
X139497597Y-62962646D01*
X139353434Y-62818483D01*
X139183916Y-62705215D01*
X139118007Y-62677914D01*
X139128660Y-62624359D01*
X139128660Y-62420481D01*
X139088886Y-62220522D01*
X139010865Y-62032164D01*
X138897597Y-61862646D01*
X138753434Y-61718483D01*
X138583916Y-61605215D01*
X138395558Y-61527194D01*
X138195599Y-61487420D01*
X137991721Y-61487420D01*
X137791762Y-61527194D01*
X137603404Y-61605215D01*
X137433886Y-61718483D01*
X137289723Y-61862646D01*
X137176455Y-62032164D01*
X137098434Y-62220522D01*
X137058660Y-62420481D01*
X134703059Y-62420481D01*
X134597597Y-62262646D01*
X134453434Y-62118483D01*
X134283916Y-62005215D01*
X134120660Y-61937592D01*
X134120660Y-60913131D01*
X134133886Y-60926357D01*
X134303404Y-61039625D01*
X134491762Y-61117646D01*
X134691721Y-61157420D01*
X134895599Y-61157420D01*
X135095558Y-61117646D01*
X135283916Y-61039625D01*
X135453434Y-60926357D01*
X135559310Y-60820481D01*
X143258660Y-60820481D01*
X143258660Y-61024359D01*
X143298434Y-61224318D01*
X143376455Y-61412676D01*
X143489723Y-61582194D01*
X143633886Y-61726357D01*
X143803404Y-61839625D01*
X143991762Y-61917646D01*
X144191721Y-61957420D01*
X144395599Y-61957420D01*
X144595558Y-61917646D01*
X144783916Y-61839625D01*
X144953434Y-61726357D01*
X145097597Y-61582194D01*
X145210865Y-61412676D01*
X145288886Y-61224318D01*
X145328660Y-61024359D01*
X145328660Y-60820481D01*
X145308769Y-60720481D01*
X147358660Y-60720481D01*
X147358660Y-60924359D01*
X147398434Y-61124318D01*
X147476455Y-61312676D01*
X147589723Y-61482194D01*
X147733886Y-61626357D01*
X147903404Y-61739625D01*
X148091762Y-61817646D01*
X148291721Y-61857420D01*
X148495599Y-61857420D01*
X148695558Y-61817646D01*
X148883916Y-61739625D01*
X149053434Y-61626357D01*
X149197597Y-61482194D01*
X149310865Y-61312676D01*
X149388886Y-61124318D01*
X149428660Y-60924359D01*
X149428660Y-60720481D01*
X149388886Y-60520522D01*
X149310865Y-60332164D01*
X149197597Y-60162646D01*
X149053434Y-60018483D01*
X148883916Y-59905215D01*
X148695558Y-59827194D01*
X148495599Y-59787420D01*
X148291721Y-59787420D01*
X148091762Y-59827194D01*
X147903404Y-59905215D01*
X147733886Y-60018483D01*
X147589723Y-60162646D01*
X147476455Y-60332164D01*
X147398434Y-60520522D01*
X147358660Y-60720481D01*
X145308769Y-60720481D01*
X145288886Y-60620522D01*
X145210865Y-60432164D01*
X145097597Y-60262646D01*
X144953434Y-60118483D01*
X144783916Y-60005215D01*
X144595558Y-59927194D01*
X144395599Y-59887420D01*
X144191721Y-59887420D01*
X143991762Y-59927194D01*
X143803404Y-60005215D01*
X143633886Y-60118483D01*
X143489723Y-60262646D01*
X143376455Y-60432164D01*
X143298434Y-60620522D01*
X143258660Y-60820481D01*
X135559310Y-60820481D01*
X135597597Y-60782194D01*
X135710865Y-60612676D01*
X135788886Y-60424318D01*
X135828660Y-60224359D01*
X135828660Y-60020481D01*
X135788886Y-59820522D01*
X135710865Y-59632164D01*
X135597597Y-59462646D01*
X135453434Y-59318483D01*
X135283916Y-59205215D01*
X135095558Y-59127194D01*
X134895599Y-59087420D01*
X134691721Y-59087420D01*
X134491762Y-59127194D01*
X134303404Y-59205215D01*
X134133886Y-59318483D01*
X134120660Y-59331709D01*
X134120660Y-59049420D01*
X149793660Y-59049420D01*
X149818436Y-59046980D01*
X149842261Y-59039753D01*
X149864217Y-59028017D01*
X149883463Y-59012223D01*
X149899257Y-58992977D01*
X149910993Y-58971021D01*
X149918220Y-58947196D01*
X149920660Y-58922420D01*
X149920660Y-58759992D01*
X150044520Y-58759992D01*
X150166278Y-58748000D01*
X150303404Y-58839625D01*
X150491762Y-58917646D01*
X150691721Y-58957420D01*
X150895599Y-58957420D01*
X151095558Y-58917646D01*
X151283916Y-58839625D01*
X151453434Y-58726357D01*
X151530371Y-58649420D01*
X157831743Y-58649420D01*
X157776455Y-58732164D01*
M02*
