M48
; DRILL file {KiCad 5.1.4-e60b266~84~ubuntu19.04.1} date Fri 11 Oct 2019 08:42:42 AM CDT
; FORMAT={-:-/ absolute / inch / decimal}
; #@! TF.CreationDate,2019-10-11T08:42:42-05:00
; #@! TF.GenerationSoftware,Kicad,Pcbnew,5.1.4-e60b266~84~ubuntu19.04.1
; #@! TF.FileFunction,Plated,1,4,PTH
FMAT,2
INCH
T1C0.0157
T2C0.0236
T3C0.0256
T4C0.0276
T5C0.0295
T6C0.0394
T7C0.0488
T8C0.0591
T9C0.0787
%
G90
G05
T1
X5.2323Y-2.6181
X5.3307Y-2.5236
X5.3661Y-2.3819
X5.3699Y-3.8829
X5.3937Y-3.8504
X5.4Y-4.5594
X5.4055Y-4.1417
X5.4094Y-4.4339
X5.4134Y-2.5236
X5.4213Y-4.2953
X5.4724Y-2.4488
X5.4846Y-2.9835
X5.5035Y-3.2673
X5.5382Y-2.8386
X5.5472Y-2.9803
X5.5591Y-3.9213
X5.6142Y-3.6929
X5.626Y-3.0079
X5.634Y-2.8415
X5.6378Y-4.3386
X5.6382Y-4.4083
X5.6457Y-3.2559
X5.6624Y-2.9837
X5.6654Y-3.0315
X5.6721Y-3.1976
X5.6811Y-3.9921
X5.7045Y-2.8423
X5.7087Y-3.1142
X5.7165Y-3.0484
X5.7244Y-2.9921
X5.7254Y-3.4764
X5.7486Y-3.2998
X5.7639Y-2.8471
X5.7756Y-2.9764
X5.8031Y-2.7323
X5.8228Y-2.8543
X5.8236Y-3.4
X5.8248Y-3.1886
X5.8346Y-4.1693
X5.8367Y-2.9811
X5.8425Y-3.8346
X5.8504Y-4.0394
X5.8583Y-2.8425
X5.8701Y-3.1142
X5.8937Y-2.7992
X5.9206Y-3.0187
X5.9224Y-3.3004
X5.9408Y-2.8356
X5.9449Y-4.4567
X5.9567Y-3.5
X5.9663Y-3.1132
X5.9967Y-3.0354
X6.0071Y-3.4203
X6.0138Y-4.3681
X6.0167Y-3.4734
X6.0276Y-3.7205
X6.063Y-3.3071
X6.0709Y-2.4815
X6.0709Y-2.9961
X6.0787Y-3.6929
X6.0866Y-4.374
X6.0937Y-2.5028
X6.0945Y-2.5496
X6.1116Y-3.6871
X6.122Y-3.5039
X6.1299Y-4.0748
X6.1339Y-3.8661
X6.1417Y-3.7165
X6.1673Y-2.6209
X6.1732Y-4.3937
X6.1772Y-4.3346
X6.2126Y-3.6496
X6.2347Y-3.5293
X6.2406Y-2.5504
X6.2421Y-2.8755
X6.2638Y-4.4921
X6.282Y-3.1679
X6.3376Y-3.3721
T2
X5.235Y-2.4453
X5.2362Y-2.5504
X5.2776Y-4.2106
X5.2783Y-3.9634
X5.2827Y-4.4067
X5.3594Y-2.6724
X5.3738Y-3.7198
X5.5328Y-3.6839
X5.5409Y-3.5484
X5.6709Y-3.8177
X5.672Y-4.2756
X5.681Y-4.1306
T3
X5.6429Y-2.7028
X5.6929Y-2.7028
T4
X5.7066Y-2.5082
X5.848Y-2.3668
X5.848Y-2.5082
T5
X5.4662Y-3.7229
X5.4811Y-3.5453
T6
X5.6665Y-4.5279
X5.7665Y-4.5279
X5.8665Y-4.5279
X5.4728Y-4.0147
X5.4728Y-4.1131
X5.4728Y-4.2115
X6.0436Y-4.0147
X6.0436Y-4.2115
T7
X6.1677Y-2.4457
T9
X5.2169Y-2.2409
X5.2169Y-4.5642
X6.3201Y-2.2409
X6.3201Y-4.5642
T8
G00X5.7424Y-3.8926
M15
G01X5.7936Y-3.8926
M16
G05
G00X5.7424Y-4.3336
M15
G01X5.7936Y-4.3336
M16
G05
T0
M30
