G04 #@! TF.GenerationSoftware,KiCad,Pcbnew,5.1.4-e60b266~84~ubuntu19.04.1*
G04 #@! TF.CreationDate,2019-10-11T10:06:12-05:00*
G04 #@! TF.ProjectId,led-controller,6c65642d-636f-46e7-9472-6f6c6c65722e,rev?*
G04 #@! TF.SameCoordinates,Original*
G04 #@! TF.FileFunction,Soldermask,Top*
G04 #@! TF.FilePolarity,Negative*
%FSLAX46Y46*%
G04 Gerber Fmt 4.6, Leading zero omitted, Abs format (unit mm)*
G04 Created by KiCad (PCBNEW 5.1.4-e60b266~84~ubuntu19.04.1) date 2019-10-11 10:06:12*
%MOMM*%
%LPD*%
G04 APERTURE LIST*
%ADD10C,0.100000*%
G04 APERTURE END LIST*
D10*
G36*
X159275013Y-113523057D02*
G01*
X159384206Y-113568286D01*
X159482477Y-113633949D01*
X159566051Y-113717523D01*
X159631714Y-113815794D01*
X159676943Y-113924987D01*
X159692748Y-114004444D01*
X159699861Y-114027892D01*
X159711412Y-114049503D01*
X159726958Y-114068445D01*
X159745900Y-114083990D01*
X159767510Y-114095541D01*
X159790959Y-114102654D01*
X159815345Y-114105056D01*
X159839732Y-114102654D01*
X159863180Y-114095541D01*
X159961207Y-114054937D01*
X160337940Y-113980000D01*
X160722060Y-113980000D01*
X161098793Y-114054937D01*
X161453670Y-114201932D01*
X161773052Y-114415336D01*
X162044664Y-114686948D01*
X162258068Y-115006330D01*
X162405063Y-115361207D01*
X162480000Y-115737940D01*
X162480000Y-116122060D01*
X162405063Y-116498793D01*
X162258068Y-116853670D01*
X162044664Y-117173052D01*
X161773052Y-117444664D01*
X161453670Y-117658068D01*
X161098793Y-117805063D01*
X160722060Y-117880000D01*
X160337940Y-117880000D01*
X159961207Y-117805063D01*
X159606330Y-117658068D01*
X159286948Y-117444664D01*
X159015336Y-117173052D01*
X158801932Y-116853670D01*
X158654937Y-116498793D01*
X158580000Y-116122060D01*
X158580000Y-115737940D01*
X158654937Y-115361207D01*
X158801932Y-115006330D01*
X158916367Y-114835066D01*
X158927918Y-114813455D01*
X158935031Y-114790006D01*
X158937433Y-114765620D01*
X158935031Y-114741234D01*
X158927918Y-114717785D01*
X158916367Y-114696174D01*
X158900822Y-114677232D01*
X158881880Y-114661687D01*
X158860269Y-114650136D01*
X158815795Y-114631714D01*
X158815794Y-114631714D01*
X158815793Y-114631713D01*
X158717522Y-114566050D01*
X158633950Y-114482478D01*
X158593038Y-114421250D01*
X158568286Y-114384206D01*
X158523057Y-114275013D01*
X158500000Y-114159096D01*
X158500000Y-114040904D01*
X158523057Y-113924987D01*
X158568286Y-113815794D01*
X158633949Y-113717523D01*
X158717523Y-113633949D01*
X158815794Y-113568286D01*
X158924987Y-113523057D01*
X159040904Y-113500000D01*
X159159096Y-113500000D01*
X159275013Y-113523057D01*
X159275013Y-113523057D01*
G37*
G36*
X133078793Y-114054937D02*
G01*
X133433670Y-114201932D01*
X133753052Y-114415336D01*
X134024664Y-114686948D01*
X134238068Y-115006330D01*
X134385063Y-115361207D01*
X134460000Y-115737940D01*
X134460000Y-116122060D01*
X134385063Y-116498793D01*
X134238068Y-116853670D01*
X134024664Y-117173052D01*
X133753052Y-117444664D01*
X133433670Y-117658068D01*
X133078793Y-117805063D01*
X132702060Y-117880000D01*
X132317940Y-117880000D01*
X131941207Y-117805063D01*
X131586330Y-117658068D01*
X131266948Y-117444664D01*
X130995336Y-117173052D01*
X130781932Y-116853670D01*
X130634937Y-116498793D01*
X130560000Y-116122060D01*
X130560000Y-115737940D01*
X130634937Y-115361207D01*
X130781932Y-115006330D01*
X130995336Y-114686948D01*
X131266948Y-114415336D01*
X131586330Y-114201932D01*
X131941207Y-114054937D01*
X132317940Y-113980000D01*
X132702060Y-113980000D01*
X133078793Y-114054937D01*
X133078793Y-114054937D01*
G37*
G36*
X137305843Y-115329214D02*
G01*
X137396837Y-115366905D01*
X137396839Y-115366906D01*
X137438063Y-115394451D01*
X137478730Y-115421624D01*
X137548376Y-115491270D01*
X137603095Y-115573163D01*
X137640786Y-115664157D01*
X137660000Y-115760753D01*
X137660000Y-115859247D01*
X137640786Y-115955843D01*
X137603095Y-116046837D01*
X137552833Y-116122060D01*
X137548375Y-116128731D01*
X137478731Y-116198375D01*
X137396839Y-116253094D01*
X137396838Y-116253095D01*
X137396837Y-116253095D01*
X137305843Y-116290786D01*
X137209247Y-116310000D01*
X137110753Y-116310000D01*
X137014157Y-116290786D01*
X136923163Y-116253095D01*
X136923162Y-116253095D01*
X136923161Y-116253094D01*
X136841269Y-116198375D01*
X136771625Y-116128731D01*
X136767168Y-116122060D01*
X136716905Y-116046837D01*
X136679214Y-115955843D01*
X136660000Y-115859247D01*
X136660000Y-115760753D01*
X136679214Y-115664157D01*
X136716905Y-115573163D01*
X136771624Y-115491270D01*
X136841270Y-115421624D01*
X136881937Y-115394451D01*
X136923161Y-115366906D01*
X136923163Y-115366905D01*
X137014157Y-115329214D01*
X137110753Y-115310000D01*
X137209247Y-115310000D01*
X137305843Y-115329214D01*
X137305843Y-115329214D01*
G37*
G36*
X149137367Y-113965016D02*
G01*
X149214496Y-113972613D01*
X149396727Y-114027892D01*
X149412425Y-114032654D01*
X149594830Y-114130152D01*
X149754715Y-114261365D01*
X149885928Y-114421250D01*
X149983426Y-114603655D01*
X149983427Y-114603658D01*
X150043467Y-114801584D01*
X150063740Y-115007420D01*
X150043467Y-115213256D01*
X149996858Y-115366905D01*
X149983426Y-115411185D01*
X149885928Y-115593590D01*
X149754715Y-115753475D01*
X149594830Y-115884688D01*
X149412425Y-115982186D01*
X149412422Y-115982187D01*
X149214496Y-116042227D01*
X149167669Y-116046839D01*
X149060240Y-116057420D01*
X148957080Y-116057420D01*
X148849651Y-116046839D01*
X148802824Y-116042227D01*
X148604898Y-115982187D01*
X148604895Y-115982186D01*
X148422490Y-115884688D01*
X148262605Y-115753475D01*
X148131392Y-115593590D01*
X148033894Y-115411185D01*
X148020462Y-115366905D01*
X147973853Y-115213256D01*
X147953580Y-115007420D01*
X147973853Y-114801584D01*
X148033893Y-114603658D01*
X148033894Y-114603655D01*
X148131392Y-114421250D01*
X148262605Y-114261365D01*
X148422490Y-114130152D01*
X148604895Y-114032654D01*
X148620593Y-114027892D01*
X148802824Y-113972613D01*
X148879953Y-113965016D01*
X148957080Y-113957420D01*
X149060240Y-113957420D01*
X149137367Y-113965016D01*
X149137367Y-113965016D01*
G37*
G36*
X146597367Y-113965016D02*
G01*
X146674496Y-113972613D01*
X146856727Y-114027892D01*
X146872425Y-114032654D01*
X147054830Y-114130152D01*
X147214715Y-114261365D01*
X147345928Y-114421250D01*
X147443426Y-114603655D01*
X147443427Y-114603658D01*
X147503467Y-114801584D01*
X147523740Y-115007420D01*
X147503467Y-115213256D01*
X147456858Y-115366905D01*
X147443426Y-115411185D01*
X147345928Y-115593590D01*
X147214715Y-115753475D01*
X147054830Y-115884688D01*
X146872425Y-115982186D01*
X146872422Y-115982187D01*
X146674496Y-116042227D01*
X146627669Y-116046839D01*
X146520240Y-116057420D01*
X146417080Y-116057420D01*
X146309651Y-116046839D01*
X146262824Y-116042227D01*
X146064898Y-115982187D01*
X146064895Y-115982186D01*
X145882490Y-115884688D01*
X145722605Y-115753475D01*
X145591392Y-115593590D01*
X145493894Y-115411185D01*
X145480462Y-115366905D01*
X145433853Y-115213256D01*
X145413580Y-115007420D01*
X145433853Y-114801584D01*
X145493893Y-114603658D01*
X145493894Y-114603655D01*
X145591392Y-114421250D01*
X145722605Y-114261365D01*
X145882490Y-114130152D01*
X146064895Y-114032654D01*
X146080593Y-114027892D01*
X146262824Y-113972613D01*
X146339953Y-113965016D01*
X146417080Y-113957420D01*
X146520240Y-113957420D01*
X146597367Y-113965016D01*
X146597367Y-113965016D01*
G37*
G36*
X144978660Y-116057420D02*
G01*
X142878660Y-116057420D01*
X142878660Y-113957420D01*
X144978660Y-113957420D01*
X144978660Y-116057420D01*
X144978660Y-116057420D01*
G37*
G36*
X151175013Y-112623057D02*
G01*
X151284206Y-112668286D01*
X151382477Y-112733949D01*
X151466051Y-112817523D01*
X151531714Y-112915794D01*
X151576943Y-113024987D01*
X151600000Y-113140904D01*
X151600000Y-113259096D01*
X151576943Y-113375013D01*
X151531714Y-113484206D01*
X151466051Y-113582477D01*
X151382477Y-113666051D01*
X151284206Y-113731714D01*
X151175013Y-113776943D01*
X151059096Y-113800000D01*
X150940904Y-113800000D01*
X150824987Y-113776943D01*
X150715794Y-113731714D01*
X150617523Y-113666051D01*
X150533949Y-113582477D01*
X150468286Y-113484206D01*
X150423057Y-113375013D01*
X150400000Y-113259096D01*
X150400000Y-113140904D01*
X150423057Y-113024987D01*
X150468286Y-112915794D01*
X150533949Y-112817523D01*
X150617523Y-112733949D01*
X150715794Y-112668286D01*
X150824987Y-112623057D01*
X150940904Y-112600000D01*
X151059096Y-112600000D01*
X151175013Y-112623057D01*
X151175013Y-112623057D01*
G37*
G36*
X137545843Y-112139214D02*
G01*
X137545846Y-112139215D01*
X137545845Y-112139215D01*
X137636839Y-112176906D01*
X137636894Y-112176943D01*
X137718730Y-112231624D01*
X137788376Y-112301270D01*
X137843095Y-112383163D01*
X137880786Y-112474157D01*
X137900000Y-112570753D01*
X137900000Y-112669247D01*
X137880786Y-112765843D01*
X137880785Y-112765845D01*
X137843094Y-112856839D01*
X137788375Y-112938731D01*
X137718731Y-113008375D01*
X137636839Y-113063094D01*
X137636838Y-113063095D01*
X137636837Y-113063095D01*
X137545843Y-113100786D01*
X137449247Y-113120000D01*
X137350753Y-113120000D01*
X137254157Y-113100786D01*
X137163163Y-113063095D01*
X137163162Y-113063095D01*
X137163161Y-113063094D01*
X137081269Y-113008375D01*
X137011625Y-112938731D01*
X136956906Y-112856839D01*
X136919215Y-112765845D01*
X136919214Y-112765843D01*
X136900000Y-112669247D01*
X136900000Y-112570753D01*
X136919214Y-112474157D01*
X136956905Y-112383163D01*
X137011624Y-112301270D01*
X137081270Y-112231624D01*
X137163106Y-112176943D01*
X137163161Y-112176906D01*
X137254155Y-112139215D01*
X137254154Y-112139215D01*
X137254157Y-112139214D01*
X137350753Y-112120000D01*
X137449247Y-112120000D01*
X137545843Y-112139214D01*
X137545843Y-112139214D01*
G37*
G36*
X134384182Y-111256900D02*
G01*
X134511573Y-111309667D01*
X134544079Y-111331387D01*
X134626224Y-111386274D01*
X134723726Y-111483776D01*
X134727360Y-111489215D01*
X134800333Y-111598427D01*
X134853100Y-111725818D01*
X134880000Y-111861055D01*
X134880000Y-111998945D01*
X134853100Y-112134182D01*
X134800333Y-112261573D01*
X134773809Y-112301269D01*
X134723726Y-112376224D01*
X134626224Y-112473726D01*
X134568510Y-112512289D01*
X134511573Y-112550333D01*
X134384182Y-112603100D01*
X134248945Y-112630000D01*
X134111055Y-112630000D01*
X133975818Y-112603100D01*
X133848427Y-112550333D01*
X133791490Y-112512289D01*
X133733776Y-112473726D01*
X133636274Y-112376224D01*
X133586191Y-112301269D01*
X133559667Y-112261573D01*
X133506900Y-112134182D01*
X133480000Y-111998945D01*
X133480000Y-111861055D01*
X133506900Y-111725818D01*
X133559667Y-111598427D01*
X133632640Y-111489215D01*
X133636274Y-111483776D01*
X133733776Y-111386274D01*
X133815921Y-111331387D01*
X133848427Y-111309667D01*
X133975818Y-111256900D01*
X134111055Y-111230000D01*
X134248945Y-111230000D01*
X134384182Y-111256900D01*
X134384182Y-111256900D01*
G37*
G36*
X143355843Y-111489214D02*
G01*
X143444297Y-111525853D01*
X143446839Y-111526906D01*
X143528731Y-111581625D01*
X143598375Y-111651269D01*
X143648188Y-111725818D01*
X143653095Y-111733163D01*
X143690786Y-111824157D01*
X143710000Y-111920753D01*
X143710000Y-112019247D01*
X143690786Y-112115843D01*
X143653095Y-112206837D01*
X143598376Y-112288730D01*
X143528730Y-112358376D01*
X143488063Y-112385549D01*
X143446839Y-112413094D01*
X143446838Y-112413095D01*
X143446837Y-112413095D01*
X143355843Y-112450786D01*
X143259247Y-112470000D01*
X143160753Y-112470000D01*
X143064157Y-112450786D01*
X142973163Y-112413095D01*
X142973162Y-112413095D01*
X142973161Y-112413094D01*
X142931937Y-112385549D01*
X142891270Y-112358376D01*
X142821624Y-112288730D01*
X142766905Y-112206837D01*
X142729214Y-112115843D01*
X142710000Y-112019247D01*
X142710000Y-111920753D01*
X142729214Y-111824157D01*
X142766905Y-111733163D01*
X142771813Y-111725818D01*
X142821625Y-111651269D01*
X142891269Y-111581625D01*
X142973161Y-111526906D01*
X142975703Y-111525853D01*
X143064157Y-111489214D01*
X143160753Y-111470000D01*
X143259247Y-111470000D01*
X143355843Y-111489214D01*
X143355843Y-111489214D01*
G37*
G36*
X156975013Y-111023057D02*
G01*
X157084206Y-111068286D01*
X157182477Y-111133949D01*
X157266051Y-111217523D01*
X157331714Y-111315794D01*
X157376943Y-111424987D01*
X157400000Y-111540904D01*
X157400000Y-111659096D01*
X157376943Y-111775013D01*
X157331714Y-111884206D01*
X157266051Y-111982477D01*
X157182477Y-112066051D01*
X157084206Y-112131714D01*
X156975013Y-112176943D01*
X156859096Y-112200000D01*
X156740904Y-112200000D01*
X156624987Y-112176943D01*
X156515794Y-112131714D01*
X156417523Y-112066051D01*
X156333949Y-111982477D01*
X156268286Y-111884206D01*
X156223057Y-111775013D01*
X156200000Y-111659096D01*
X156200000Y-111540904D01*
X156223057Y-111424987D01*
X156268286Y-111315794D01*
X156333949Y-111217523D01*
X156417523Y-111133949D01*
X156515794Y-111068286D01*
X156624987Y-111023057D01*
X156740904Y-111000000D01*
X156859096Y-111000000D01*
X156975013Y-111023057D01*
X156975013Y-111023057D01*
G37*
G36*
X154775013Y-110523057D02*
G01*
X154884206Y-110568286D01*
X154982477Y-110633949D01*
X155066051Y-110717523D01*
X155131714Y-110815794D01*
X155176943Y-110924987D01*
X155200000Y-111040904D01*
X155200000Y-111159096D01*
X155176943Y-111275013D01*
X155131714Y-111384206D01*
X155066051Y-111482477D01*
X154982477Y-111566051D01*
X154884206Y-111631714D01*
X154775013Y-111676943D01*
X154659096Y-111700000D01*
X154540904Y-111700000D01*
X154424987Y-111676943D01*
X154315794Y-111631714D01*
X154217523Y-111566051D01*
X154133949Y-111482477D01*
X154068286Y-111384206D01*
X154023057Y-111275013D01*
X154000000Y-111159096D01*
X154000000Y-111040904D01*
X154023057Y-110924987D01*
X154068286Y-110815794D01*
X154133949Y-110717523D01*
X154217523Y-110633949D01*
X154315794Y-110568286D01*
X154424987Y-110523057D01*
X154540904Y-110500000D01*
X154659096Y-110500000D01*
X154775013Y-110523057D01*
X154775013Y-110523057D01*
G37*
G36*
X152926103Y-110371967D02*
G01*
X153035296Y-110417196D01*
X153133567Y-110482859D01*
X153217141Y-110566433D01*
X153282804Y-110664704D01*
X153328033Y-110773897D01*
X153351090Y-110889814D01*
X153351090Y-111008006D01*
X153328033Y-111123923D01*
X153282804Y-111233116D01*
X153217141Y-111331387D01*
X153133567Y-111414961D01*
X153035296Y-111480624D01*
X152926103Y-111525853D01*
X152810186Y-111548910D01*
X152691994Y-111548910D01*
X152576077Y-111525853D01*
X152466884Y-111480624D01*
X152368613Y-111414961D01*
X152285039Y-111331387D01*
X152219376Y-111233116D01*
X152174147Y-111123923D01*
X152151090Y-111008006D01*
X152151090Y-110889814D01*
X152174147Y-110773897D01*
X152219376Y-110664704D01*
X152285039Y-110566433D01*
X152368613Y-110482859D01*
X152466884Y-110417196D01*
X152576077Y-110371967D01*
X152691994Y-110348910D01*
X152810186Y-110348910D01*
X152926103Y-110371967D01*
X152926103Y-110371967D01*
G37*
G36*
X144274182Y-107926900D02*
G01*
X144401573Y-107979667D01*
X144401574Y-107979668D01*
X144516224Y-108056274D01*
X144613726Y-108153776D01*
X144613727Y-108153778D01*
X144690333Y-108268427D01*
X144743100Y-108395818D01*
X144770000Y-108531055D01*
X144770000Y-108668946D01*
X144759082Y-108723836D01*
X144756680Y-108748222D01*
X144759082Y-108772608D01*
X144766195Y-108796057D01*
X144777746Y-108817667D01*
X144793292Y-108836609D01*
X144812234Y-108852154D01*
X144833845Y-108863705D01*
X144857294Y-108870818D01*
X144881679Y-108873220D01*
X148307960Y-108873220D01*
X148307960Y-111273220D01*
X144707960Y-111273220D01*
X144707960Y-109249469D01*
X144705558Y-109225083D01*
X144698445Y-109201634D01*
X144686894Y-109180023D01*
X144671349Y-109161081D01*
X144652407Y-109145536D01*
X144630796Y-109133985D01*
X144607347Y-109126872D01*
X144582961Y-109124470D01*
X144558575Y-109126872D01*
X144535126Y-109133985D01*
X144513515Y-109145536D01*
X144401574Y-109220333D01*
X144274182Y-109273100D01*
X144138945Y-109300000D01*
X144001055Y-109300000D01*
X143865818Y-109273100D01*
X143738427Y-109220333D01*
X143632039Y-109149247D01*
X143623776Y-109143726D01*
X143526274Y-109046224D01*
X143449668Y-108931574D01*
X143449667Y-108931573D01*
X143396900Y-108804182D01*
X143370000Y-108668945D01*
X143370000Y-108531055D01*
X143396900Y-108395818D01*
X143449667Y-108268427D01*
X143526273Y-108153778D01*
X143526274Y-108153776D01*
X143623776Y-108056274D01*
X143738426Y-107979668D01*
X143738427Y-107979667D01*
X143865818Y-107926900D01*
X144001055Y-107900000D01*
X144138945Y-107900000D01*
X144274182Y-107926900D01*
X144274182Y-107926900D01*
G37*
G36*
X143375013Y-109623057D02*
G01*
X143484206Y-109668286D01*
X143582477Y-109733949D01*
X143666051Y-109817523D01*
X143731714Y-109915794D01*
X143776943Y-110024987D01*
X143800000Y-110140904D01*
X143800000Y-110259096D01*
X143776943Y-110375013D01*
X143731714Y-110484206D01*
X143666051Y-110582477D01*
X143582477Y-110666051D01*
X143484206Y-110731714D01*
X143375013Y-110776943D01*
X143259096Y-110800000D01*
X143140904Y-110800000D01*
X143024987Y-110776943D01*
X142915794Y-110731714D01*
X142817523Y-110666051D01*
X142733949Y-110582477D01*
X142668286Y-110484206D01*
X142623057Y-110375013D01*
X142600000Y-110259096D01*
X142600000Y-110140904D01*
X142623057Y-110024987D01*
X142668286Y-109915794D01*
X142733949Y-109817523D01*
X142817523Y-109733949D01*
X142915794Y-109668286D01*
X143024987Y-109623057D01*
X143140904Y-109600000D01*
X143259096Y-109600000D01*
X143375013Y-109623057D01*
X143375013Y-109623057D01*
G37*
G36*
X157075013Y-109523057D02*
G01*
X157184206Y-109568286D01*
X157282477Y-109633949D01*
X157366051Y-109717523D01*
X157431714Y-109815794D01*
X157476943Y-109924987D01*
X157500000Y-110040904D01*
X157500000Y-110159096D01*
X157476943Y-110275013D01*
X157431714Y-110384206D01*
X157366051Y-110482477D01*
X157282477Y-110566051D01*
X157184206Y-110631714D01*
X157075013Y-110676943D01*
X156959096Y-110700000D01*
X156840904Y-110700000D01*
X156724987Y-110676943D01*
X156615794Y-110631714D01*
X156517523Y-110566051D01*
X156433949Y-110482477D01*
X156368286Y-110384206D01*
X156323057Y-110275013D01*
X156300000Y-110159096D01*
X156300000Y-110040904D01*
X156323057Y-109924987D01*
X156368286Y-109815794D01*
X156433949Y-109717523D01*
X156517523Y-109633949D01*
X156615794Y-109568286D01*
X156724987Y-109523057D01*
X156840904Y-109500000D01*
X156959096Y-109500000D01*
X157075013Y-109523057D01*
X157075013Y-109523057D01*
G37*
G36*
X137845843Y-108619214D02*
G01*
X137845846Y-108619215D01*
X137845845Y-108619215D01*
X137936839Y-108656906D01*
X137954855Y-108668944D01*
X138018730Y-108711624D01*
X138088376Y-108781270D01*
X138143095Y-108863163D01*
X138180786Y-108954157D01*
X138200000Y-109050753D01*
X138200000Y-109149247D01*
X138180786Y-109245843D01*
X138180785Y-109245845D01*
X138143094Y-109336839D01*
X138088375Y-109418731D01*
X138018731Y-109488375D01*
X137936839Y-109543094D01*
X137936838Y-109543095D01*
X137936837Y-109543095D01*
X137845843Y-109580786D01*
X137749247Y-109600000D01*
X137650753Y-109600000D01*
X137554157Y-109580786D01*
X137463163Y-109543095D01*
X137463162Y-109543095D01*
X137463161Y-109543094D01*
X137381269Y-109488375D01*
X137311625Y-109418731D01*
X137256906Y-109336839D01*
X137219215Y-109245845D01*
X137219214Y-109245843D01*
X137200000Y-109149247D01*
X137200000Y-109050753D01*
X137219214Y-108954157D01*
X137256905Y-108863163D01*
X137311624Y-108781270D01*
X137381270Y-108711624D01*
X137445145Y-108668944D01*
X137463161Y-108656906D01*
X137554155Y-108619215D01*
X137554154Y-108619215D01*
X137554157Y-108619214D01*
X137650753Y-108600000D01*
X137749247Y-108600000D01*
X137845843Y-108619214D01*
X137845843Y-108619214D01*
G37*
G36*
X140207960Y-103173220D02*
G01*
X139633646Y-103173220D01*
X139609260Y-103175622D01*
X139585811Y-103182735D01*
X139564200Y-103194286D01*
X139545258Y-103209831D01*
X139529713Y-103228773D01*
X139518162Y-103250384D01*
X139511049Y-103273833D01*
X139508647Y-103298219D01*
X139511049Y-103322605D01*
X139518162Y-103346054D01*
X139529713Y-103367665D01*
X139545258Y-103386607D01*
X139564200Y-103402152D01*
X139567878Y-103404118D01*
X139576372Y-103409794D01*
X139576373Y-103409794D01*
X139772915Y-103541119D01*
X139940061Y-103708265D01*
X140056466Y-103882477D01*
X140071387Y-103904809D01*
X140161845Y-104123194D01*
X140207960Y-104355029D01*
X140207960Y-104591411D01*
X140161845Y-104823246D01*
X140103890Y-104963161D01*
X140071386Y-105041633D01*
X139940061Y-105238175D01*
X139772915Y-105405321D01*
X139576373Y-105536646D01*
X139576372Y-105536647D01*
X139576371Y-105536647D01*
X139404747Y-105607736D01*
X139383136Y-105619287D01*
X139364194Y-105634832D01*
X139348649Y-105653774D01*
X139337098Y-105675385D01*
X139329985Y-105698834D01*
X139327583Y-105723220D01*
X139329985Y-105747606D01*
X139337098Y-105771055D01*
X139348649Y-105792666D01*
X139364194Y-105811608D01*
X139383136Y-105827153D01*
X139404747Y-105838704D01*
X139576371Y-105909793D01*
X139576373Y-105909794D01*
X139772915Y-106041119D01*
X139940061Y-106208265D01*
X140071387Y-106404809D01*
X140161845Y-106623194D01*
X140207960Y-106855029D01*
X140207960Y-107091411D01*
X140161845Y-107323246D01*
X140091230Y-107493726D01*
X140071386Y-107541633D01*
X139940061Y-107738175D01*
X139772915Y-107905321D01*
X139576373Y-108036646D01*
X139576372Y-108036647D01*
X139576371Y-108036647D01*
X139357986Y-108127105D01*
X139126151Y-108173220D01*
X138889769Y-108173220D01*
X138657934Y-108127105D01*
X138439549Y-108036647D01*
X138439548Y-108036647D01*
X138439547Y-108036646D01*
X138243005Y-107905321D01*
X138075859Y-107738175D01*
X137944534Y-107541633D01*
X137924690Y-107493726D01*
X137854075Y-107323246D01*
X137807960Y-107091411D01*
X137807960Y-106855029D01*
X137854075Y-106623194D01*
X137944533Y-106404809D01*
X138075859Y-106208265D01*
X138243005Y-106041119D01*
X138439547Y-105909794D01*
X138439549Y-105909793D01*
X138611173Y-105838704D01*
X138632784Y-105827153D01*
X138651726Y-105811608D01*
X138667271Y-105792666D01*
X138678822Y-105771055D01*
X138685935Y-105747606D01*
X138688337Y-105723220D01*
X138685935Y-105698834D01*
X138678822Y-105675385D01*
X138667271Y-105653774D01*
X138651726Y-105634832D01*
X138632784Y-105619287D01*
X138611173Y-105607736D01*
X138439549Y-105536647D01*
X138439548Y-105536647D01*
X138439547Y-105536646D01*
X138243005Y-105405321D01*
X138075859Y-105238175D01*
X138028932Y-105167944D01*
X138013387Y-105149002D01*
X137994445Y-105133457D01*
X137972834Y-105121906D01*
X137949385Y-105114793D01*
X137924999Y-105112391D01*
X137900613Y-105114793D01*
X137877164Y-105121906D01*
X137855553Y-105133457D01*
X137836611Y-105149002D01*
X137821066Y-105167944D01*
X137809515Y-105189555D01*
X137802402Y-105213004D01*
X137800000Y-105237390D01*
X137800000Y-105249247D01*
X137780786Y-105345843D01*
X137743095Y-105436837D01*
X137688376Y-105518730D01*
X137618730Y-105588376D01*
X137578063Y-105615549D01*
X137536839Y-105643094D01*
X137536838Y-105643095D01*
X137536837Y-105643095D01*
X137445843Y-105680786D01*
X137349247Y-105700000D01*
X137250753Y-105700000D01*
X137154157Y-105680786D01*
X137063163Y-105643095D01*
X137063162Y-105643095D01*
X137063161Y-105643094D01*
X137021937Y-105615549D01*
X136981270Y-105588376D01*
X136911624Y-105518730D01*
X136856905Y-105436837D01*
X136819214Y-105345843D01*
X136800000Y-105249247D01*
X136800000Y-105150753D01*
X136819214Y-105054157D01*
X136856905Y-104963163D01*
X136911624Y-104881270D01*
X136981270Y-104811624D01*
X137042679Y-104770592D01*
X137063161Y-104756906D01*
X137086731Y-104747143D01*
X137154157Y-104719214D01*
X137250753Y-104700000D01*
X137349247Y-104700000D01*
X137445843Y-104719214D01*
X137513269Y-104747143D01*
X137536839Y-104756906D01*
X137557321Y-104770592D01*
X137619294Y-104812001D01*
X137637193Y-104826690D01*
X137658804Y-104838241D01*
X137682253Y-104845354D01*
X137706639Y-104847756D01*
X137731025Y-104845354D01*
X137754474Y-104838241D01*
X137776085Y-104826690D01*
X137795027Y-104811145D01*
X137810572Y-104792203D01*
X137822123Y-104770592D01*
X137829236Y-104747143D01*
X137831638Y-104722757D01*
X137829236Y-104698371D01*
X137807960Y-104591411D01*
X137807960Y-104355029D01*
X137854075Y-104123194D01*
X137944533Y-103904809D01*
X137959455Y-103882477D01*
X138075859Y-103708265D01*
X138243005Y-103541119D01*
X138439547Y-103409794D01*
X138439548Y-103409794D01*
X138448048Y-103404114D01*
X138451724Y-103402149D01*
X138470665Y-103386603D01*
X138486209Y-103367661D01*
X138497760Y-103346050D01*
X138504872Y-103322601D01*
X138507273Y-103298214D01*
X138504870Y-103273828D01*
X138497756Y-103250380D01*
X138486204Y-103228769D01*
X138470658Y-103209828D01*
X138451716Y-103194284D01*
X138430105Y-103182733D01*
X138406656Y-103175621D01*
X138382274Y-103173220D01*
X137807960Y-103173220D01*
X137807960Y-100773220D01*
X140207960Y-100773220D01*
X140207960Y-103173220D01*
X140207960Y-103173220D01*
G37*
G36*
X153857986Y-105819335D02*
G01*
X154076371Y-105909793D01*
X154076373Y-105909794D01*
X154272915Y-106041119D01*
X154440061Y-106208265D01*
X154571387Y-106404809D01*
X154661845Y-106623194D01*
X154707960Y-106855029D01*
X154707960Y-107091411D01*
X154661845Y-107323246D01*
X154591230Y-107493726D01*
X154571386Y-107541633D01*
X154440061Y-107738175D01*
X154272915Y-107905321D01*
X154076373Y-108036646D01*
X154076372Y-108036647D01*
X154076371Y-108036647D01*
X153857986Y-108127105D01*
X153626151Y-108173220D01*
X153389769Y-108173220D01*
X153157934Y-108127105D01*
X152939549Y-108036647D01*
X152939548Y-108036647D01*
X152939547Y-108036646D01*
X152743005Y-107905321D01*
X152575859Y-107738175D01*
X152444534Y-107541633D01*
X152424690Y-107493726D01*
X152354075Y-107323246D01*
X152307960Y-107091411D01*
X152307960Y-106855029D01*
X152354075Y-106623194D01*
X152444533Y-106404809D01*
X152575859Y-106208265D01*
X152743005Y-106041119D01*
X152939547Y-105909794D01*
X152939549Y-105909793D01*
X153157934Y-105819335D01*
X153389769Y-105773220D01*
X153626151Y-105773220D01*
X153857986Y-105819335D01*
X153857986Y-105819335D01*
G37*
G36*
X134254182Y-106276900D02*
G01*
X134381573Y-106329667D01*
X134438510Y-106367711D01*
X134496224Y-106406274D01*
X134593726Y-106503776D01*
X134593727Y-106503778D01*
X134670333Y-106618427D01*
X134723100Y-106745818D01*
X134750000Y-106881055D01*
X134750000Y-107018945D01*
X134723100Y-107154182D01*
X134670333Y-107281573D01*
X134670332Y-107281574D01*
X134593726Y-107396224D01*
X134496224Y-107493726D01*
X134438510Y-107532289D01*
X134381573Y-107570333D01*
X134254182Y-107623100D01*
X134118945Y-107650000D01*
X133981055Y-107650000D01*
X133845818Y-107623100D01*
X133718427Y-107570333D01*
X133661490Y-107532289D01*
X133603776Y-107493726D01*
X133506274Y-107396224D01*
X133429668Y-107281574D01*
X133429667Y-107281573D01*
X133376900Y-107154182D01*
X133350000Y-107018945D01*
X133350000Y-106881055D01*
X133376900Y-106745818D01*
X133429667Y-106618427D01*
X133506273Y-106503778D01*
X133506274Y-106503776D01*
X133603776Y-106406274D01*
X133661490Y-106367711D01*
X133718427Y-106329667D01*
X133845818Y-106276900D01*
X133981055Y-106250000D01*
X134118945Y-106250000D01*
X134254182Y-106276900D01*
X134254182Y-106276900D01*
G37*
G36*
X148375013Y-105323057D02*
G01*
X148484206Y-105368286D01*
X148582477Y-105433949D01*
X148666051Y-105517523D01*
X148731714Y-105615794D01*
X148776943Y-105724987D01*
X148800000Y-105840904D01*
X148800000Y-105959096D01*
X148776943Y-106075013D01*
X148731714Y-106184206D01*
X148666051Y-106282477D01*
X148582477Y-106366051D01*
X148484206Y-106431714D01*
X148375013Y-106476943D01*
X148259096Y-106500000D01*
X148140904Y-106500000D01*
X148024987Y-106476943D01*
X147915794Y-106431714D01*
X147817523Y-106366051D01*
X147733949Y-106282477D01*
X147668286Y-106184206D01*
X147623057Y-106075013D01*
X147600000Y-105959096D01*
X147600000Y-105840904D01*
X147623057Y-105724987D01*
X147668286Y-105615794D01*
X147733949Y-105517523D01*
X147817523Y-105433949D01*
X147915794Y-105368286D01*
X148024987Y-105323057D01*
X148140904Y-105300000D01*
X148259096Y-105300000D01*
X148375013Y-105323057D01*
X148375013Y-105323057D01*
G37*
G36*
X144502842Y-104244320D02*
G01*
X144630233Y-104297087D01*
X144630234Y-104297088D01*
X144744884Y-104373694D01*
X144842386Y-104471196D01*
X144842387Y-104471198D01*
X144918993Y-104585847D01*
X144971760Y-104713238D01*
X144998660Y-104848475D01*
X144998660Y-104986365D01*
X144971760Y-105121602D01*
X144918993Y-105248993D01*
X144918992Y-105248994D01*
X144842386Y-105363644D01*
X144744884Y-105461146D01*
X144687170Y-105499709D01*
X144630233Y-105537753D01*
X144502842Y-105590520D01*
X144367605Y-105617420D01*
X144229715Y-105617420D01*
X144094478Y-105590520D01*
X143967087Y-105537753D01*
X143910150Y-105499709D01*
X143852436Y-105461146D01*
X143754934Y-105363644D01*
X143678328Y-105248994D01*
X143678327Y-105248993D01*
X143625560Y-105121602D01*
X143598660Y-104986365D01*
X143598660Y-104848475D01*
X143625560Y-104713238D01*
X143678327Y-104585847D01*
X143754933Y-104471198D01*
X143754934Y-104471196D01*
X143852436Y-104373694D01*
X143967086Y-104297088D01*
X143967087Y-104297087D01*
X144094478Y-104244320D01*
X144229715Y-104217420D01*
X144367605Y-104217420D01*
X144502842Y-104244320D01*
X144502842Y-104244320D01*
G37*
G36*
X155875013Y-102923057D02*
G01*
X155984206Y-102968286D01*
X156082477Y-103033949D01*
X156166051Y-103117523D01*
X156231714Y-103215794D01*
X156276943Y-103324987D01*
X156300000Y-103440904D01*
X156300000Y-103559096D01*
X156276943Y-103675013D01*
X156231714Y-103784206D01*
X156166051Y-103882477D01*
X156082477Y-103966051D01*
X155984206Y-104031714D01*
X155875013Y-104076943D01*
X155759096Y-104100000D01*
X155640904Y-104100000D01*
X155524987Y-104076943D01*
X155415794Y-104031714D01*
X155317523Y-103966051D01*
X155233949Y-103882477D01*
X155168286Y-103784206D01*
X155123057Y-103675013D01*
X155100000Y-103559096D01*
X155100000Y-103440904D01*
X155123057Y-103324987D01*
X155168286Y-103215794D01*
X155233949Y-103117523D01*
X155317523Y-103033949D01*
X155415794Y-102968286D01*
X155524987Y-102923057D01*
X155640904Y-102900000D01*
X155759096Y-102900000D01*
X155875013Y-102923057D01*
X155875013Y-102923057D01*
G37*
G36*
X148775013Y-102023057D02*
G01*
X148884206Y-102068286D01*
X148982477Y-102133949D01*
X149066051Y-102217523D01*
X149131714Y-102315794D01*
X149176943Y-102424987D01*
X149200000Y-102540904D01*
X149200000Y-102659096D01*
X149176943Y-102775013D01*
X149131714Y-102884206D01*
X149066051Y-102982477D01*
X148982477Y-103066051D01*
X148884206Y-103131714D01*
X148775013Y-103176943D01*
X148659096Y-103200000D01*
X148540904Y-103200000D01*
X148424987Y-103176943D01*
X148315794Y-103131714D01*
X148217523Y-103066051D01*
X148133949Y-102982477D01*
X148068286Y-102884206D01*
X148023057Y-102775013D01*
X148000000Y-102659096D01*
X148000000Y-102540904D01*
X148023057Y-102424987D01*
X148068286Y-102315794D01*
X148133949Y-102217523D01*
X148217523Y-102133949D01*
X148315794Y-102068286D01*
X148424987Y-102023057D01*
X148540904Y-102000000D01*
X148659096Y-102000000D01*
X148775013Y-102023057D01*
X148775013Y-102023057D01*
G37*
G36*
X153857986Y-100819335D02*
G01*
X153990398Y-100874182D01*
X154076373Y-100909794D01*
X154272915Y-101041119D01*
X154440061Y-101208265D01*
X154548129Y-101370000D01*
X154571387Y-101404809D01*
X154661845Y-101623194D01*
X154707960Y-101855029D01*
X154707960Y-102091411D01*
X154661845Y-102323246D01*
X154571688Y-102540904D01*
X154571386Y-102541633D01*
X154440061Y-102738175D01*
X154272915Y-102905321D01*
X154076373Y-103036646D01*
X154076372Y-103036647D01*
X154076371Y-103036647D01*
X153857986Y-103127105D01*
X153626151Y-103173220D01*
X153389769Y-103173220D01*
X153157934Y-103127105D01*
X152939549Y-103036647D01*
X152939548Y-103036647D01*
X152939547Y-103036646D01*
X152743005Y-102905321D01*
X152575859Y-102738175D01*
X152444534Y-102541633D01*
X152444232Y-102540904D01*
X152354075Y-102323246D01*
X152307960Y-102091411D01*
X152307960Y-101855029D01*
X152354075Y-101623194D01*
X152444533Y-101404809D01*
X152467792Y-101370000D01*
X152575859Y-101208265D01*
X152743005Y-101041119D01*
X152939547Y-100909794D01*
X153025522Y-100874182D01*
X153157934Y-100819335D01*
X153389769Y-100773220D01*
X153626151Y-100773220D01*
X153857986Y-100819335D01*
X153857986Y-100819335D01*
G37*
G36*
X144475013Y-100823057D02*
G01*
X144584206Y-100868286D01*
X144682477Y-100933949D01*
X144766051Y-101017523D01*
X144831714Y-101115794D01*
X144876943Y-101224987D01*
X144900000Y-101340904D01*
X144900000Y-101459096D01*
X144876943Y-101575013D01*
X144831714Y-101684206D01*
X144766051Y-101782477D01*
X144682477Y-101866051D01*
X144584206Y-101931714D01*
X144475013Y-101976943D01*
X144359096Y-102000000D01*
X144240904Y-102000000D01*
X144124987Y-101976943D01*
X144015794Y-101931714D01*
X143917523Y-101866051D01*
X143833949Y-101782477D01*
X143768286Y-101684206D01*
X143723057Y-101575013D01*
X143700000Y-101459096D01*
X143700000Y-101340904D01*
X143723057Y-101224987D01*
X143768286Y-101115794D01*
X143833949Y-101017523D01*
X143917523Y-100933949D01*
X144015794Y-100868286D01*
X144124987Y-100823057D01*
X144240904Y-100800000D01*
X144359096Y-100800000D01*
X144475013Y-100823057D01*
X144475013Y-100823057D01*
G37*
G36*
X134274182Y-99996900D02*
G01*
X134401573Y-100049667D01*
X134448144Y-100080785D01*
X134516224Y-100126274D01*
X134613726Y-100223776D01*
X134613727Y-100223778D01*
X134690333Y-100338427D01*
X134743100Y-100465818D01*
X134770000Y-100601055D01*
X134770000Y-100738945D01*
X134743100Y-100874182D01*
X134690333Y-101001573D01*
X134663909Y-101041119D01*
X134613726Y-101116224D01*
X134516224Y-101213726D01*
X134458510Y-101252289D01*
X134401573Y-101290333D01*
X134274182Y-101343100D01*
X134138945Y-101370000D01*
X134001055Y-101370000D01*
X133865818Y-101343100D01*
X133738427Y-101290333D01*
X133681490Y-101252289D01*
X133623776Y-101213726D01*
X133526274Y-101116224D01*
X133476091Y-101041119D01*
X133449667Y-101001573D01*
X133396900Y-100874182D01*
X133370000Y-100738945D01*
X133370000Y-100601055D01*
X133396900Y-100465818D01*
X133449667Y-100338427D01*
X133526273Y-100223778D01*
X133526274Y-100223776D01*
X133623776Y-100126274D01*
X133691856Y-100080785D01*
X133738427Y-100049667D01*
X133865818Y-99996900D01*
X134001055Y-99970000D01*
X134138945Y-99970000D01*
X134274182Y-99996900D01*
X134274182Y-99996900D01*
G37*
G36*
X141345843Y-99119214D02*
G01*
X141436837Y-99156905D01*
X141436839Y-99156906D01*
X141478063Y-99184451D01*
X141518730Y-99211624D01*
X141588376Y-99281270D01*
X141643095Y-99363163D01*
X141680786Y-99454157D01*
X141700000Y-99550753D01*
X141700000Y-99649247D01*
X141680786Y-99745843D01*
X141680785Y-99745845D01*
X141643094Y-99836839D01*
X141588375Y-99918731D01*
X141518731Y-99988375D01*
X141436839Y-100043094D01*
X141436838Y-100043095D01*
X141436837Y-100043095D01*
X141345843Y-100080786D01*
X141249247Y-100100000D01*
X141150753Y-100100000D01*
X141054157Y-100080786D01*
X140963163Y-100043095D01*
X140963162Y-100043095D01*
X140963161Y-100043094D01*
X140881269Y-99988375D01*
X140811625Y-99918731D01*
X140756906Y-99836839D01*
X140719215Y-99745845D01*
X140719214Y-99745843D01*
X140700000Y-99649247D01*
X140700000Y-99550753D01*
X140719214Y-99454157D01*
X140756905Y-99363163D01*
X140811624Y-99281270D01*
X140881270Y-99211624D01*
X140921937Y-99184451D01*
X140963161Y-99156906D01*
X140963163Y-99156905D01*
X141054157Y-99119214D01*
X141150753Y-99100000D01*
X141249247Y-99100000D01*
X141345843Y-99119214D01*
X141345843Y-99119214D01*
G37*
G36*
X148545843Y-96919214D02*
G01*
X148545846Y-96919215D01*
X148545845Y-96919215D01*
X148636839Y-96956906D01*
X148678063Y-96984451D01*
X148718730Y-97011624D01*
X148788376Y-97081270D01*
X148843095Y-97163163D01*
X148880786Y-97254157D01*
X148900000Y-97350753D01*
X148900000Y-97449247D01*
X148880786Y-97545843D01*
X148859987Y-97596056D01*
X148843094Y-97636839D01*
X148788375Y-97718731D01*
X148718731Y-97788375D01*
X148636839Y-97843094D01*
X148636838Y-97843095D01*
X148636837Y-97843095D01*
X148545843Y-97880786D01*
X148449247Y-97900000D01*
X148432959Y-97900000D01*
X148408573Y-97902402D01*
X148385124Y-97909515D01*
X148363513Y-97921066D01*
X148344571Y-97936611D01*
X148329026Y-97955553D01*
X148317475Y-97977164D01*
X148310362Y-98000613D01*
X148307960Y-98024999D01*
X148307960Y-100073220D01*
X144707960Y-100073220D01*
X144707960Y-97673220D01*
X147792239Y-97673220D01*
X147816625Y-97670818D01*
X147840074Y-97663705D01*
X147861685Y-97652154D01*
X147880627Y-97636609D01*
X147896172Y-97617667D01*
X147907723Y-97596056D01*
X147914836Y-97572607D01*
X147917238Y-97548221D01*
X147914836Y-97523836D01*
X147900000Y-97449248D01*
X147900000Y-97350753D01*
X147919214Y-97254157D01*
X147956905Y-97163163D01*
X148011624Y-97081270D01*
X148081270Y-97011624D01*
X148121937Y-96984451D01*
X148163161Y-96956906D01*
X148254155Y-96919215D01*
X148254154Y-96919215D01*
X148254157Y-96919214D01*
X148350753Y-96900000D01*
X148449247Y-96900000D01*
X148545843Y-96919214D01*
X148545843Y-96919214D01*
G37*
G36*
X137145843Y-97319214D02*
G01*
X137221987Y-97350754D01*
X137236839Y-97356906D01*
X137278063Y-97384451D01*
X137318730Y-97411624D01*
X137388376Y-97481270D01*
X137443095Y-97563163D01*
X137480786Y-97654157D01*
X137500000Y-97750753D01*
X137500000Y-97849247D01*
X137480786Y-97945843D01*
X137480785Y-97945845D01*
X137443094Y-98036839D01*
X137388375Y-98118731D01*
X137318731Y-98188375D01*
X137236839Y-98243094D01*
X137236838Y-98243095D01*
X137236837Y-98243095D01*
X137145843Y-98280786D01*
X137049247Y-98300000D01*
X136988086Y-98300000D01*
X136963700Y-98302402D01*
X136940251Y-98309515D01*
X136918640Y-98321066D01*
X136899698Y-98336611D01*
X136884153Y-98355553D01*
X136872602Y-98377164D01*
X136865489Y-98400613D01*
X136863087Y-98424999D01*
X136865489Y-98449385D01*
X136872602Y-98472833D01*
X136875776Y-98480497D01*
X136894991Y-98577096D01*
X136894991Y-98675590D01*
X136875777Y-98772186D01*
X136864256Y-98800000D01*
X136838085Y-98863182D01*
X136783366Y-98945074D01*
X136713722Y-99014718D01*
X136631830Y-99069437D01*
X136631829Y-99069438D01*
X136631828Y-99069438D01*
X136540834Y-99107129D01*
X136444238Y-99126343D01*
X136345744Y-99126343D01*
X136249148Y-99107129D01*
X136158154Y-99069438D01*
X136158153Y-99069438D01*
X136158152Y-99069437D01*
X136076260Y-99014718D01*
X136006616Y-98945074D01*
X135951897Y-98863182D01*
X135925726Y-98800000D01*
X135914205Y-98772186D01*
X135894991Y-98675590D01*
X135894991Y-98577096D01*
X135914205Y-98480500D01*
X135951896Y-98389506D01*
X135960143Y-98377164D01*
X136006616Y-98307612D01*
X136076260Y-98237968D01*
X136158152Y-98183249D01*
X136249146Y-98145558D01*
X136249145Y-98145558D01*
X136249148Y-98145557D01*
X136345744Y-98126343D01*
X136406905Y-98126343D01*
X136431291Y-98123941D01*
X136454740Y-98116828D01*
X136476351Y-98105277D01*
X136495293Y-98089732D01*
X136510838Y-98070790D01*
X136522389Y-98049179D01*
X136529502Y-98025730D01*
X136531904Y-98001344D01*
X136529502Y-97976958D01*
X136522389Y-97953510D01*
X136519215Y-97945846D01*
X136500000Y-97849247D01*
X136500000Y-97750753D01*
X136519214Y-97654157D01*
X136556905Y-97563163D01*
X136611624Y-97481270D01*
X136681270Y-97411624D01*
X136721937Y-97384451D01*
X136763161Y-97356906D01*
X136778013Y-97350754D01*
X136854157Y-97319214D01*
X136950753Y-97300000D01*
X137049247Y-97300000D01*
X137145843Y-97319214D01*
X137145843Y-97319214D01*
G37*
G36*
X155975013Y-97623057D02*
G01*
X156084206Y-97668286D01*
X156182477Y-97733949D01*
X156266051Y-97817523D01*
X156331714Y-97915794D01*
X156376943Y-98024987D01*
X156400000Y-98140904D01*
X156400000Y-98259096D01*
X156376943Y-98375013D01*
X156331714Y-98484206D01*
X156266051Y-98582477D01*
X156182477Y-98666051D01*
X156084206Y-98731714D01*
X155975013Y-98776943D01*
X155859096Y-98800000D01*
X155740904Y-98800000D01*
X155624987Y-98776943D01*
X155515794Y-98731714D01*
X155417523Y-98666051D01*
X155333949Y-98582477D01*
X155268286Y-98484206D01*
X155223057Y-98375013D01*
X155200000Y-98259096D01*
X155200000Y-98140904D01*
X155223057Y-98024987D01*
X155268286Y-97915794D01*
X155333949Y-97817523D01*
X155417523Y-97733949D01*
X155515794Y-97668286D01*
X155624987Y-97623057D01*
X155740904Y-97600000D01*
X155859096Y-97600000D01*
X155975013Y-97623057D01*
X155975013Y-97623057D01*
G37*
G36*
X144244182Y-96296900D02*
G01*
X144371573Y-96349667D01*
X144371574Y-96349668D01*
X144486224Y-96426274D01*
X144583726Y-96523776D01*
X144583727Y-96523778D01*
X144660333Y-96638427D01*
X144713100Y-96765818D01*
X144740000Y-96901055D01*
X144740000Y-97038945D01*
X144713100Y-97174182D01*
X144660333Y-97301573D01*
X144648545Y-97319215D01*
X144583726Y-97416224D01*
X144540111Y-97459839D01*
X144524571Y-97478775D01*
X144520720Y-97485980D01*
X144513515Y-97489831D01*
X144494579Y-97505371D01*
X144486224Y-97513726D01*
X144471093Y-97523836D01*
X144371573Y-97590333D01*
X144244182Y-97643100D01*
X144108945Y-97670000D01*
X143971055Y-97670000D01*
X143835818Y-97643100D01*
X143708427Y-97590333D01*
X143608907Y-97523836D01*
X143593776Y-97513726D01*
X143496274Y-97416224D01*
X143431455Y-97319215D01*
X143419667Y-97301573D01*
X143366900Y-97174182D01*
X143340000Y-97038945D01*
X143340000Y-96901055D01*
X143366900Y-96765818D01*
X143419667Y-96638427D01*
X143496273Y-96523778D01*
X143496274Y-96523776D01*
X143593776Y-96426274D01*
X143708426Y-96349668D01*
X143708427Y-96349667D01*
X143835818Y-96296900D01*
X143971055Y-96270000D01*
X144108945Y-96270000D01*
X144244182Y-96296900D01*
X144244182Y-96296900D01*
G37*
G36*
X139076049Y-93791212D02*
G01*
X139221639Y-93851517D01*
X139352668Y-93939068D01*
X139464099Y-94050499D01*
X139551650Y-94181528D01*
X139611955Y-94327118D01*
X139642698Y-94481675D01*
X139642698Y-94639263D01*
X139611955Y-94793820D01*
X139551650Y-94939410D01*
X139464099Y-95070439D01*
X139352668Y-95181870D01*
X139221639Y-95269421D01*
X139076049Y-95329726D01*
X138921492Y-95360469D01*
X138763904Y-95360469D01*
X138609347Y-95329726D01*
X138463757Y-95269421D01*
X138332728Y-95181870D01*
X138221297Y-95070439D01*
X138133746Y-94939410D01*
X138073441Y-94793820D01*
X138042698Y-94639263D01*
X138042698Y-94481675D01*
X138073441Y-94327118D01*
X138133746Y-94181528D01*
X138221297Y-94050499D01*
X138332728Y-93939068D01*
X138463757Y-93851517D01*
X138609347Y-93791212D01*
X138763904Y-93760469D01*
X138921492Y-93760469D01*
X139076049Y-93791212D01*
X139076049Y-93791212D01*
G37*
G36*
X136698620Y-93809998D02*
G01*
X136826011Y-93862765D01*
X136826012Y-93862766D01*
X136940662Y-93939372D01*
X137038164Y-94036874D01*
X137067828Y-94081270D01*
X137114771Y-94151525D01*
X137167538Y-94278916D01*
X137194438Y-94414153D01*
X137194438Y-94552043D01*
X137167538Y-94687280D01*
X137114771Y-94814671D01*
X137114770Y-94814672D01*
X137038164Y-94929322D01*
X136940662Y-95026824D01*
X136882948Y-95065387D01*
X136826011Y-95103431D01*
X136698620Y-95156198D01*
X136563383Y-95183098D01*
X136425493Y-95183098D01*
X136290256Y-95156198D01*
X136162865Y-95103431D01*
X136105928Y-95065387D01*
X136048214Y-95026824D01*
X135950712Y-94929322D01*
X135874106Y-94814672D01*
X135874105Y-94814671D01*
X135821338Y-94687280D01*
X135794438Y-94552043D01*
X135794438Y-94414153D01*
X135821338Y-94278916D01*
X135874105Y-94151525D01*
X135921048Y-94081270D01*
X135950712Y-94036874D01*
X136048214Y-93939372D01*
X136162864Y-93862766D01*
X136162865Y-93862765D01*
X136290256Y-93809998D01*
X136425493Y-93783098D01*
X136563383Y-93783098D01*
X136698620Y-93809998D01*
X136698620Y-93809998D01*
G37*
G36*
X153245843Y-94019214D02*
G01*
X153330509Y-94054284D01*
X153336839Y-94056906D01*
X153347155Y-94063799D01*
X153418730Y-94111624D01*
X153488376Y-94181270D01*
X153488548Y-94181528D01*
X153537078Y-94254157D01*
X153543095Y-94263163D01*
X153580786Y-94354157D01*
X153600000Y-94450753D01*
X153600000Y-94549247D01*
X153580786Y-94645843D01*
X153543095Y-94736837D01*
X153508659Y-94788375D01*
X153488375Y-94818731D01*
X153418731Y-94888375D01*
X153336839Y-94943094D01*
X153336838Y-94943095D01*
X153336837Y-94943095D01*
X153245843Y-94980786D01*
X153149247Y-95000000D01*
X153050753Y-95000000D01*
X152954157Y-94980786D01*
X152863163Y-94943095D01*
X152863162Y-94943095D01*
X152863161Y-94943094D01*
X152781269Y-94888375D01*
X152711625Y-94818731D01*
X152691342Y-94788375D01*
X152656905Y-94736837D01*
X152619214Y-94645843D01*
X152600000Y-94549247D01*
X152600000Y-94450753D01*
X152619214Y-94354157D01*
X152656905Y-94263163D01*
X152662923Y-94254157D01*
X152711452Y-94181528D01*
X152711624Y-94181270D01*
X152781270Y-94111624D01*
X152852845Y-94063799D01*
X152863161Y-94056906D01*
X152869491Y-94054284D01*
X152954157Y-94019214D01*
X153050753Y-94000000D01*
X153149247Y-94000000D01*
X153245843Y-94019214D01*
X153245843Y-94019214D01*
G37*
G36*
X139453351Y-89280743D02*
G01*
X139598941Y-89341048D01*
X139729970Y-89428599D01*
X139841401Y-89540030D01*
X139928953Y-89671061D01*
X139945010Y-89709827D01*
X139956561Y-89731438D01*
X139972106Y-89750380D01*
X139991048Y-89765925D01*
X140012658Y-89777477D01*
X140036107Y-89784590D01*
X140060493Y-89786992D01*
X140084879Y-89784590D01*
X140108328Y-89777477D01*
X140129939Y-89765926D01*
X140148881Y-89750381D01*
X140164427Y-89731439D01*
X140164428Y-89731438D01*
X140196274Y-89683776D01*
X140293776Y-89586274D01*
X140408426Y-89509668D01*
X140408427Y-89509667D01*
X140535818Y-89456900D01*
X140671055Y-89430000D01*
X140808945Y-89430000D01*
X140944182Y-89456900D01*
X141071573Y-89509667D01*
X141071574Y-89509668D01*
X141186224Y-89586274D01*
X141283726Y-89683776D01*
X141315572Y-89731438D01*
X141360333Y-89798427D01*
X141413100Y-89925818D01*
X141440000Y-90061055D01*
X141440000Y-90198945D01*
X141413100Y-90334182D01*
X141360333Y-90461573D01*
X141360332Y-90461574D01*
X141283726Y-90576224D01*
X141242911Y-90617039D01*
X141227371Y-90635975D01*
X141215820Y-90657586D01*
X141208707Y-90681035D01*
X141206305Y-90705421D01*
X141208707Y-90729807D01*
X141215820Y-90753256D01*
X141227371Y-90774867D01*
X141242916Y-90793809D01*
X141261858Y-90809354D01*
X141283469Y-90820905D01*
X141306918Y-90828018D01*
X141331304Y-90830420D01*
X142558691Y-90830420D01*
X142570824Y-90836905D01*
X142594273Y-90844018D01*
X142618659Y-90846420D01*
X143536661Y-90846420D01*
X143561047Y-90844018D01*
X143584496Y-90836905D01*
X143596629Y-90830420D01*
X145126691Y-90830420D01*
X145138824Y-90836905D01*
X145162273Y-90844018D01*
X145186659Y-90846420D01*
X146076661Y-90846420D01*
X146101047Y-90844018D01*
X146124496Y-90836905D01*
X146136629Y-90830420D01*
X147666691Y-90830420D01*
X147678824Y-90836905D01*
X147702273Y-90844018D01*
X147726659Y-90846420D01*
X148616661Y-90846420D01*
X148641047Y-90844018D01*
X148664496Y-90836905D01*
X148676629Y-90830420D01*
X150206691Y-90830420D01*
X150218824Y-90836905D01*
X150242273Y-90844018D01*
X150266659Y-90846420D01*
X151156661Y-90846420D01*
X151181047Y-90844018D01*
X151204496Y-90836905D01*
X151216629Y-90830420D01*
X152746691Y-90830420D01*
X152758824Y-90836905D01*
X152782273Y-90844018D01*
X152806659Y-90846420D01*
X153696661Y-90846420D01*
X153721047Y-90844018D01*
X153744496Y-90836905D01*
X153756629Y-90830420D01*
X155286691Y-90830420D01*
X155298824Y-90836905D01*
X155322273Y-90844018D01*
X155346659Y-90846420D01*
X156483660Y-90846420D01*
X156483660Y-93246420D01*
X155795344Y-93246420D01*
X155770958Y-93248822D01*
X155747509Y-93255935D01*
X155725898Y-93267486D01*
X155706956Y-93283031D01*
X155691411Y-93301973D01*
X155679860Y-93323584D01*
X155672747Y-93347033D01*
X155670345Y-93371419D01*
X155672747Y-93395805D01*
X155679860Y-93419254D01*
X155716234Y-93507068D01*
X155735448Y-93603664D01*
X155735448Y-93702158D01*
X155722100Y-93769262D01*
X155719698Y-93793648D01*
X155722100Y-93818034D01*
X155729213Y-93841483D01*
X155740764Y-93863094D01*
X155756309Y-93882036D01*
X155775251Y-93897581D01*
X155796862Y-93909132D01*
X155820311Y-93916245D01*
X155844697Y-93918647D01*
X155869083Y-93916245D01*
X155950753Y-93900000D01*
X156049247Y-93900000D01*
X156145843Y-93919214D01*
X156236837Y-93956905D01*
X156236839Y-93956906D01*
X156258893Y-93971642D01*
X156318730Y-94011624D01*
X156388376Y-94081270D01*
X156443095Y-94163163D01*
X156480786Y-94254157D01*
X156500000Y-94350753D01*
X156500000Y-94449247D01*
X156480786Y-94545843D01*
X156480785Y-94545845D01*
X156443094Y-94636839D01*
X156388375Y-94718731D01*
X156318731Y-94788375D01*
X156236839Y-94843094D01*
X156236838Y-94843095D01*
X156236837Y-94843095D01*
X156145843Y-94880786D01*
X156049247Y-94900000D01*
X155950753Y-94900000D01*
X155854157Y-94880786D01*
X155763163Y-94843095D01*
X155763162Y-94843095D01*
X155763161Y-94843094D01*
X155681269Y-94788375D01*
X155611625Y-94718731D01*
X155556906Y-94636839D01*
X155519215Y-94545845D01*
X155519214Y-94545843D01*
X155500000Y-94449247D01*
X155500000Y-94350753D01*
X155513348Y-94283649D01*
X155515750Y-94259263D01*
X155513348Y-94234877D01*
X155506235Y-94211428D01*
X155494684Y-94189817D01*
X155479139Y-94170875D01*
X155460197Y-94155330D01*
X155438586Y-94143779D01*
X155415137Y-94136666D01*
X155390751Y-94134264D01*
X155366365Y-94136666D01*
X155284695Y-94152911D01*
X155186201Y-94152911D01*
X155089605Y-94133697D01*
X154998611Y-94096006D01*
X154998610Y-94096006D01*
X154998609Y-94096005D01*
X154967696Y-94075350D01*
X154946086Y-94063799D01*
X154922637Y-94056686D01*
X154898251Y-94054284D01*
X154873865Y-94056686D01*
X154850416Y-94063799D01*
X154828805Y-94075350D01*
X154809864Y-94090895D01*
X154794318Y-94109837D01*
X154788376Y-94118730D01*
X154718730Y-94188376D01*
X154712830Y-94192318D01*
X154636839Y-94243094D01*
X154636838Y-94243095D01*
X154636837Y-94243095D01*
X154545843Y-94280786D01*
X154449247Y-94300000D01*
X154350753Y-94300000D01*
X154254157Y-94280786D01*
X154163163Y-94243095D01*
X154163162Y-94243095D01*
X154163161Y-94243094D01*
X154087170Y-94192318D01*
X154081270Y-94188376D01*
X154011624Y-94118730D01*
X153974920Y-94063799D01*
X153956906Y-94036839D01*
X153946462Y-94011625D01*
X153919214Y-93945843D01*
X153900000Y-93849247D01*
X153900000Y-93750753D01*
X153919214Y-93654157D01*
X153956905Y-93563163D01*
X154011624Y-93481270D01*
X154033087Y-93459807D01*
X154048632Y-93440865D01*
X154060183Y-93419254D01*
X154067296Y-93395805D01*
X154069698Y-93371419D01*
X154067296Y-93347033D01*
X154060183Y-93323584D01*
X154048632Y-93301973D01*
X154033087Y-93283031D01*
X154014145Y-93267486D01*
X153992534Y-93255935D01*
X153969085Y-93248822D01*
X153944699Y-93246420D01*
X152478629Y-93246420D01*
X152466496Y-93239935D01*
X152443047Y-93232822D01*
X152418661Y-93230420D01*
X151528659Y-93230420D01*
X151504273Y-93232822D01*
X151480824Y-93239935D01*
X151468691Y-93246420D01*
X149938629Y-93246420D01*
X149926496Y-93239935D01*
X149903047Y-93232822D01*
X149878661Y-93230420D01*
X148988659Y-93230420D01*
X148964273Y-93232822D01*
X148940824Y-93239935D01*
X148928691Y-93246420D01*
X147398629Y-93246420D01*
X147386496Y-93239935D01*
X147363047Y-93232822D01*
X147338661Y-93230420D01*
X146448659Y-93230420D01*
X146424273Y-93232822D01*
X146400824Y-93239935D01*
X146388691Y-93246420D01*
X144858629Y-93246420D01*
X144846496Y-93239935D01*
X144823047Y-93232822D01*
X144798661Y-93230420D01*
X143908659Y-93230420D01*
X143884273Y-93232822D01*
X143860824Y-93239935D01*
X143848691Y-93246420D01*
X143185581Y-93246420D01*
X143161195Y-93248822D01*
X143137746Y-93255935D01*
X143116135Y-93267486D01*
X143097193Y-93283031D01*
X143081648Y-93301973D01*
X143070097Y-93323584D01*
X143062984Y-93347033D01*
X143060582Y-93371419D01*
X143062984Y-93395805D01*
X143070097Y-93419254D01*
X143081648Y-93440864D01*
X143131713Y-93515792D01*
X143176943Y-93624987D01*
X143200000Y-93740904D01*
X143200000Y-93859096D01*
X143176943Y-93975013D01*
X143131714Y-94084206D01*
X143066051Y-94182477D01*
X142982477Y-94266051D01*
X142884206Y-94331714D01*
X142775013Y-94376943D01*
X142659096Y-94400000D01*
X142540904Y-94400000D01*
X142424987Y-94376943D01*
X142315794Y-94331714D01*
X142217523Y-94266051D01*
X142133949Y-94182477D01*
X142068286Y-94084206D01*
X142023057Y-93975013D01*
X142000000Y-93859096D01*
X142000000Y-93740904D01*
X142023057Y-93624987D01*
X142068286Y-93515794D01*
X142129043Y-93424865D01*
X142140594Y-93403254D01*
X142147707Y-93379805D01*
X142150109Y-93355419D01*
X142147707Y-93331033D01*
X142140594Y-93307584D01*
X142129043Y-93285973D01*
X142113497Y-93267031D01*
X142094556Y-93251486D01*
X142072945Y-93239935D01*
X142049496Y-93232822D01*
X142025110Y-93230420D01*
X141330069Y-93230420D01*
X141305683Y-93232822D01*
X141282234Y-93239935D01*
X141260623Y-93251486D01*
X141241681Y-93267031D01*
X141226136Y-93285973D01*
X141214585Y-93307584D01*
X141207472Y-93331033D01*
X141205070Y-93355419D01*
X141207472Y-93379805D01*
X141231985Y-93503040D01*
X141231985Y-93640930D01*
X141205085Y-93776167D01*
X141152318Y-93903558D01*
X141128388Y-93939372D01*
X141075711Y-94018209D01*
X140978209Y-94115711D01*
X140973689Y-94118731D01*
X140863558Y-94192318D01*
X140736167Y-94245085D01*
X140600930Y-94271985D01*
X140463040Y-94271985D01*
X140327803Y-94245085D01*
X140200412Y-94192318D01*
X140090281Y-94118731D01*
X140085761Y-94115711D01*
X139988259Y-94018209D01*
X139935582Y-93939372D01*
X139911652Y-93903558D01*
X139858885Y-93776167D01*
X139831985Y-93640930D01*
X139831985Y-93503040D01*
X139856498Y-93379805D01*
X139858900Y-93355419D01*
X139856498Y-93331033D01*
X139849385Y-93307584D01*
X139837834Y-93285973D01*
X139822289Y-93267031D01*
X139803347Y-93251486D01*
X139781736Y-93239935D01*
X139758287Y-93232822D01*
X139733901Y-93230420D01*
X138553660Y-93230420D01*
X138553660Y-90830420D01*
X138567274Y-90830420D01*
X138591660Y-90828018D01*
X138615109Y-90820905D01*
X138636720Y-90809354D01*
X138655662Y-90793809D01*
X138671207Y-90774867D01*
X138682758Y-90753256D01*
X138689871Y-90729807D01*
X138692273Y-90705421D01*
X139747727Y-90705421D01*
X139750129Y-90729807D01*
X139757242Y-90753256D01*
X139768793Y-90774867D01*
X139784338Y-90793809D01*
X139803280Y-90809354D01*
X139824891Y-90820905D01*
X139848340Y-90828018D01*
X139872726Y-90830420D01*
X140148696Y-90830420D01*
X140173082Y-90828018D01*
X140196531Y-90820905D01*
X140218142Y-90809354D01*
X140237084Y-90793809D01*
X140252629Y-90774867D01*
X140264180Y-90753256D01*
X140271293Y-90729807D01*
X140273695Y-90705421D01*
X140271293Y-90681035D01*
X140264180Y-90657586D01*
X140252629Y-90635975D01*
X140237089Y-90617039D01*
X140196274Y-90576224D01*
X140171935Y-90539798D01*
X140117340Y-90458091D01*
X140101794Y-90439149D01*
X140082852Y-90423604D01*
X140061242Y-90412053D01*
X140037793Y-90404940D01*
X140013407Y-90402538D01*
X139989021Y-90404940D01*
X139965572Y-90412053D01*
X139943961Y-90423604D01*
X139925019Y-90439150D01*
X139909474Y-90458092D01*
X139841403Y-90559968D01*
X139784338Y-90617033D01*
X139768793Y-90635975D01*
X139757242Y-90657586D01*
X139750129Y-90681035D01*
X139747727Y-90705421D01*
X138692273Y-90705421D01*
X138689871Y-90681035D01*
X138682758Y-90657586D01*
X138671207Y-90635975D01*
X138655662Y-90617033D01*
X138598599Y-90559970D01*
X138511048Y-90428941D01*
X138450743Y-90283351D01*
X138420000Y-90128794D01*
X138420000Y-89971206D01*
X138450743Y-89816649D01*
X138511048Y-89671059D01*
X138598599Y-89540030D01*
X138710030Y-89428599D01*
X138841059Y-89341048D01*
X138986649Y-89280743D01*
X139141206Y-89250000D01*
X139298794Y-89250000D01*
X139453351Y-89280743D01*
X139453351Y-89280743D01*
G37*
G36*
X157975013Y-92123057D02*
G01*
X158084206Y-92168286D01*
X158182477Y-92233949D01*
X158266051Y-92317523D01*
X158331714Y-92415794D01*
X158376943Y-92524987D01*
X158400000Y-92640904D01*
X158400000Y-92759096D01*
X158376943Y-92875013D01*
X158331714Y-92984206D01*
X158266051Y-93082477D01*
X158182477Y-93166051D01*
X158084206Y-93231714D01*
X157975013Y-93276943D01*
X157859096Y-93300000D01*
X157740904Y-93300000D01*
X157624987Y-93276943D01*
X157515794Y-93231714D01*
X157417523Y-93166051D01*
X157333949Y-93082477D01*
X157268286Y-92984206D01*
X157223057Y-92875013D01*
X157200000Y-92759096D01*
X157200000Y-92640904D01*
X157223057Y-92524987D01*
X157268286Y-92415794D01*
X157333949Y-92317523D01*
X157417523Y-92233949D01*
X157515794Y-92168286D01*
X157624987Y-92123057D01*
X157740904Y-92100000D01*
X157859096Y-92100000D01*
X157975013Y-92123057D01*
X157975013Y-92123057D01*
G37*
G36*
X158487660Y-89072550D02*
G01*
X158490062Y-89096936D01*
X158497175Y-89120385D01*
X158508726Y-89141996D01*
X158524271Y-89160938D01*
X158543213Y-89176483D01*
X158564824Y-89188034D01*
X158598287Y-89201895D01*
X158598289Y-89201896D01*
X158623484Y-89218731D01*
X158680180Y-89256614D01*
X158749826Y-89326260D01*
X158776999Y-89366927D01*
X158799098Y-89400000D01*
X158804545Y-89408153D01*
X158842236Y-89499147D01*
X158861450Y-89595743D01*
X158861450Y-89694237D01*
X158842236Y-89790833D01*
X158804545Y-89881827D01*
X158804544Y-89881829D01*
X158749825Y-89963721D01*
X158680181Y-90033365D01*
X158598289Y-90088084D01*
X158598288Y-90088085D01*
X158598287Y-90088085D01*
X158507293Y-90125776D01*
X158410697Y-90144990D01*
X158312203Y-90144990D01*
X158215607Y-90125776D01*
X158124613Y-90088085D01*
X158124612Y-90088085D01*
X158124611Y-90088084D01*
X158042719Y-90033365D01*
X157973075Y-89963721D01*
X157918356Y-89881829D01*
X157918355Y-89881827D01*
X157880664Y-89790833D01*
X157861450Y-89694237D01*
X157861450Y-89595742D01*
X157865018Y-89577804D01*
X157867420Y-89553418D01*
X157865018Y-89529032D01*
X157857905Y-89505583D01*
X157846354Y-89483973D01*
X157830808Y-89465031D01*
X157811866Y-89449486D01*
X157790255Y-89437935D01*
X157766806Y-89430822D01*
X157742421Y-89428420D01*
X156087660Y-89428420D01*
X156087660Y-89421221D01*
X156085258Y-89396835D01*
X156078145Y-89373386D01*
X156066594Y-89351775D01*
X156051049Y-89332833D01*
X156032107Y-89317288D01*
X156010496Y-89305737D01*
X155987047Y-89298624D01*
X155962661Y-89296222D01*
X155938275Y-89298624D01*
X155914826Y-89305737D01*
X155893215Y-89317288D01*
X155874273Y-89332833D01*
X155818730Y-89388376D01*
X155778063Y-89415549D01*
X155736839Y-89443094D01*
X155736838Y-89443095D01*
X155736837Y-89443095D01*
X155645843Y-89480786D01*
X155549247Y-89500000D01*
X155450753Y-89500000D01*
X155354157Y-89480786D01*
X155263163Y-89443095D01*
X155263162Y-89443095D01*
X155263161Y-89443094D01*
X155221937Y-89415549D01*
X155181270Y-89388376D01*
X155111624Y-89318730D01*
X155070120Y-89256615D01*
X155056906Y-89236839D01*
X155019215Y-89145845D01*
X155019214Y-89145843D01*
X155000000Y-89049247D01*
X155000000Y-88950753D01*
X155019214Y-88854157D01*
X155056905Y-88763163D01*
X155062923Y-88754157D01*
X155098190Y-88701376D01*
X155111624Y-88681270D01*
X155181270Y-88611624D01*
X155230426Y-88578779D01*
X155263161Y-88556906D01*
X155295021Y-88543709D01*
X155354157Y-88519214D01*
X155450753Y-88500000D01*
X155549247Y-88500000D01*
X155645843Y-88519214D01*
X155704979Y-88543709D01*
X155736839Y-88556906D01*
X155769574Y-88578779D01*
X155818730Y-88611624D01*
X155874273Y-88667167D01*
X155893215Y-88682712D01*
X155914826Y-88694263D01*
X155938275Y-88701376D01*
X155962661Y-88703778D01*
X155987047Y-88701376D01*
X156010496Y-88694263D01*
X156032107Y-88682712D01*
X156051049Y-88667167D01*
X156066594Y-88648225D01*
X156078145Y-88626614D01*
X156085258Y-88603165D01*
X156087660Y-88578779D01*
X156087660Y-76598420D01*
X158487660Y-76598420D01*
X158487660Y-89072550D01*
X158487660Y-89072550D01*
G37*
G36*
X151445843Y-88419214D02*
G01*
X151536837Y-88456905D01*
X151536839Y-88456906D01*
X151578063Y-88484451D01*
X151618730Y-88511624D01*
X151688376Y-88581270D01*
X151743095Y-88663163D01*
X151780786Y-88754157D01*
X151800000Y-88850753D01*
X151800000Y-88949247D01*
X151780786Y-89045843D01*
X151743095Y-89136837D01*
X151743094Y-89136839D01*
X151737076Y-89145845D01*
X151688376Y-89218730D01*
X151618730Y-89288376D01*
X151592747Y-89305737D01*
X151536839Y-89343094D01*
X151536838Y-89343095D01*
X151536837Y-89343095D01*
X151445843Y-89380786D01*
X151349247Y-89400000D01*
X151250753Y-89400000D01*
X151154157Y-89380786D01*
X151063163Y-89343095D01*
X151063162Y-89343095D01*
X151063161Y-89343094D01*
X151007253Y-89305737D01*
X150981270Y-89288376D01*
X150911624Y-89218730D01*
X150862924Y-89145845D01*
X150856906Y-89136839D01*
X150856905Y-89136837D01*
X150819214Y-89045843D01*
X150800000Y-88949247D01*
X150800000Y-88850753D01*
X150819214Y-88754157D01*
X150856905Y-88663163D01*
X150911624Y-88581270D01*
X150981270Y-88511624D01*
X151021937Y-88484451D01*
X151063161Y-88456906D01*
X151063163Y-88456905D01*
X151154157Y-88419214D01*
X151250753Y-88400000D01*
X151349247Y-88400000D01*
X151445843Y-88419214D01*
X151445843Y-88419214D01*
G37*
G36*
X145570853Y-87819214D02*
G01*
X145661847Y-87856905D01*
X145661849Y-87856906D01*
X145703073Y-87884451D01*
X145743740Y-87911624D01*
X145813386Y-87981270D01*
X145868105Y-88063163D01*
X145905796Y-88154157D01*
X145925010Y-88250753D01*
X145925010Y-88349247D01*
X145905796Y-88445843D01*
X145878548Y-88511625D01*
X145868104Y-88536839D01*
X145840559Y-88578063D01*
X145816979Y-88613353D01*
X145813385Y-88618731D01*
X145743741Y-88688375D01*
X145661849Y-88743094D01*
X145661848Y-88743095D01*
X145661847Y-88743095D01*
X145570853Y-88780786D01*
X145474257Y-88800000D01*
X145375763Y-88800000D01*
X145279167Y-88780786D01*
X145188173Y-88743095D01*
X145188172Y-88743095D01*
X145188171Y-88743094D01*
X145106279Y-88688375D01*
X145036635Y-88618731D01*
X145033042Y-88613353D01*
X145009461Y-88578063D01*
X144981916Y-88536839D01*
X144971472Y-88511625D01*
X144944224Y-88445843D01*
X144925010Y-88349247D01*
X144925010Y-88250753D01*
X144944224Y-88154157D01*
X144981915Y-88063163D01*
X145036634Y-87981270D01*
X145106280Y-87911624D01*
X145146947Y-87884451D01*
X145188171Y-87856906D01*
X145188173Y-87856905D01*
X145279167Y-87819214D01*
X145375763Y-87800000D01*
X145474257Y-87800000D01*
X145570853Y-87819214D01*
X145570853Y-87819214D01*
G37*
G36*
X152970811Y-87744192D02*
G01*
X152970814Y-87744193D01*
X152970813Y-87744193D01*
X153061807Y-87781884D01*
X153088919Y-87800000D01*
X153143698Y-87836602D01*
X153213344Y-87906248D01*
X153240517Y-87946915D01*
X153263472Y-87981269D01*
X153268063Y-87988141D01*
X153305754Y-88079135D01*
X153324968Y-88175731D01*
X153324968Y-88274225D01*
X153305754Y-88370821D01*
X153268063Y-88461815D01*
X153213344Y-88543708D01*
X153143698Y-88613354D01*
X153123853Y-88626614D01*
X153061807Y-88668072D01*
X153061806Y-88668073D01*
X153061805Y-88668073D01*
X152970811Y-88705764D01*
X152874215Y-88724978D01*
X152775721Y-88724978D01*
X152679125Y-88705764D01*
X152588131Y-88668073D01*
X152588130Y-88668073D01*
X152588129Y-88668072D01*
X152526083Y-88626614D01*
X152506238Y-88613354D01*
X152436592Y-88543708D01*
X152381873Y-88461815D01*
X152344182Y-88370821D01*
X152324968Y-88274225D01*
X152324968Y-88175731D01*
X152344182Y-88079135D01*
X152381873Y-87988141D01*
X152386465Y-87981269D01*
X152409419Y-87946915D01*
X152436592Y-87906248D01*
X152506238Y-87836602D01*
X152561017Y-87800000D01*
X152588129Y-87781884D01*
X152679123Y-87744193D01*
X152679122Y-87744193D01*
X152679125Y-87744192D01*
X152775721Y-87724978D01*
X152874215Y-87724978D01*
X152970811Y-87744192D01*
X152970811Y-87744192D01*
G37*
G36*
X152725843Y-86394214D02*
G01*
X152725846Y-86394215D01*
X152725845Y-86394215D01*
X152816839Y-86431906D01*
X152858063Y-86459451D01*
X152898730Y-86486624D01*
X152968376Y-86556270D01*
X153023095Y-86638163D01*
X153060786Y-86729157D01*
X153080000Y-86825753D01*
X153080000Y-86924247D01*
X153060786Y-87020843D01*
X153060785Y-87020845D01*
X153023094Y-87111839D01*
X152968375Y-87193731D01*
X152898731Y-87263375D01*
X152816839Y-87318094D01*
X152816838Y-87318095D01*
X152816837Y-87318095D01*
X152725843Y-87355786D01*
X152629247Y-87375000D01*
X152530753Y-87375000D01*
X152434157Y-87355786D01*
X152343163Y-87318095D01*
X152343162Y-87318095D01*
X152343161Y-87318094D01*
X152261269Y-87263375D01*
X152191625Y-87193731D01*
X152136906Y-87111839D01*
X152099215Y-87020845D01*
X152099214Y-87020843D01*
X152080000Y-86924247D01*
X152080000Y-86825753D01*
X152099214Y-86729157D01*
X152136905Y-86638163D01*
X152191624Y-86556270D01*
X152261270Y-86486624D01*
X152301937Y-86459451D01*
X152343161Y-86431906D01*
X152434155Y-86394215D01*
X152434154Y-86394215D01*
X152434157Y-86394214D01*
X152530753Y-86375000D01*
X152629247Y-86375000D01*
X152725843Y-86394214D01*
X152725843Y-86394214D01*
G37*
G36*
X148125013Y-80413057D02*
G01*
X148234206Y-80458286D01*
X148332477Y-80523949D01*
X148416051Y-80607523D01*
X148481714Y-80705794D01*
X148526943Y-80814987D01*
X148550000Y-80930904D01*
X148550000Y-81049096D01*
X148526943Y-81165013D01*
X148481713Y-81274208D01*
X148457894Y-81309856D01*
X148446343Y-81331467D01*
X148439230Y-81354916D01*
X148436828Y-81379302D01*
X148439230Y-81403688D01*
X148446343Y-81427137D01*
X148457895Y-81448747D01*
X148473440Y-81467689D01*
X148492382Y-81483234D01*
X148513993Y-81494785D01*
X148537442Y-81501898D01*
X148561827Y-81504300D01*
X150140460Y-81504300D01*
X150140460Y-83123527D01*
X150142862Y-83147913D01*
X150149975Y-83171362D01*
X150161526Y-83192973D01*
X150177071Y-83211915D01*
X150196013Y-83227460D01*
X150217624Y-83239011D01*
X150241073Y-83246124D01*
X150265459Y-83248526D01*
X150289845Y-83246124D01*
X150370905Y-83230000D01*
X150489096Y-83230000D01*
X150605013Y-83253057D01*
X150714206Y-83298286D01*
X150812477Y-83363949D01*
X150896051Y-83447523D01*
X150961714Y-83545794D01*
X151006943Y-83654987D01*
X151030000Y-83770904D01*
X151030000Y-83889096D01*
X151006943Y-84005013D01*
X150961714Y-84114206D01*
X150896051Y-84212477D01*
X150812477Y-84296051D01*
X150714206Y-84361714D01*
X150605013Y-84406943D01*
X150489096Y-84430000D01*
X150370905Y-84430000D01*
X150289845Y-84413876D01*
X150265459Y-84411474D01*
X150241073Y-84413876D01*
X150217624Y-84420989D01*
X150196014Y-84432540D01*
X150177072Y-84448085D01*
X150161526Y-84467027D01*
X150149975Y-84488638D01*
X150142862Y-84512087D01*
X150140460Y-84536473D01*
X150140460Y-85904300D01*
X148567753Y-85904300D01*
X148543367Y-85906702D01*
X148519918Y-85913815D01*
X148498307Y-85925366D01*
X148479365Y-85940911D01*
X148463820Y-85959853D01*
X148452269Y-85981464D01*
X148445156Y-86004913D01*
X148442754Y-86029299D01*
X148445156Y-86053685D01*
X148452269Y-86077134D01*
X148496943Y-86184987D01*
X148520000Y-86300904D01*
X148520000Y-86419096D01*
X148496943Y-86535013D01*
X148451714Y-86644206D01*
X148386051Y-86742477D01*
X148302477Y-86826051D01*
X148204206Y-86891714D01*
X148095013Y-86936943D01*
X147979096Y-86960000D01*
X147860904Y-86960000D01*
X147744987Y-86936943D01*
X147635794Y-86891714D01*
X147537523Y-86826051D01*
X147453949Y-86742477D01*
X147388286Y-86644206D01*
X147343057Y-86535013D01*
X147320000Y-86419096D01*
X147320000Y-86300904D01*
X147343057Y-86184987D01*
X147387731Y-86077134D01*
X147394844Y-86053685D01*
X147397246Y-86029299D01*
X147394844Y-86004913D01*
X147387731Y-85981464D01*
X147376180Y-85959853D01*
X147360634Y-85940911D01*
X147341692Y-85925366D01*
X147320082Y-85913815D01*
X147296633Y-85906702D01*
X147272247Y-85904300D01*
X145740460Y-85904300D01*
X145740460Y-84299272D01*
X145738058Y-84274886D01*
X145730945Y-84251437D01*
X145719394Y-84229826D01*
X145703849Y-84210884D01*
X145703451Y-84210557D01*
X145625284Y-84132390D01*
X145570565Y-84050497D01*
X145532874Y-83959503D01*
X145513660Y-83862907D01*
X145513660Y-83764413D01*
X145532874Y-83667817D01*
X145570565Y-83576823D01*
X145577167Y-83566943D01*
X145609058Y-83519214D01*
X145625284Y-83494930D01*
X145703546Y-83416668D01*
X145703946Y-83416339D01*
X145719470Y-83397380D01*
X145730997Y-83375756D01*
X145738085Y-83352300D01*
X145740460Y-83328048D01*
X145740460Y-81504300D01*
X147338173Y-81504300D01*
X147362559Y-81501898D01*
X147386008Y-81494785D01*
X147407619Y-81483234D01*
X147426561Y-81467689D01*
X147442106Y-81448747D01*
X147453657Y-81427136D01*
X147460770Y-81403687D01*
X147463172Y-81379301D01*
X147460770Y-81354915D01*
X147453657Y-81331466D01*
X147442106Y-81309856D01*
X147418287Y-81274208D01*
X147373057Y-81165013D01*
X147350000Y-81049096D01*
X147350000Y-80930904D01*
X147373057Y-80814987D01*
X147418286Y-80705794D01*
X147483949Y-80607523D01*
X147567523Y-80523949D01*
X147665794Y-80458286D01*
X147774987Y-80413057D01*
X147890904Y-80390000D01*
X148009096Y-80390000D01*
X148125013Y-80413057D01*
X148125013Y-80413057D01*
G37*
G36*
X161120833Y-85169569D02*
G01*
X161120836Y-85169570D01*
X161120835Y-85169570D01*
X161211829Y-85207261D01*
X161253053Y-85234806D01*
X161293720Y-85261979D01*
X161363366Y-85331625D01*
X161418085Y-85413518D01*
X161455776Y-85504512D01*
X161474990Y-85601108D01*
X161474990Y-85699602D01*
X161455776Y-85796198D01*
X161455775Y-85796200D01*
X161418084Y-85887194D01*
X161406654Y-85904300D01*
X161363366Y-85969085D01*
X161293720Y-86038731D01*
X161253053Y-86065904D01*
X161211829Y-86093449D01*
X161211828Y-86093450D01*
X161211827Y-86093450D01*
X161120833Y-86131141D01*
X161024237Y-86150355D01*
X160925743Y-86150355D01*
X160829147Y-86131141D01*
X160738153Y-86093450D01*
X160738152Y-86093450D01*
X160738151Y-86093449D01*
X160696927Y-86065904D01*
X160656260Y-86038731D01*
X160586614Y-85969085D01*
X160543326Y-85904300D01*
X160531896Y-85887194D01*
X160494205Y-85796200D01*
X160494204Y-85796198D01*
X160474990Y-85699602D01*
X160474990Y-85601108D01*
X160494204Y-85504512D01*
X160531895Y-85413518D01*
X160586614Y-85331625D01*
X160656260Y-85261979D01*
X160696927Y-85234806D01*
X160738151Y-85207261D01*
X160829145Y-85169570D01*
X160829144Y-85169570D01*
X160829147Y-85169569D01*
X160925743Y-85150355D01*
X161024237Y-85150355D01*
X161120833Y-85169569D01*
X161120833Y-85169569D01*
G37*
G36*
X154145843Y-83519214D02*
G01*
X154236837Y-83556905D01*
X154236839Y-83556906D01*
X154278063Y-83584451D01*
X154318730Y-83611624D01*
X154388376Y-83681270D01*
X154443095Y-83763163D01*
X154480786Y-83854157D01*
X154500000Y-83950753D01*
X154500000Y-84049247D01*
X154480786Y-84145843D01*
X154443095Y-84236837D01*
X154391764Y-84313660D01*
X154388375Y-84318731D01*
X154318731Y-84388375D01*
X154236839Y-84443094D01*
X154236838Y-84443095D01*
X154236837Y-84443095D01*
X154145843Y-84480786D01*
X154049247Y-84500000D01*
X153950753Y-84500000D01*
X153854157Y-84480786D01*
X153763163Y-84443095D01*
X153763162Y-84443095D01*
X153763161Y-84443094D01*
X153681269Y-84388375D01*
X153611625Y-84318731D01*
X153608237Y-84313660D01*
X153556905Y-84236837D01*
X153519214Y-84145843D01*
X153500000Y-84049247D01*
X153500000Y-83950753D01*
X153519214Y-83854157D01*
X153556905Y-83763163D01*
X153611624Y-83681270D01*
X153681270Y-83611624D01*
X153721937Y-83584451D01*
X153763161Y-83556906D01*
X153763163Y-83556905D01*
X153854157Y-83519214D01*
X153950753Y-83500000D01*
X154049247Y-83500000D01*
X154145843Y-83519214D01*
X154145843Y-83519214D01*
G37*
G36*
X139965013Y-82413057D02*
G01*
X140074206Y-82458286D01*
X140172477Y-82523949D01*
X140256051Y-82607523D01*
X140321714Y-82705794D01*
X140366943Y-82814987D01*
X140390000Y-82930904D01*
X140390000Y-83049096D01*
X140366943Y-83165013D01*
X140321714Y-83274206D01*
X140256051Y-83372477D01*
X140172477Y-83456051D01*
X140074206Y-83521714D01*
X139965013Y-83566943D01*
X139849096Y-83590000D01*
X139730904Y-83590000D01*
X139614987Y-83566943D01*
X139505794Y-83521714D01*
X139407523Y-83456051D01*
X139323949Y-83372477D01*
X139258286Y-83274206D01*
X139213057Y-83165013D01*
X139190000Y-83049096D01*
X139190000Y-82930904D01*
X139213057Y-82814987D01*
X139258286Y-82705794D01*
X139323949Y-82607523D01*
X139407523Y-82523949D01*
X139505794Y-82458286D01*
X139614987Y-82413057D01*
X139730904Y-82390000D01*
X139849096Y-82390000D01*
X139965013Y-82413057D01*
X139965013Y-82413057D01*
G37*
G36*
X143545843Y-82219214D02*
G01*
X143545846Y-82219215D01*
X143545845Y-82219215D01*
X143636839Y-82256906D01*
X143718731Y-82311625D01*
X143788375Y-82381269D01*
X143839837Y-82458286D01*
X143843095Y-82463163D01*
X143880786Y-82554157D01*
X143900000Y-82650753D01*
X143900000Y-82749247D01*
X143880786Y-82845843D01*
X143845552Y-82930905D01*
X143843094Y-82936839D01*
X143788375Y-83018731D01*
X143718731Y-83088375D01*
X143636839Y-83143094D01*
X143636838Y-83143095D01*
X143636837Y-83143095D01*
X143545843Y-83180786D01*
X143449247Y-83200000D01*
X143350753Y-83200000D01*
X143254157Y-83180786D01*
X143163163Y-83143095D01*
X143163162Y-83143095D01*
X143163161Y-83143094D01*
X143081269Y-83088375D01*
X143011625Y-83018731D01*
X142956906Y-82936839D01*
X142954448Y-82930905D01*
X142919214Y-82845843D01*
X142900000Y-82749247D01*
X142900000Y-82650753D01*
X142919214Y-82554157D01*
X142956905Y-82463163D01*
X142960164Y-82458286D01*
X143011625Y-82381269D01*
X143081269Y-82311625D01*
X143163161Y-82256906D01*
X143254155Y-82219215D01*
X143254154Y-82219215D01*
X143254157Y-82219214D01*
X143350753Y-82200000D01*
X143449247Y-82200000D01*
X143545843Y-82219214D01*
X143545843Y-82219214D01*
G37*
G36*
X144218089Y-80737853D02*
G01*
X144218092Y-80737854D01*
X144218091Y-80737854D01*
X144309085Y-80775545D01*
X144350309Y-80803090D01*
X144390976Y-80830263D01*
X144460622Y-80899909D01*
X144515341Y-80981802D01*
X144553032Y-81072796D01*
X144572246Y-81169392D01*
X144572246Y-81267886D01*
X144553032Y-81364482D01*
X144553031Y-81364484D01*
X144515340Y-81455478D01*
X144460621Y-81537370D01*
X144390977Y-81607014D01*
X144309085Y-81661733D01*
X144309084Y-81661734D01*
X144309083Y-81661734D01*
X144218089Y-81699425D01*
X144121493Y-81718639D01*
X144022999Y-81718639D01*
X143926403Y-81699425D01*
X143835409Y-81661734D01*
X143835408Y-81661734D01*
X143835407Y-81661733D01*
X143753515Y-81607014D01*
X143683871Y-81537370D01*
X143629152Y-81455478D01*
X143591461Y-81364484D01*
X143591460Y-81364482D01*
X143572246Y-81267886D01*
X143572246Y-81169392D01*
X143591460Y-81072796D01*
X143629151Y-80981802D01*
X143683870Y-80899909D01*
X143753516Y-80830263D01*
X143794183Y-80803090D01*
X143835407Y-80775545D01*
X143926401Y-80737854D01*
X143926400Y-80737854D01*
X143926403Y-80737853D01*
X144022999Y-80718639D01*
X144121493Y-80718639D01*
X144218089Y-80737853D01*
X144218089Y-80737853D01*
G37*
G36*
X159709503Y-79982874D02*
G01*
X159709506Y-79982875D01*
X159709505Y-79982875D01*
X159800499Y-80020566D01*
X159841723Y-80048111D01*
X159882390Y-80075284D01*
X159952036Y-80144930D01*
X160006755Y-80226823D01*
X160044446Y-80317817D01*
X160063660Y-80414413D01*
X160063660Y-80512907D01*
X160044446Y-80609503D01*
X160044445Y-80609505D01*
X160006754Y-80700499D01*
X160003216Y-80705794D01*
X159956610Y-80775545D01*
X159952035Y-80782391D01*
X159882391Y-80852035D01*
X159800499Y-80906754D01*
X159800498Y-80906755D01*
X159800497Y-80906755D01*
X159709503Y-80944446D01*
X159612907Y-80963660D01*
X159514413Y-80963660D01*
X159417817Y-80944446D01*
X159326823Y-80906755D01*
X159326822Y-80906755D01*
X159326821Y-80906754D01*
X159244929Y-80852035D01*
X159175285Y-80782391D01*
X159170711Y-80775545D01*
X159124104Y-80705794D01*
X159120566Y-80700499D01*
X159082875Y-80609505D01*
X159082874Y-80609503D01*
X159063660Y-80512907D01*
X159063660Y-80414413D01*
X159082874Y-80317817D01*
X159120565Y-80226823D01*
X159175284Y-80144930D01*
X159244930Y-80075284D01*
X159285597Y-80048111D01*
X159326821Y-80020566D01*
X159417815Y-79982875D01*
X159417814Y-79982875D01*
X159417817Y-79982874D01*
X159514413Y-79963660D01*
X159612907Y-79963660D01*
X159709503Y-79982874D01*
X159709503Y-79982874D01*
G37*
G36*
X149245843Y-78619214D02*
G01*
X149276508Y-78631916D01*
X149336839Y-78656906D01*
X149378063Y-78684451D01*
X149418730Y-78711624D01*
X149488376Y-78781270D01*
X149543095Y-78863163D01*
X149580786Y-78954157D01*
X149600000Y-79050753D01*
X149600000Y-79149247D01*
X149580786Y-79245843D01*
X149580785Y-79245845D01*
X149543094Y-79336839D01*
X149488375Y-79418731D01*
X149418731Y-79488375D01*
X149336839Y-79543094D01*
X149336838Y-79543095D01*
X149336837Y-79543095D01*
X149245843Y-79580786D01*
X149149247Y-79600000D01*
X149050753Y-79600000D01*
X148954157Y-79580786D01*
X148863163Y-79543095D01*
X148863162Y-79543095D01*
X148863161Y-79543094D01*
X148781269Y-79488375D01*
X148711625Y-79418731D01*
X148656906Y-79336839D01*
X148619215Y-79245845D01*
X148619214Y-79245843D01*
X148600000Y-79149247D01*
X148600000Y-79050753D01*
X148619214Y-78954157D01*
X148656905Y-78863163D01*
X148711624Y-78781270D01*
X148781270Y-78711624D01*
X148821937Y-78684451D01*
X148863161Y-78656906D01*
X148923492Y-78631916D01*
X148954157Y-78619214D01*
X149050753Y-78600000D01*
X149149247Y-78600000D01*
X149245843Y-78619214D01*
X149245843Y-78619214D01*
G37*
G36*
X145145843Y-78619214D02*
G01*
X145176508Y-78631916D01*
X145236839Y-78656906D01*
X145278063Y-78684451D01*
X145318730Y-78711624D01*
X145388376Y-78781270D01*
X145443095Y-78863163D01*
X145480786Y-78954157D01*
X145500000Y-79050753D01*
X145500000Y-79149247D01*
X145480786Y-79245843D01*
X145480785Y-79245845D01*
X145443094Y-79336839D01*
X145388375Y-79418731D01*
X145318731Y-79488375D01*
X145236839Y-79543094D01*
X145236838Y-79543095D01*
X145236837Y-79543095D01*
X145145843Y-79580786D01*
X145049247Y-79600000D01*
X144950753Y-79600000D01*
X144854157Y-79580786D01*
X144763163Y-79543095D01*
X144763162Y-79543095D01*
X144763161Y-79543094D01*
X144681269Y-79488375D01*
X144611625Y-79418731D01*
X144556906Y-79336839D01*
X144519215Y-79245845D01*
X144519214Y-79245843D01*
X144500000Y-79149247D01*
X144500000Y-79050753D01*
X144519214Y-78954157D01*
X144556905Y-78863163D01*
X144611624Y-78781270D01*
X144681270Y-78711624D01*
X144721937Y-78684451D01*
X144763161Y-78656906D01*
X144823492Y-78631916D01*
X144854157Y-78619214D01*
X144950753Y-78600000D01*
X145049247Y-78600000D01*
X145145843Y-78619214D01*
X145145843Y-78619214D01*
G37*
G36*
X151691002Y-78594224D02*
G01*
X151781996Y-78631915D01*
X151781998Y-78631916D01*
X151819396Y-78656905D01*
X151863889Y-78686634D01*
X151933535Y-78756280D01*
X151988254Y-78838173D01*
X152025945Y-78929167D01*
X152045159Y-79025763D01*
X152045159Y-79124257D01*
X152025945Y-79220853D01*
X152025944Y-79220855D01*
X151988253Y-79311849D01*
X151933534Y-79393741D01*
X151863890Y-79463385D01*
X151781998Y-79518104D01*
X151781997Y-79518105D01*
X151781996Y-79518105D01*
X151691002Y-79555796D01*
X151594406Y-79575010D01*
X151495912Y-79575010D01*
X151399316Y-79555796D01*
X151308322Y-79518105D01*
X151308321Y-79518105D01*
X151308320Y-79518104D01*
X151226428Y-79463385D01*
X151156784Y-79393741D01*
X151102065Y-79311849D01*
X151064374Y-79220855D01*
X151064373Y-79220853D01*
X151045159Y-79124257D01*
X151045159Y-79025763D01*
X151064373Y-78929167D01*
X151102064Y-78838173D01*
X151156783Y-78756280D01*
X151226429Y-78686634D01*
X151270922Y-78656905D01*
X151308320Y-78631916D01*
X151308322Y-78631915D01*
X151399316Y-78594224D01*
X151495912Y-78575010D01*
X151594406Y-78575010D01*
X151691002Y-78594224D01*
X151691002Y-78594224D01*
G37*
G36*
X145345843Y-76949214D02*
G01*
X145357776Y-76954157D01*
X145436839Y-76986906D01*
X145478063Y-77014451D01*
X145518730Y-77041624D01*
X145588376Y-77111270D01*
X145643095Y-77193163D01*
X145680786Y-77284157D01*
X145700000Y-77380753D01*
X145700000Y-77479247D01*
X145680786Y-77575843D01*
X145670780Y-77600000D01*
X145643094Y-77666839D01*
X145588375Y-77748731D01*
X145518731Y-77818375D01*
X145436839Y-77873094D01*
X145436838Y-77873095D01*
X145436837Y-77873095D01*
X145345843Y-77910786D01*
X145249247Y-77930000D01*
X145150753Y-77930000D01*
X145054157Y-77910786D01*
X144963163Y-77873095D01*
X144963162Y-77873095D01*
X144963161Y-77873094D01*
X144881269Y-77818375D01*
X144811625Y-77748731D01*
X144756906Y-77666839D01*
X144729220Y-77600000D01*
X144719214Y-77575843D01*
X144700000Y-77479247D01*
X144700000Y-77380753D01*
X144719214Y-77284157D01*
X144756905Y-77193163D01*
X144811624Y-77111270D01*
X144881270Y-77041624D01*
X144921937Y-77014451D01*
X144963161Y-76986906D01*
X145042224Y-76954157D01*
X145054157Y-76949214D01*
X145150753Y-76930000D01*
X145249247Y-76930000D01*
X145345843Y-76949214D01*
X145345843Y-76949214D01*
G37*
G36*
X152460845Y-76619214D02*
G01*
X152503395Y-76636839D01*
X152551841Y-76656906D01*
X152588302Y-76681269D01*
X152633732Y-76711624D01*
X152703378Y-76781270D01*
X152720572Y-76807003D01*
X152752080Y-76854157D01*
X152758097Y-76863163D01*
X152795788Y-76954157D01*
X152815002Y-77050753D01*
X152815002Y-77149247D01*
X152795788Y-77245843D01*
X152758097Y-77336837D01*
X152723661Y-77388375D01*
X152703377Y-77418731D01*
X152633733Y-77488375D01*
X152551841Y-77543094D01*
X152551840Y-77543095D01*
X152551839Y-77543095D01*
X152460845Y-77580786D01*
X152364249Y-77600000D01*
X152265755Y-77600000D01*
X152169159Y-77580786D01*
X152078165Y-77543095D01*
X152078164Y-77543095D01*
X152078163Y-77543094D01*
X151996271Y-77488375D01*
X151926627Y-77418731D01*
X151906344Y-77388375D01*
X151871907Y-77336837D01*
X151834216Y-77245843D01*
X151815002Y-77149247D01*
X151815002Y-77050753D01*
X151834216Y-76954157D01*
X151871907Y-76863163D01*
X151877925Y-76854157D01*
X151909432Y-76807003D01*
X151926626Y-76781270D01*
X151996272Y-76711624D01*
X152041702Y-76681269D01*
X152078163Y-76656906D01*
X152126609Y-76636839D01*
X152169159Y-76619214D01*
X152265755Y-76600000D01*
X152364249Y-76600000D01*
X152460845Y-76619214D01*
X152460845Y-76619214D01*
G37*
G36*
X151072481Y-71448067D02*
G01*
X151181674Y-71493296D01*
X151279945Y-71558959D01*
X151363519Y-71642533D01*
X151429182Y-71740804D01*
X151474411Y-71849997D01*
X151497468Y-71965914D01*
X151497468Y-72084106D01*
X151474411Y-72200023D01*
X151429182Y-72309216D01*
X151363519Y-72407487D01*
X151279945Y-72491061D01*
X151275955Y-72493727D01*
X151182717Y-72556027D01*
X151179961Y-72557868D01*
X151161963Y-72567488D01*
X151143021Y-72583033D01*
X151127476Y-72601974D01*
X151115924Y-72623585D01*
X151108811Y-72647034D01*
X151106409Y-72671420D01*
X151108811Y-72695806D01*
X151115924Y-72719255D01*
X151127475Y-72740866D01*
X151143020Y-72759808D01*
X151161961Y-72775353D01*
X151183572Y-72786905D01*
X151207021Y-72794018D01*
X151231408Y-72796420D01*
X152746691Y-72796420D01*
X152758824Y-72802905D01*
X152782273Y-72810018D01*
X152806659Y-72812420D01*
X153696661Y-72812420D01*
X153721047Y-72810018D01*
X153744496Y-72802905D01*
X153756629Y-72796420D01*
X155286691Y-72796420D01*
X155298824Y-72802905D01*
X155322273Y-72810018D01*
X155346659Y-72812420D01*
X156483660Y-72812420D01*
X156483660Y-75212420D01*
X155018629Y-75212420D01*
X155006496Y-75205935D01*
X154983047Y-75198822D01*
X154958661Y-75196420D01*
X154068659Y-75196420D01*
X154044273Y-75198822D01*
X154020824Y-75205935D01*
X154008691Y-75212420D01*
X152478629Y-75212420D01*
X152466496Y-75205935D01*
X152443047Y-75198822D01*
X152418661Y-75196420D01*
X151528659Y-75196420D01*
X151504273Y-75198822D01*
X151480824Y-75205935D01*
X151468691Y-75212420D01*
X149938629Y-75212420D01*
X149926496Y-75205935D01*
X149903047Y-75198822D01*
X149878661Y-75196420D01*
X148988659Y-75196420D01*
X148964273Y-75198822D01*
X148940824Y-75205935D01*
X148928691Y-75212420D01*
X148748672Y-75212420D01*
X148724286Y-75214822D01*
X148700837Y-75221935D01*
X148679226Y-75233486D01*
X148660284Y-75249031D01*
X148644739Y-75267973D01*
X148633188Y-75289584D01*
X148626075Y-75313033D01*
X148623673Y-75337419D01*
X148626075Y-75361805D01*
X148633188Y-75385254D01*
X148644739Y-75406865D01*
X148695408Y-75482697D01*
X148733099Y-75573691D01*
X148752313Y-75670287D01*
X148752313Y-75768781D01*
X148733099Y-75865377D01*
X148695970Y-75955014D01*
X148695407Y-75956373D01*
X148674024Y-75988375D01*
X148658489Y-76011625D01*
X148640688Y-76038265D01*
X148571044Y-76107909D01*
X148489152Y-76162628D01*
X148489151Y-76162629D01*
X148489150Y-76162629D01*
X148398156Y-76200320D01*
X148301560Y-76219534D01*
X148203066Y-76219534D01*
X148106470Y-76200320D01*
X148015476Y-76162629D01*
X148015475Y-76162629D01*
X148015474Y-76162628D01*
X147933582Y-76107909D01*
X147863938Y-76038265D01*
X147846138Y-76011625D01*
X147830602Y-75988375D01*
X147809219Y-75956373D01*
X147808656Y-75955014D01*
X147771527Y-75865377D01*
X147752313Y-75768781D01*
X147752313Y-75670287D01*
X147771527Y-75573691D01*
X147809218Y-75482697D01*
X147859887Y-75406865D01*
X147871438Y-75385254D01*
X147878551Y-75361805D01*
X147880953Y-75337419D01*
X147878551Y-75313033D01*
X147871438Y-75289584D01*
X147859887Y-75267973D01*
X147844342Y-75249031D01*
X147825400Y-75233486D01*
X147803789Y-75221935D01*
X147780340Y-75214822D01*
X147755954Y-75212420D01*
X147398629Y-75212420D01*
X147386496Y-75205935D01*
X147363047Y-75198822D01*
X147338661Y-75196420D01*
X147261102Y-75196420D01*
X147236716Y-75198822D01*
X147213267Y-75205935D01*
X147191656Y-75217486D01*
X147172714Y-75233031D01*
X147157169Y-75251973D01*
X147145618Y-75273584D01*
X147138505Y-75297033D01*
X147136103Y-75321419D01*
X147138505Y-75345805D01*
X147145618Y-75369254D01*
X147180786Y-75454157D01*
X147200000Y-75550753D01*
X147200000Y-75649247D01*
X147180786Y-75745843D01*
X147143244Y-75836478D01*
X147143094Y-75836839D01*
X147115549Y-75878063D01*
X147088717Y-75918220D01*
X147088375Y-75918731D01*
X147018731Y-75988375D01*
X146936839Y-76043094D01*
X146936838Y-76043095D01*
X146936837Y-76043095D01*
X146845843Y-76080786D01*
X146749247Y-76100000D01*
X146650753Y-76100000D01*
X146554157Y-76080786D01*
X146463163Y-76043095D01*
X146463162Y-76043095D01*
X146463161Y-76043094D01*
X146381269Y-75988375D01*
X146311625Y-75918731D01*
X146311284Y-75918220D01*
X146284451Y-75878063D01*
X146256906Y-75836839D01*
X146256756Y-75836478D01*
X146219214Y-75745843D01*
X146200000Y-75649247D01*
X146200000Y-75550753D01*
X146219214Y-75454156D01*
X146247754Y-75385254D01*
X146254867Y-75361805D01*
X146257269Y-75337418D01*
X146254867Y-75313032D01*
X146247754Y-75289583D01*
X146236203Y-75267973D01*
X146220657Y-75249031D01*
X146201715Y-75233486D01*
X146180105Y-75221935D01*
X146156656Y-75214822D01*
X146132270Y-75212420D01*
X144858629Y-75212420D01*
X144846496Y-75205935D01*
X144823047Y-75198822D01*
X144798661Y-75196420D01*
X144243059Y-75196420D01*
X144218673Y-75198822D01*
X144195224Y-75205935D01*
X144173613Y-75217486D01*
X144154671Y-75233031D01*
X144139126Y-75251973D01*
X144127575Y-75273584D01*
X144120462Y-75297033D01*
X144118060Y-75321419D01*
X144120462Y-75345805D01*
X144127575Y-75369254D01*
X144139126Y-75390865D01*
X144154671Y-75409807D01*
X144213366Y-75468502D01*
X144268085Y-75550395D01*
X144305776Y-75641389D01*
X144324990Y-75737985D01*
X144324990Y-75836479D01*
X144305776Y-75933075D01*
X144268085Y-76024069D01*
X144213366Y-76105962D01*
X144143720Y-76175608D01*
X144061828Y-76230327D01*
X144004301Y-76254155D01*
X143970835Y-76268017D01*
X143970834Y-76268017D01*
X143966170Y-76269949D01*
X143944560Y-76281500D01*
X143925618Y-76297045D01*
X143910072Y-76315987D01*
X143898521Y-76337597D01*
X143891408Y-76361046D01*
X143889006Y-76385432D01*
X143891408Y-76409819D01*
X143898521Y-76433268D01*
X143910072Y-76454878D01*
X143925617Y-76473820D01*
X143944559Y-76489366D01*
X143966169Y-76500917D01*
X143989618Y-76508030D01*
X144045844Y-76519214D01*
X144126067Y-76552444D01*
X144136839Y-76556906D01*
X144162504Y-76574055D01*
X144218730Y-76611624D01*
X144288376Y-76681270D01*
X144343095Y-76763163D01*
X144380786Y-76854157D01*
X144400000Y-76950753D01*
X144400000Y-77049247D01*
X144380786Y-77145843D01*
X144355568Y-77206724D01*
X144343094Y-77236839D01*
X144288375Y-77318731D01*
X144218731Y-77388375D01*
X144136839Y-77443094D01*
X144136838Y-77443095D01*
X144136837Y-77443095D01*
X144045843Y-77480786D01*
X143949247Y-77500000D01*
X143850753Y-77500000D01*
X143754157Y-77480786D01*
X143663163Y-77443095D01*
X143663162Y-77443095D01*
X143663161Y-77443094D01*
X143581269Y-77388375D01*
X143511625Y-77318731D01*
X143456906Y-77236839D01*
X143444432Y-77206724D01*
X143419214Y-77145843D01*
X143400000Y-77049247D01*
X143400000Y-76950755D01*
X143400306Y-76949215D01*
X143406162Y-76919775D01*
X143408564Y-76895391D01*
X143406162Y-76871005D01*
X143399049Y-76847556D01*
X143387498Y-76825945D01*
X143371953Y-76807003D01*
X143353011Y-76791457D01*
X143331401Y-76779906D01*
X143307952Y-76772793D01*
X143283566Y-76770391D01*
X143259180Y-76772793D01*
X143235731Y-76779906D01*
X143214119Y-76791457D01*
X143175782Y-76817073D01*
X143136839Y-76843094D01*
X143136838Y-76843095D01*
X143136837Y-76843095D01*
X143045843Y-76880786D01*
X142949247Y-76900000D01*
X142850753Y-76900000D01*
X142754157Y-76880786D01*
X142663163Y-76843095D01*
X142663162Y-76843095D01*
X142663161Y-76843094D01*
X142621937Y-76815549D01*
X142581270Y-76788376D01*
X142511624Y-76718730D01*
X142484451Y-76678063D01*
X142456906Y-76636839D01*
X142448239Y-76615915D01*
X142419214Y-76545843D01*
X142411013Y-76504609D01*
X143391436Y-76504609D01*
X143393838Y-76528995D01*
X143400951Y-76552444D01*
X143412502Y-76574055D01*
X143428047Y-76592997D01*
X143446989Y-76608543D01*
X143468599Y-76620094D01*
X143492048Y-76627207D01*
X143516434Y-76629609D01*
X143540820Y-76627207D01*
X143564269Y-76620094D01*
X143585881Y-76608543D01*
X143663162Y-76556905D01*
X143730544Y-76528995D01*
X143754155Y-76519215D01*
X143754156Y-76519215D01*
X143758820Y-76517283D01*
X143780430Y-76505732D01*
X143799372Y-76490187D01*
X143814918Y-76471245D01*
X143826469Y-76449635D01*
X143833582Y-76426186D01*
X143835984Y-76401800D01*
X143833582Y-76377413D01*
X143826469Y-76353964D01*
X143814918Y-76332354D01*
X143799373Y-76313412D01*
X143780431Y-76297866D01*
X143758821Y-76286315D01*
X143735372Y-76279202D01*
X143679146Y-76268018D01*
X143581163Y-76227432D01*
X143572842Y-76222983D01*
X143549393Y-76215868D01*
X143525007Y-76213465D01*
X143500621Y-76215865D01*
X143477171Y-76222977D01*
X143455560Y-76234527D01*
X143436617Y-76250071D01*
X143421071Y-76269012D01*
X143409518Y-76290621D01*
X143402403Y-76314070D01*
X143400000Y-76338464D01*
X143400000Y-76449246D01*
X143399923Y-76449635D01*
X143393838Y-76480223D01*
X143391436Y-76504609D01*
X142411013Y-76504609D01*
X142400000Y-76449247D01*
X142400000Y-76350753D01*
X142419214Y-76254157D01*
X142456905Y-76163163D01*
X142457262Y-76162629D01*
X142493824Y-76107910D01*
X142511624Y-76081270D01*
X142581270Y-76011624D01*
X142641519Y-75971367D01*
X142663161Y-75956906D01*
X142663163Y-75956905D01*
X142754157Y-75919214D01*
X142850753Y-75900000D01*
X142949247Y-75900000D01*
X143045843Y-75919214D01*
X143143827Y-75959800D01*
X143152148Y-75964249D01*
X143175597Y-75971364D01*
X143199983Y-75973767D01*
X143224369Y-75971367D01*
X143247819Y-75964255D01*
X143269430Y-75952705D01*
X143288373Y-75937161D01*
X143303919Y-75918220D01*
X143315472Y-75896611D01*
X143322587Y-75873162D01*
X143324990Y-75848768D01*
X143324990Y-75737985D01*
X143344204Y-75641389D01*
X143381895Y-75550395D01*
X143436614Y-75468502D01*
X143479309Y-75425807D01*
X143494854Y-75406865D01*
X143506405Y-75385254D01*
X143513518Y-75361805D01*
X143515920Y-75337419D01*
X143513518Y-75313033D01*
X143506405Y-75289584D01*
X143494854Y-75267973D01*
X143479309Y-75249031D01*
X143460367Y-75233486D01*
X143438756Y-75221935D01*
X143415307Y-75214822D01*
X143390921Y-75212420D01*
X142318629Y-75212420D01*
X142306496Y-75205935D01*
X142283047Y-75198822D01*
X142258661Y-75196420D01*
X141398720Y-75196420D01*
X141374334Y-75198822D01*
X141350885Y-75205935D01*
X141329274Y-75217486D01*
X141310332Y-75233031D01*
X141294787Y-75251973D01*
X141283236Y-75273584D01*
X141276123Y-75297033D01*
X141273721Y-75321419D01*
X141276123Y-75345805D01*
X141283236Y-75369254D01*
X141294787Y-75390865D01*
X141337078Y-75454157D01*
X141343095Y-75463163D01*
X141380786Y-75554157D01*
X141400000Y-75650753D01*
X141400000Y-75749247D01*
X141380786Y-75845843D01*
X141373612Y-75863163D01*
X141343094Y-75936839D01*
X141327752Y-75959800D01*
X141288376Y-76018730D01*
X141218730Y-76088376D01*
X141192409Y-76105963D01*
X141136839Y-76143094D01*
X141136838Y-76143095D01*
X141136837Y-76143095D01*
X141045843Y-76180786D01*
X140949247Y-76200000D01*
X140850753Y-76200000D01*
X140754157Y-76180786D01*
X140663163Y-76143095D01*
X140663162Y-76143095D01*
X140663161Y-76143094D01*
X140607591Y-76105963D01*
X140581270Y-76088376D01*
X140511624Y-76018730D01*
X140472248Y-75959800D01*
X140456906Y-75936839D01*
X140426388Y-75863163D01*
X140419214Y-75845843D01*
X140400000Y-75749247D01*
X140400000Y-75650753D01*
X140419214Y-75554157D01*
X140456905Y-75463163D01*
X140462923Y-75454157D01*
X140505213Y-75390865D01*
X140516764Y-75369254D01*
X140523877Y-75345805D01*
X140526279Y-75321419D01*
X140523877Y-75297033D01*
X140516764Y-75273584D01*
X140505213Y-75251973D01*
X140489668Y-75233032D01*
X140470726Y-75217486D01*
X140449115Y-75205935D01*
X140425666Y-75198822D01*
X140401280Y-75196420D01*
X140098659Y-75196420D01*
X140074273Y-75198822D01*
X140050824Y-75205935D01*
X140038691Y-75212420D01*
X139886226Y-75212420D01*
X139861840Y-75214822D01*
X139838391Y-75221935D01*
X139816780Y-75233486D01*
X139797838Y-75249031D01*
X139782293Y-75267973D01*
X139770742Y-75289584D01*
X139763629Y-75313033D01*
X139761227Y-75337419D01*
X139763629Y-75361805D01*
X139770742Y-75385254D01*
X139782293Y-75406865D01*
X139823478Y-75468502D01*
X139841714Y-75495795D01*
X139886943Y-75604987D01*
X139910000Y-75720904D01*
X139910000Y-75839096D01*
X139886943Y-75955013D01*
X139841714Y-76064206D01*
X139776051Y-76162477D01*
X139692477Y-76246051D01*
X139594206Y-76311714D01*
X139485013Y-76356943D01*
X139369096Y-76380000D01*
X139250904Y-76380000D01*
X139134987Y-76356943D01*
X139025794Y-76311714D01*
X138927523Y-76246051D01*
X138843949Y-76162477D01*
X138778286Y-76064206D01*
X138733057Y-75955013D01*
X138710000Y-75839096D01*
X138710000Y-75720904D01*
X138733057Y-75604987D01*
X138778286Y-75495795D01*
X138796523Y-75468502D01*
X138837707Y-75406865D01*
X138849258Y-75385254D01*
X138856371Y-75361805D01*
X138858773Y-75337419D01*
X138856371Y-75313033D01*
X138849258Y-75289584D01*
X138837707Y-75267973D01*
X138822162Y-75249031D01*
X138803220Y-75233486D01*
X138781609Y-75221935D01*
X138758160Y-75214822D01*
X138733774Y-75212420D01*
X138573660Y-75212420D01*
X138573660Y-72812420D01*
X139726661Y-72812420D01*
X139751047Y-72810018D01*
X139774496Y-72802905D01*
X139786629Y-72796420D01*
X140416331Y-72796420D01*
X140440717Y-72794018D01*
X140464166Y-72786905D01*
X140485777Y-72775354D01*
X140504719Y-72759809D01*
X140520264Y-72740867D01*
X140531815Y-72719256D01*
X140538928Y-72695807D01*
X140541330Y-72671421D01*
X140538928Y-72647035D01*
X140531815Y-72623586D01*
X140520264Y-72601975D01*
X140504719Y-72583033D01*
X140485777Y-72567488D01*
X140464166Y-72555937D01*
X140433163Y-72543095D01*
X140433162Y-72543095D01*
X140433161Y-72543094D01*
X140386831Y-72512137D01*
X140351270Y-72488376D01*
X140281624Y-72418730D01*
X140232924Y-72345845D01*
X140226906Y-72336839D01*
X140220279Y-72320841D01*
X140189214Y-72245843D01*
X140170000Y-72149247D01*
X140170000Y-72050753D01*
X140189214Y-71954157D01*
X140226905Y-71863163D01*
X140281624Y-71781270D01*
X140351270Y-71711624D01*
X140406088Y-71674996D01*
X140433161Y-71656906D01*
X140467860Y-71642533D01*
X140524157Y-71619214D01*
X140620753Y-71600000D01*
X140719247Y-71600000D01*
X140815843Y-71619214D01*
X140872140Y-71642533D01*
X140906839Y-71656906D01*
X140933912Y-71674996D01*
X140988730Y-71711624D01*
X141058376Y-71781270D01*
X141113095Y-71863163D01*
X141150786Y-71954157D01*
X141170000Y-72050753D01*
X141170000Y-72149247D01*
X141150786Y-72245843D01*
X141119721Y-72320841D01*
X141113094Y-72336839D01*
X141107076Y-72345845D01*
X141058376Y-72418730D01*
X140988730Y-72488376D01*
X140953169Y-72512137D01*
X140906839Y-72543094D01*
X140906838Y-72543095D01*
X140906837Y-72543095D01*
X140875834Y-72555937D01*
X140854223Y-72567488D01*
X140835281Y-72583033D01*
X140819736Y-72601975D01*
X140808185Y-72623586D01*
X140801072Y-72647035D01*
X140798670Y-72671421D01*
X140801072Y-72695807D01*
X140808185Y-72719256D01*
X140819736Y-72740867D01*
X140835281Y-72759809D01*
X140854223Y-72775354D01*
X140875834Y-72786905D01*
X140899283Y-72794018D01*
X140923669Y-72796420D01*
X142586691Y-72796420D01*
X142598824Y-72802905D01*
X142622273Y-72810018D01*
X142646659Y-72812420D01*
X142744718Y-72812420D01*
X142769104Y-72810018D01*
X142792553Y-72802905D01*
X142814164Y-72791354D01*
X142833106Y-72775809D01*
X142848651Y-72756867D01*
X142860202Y-72735256D01*
X142867315Y-72711807D01*
X142869717Y-72687421D01*
X142867315Y-72663035D01*
X142860202Y-72639586D01*
X142848651Y-72617975D01*
X142833106Y-72599033D01*
X142814164Y-72583488D01*
X142784057Y-72563371D01*
X142714412Y-72493726D01*
X142659693Y-72411833D01*
X142622002Y-72320839D01*
X142602788Y-72224243D01*
X142602788Y-72125749D01*
X142622002Y-72029153D01*
X142659693Y-71938159D01*
X142666273Y-71928312D01*
X142714413Y-71856265D01*
X142784057Y-71786621D01*
X142792067Y-71781269D01*
X142838398Y-71750311D01*
X142865949Y-71731902D01*
X142896578Y-71719215D01*
X142956945Y-71694210D01*
X143053541Y-71674996D01*
X143152035Y-71674996D01*
X143248631Y-71694210D01*
X143308998Y-71719215D01*
X143339627Y-71731902D01*
X143367178Y-71750311D01*
X143413510Y-71781269D01*
X143421519Y-71786621D01*
X143491163Y-71856265D01*
X143539304Y-71928312D01*
X143545883Y-71938159D01*
X143583574Y-72029153D01*
X143602788Y-72125749D01*
X143602788Y-72224243D01*
X143583574Y-72320839D01*
X143545883Y-72411833D01*
X143491164Y-72493726D01*
X143421519Y-72563371D01*
X143391412Y-72583488D01*
X143372470Y-72599033D01*
X143356925Y-72617975D01*
X143345374Y-72639586D01*
X143338261Y-72663035D01*
X143335859Y-72687421D01*
X143338261Y-72711807D01*
X143345374Y-72735256D01*
X143356925Y-72756867D01*
X143372470Y-72775809D01*
X143391412Y-72791354D01*
X143413023Y-72802905D01*
X143436472Y-72810018D01*
X143460858Y-72812420D01*
X143536661Y-72812420D01*
X143561047Y-72810018D01*
X143584496Y-72802905D01*
X143596629Y-72796420D01*
X144487539Y-72796420D01*
X144511925Y-72794018D01*
X144535374Y-72786905D01*
X144556985Y-72775354D01*
X144575927Y-72759809D01*
X144591472Y-72740867D01*
X144603023Y-72719256D01*
X144610136Y-72695807D01*
X144612538Y-72671421D01*
X144610136Y-72647035D01*
X144603023Y-72623586D01*
X144591472Y-72601975D01*
X144575927Y-72583033D01*
X144505030Y-72512136D01*
X144450311Y-72430243D01*
X144412620Y-72339249D01*
X144393406Y-72242653D01*
X144393406Y-72144159D01*
X144412620Y-72047563D01*
X144450311Y-71956569D01*
X144451923Y-71954157D01*
X144505031Y-71874675D01*
X144574675Y-71805031D01*
X144610236Y-71781270D01*
X144615343Y-71777857D01*
X144656567Y-71750312D01*
X144679521Y-71740804D01*
X144747563Y-71712620D01*
X144844159Y-71693406D01*
X144942653Y-71693406D01*
X145039249Y-71712620D01*
X145107291Y-71740804D01*
X145130245Y-71750312D01*
X145171469Y-71777857D01*
X145176577Y-71781270D01*
X145212137Y-71805031D01*
X145281781Y-71874675D01*
X145334890Y-71954157D01*
X145336501Y-71956569D01*
X145374192Y-72047563D01*
X145393406Y-72144159D01*
X145393406Y-72242653D01*
X145374192Y-72339249D01*
X145336501Y-72430243D01*
X145281782Y-72512136D01*
X145212137Y-72581781D01*
X145209581Y-72583489D01*
X145190640Y-72599035D01*
X145175095Y-72617977D01*
X145163544Y-72639588D01*
X145156431Y-72663037D01*
X145154030Y-72687423D01*
X145156432Y-72711809D01*
X145163546Y-72735258D01*
X145175097Y-72756869D01*
X145190643Y-72775810D01*
X145209585Y-72791355D01*
X145231196Y-72802906D01*
X145254645Y-72810019D01*
X145279029Y-72812420D01*
X145899537Y-72812420D01*
X145923923Y-72810018D01*
X145947372Y-72802905D01*
X145968983Y-72791354D01*
X145987925Y-72775809D01*
X146003470Y-72756867D01*
X146015021Y-72735256D01*
X146022134Y-72711807D01*
X146024536Y-72687421D01*
X146022134Y-72663035D01*
X146015021Y-72639586D01*
X146003470Y-72617975D01*
X145980427Y-72583489D01*
X145960407Y-72553527D01*
X145956086Y-72543095D01*
X145922715Y-72462531D01*
X145903501Y-72365935D01*
X145903501Y-72267441D01*
X145922715Y-72170845D01*
X145960406Y-72079851D01*
X145961186Y-72078684D01*
X146015126Y-71997957D01*
X146084770Y-71928313D01*
X146166662Y-71873594D01*
X146166664Y-71873593D01*
X146257658Y-71835902D01*
X146354254Y-71816688D01*
X146452748Y-71816688D01*
X146549344Y-71835902D01*
X146640338Y-71873593D01*
X146640340Y-71873594D01*
X146722232Y-71928313D01*
X146791876Y-71997957D01*
X146845817Y-72078684D01*
X146846596Y-72079851D01*
X146884287Y-72170845D01*
X146903501Y-72267441D01*
X146903501Y-72365935D01*
X146884287Y-72462531D01*
X146850916Y-72543095D01*
X146846595Y-72553527D01*
X146844459Y-72556723D01*
X146814223Y-72601975D01*
X146802672Y-72623586D01*
X146795559Y-72647035D01*
X146793157Y-72671421D01*
X146795559Y-72695807D01*
X146802672Y-72719256D01*
X146814223Y-72740867D01*
X146829768Y-72759809D01*
X146848710Y-72775354D01*
X146870321Y-72786905D01*
X146893770Y-72794018D01*
X146918156Y-72796420D01*
X147296854Y-72796420D01*
X147321240Y-72794018D01*
X147344689Y-72786905D01*
X147366300Y-72775354D01*
X147385242Y-72759809D01*
X147400787Y-72740867D01*
X147412338Y-72719256D01*
X147419451Y-72695807D01*
X147421853Y-72671421D01*
X147419451Y-72647035D01*
X147400000Y-72549247D01*
X147400000Y-72450753D01*
X147419214Y-72354157D01*
X147456905Y-72263163D01*
X147511624Y-72181270D01*
X147581270Y-72111624D01*
X147630568Y-72078684D01*
X147663161Y-72056906D01*
X147663163Y-72056905D01*
X147754157Y-72019214D01*
X147850753Y-72000000D01*
X147949247Y-72000000D01*
X148045843Y-72019214D01*
X148136835Y-72056904D01*
X148136836Y-72056905D01*
X148136839Y-72056906D01*
X148152151Y-72067137D01*
X148173754Y-72078684D01*
X148197203Y-72085798D01*
X148221589Y-72088200D01*
X148245975Y-72085799D01*
X148269424Y-72078686D01*
X148291035Y-72067135D01*
X148309977Y-72051590D01*
X148325523Y-72032649D01*
X148337075Y-72011036D01*
X148356905Y-71963163D01*
X148362923Y-71954157D01*
X148411625Y-71881269D01*
X148481269Y-71811625D01*
X148491138Y-71805031D01*
X148526700Y-71781269D01*
X148563161Y-71756906D01*
X148579080Y-71750312D01*
X148654157Y-71719214D01*
X148750753Y-71700000D01*
X148849247Y-71700000D01*
X148945843Y-71719214D01*
X149020920Y-71750312D01*
X149036839Y-71756906D01*
X149073300Y-71781269D01*
X149108863Y-71805031D01*
X149118731Y-71811625D01*
X149188375Y-71881269D01*
X149237078Y-71954157D01*
X149243095Y-71963163D01*
X149280786Y-72054157D01*
X149300000Y-72150753D01*
X149300000Y-72249247D01*
X149280786Y-72345843D01*
X149243095Y-72436837D01*
X149188376Y-72518730D01*
X149124073Y-72583033D01*
X149108528Y-72601975D01*
X149096977Y-72623586D01*
X149089864Y-72647035D01*
X149087462Y-72671421D01*
X149089864Y-72695807D01*
X149096977Y-72719256D01*
X149108528Y-72740867D01*
X149124073Y-72759809D01*
X149143015Y-72775354D01*
X149164626Y-72786905D01*
X149188075Y-72794018D01*
X149212461Y-72796420D01*
X150206691Y-72796420D01*
X150218824Y-72802905D01*
X150242273Y-72810018D01*
X150266659Y-72812420D01*
X150602155Y-72812420D01*
X150626541Y-72810018D01*
X150649990Y-72802905D01*
X150671601Y-72791354D01*
X150690543Y-72775809D01*
X150706088Y-72756867D01*
X150717639Y-72735256D01*
X150724752Y-72711807D01*
X150727154Y-72687421D01*
X150724752Y-72663035D01*
X150717639Y-72639586D01*
X150706088Y-72617975D01*
X150690543Y-72599033D01*
X150671601Y-72583488D01*
X150649990Y-72571937D01*
X150613263Y-72556724D01*
X150613262Y-72556724D01*
X150613261Y-72556723D01*
X150518981Y-72493727D01*
X150514991Y-72491061D01*
X150431417Y-72407487D01*
X150365754Y-72309216D01*
X150320525Y-72200023D01*
X150297468Y-72084106D01*
X150297468Y-71965914D01*
X150320525Y-71849997D01*
X150365754Y-71740804D01*
X150431417Y-71642533D01*
X150514991Y-71558959D01*
X150613262Y-71493296D01*
X150722455Y-71448067D01*
X150838372Y-71425010D01*
X150956564Y-71425010D01*
X151072481Y-71448067D01*
X151072481Y-71448067D01*
G37*
G36*
X150557379Y-76098067D02*
G01*
X150666572Y-76143296D01*
X150764843Y-76208959D01*
X150848417Y-76292533D01*
X150914080Y-76390804D01*
X150959309Y-76499997D01*
X150982366Y-76615914D01*
X150982366Y-76734106D01*
X150959309Y-76850023D01*
X150914080Y-76959216D01*
X150848417Y-77057487D01*
X150764843Y-77141061D01*
X150666572Y-77206724D01*
X150557379Y-77251953D01*
X150441462Y-77275010D01*
X150323270Y-77275010D01*
X150207353Y-77251953D01*
X150098160Y-77206724D01*
X149999889Y-77141061D01*
X149916315Y-77057487D01*
X149850652Y-76959216D01*
X149805423Y-76850023D01*
X149782366Y-76734106D01*
X149782366Y-76615914D01*
X149805423Y-76499997D01*
X149850652Y-76390804D01*
X149916315Y-76292533D01*
X149999889Y-76208959D01*
X150098160Y-76143296D01*
X150207353Y-76098067D01*
X150323270Y-76075010D01*
X150441462Y-76075010D01*
X150557379Y-76098067D01*
X150557379Y-76098067D01*
G37*
G36*
X154345843Y-75619214D02*
G01*
X154421987Y-75650754D01*
X154436839Y-75656906D01*
X154518731Y-75711625D01*
X154588375Y-75781269D01*
X154637078Y-75854157D01*
X154643095Y-75863163D01*
X154680786Y-75954157D01*
X154700000Y-76050753D01*
X154700000Y-76149247D01*
X154680786Y-76245843D01*
X154680785Y-76245845D01*
X154643094Y-76336839D01*
X154642008Y-76338464D01*
X154588376Y-76418730D01*
X154518730Y-76488376D01*
X154478063Y-76515549D01*
X154436839Y-76543094D01*
X154436838Y-76543095D01*
X154436837Y-76543095D01*
X154345843Y-76580786D01*
X154249247Y-76600000D01*
X154150753Y-76600000D01*
X154054157Y-76580786D01*
X153963163Y-76543095D01*
X153963162Y-76543095D01*
X153963161Y-76543094D01*
X153921937Y-76515549D01*
X153881270Y-76488376D01*
X153811624Y-76418730D01*
X153757992Y-76338464D01*
X153756906Y-76336839D01*
X153719215Y-76245845D01*
X153719214Y-76245843D01*
X153700000Y-76149247D01*
X153700000Y-76050753D01*
X153719214Y-75954157D01*
X153756905Y-75863163D01*
X153762923Y-75854157D01*
X153811625Y-75781269D01*
X153881269Y-75711625D01*
X153963161Y-75656906D01*
X153978013Y-75650754D01*
X154054157Y-75619214D01*
X154150753Y-75600000D01*
X154249247Y-75600000D01*
X154345843Y-75619214D01*
X154345843Y-75619214D01*
G37*
G36*
X145545843Y-75519214D02*
G01*
X145636837Y-75556905D01*
X145636839Y-75556906D01*
X145661956Y-75573689D01*
X145718730Y-75611624D01*
X145788376Y-75681270D01*
X145843095Y-75763163D01*
X145880786Y-75854157D01*
X145900000Y-75950753D01*
X145900000Y-76049247D01*
X145880786Y-76145843D01*
X145844052Y-76234527D01*
X145843094Y-76236839D01*
X145831524Y-76254155D01*
X145788376Y-76318730D01*
X145718730Y-76388376D01*
X145686638Y-76409819D01*
X145636839Y-76443094D01*
X145636838Y-76443095D01*
X145636837Y-76443095D01*
X145545843Y-76480786D01*
X145449247Y-76500000D01*
X145350753Y-76500000D01*
X145254157Y-76480786D01*
X145163163Y-76443095D01*
X145163162Y-76443095D01*
X145163161Y-76443094D01*
X145113362Y-76409819D01*
X145081270Y-76388376D01*
X145011624Y-76318730D01*
X144968476Y-76254155D01*
X144956906Y-76236839D01*
X144955948Y-76234527D01*
X144919214Y-76145843D01*
X144900000Y-76049247D01*
X144900000Y-75950753D01*
X144919214Y-75854157D01*
X144956905Y-75763163D01*
X145011624Y-75681270D01*
X145081270Y-75611624D01*
X145138044Y-75573689D01*
X145163161Y-75556906D01*
X145163163Y-75556905D01*
X145254157Y-75519214D01*
X145350753Y-75500000D01*
X145449247Y-75500000D01*
X145545843Y-75519214D01*
X145545843Y-75519214D01*
G37*
G36*
X158695843Y-72556026D02*
G01*
X158762142Y-72583488D01*
X158786839Y-72593718D01*
X158799162Y-72601952D01*
X158868730Y-72648436D01*
X158938376Y-72718082D01*
X158950909Y-72736839D01*
X158991424Y-72797473D01*
X158993095Y-72799975D01*
X159030786Y-72890969D01*
X159050000Y-72987565D01*
X159050000Y-73086059D01*
X159030786Y-73182655D01*
X159030785Y-73182657D01*
X158993094Y-73273651D01*
X158938375Y-73355543D01*
X158868731Y-73425187D01*
X158786839Y-73479906D01*
X158786838Y-73479907D01*
X158786837Y-73479907D01*
X158695843Y-73517598D01*
X158599247Y-73536812D01*
X158500753Y-73536812D01*
X158404157Y-73517598D01*
X158313163Y-73479907D01*
X158313162Y-73479907D01*
X158313161Y-73479906D01*
X158231269Y-73425187D01*
X158161625Y-73355543D01*
X158106906Y-73273651D01*
X158069215Y-73182657D01*
X158069214Y-73182655D01*
X158050000Y-73086059D01*
X158050000Y-72987565D01*
X158069214Y-72890969D01*
X158106905Y-72799975D01*
X158108577Y-72797473D01*
X158149091Y-72736839D01*
X158161624Y-72718082D01*
X158231270Y-72648436D01*
X158300838Y-72601952D01*
X158313161Y-72593718D01*
X158337858Y-72583488D01*
X158404157Y-72556026D01*
X158500753Y-72536812D01*
X158599247Y-72536812D01*
X158695843Y-72556026D01*
X158695843Y-72556026D01*
G37*
G36*
X149845843Y-70619214D02*
G01*
X149845846Y-70619215D01*
X149845845Y-70619215D01*
X149936839Y-70656906D01*
X149978063Y-70684451D01*
X150018730Y-70711624D01*
X150088376Y-70781270D01*
X150143095Y-70863163D01*
X150180786Y-70954157D01*
X150200000Y-71050753D01*
X150200000Y-71149247D01*
X150180786Y-71245843D01*
X150143095Y-71336837D01*
X150088376Y-71418730D01*
X150018730Y-71488376D01*
X150011365Y-71493297D01*
X149936839Y-71543094D01*
X149936838Y-71543095D01*
X149936837Y-71543095D01*
X149845843Y-71580786D01*
X149749247Y-71600000D01*
X149650753Y-71600000D01*
X149554157Y-71580786D01*
X149463163Y-71543095D01*
X149463162Y-71543095D01*
X149463161Y-71543094D01*
X149388635Y-71493297D01*
X149381270Y-71488376D01*
X149311624Y-71418730D01*
X149256905Y-71336837D01*
X149219214Y-71245843D01*
X149200000Y-71149247D01*
X149200000Y-71050753D01*
X149219214Y-70954157D01*
X149256905Y-70863163D01*
X149311624Y-70781270D01*
X149381270Y-70711624D01*
X149421937Y-70684451D01*
X149463161Y-70656906D01*
X149554155Y-70619215D01*
X149554154Y-70619215D01*
X149554157Y-70619214D01*
X149650753Y-70600000D01*
X149749247Y-70600000D01*
X149845843Y-70619214D01*
X149845843Y-70619214D01*
G37*
G36*
X147545843Y-68919214D02*
G01*
X147545846Y-68919215D01*
X147545845Y-68919215D01*
X147636839Y-68956906D01*
X147718731Y-69011625D01*
X147788375Y-69081269D01*
X147832543Y-69147370D01*
X147843095Y-69163163D01*
X147880786Y-69254157D01*
X147900000Y-69350753D01*
X147900000Y-69449247D01*
X147880786Y-69545843D01*
X147880785Y-69545845D01*
X147843094Y-69636839D01*
X147788375Y-69718731D01*
X147718731Y-69788375D01*
X147636839Y-69843094D01*
X147636838Y-69843095D01*
X147636837Y-69843095D01*
X147545843Y-69880786D01*
X147449247Y-69900000D01*
X147350753Y-69900000D01*
X147254157Y-69880786D01*
X147163163Y-69843095D01*
X147163162Y-69843095D01*
X147163161Y-69843094D01*
X147081269Y-69788375D01*
X147011625Y-69718731D01*
X146956906Y-69636839D01*
X146919215Y-69545845D01*
X146919214Y-69545843D01*
X146900000Y-69449247D01*
X146900000Y-69350753D01*
X146919214Y-69254157D01*
X146956905Y-69163163D01*
X146967458Y-69147370D01*
X147011625Y-69081269D01*
X147081269Y-69011625D01*
X147163161Y-68956906D01*
X147254155Y-68919215D01*
X147254154Y-68919215D01*
X147254157Y-68919214D01*
X147350753Y-68900000D01*
X147449247Y-68900000D01*
X147545843Y-68919214D01*
X147545843Y-68919214D01*
G37*
G36*
X143467224Y-67960128D02*
G01*
X143599175Y-68000155D01*
X143716080Y-68062642D01*
X143738716Y-68072019D01*
X143762749Y-68076799D01*
X143787253Y-68076799D01*
X143811286Y-68072019D01*
X143833925Y-68062641D01*
X143854300Y-68049027D01*
X143871627Y-68031700D01*
X143885240Y-68011326D01*
X143894618Y-67988687D01*
X143900000Y-67952402D01*
X143900000Y-67950000D01*
X145300000Y-67950000D01*
X145300000Y-69350000D01*
X143900000Y-69350000D01*
X143900000Y-69347598D01*
X143897598Y-69323212D01*
X143890485Y-69299763D01*
X143878934Y-69278152D01*
X143863389Y-69259210D01*
X143844447Y-69243665D01*
X143822836Y-69232114D01*
X143799387Y-69225001D01*
X143775001Y-69222599D01*
X143750615Y-69225001D01*
X143716079Y-69237358D01*
X143599175Y-69299845D01*
X143467224Y-69339872D01*
X143364390Y-69350000D01*
X143295610Y-69350000D01*
X143192776Y-69339872D01*
X143060825Y-69299845D01*
X142939219Y-69234845D01*
X142832630Y-69147370D01*
X142745155Y-69040781D01*
X142680155Y-68919175D01*
X142640128Y-68787224D01*
X142626613Y-68650000D01*
X142640128Y-68512776D01*
X142680155Y-68380825D01*
X142745155Y-68259219D01*
X142832630Y-68152630D01*
X142939219Y-68065155D01*
X143060825Y-68000155D01*
X143192776Y-67960128D01*
X143295610Y-67950000D01*
X143364390Y-67950000D01*
X143467224Y-67960128D01*
X143467224Y-67960128D01*
G37*
G36*
X136334182Y-67206900D02*
G01*
X136461573Y-67259667D01*
X136461574Y-67259668D01*
X136576224Y-67336274D01*
X136673726Y-67433776D01*
X136673727Y-67433778D01*
X136750333Y-67548427D01*
X136803100Y-67675818D01*
X136830000Y-67811055D01*
X136830000Y-67948945D01*
X136803100Y-68084182D01*
X136750333Y-68211573D01*
X136750332Y-68211574D01*
X136673726Y-68326224D01*
X136576224Y-68423726D01*
X136518510Y-68462289D01*
X136461573Y-68500333D01*
X136334182Y-68553100D01*
X136198945Y-68580000D01*
X136061055Y-68580000D01*
X135925818Y-68553100D01*
X135798427Y-68500333D01*
X135741490Y-68462289D01*
X135683776Y-68423726D01*
X135586274Y-68326224D01*
X135509668Y-68211574D01*
X135509667Y-68211573D01*
X135456900Y-68084182D01*
X135430000Y-67948945D01*
X135430000Y-67811055D01*
X135456900Y-67675818D01*
X135509667Y-67548427D01*
X135586273Y-67433778D01*
X135586274Y-67433776D01*
X135683776Y-67336274D01*
X135798426Y-67259668D01*
X135798427Y-67259667D01*
X135925818Y-67206900D01*
X136061055Y-67180000D01*
X136198945Y-67180000D01*
X136334182Y-67206900D01*
X136334182Y-67206900D01*
G37*
G36*
X133075013Y-65923057D02*
G01*
X133184206Y-65968286D01*
X133282477Y-66033949D01*
X133366051Y-66117523D01*
X133431714Y-66215794D01*
X133476943Y-66324987D01*
X133500000Y-66440904D01*
X133500000Y-66559096D01*
X133476943Y-66675013D01*
X133431714Y-66784206D01*
X133366051Y-66882477D01*
X133282477Y-66966051D01*
X133184206Y-67031714D01*
X133075013Y-67076943D01*
X132959096Y-67100000D01*
X132840904Y-67100000D01*
X132724987Y-67076943D01*
X132615794Y-67031714D01*
X132517523Y-66966051D01*
X132433949Y-66882477D01*
X132368286Y-66784206D01*
X132323057Y-66675013D01*
X132300000Y-66559096D01*
X132300000Y-66440904D01*
X132323057Y-66324987D01*
X132368286Y-66215794D01*
X132433949Y-66117523D01*
X132517523Y-66033949D01*
X132615794Y-65968286D01*
X132724987Y-65923057D01*
X132840904Y-65900000D01*
X132959096Y-65900000D01*
X133075013Y-65923057D01*
X133075013Y-65923057D01*
G37*
G36*
X156795843Y-66089214D02*
G01*
X156886837Y-66126905D01*
X156886839Y-66126906D01*
X156968731Y-66181625D01*
X157038375Y-66251269D01*
X157087632Y-66324986D01*
X157093095Y-66333163D01*
X157130786Y-66424157D01*
X157150000Y-66520753D01*
X157150000Y-66619247D01*
X157130786Y-66715843D01*
X157093095Y-66806837D01*
X157038376Y-66888730D01*
X156968730Y-66958376D01*
X156928063Y-66985549D01*
X156886839Y-67013094D01*
X156886838Y-67013095D01*
X156886837Y-67013095D01*
X156795843Y-67050786D01*
X156699247Y-67070000D01*
X156600753Y-67070000D01*
X156504157Y-67050786D01*
X156413163Y-67013095D01*
X156413162Y-67013095D01*
X156413161Y-67013094D01*
X156371937Y-66985549D01*
X156331270Y-66958376D01*
X156261624Y-66888730D01*
X156206905Y-66806837D01*
X156169214Y-66715843D01*
X156150000Y-66619247D01*
X156150000Y-66520753D01*
X156169214Y-66424157D01*
X156206905Y-66333163D01*
X156212369Y-66324986D01*
X156261625Y-66251269D01*
X156331269Y-66181625D01*
X156413161Y-66126906D01*
X156413163Y-66126905D01*
X156504157Y-66089214D01*
X156600753Y-66070000D01*
X156699247Y-66070000D01*
X156795843Y-66089214D01*
X156795843Y-66089214D01*
G37*
G36*
X133204182Y-64106900D02*
G01*
X133331573Y-64159667D01*
X133331574Y-64159668D01*
X133446224Y-64236274D01*
X133543726Y-64333776D01*
X133566644Y-64368076D01*
X133620333Y-64448427D01*
X133673100Y-64575818D01*
X133700000Y-64711055D01*
X133700000Y-64848945D01*
X133673100Y-64984182D01*
X133620333Y-65111573D01*
X133620332Y-65111574D01*
X133543726Y-65226224D01*
X133446224Y-65323726D01*
X133388510Y-65362289D01*
X133331573Y-65400333D01*
X133204182Y-65453100D01*
X133068945Y-65480000D01*
X132931055Y-65480000D01*
X132795818Y-65453100D01*
X132668427Y-65400333D01*
X132611490Y-65362289D01*
X132553776Y-65323726D01*
X132456274Y-65226224D01*
X132379668Y-65111574D01*
X132379667Y-65111573D01*
X132326900Y-64984182D01*
X132300000Y-64848945D01*
X132300000Y-64711055D01*
X132326900Y-64575818D01*
X132379667Y-64448427D01*
X132433356Y-64368076D01*
X132456274Y-64333776D01*
X132553776Y-64236274D01*
X132668426Y-64159668D01*
X132668427Y-64159667D01*
X132795818Y-64106900D01*
X132931055Y-64080000D01*
X133068945Y-64080000D01*
X133204182Y-64106900D01*
X133204182Y-64106900D01*
G37*
G36*
X156955190Y-61146890D02*
G01*
X157139362Y-61223177D01*
X157305113Y-61333928D01*
X157446072Y-61474887D01*
X157556823Y-61640638D01*
X157633110Y-61824810D01*
X157672000Y-62020327D01*
X157672000Y-62219673D01*
X157633110Y-62415190D01*
X157556823Y-62599362D01*
X157479845Y-62714568D01*
X157468301Y-62736166D01*
X157461188Y-62759615D01*
X157458786Y-62784001D01*
X157461188Y-62808387D01*
X157468301Y-62831836D01*
X157479852Y-62853447D01*
X157495397Y-62872388D01*
X157514339Y-62887934D01*
X157535950Y-62899485D01*
X157559399Y-62906598D01*
X157583785Y-62909000D01*
X158060000Y-62909000D01*
X158060000Y-64245479D01*
X158062402Y-64269865D01*
X158069515Y-64293314D01*
X158081066Y-64314925D01*
X158096611Y-64333867D01*
X158115553Y-64349412D01*
X158137164Y-64360963D01*
X158160613Y-64368076D01*
X158184999Y-64370478D01*
X158209385Y-64368076D01*
X158232834Y-64360963D01*
X158254445Y-64349411D01*
X158273159Y-64336907D01*
X158273164Y-64336905D01*
X158326228Y-64314925D01*
X158364157Y-64299214D01*
X158460753Y-64280000D01*
X158559247Y-64280000D01*
X158655843Y-64299214D01*
X158746837Y-64336905D01*
X158746839Y-64336906D01*
X158788063Y-64364451D01*
X158828730Y-64391624D01*
X158898376Y-64461270D01*
X158921926Y-64496515D01*
X158939732Y-64523163D01*
X158953095Y-64543163D01*
X158990786Y-64634157D01*
X159010000Y-64730753D01*
X159010000Y-64829247D01*
X158990786Y-64925843D01*
X158953095Y-65016837D01*
X158911740Y-65078730D01*
X158898375Y-65098731D01*
X158828731Y-65168375D01*
X158746839Y-65223094D01*
X158746838Y-65223095D01*
X158746837Y-65223095D01*
X158655843Y-65260786D01*
X158559247Y-65280000D01*
X158460753Y-65280000D01*
X158364157Y-65260786D01*
X158273163Y-65223095D01*
X158273162Y-65223095D01*
X158273161Y-65223094D01*
X158191269Y-65168375D01*
X158121625Y-65098731D01*
X158108261Y-65078730D01*
X158066905Y-65016837D01*
X158029214Y-64925843D01*
X158010000Y-64829247D01*
X158010000Y-64775999D01*
X158007598Y-64751613D01*
X158000485Y-64728164D01*
X157988934Y-64706553D01*
X157973389Y-64687611D01*
X157954447Y-64672066D01*
X157932836Y-64660515D01*
X157909387Y-64653402D01*
X157885001Y-64651000D01*
X155424999Y-64651000D01*
X155400613Y-64653402D01*
X155377164Y-64660515D01*
X155355553Y-64672066D01*
X155336611Y-64687611D01*
X155321066Y-64706553D01*
X155309515Y-64728164D01*
X155302402Y-64751613D01*
X155300000Y-64775999D01*
X155300000Y-64809247D01*
X155280786Y-64905843D01*
X155280785Y-64905845D01*
X155243094Y-64996839D01*
X155188375Y-65078731D01*
X155118731Y-65148375D01*
X155036839Y-65203094D01*
X155036838Y-65203095D01*
X155036837Y-65203095D01*
X154945843Y-65240786D01*
X154849247Y-65260000D01*
X154750753Y-65260000D01*
X154654157Y-65240786D01*
X154563163Y-65203095D01*
X154563162Y-65203095D01*
X154563161Y-65203094D01*
X154481269Y-65148375D01*
X154411625Y-65078731D01*
X154356906Y-64996839D01*
X154319215Y-64905845D01*
X154319214Y-64905843D01*
X154300000Y-64809247D01*
X154300000Y-64710753D01*
X154319214Y-64614157D01*
X154356905Y-64523163D01*
X154374711Y-64496515D01*
X154384451Y-64481937D01*
X154411624Y-64441270D01*
X154481270Y-64371624D01*
X154533231Y-64336905D01*
X154563161Y-64316906D01*
X154563163Y-64316905D01*
X154641091Y-64284626D01*
X154662702Y-64273075D01*
X154681644Y-64257530D01*
X154697189Y-64238588D01*
X154708740Y-64216977D01*
X154715853Y-64193528D01*
X154718255Y-64169142D01*
X154717440Y-64160858D01*
X154861745Y-64160858D01*
X154864147Y-64185244D01*
X154871260Y-64208693D01*
X154882811Y-64230304D01*
X154898356Y-64249246D01*
X154917298Y-64264791D01*
X154938909Y-64276342D01*
X155036838Y-64316905D01*
X155036839Y-64316906D01*
X155062087Y-64333776D01*
X155065554Y-64336093D01*
X155087165Y-64347645D01*
X155110614Y-64354758D01*
X155135000Y-64357160D01*
X155159386Y-64354758D01*
X155182835Y-64347645D01*
X155204446Y-64336094D01*
X155223388Y-64320549D01*
X155238933Y-64301608D01*
X155250485Y-64279997D01*
X155257598Y-64256548D01*
X155260000Y-64232161D01*
X155260000Y-64084476D01*
X155257598Y-64060090D01*
X155250485Y-64036641D01*
X155238934Y-64015030D01*
X155223389Y-63996088D01*
X155204447Y-63980543D01*
X155182836Y-63968992D01*
X155159387Y-63961879D01*
X155135001Y-63959477D01*
X155110615Y-63961879D01*
X155087166Y-63968992D01*
X155065555Y-63980543D01*
X155016839Y-64013094D01*
X155016838Y-64013095D01*
X155016837Y-64013095D01*
X154938909Y-64045374D01*
X154917298Y-64056925D01*
X154898356Y-64072470D01*
X154882811Y-64091412D01*
X154871260Y-64113023D01*
X154864147Y-64136472D01*
X154861745Y-64160858D01*
X154717440Y-64160858D01*
X154715853Y-64144756D01*
X154708740Y-64121307D01*
X154697189Y-64099696D01*
X154681644Y-64080754D01*
X154662702Y-64065209D01*
X154641091Y-64053658D01*
X154543163Y-64013095D01*
X154543162Y-64013095D01*
X154543161Y-64013094D01*
X154461269Y-63958375D01*
X154391625Y-63888731D01*
X154375714Y-63864918D01*
X154336905Y-63806837D01*
X154299214Y-63715844D01*
X154282261Y-63630613D01*
X154275148Y-63607164D01*
X154263597Y-63585554D01*
X154248052Y-63566612D01*
X154229110Y-63551066D01*
X154207499Y-63539515D01*
X154184051Y-63532402D01*
X154159664Y-63530000D01*
X154150753Y-63530000D01*
X154054157Y-63510786D01*
X153963163Y-63473095D01*
X153963162Y-63473095D01*
X153963161Y-63473094D01*
X153881269Y-63418375D01*
X153811625Y-63348731D01*
X153756906Y-63266839D01*
X153739399Y-63224572D01*
X156260000Y-63224572D01*
X156260000Y-63604001D01*
X156262402Y-63628387D01*
X156269515Y-63651836D01*
X156281066Y-63673447D01*
X156296611Y-63692389D01*
X156315553Y-63707934D01*
X156337164Y-63719485D01*
X156360613Y-63726598D01*
X156384999Y-63729000D01*
X156935001Y-63729000D01*
X156959387Y-63726598D01*
X156982836Y-63719485D01*
X157004447Y-63707934D01*
X157023389Y-63692389D01*
X157038934Y-63673447D01*
X157050485Y-63651836D01*
X157057598Y-63628387D01*
X157060000Y-63604001D01*
X157060000Y-63224572D01*
X157057598Y-63200186D01*
X157050485Y-63176737D01*
X157038934Y-63155126D01*
X157023389Y-63136184D01*
X157004447Y-63120639D01*
X156982836Y-63109088D01*
X156959387Y-63101975D01*
X156935001Y-63099573D01*
X156910629Y-63101973D01*
X156759673Y-63132000D01*
X156560327Y-63132000D01*
X156409371Y-63101973D01*
X156385000Y-63099573D01*
X156360614Y-63101975D01*
X156337165Y-63109088D01*
X156315554Y-63120639D01*
X156296612Y-63136184D01*
X156281067Y-63155126D01*
X156269515Y-63176736D01*
X156262402Y-63200185D01*
X156260000Y-63224572D01*
X153739399Y-63224572D01*
X153719215Y-63175845D01*
X153719214Y-63175843D01*
X153700000Y-63079247D01*
X153700000Y-62980753D01*
X153719214Y-62884157D01*
X153756905Y-62793163D01*
X153763630Y-62783099D01*
X153811625Y-62711269D01*
X153881269Y-62641625D01*
X153915296Y-62618889D01*
X153921937Y-62614451D01*
X153963161Y-62586906D01*
X153963163Y-62586905D01*
X154054157Y-62549214D01*
X154150753Y-62530000D01*
X154249247Y-62530000D01*
X154345843Y-62549214D01*
X154436837Y-62586905D01*
X154436839Y-62586906D01*
X154478063Y-62614451D01*
X154484705Y-62618889D01*
X154518731Y-62641625D01*
X154588375Y-62711269D01*
X154636371Y-62783099D01*
X154643095Y-62793163D01*
X154680786Y-62884156D01*
X154697739Y-62969387D01*
X154704852Y-62992836D01*
X154716403Y-63014446D01*
X154731948Y-63033388D01*
X154750890Y-63048934D01*
X154772501Y-63060485D01*
X154795949Y-63067598D01*
X154820336Y-63070000D01*
X154829247Y-63070000D01*
X154925843Y-63089214D01*
X155016837Y-63126905D01*
X155016839Y-63126906D01*
X155030724Y-63136184D01*
X155065555Y-63159457D01*
X155087166Y-63171008D01*
X155110615Y-63178121D01*
X155135001Y-63180523D01*
X155159387Y-63178121D01*
X155182836Y-63171008D01*
X155204447Y-63159457D01*
X155223389Y-63143912D01*
X155238934Y-63124970D01*
X155250485Y-63103359D01*
X155257598Y-63079910D01*
X155260000Y-63055524D01*
X155260000Y-62909000D01*
X155736215Y-62909000D01*
X155760601Y-62906598D01*
X155784050Y-62899485D01*
X155805661Y-62887934D01*
X155824603Y-62872389D01*
X155840148Y-62853447D01*
X155851699Y-62831836D01*
X155858812Y-62808387D01*
X155861214Y-62784001D01*
X155858812Y-62759615D01*
X155851699Y-62736166D01*
X155840155Y-62714568D01*
X155763177Y-62599362D01*
X155686890Y-62415190D01*
X155648000Y-62219673D01*
X155648000Y-62020327D01*
X155686890Y-61824810D01*
X155763177Y-61640638D01*
X155873928Y-61474887D01*
X156014887Y-61333928D01*
X156180638Y-61223177D01*
X156364810Y-61146890D01*
X156560327Y-61108000D01*
X156759673Y-61108000D01*
X156955190Y-61146890D01*
X156955190Y-61146890D01*
G37*
G36*
X145164182Y-62770161D02*
G01*
X145246277Y-62778246D01*
X145397076Y-62823991D01*
X145536055Y-62898277D01*
X145573903Y-62929338D01*
X145657871Y-62998248D01*
X145714784Y-63067598D01*
X145757842Y-63120064D01*
X145800668Y-63200186D01*
X145832128Y-63259043D01*
X145877873Y-63409842D01*
X145884102Y-63473094D01*
X145893319Y-63566670D01*
X145888140Y-63619246D01*
X145877873Y-63723499D01*
X145834974Y-63864916D01*
X145832128Y-63874297D01*
X145757842Y-64013276D01*
X145682918Y-64104571D01*
X145344508Y-64442981D01*
X145253213Y-64517905D01*
X145135573Y-64580785D01*
X145114234Y-64592191D01*
X144963435Y-64637936D01*
X144881340Y-64646021D01*
X144806607Y-64653382D01*
X144731874Y-64646021D01*
X144649779Y-64637936D01*
X144498980Y-64592191D01*
X144477641Y-64580785D01*
X144360001Y-64517905D01*
X144322153Y-64486844D01*
X144238185Y-64417934D01*
X144158264Y-64320549D01*
X144138214Y-64296118D01*
X144063928Y-64157139D01*
X144057659Y-64136472D01*
X144018183Y-64006340D01*
X144006600Y-63888730D01*
X144002737Y-63849512D01*
X144012752Y-63747834D01*
X144018183Y-63692684D01*
X144063928Y-63541885D01*
X144100698Y-63473094D01*
X144138214Y-63402906D01*
X144213138Y-63311611D01*
X144551548Y-62973201D01*
X144642843Y-62898277D01*
X144781822Y-62823991D01*
X144932620Y-62778246D01*
X145014715Y-62770161D01*
X145089449Y-62762800D01*
X145164182Y-62770161D01*
X145164182Y-62770161D01*
G37*
G36*
X136445843Y-60019214D02*
G01*
X136445846Y-60019215D01*
X136445845Y-60019215D01*
X136536839Y-60056906D01*
X136578063Y-60084451D01*
X136618730Y-60111624D01*
X136688376Y-60181270D01*
X136743095Y-60263163D01*
X136780786Y-60354157D01*
X136800000Y-60450753D01*
X136800000Y-60549248D01*
X136799728Y-60550616D01*
X136797326Y-60575003D01*
X136799728Y-60599389D01*
X136806842Y-60622838D01*
X136818393Y-60644448D01*
X136833938Y-60663390D01*
X136852881Y-60678935D01*
X136874491Y-60690486D01*
X136897940Y-60697598D01*
X136922325Y-60700000D01*
X137230759Y-60700000D01*
X137235553Y-60703934D01*
X137257164Y-60715485D01*
X137280613Y-60722598D01*
X137304999Y-60725000D01*
X138655000Y-60725000D01*
X138655000Y-61614633D01*
X138657402Y-61639019D01*
X138664515Y-61662468D01*
X138676066Y-61684079D01*
X138691611Y-61703021D01*
X138710553Y-61718566D01*
X138732164Y-61730117D01*
X138755613Y-61737230D01*
X138779999Y-61739632D01*
X138804385Y-61737230D01*
X138827834Y-61730117D01*
X138854156Y-61719214D01*
X138950753Y-61700000D01*
X139049247Y-61700000D01*
X139145843Y-61719214D01*
X139172165Y-61730117D01*
X139236839Y-61756906D01*
X139269046Y-61778426D01*
X139318730Y-61811624D01*
X139388376Y-61881270D01*
X139443095Y-61963163D01*
X139480786Y-62054157D01*
X139500000Y-62150753D01*
X139500000Y-62249247D01*
X139480786Y-62345843D01*
X139480785Y-62345845D01*
X139443094Y-62436839D01*
X139388375Y-62518731D01*
X139318731Y-62588375D01*
X139236839Y-62643094D01*
X139236838Y-62643095D01*
X139236837Y-62643095D01*
X139145843Y-62680786D01*
X139049247Y-62700000D01*
X138950753Y-62700000D01*
X138854156Y-62680786D01*
X138827834Y-62669883D01*
X138804385Y-62662770D01*
X138779998Y-62660368D01*
X138755612Y-62662770D01*
X138732163Y-62669883D01*
X138710553Y-62681434D01*
X138691611Y-62696980D01*
X138676066Y-62715922D01*
X138664515Y-62737532D01*
X138657402Y-62760981D01*
X138655000Y-62785367D01*
X138655000Y-63575000D01*
X137983881Y-63575000D01*
X137959495Y-63577402D01*
X137936046Y-63584515D01*
X137914435Y-63596066D01*
X137895493Y-63611611D01*
X137879948Y-63630553D01*
X137868397Y-63652164D01*
X137861284Y-63675613D01*
X137858882Y-63699999D01*
X137861284Y-63724385D01*
X137868397Y-63747834D01*
X137879948Y-63769445D01*
X137882782Y-63772898D01*
X137914617Y-63820542D01*
X137921605Y-63831000D01*
X137943095Y-63863163D01*
X137980786Y-63954157D01*
X138000000Y-64050753D01*
X138000000Y-64149247D01*
X137980786Y-64245843D01*
X137957687Y-64301608D01*
X137943094Y-64336839D01*
X137916604Y-64376484D01*
X137888909Y-64417933D01*
X137888375Y-64418731D01*
X137818731Y-64488375D01*
X137736839Y-64543094D01*
X137736838Y-64543095D01*
X137736837Y-64543095D01*
X137645843Y-64580786D01*
X137549247Y-64600000D01*
X137450753Y-64600000D01*
X137354157Y-64580786D01*
X137263163Y-64543095D01*
X137263162Y-64543095D01*
X137263161Y-64543094D01*
X137181269Y-64488375D01*
X137111625Y-64418731D01*
X137111092Y-64417933D01*
X137083396Y-64376484D01*
X137056906Y-64336839D01*
X137042313Y-64301608D01*
X137019214Y-64245843D01*
X137000000Y-64149247D01*
X137000000Y-64050753D01*
X137019214Y-63954157D01*
X137056905Y-63863163D01*
X137078396Y-63831000D01*
X137102821Y-63794445D01*
X137114372Y-63772834D01*
X137121485Y-63749385D01*
X137123887Y-63724999D01*
X137121485Y-63700613D01*
X137114372Y-63677164D01*
X137102821Y-63655554D01*
X137087276Y-63636612D01*
X137068334Y-63621066D01*
X137046723Y-63609515D01*
X137023274Y-63602402D01*
X136998888Y-63600000D01*
X135901112Y-63600000D01*
X135876726Y-63602402D01*
X135853277Y-63609515D01*
X135831666Y-63621066D01*
X135812724Y-63636611D01*
X135797179Y-63655553D01*
X135785628Y-63677164D01*
X135778515Y-63700613D01*
X135776113Y-63724999D01*
X135778515Y-63749385D01*
X135785628Y-63772834D01*
X135797179Y-63794445D01*
X135821605Y-63831000D01*
X135843095Y-63863163D01*
X135880786Y-63954157D01*
X135900000Y-64050753D01*
X135900000Y-64149247D01*
X135880786Y-64245843D01*
X135857687Y-64301608D01*
X135843094Y-64336839D01*
X135816604Y-64376484D01*
X135788909Y-64417933D01*
X135788375Y-64418731D01*
X135718731Y-64488375D01*
X135636839Y-64543094D01*
X135636838Y-64543095D01*
X135636837Y-64543095D01*
X135545843Y-64580786D01*
X135449247Y-64600000D01*
X135350753Y-64600000D01*
X135254157Y-64580786D01*
X135163163Y-64543095D01*
X135163162Y-64543095D01*
X135163161Y-64543094D01*
X135081269Y-64488375D01*
X135011625Y-64418731D01*
X135011092Y-64417933D01*
X134983396Y-64376484D01*
X134956906Y-64336839D01*
X134942313Y-64301608D01*
X134919214Y-64245843D01*
X134900000Y-64149247D01*
X134900000Y-64050753D01*
X134919214Y-63954157D01*
X134956905Y-63863163D01*
X134978396Y-63831000D01*
X134985383Y-63820542D01*
X135017218Y-63772898D01*
X135020052Y-63769445D01*
X135031603Y-63747834D01*
X135038716Y-63724385D01*
X135041118Y-63699999D01*
X135038716Y-63675613D01*
X135031603Y-63652164D01*
X135020052Y-63630553D01*
X135004507Y-63611611D01*
X134985565Y-63596066D01*
X134963954Y-63584515D01*
X134940505Y-63577402D01*
X134916119Y-63575000D01*
X133705000Y-63575000D01*
X133705000Y-62666724D01*
X133702598Y-62642338D01*
X133695485Y-62618889D01*
X133683934Y-62597278D01*
X133668389Y-62578336D01*
X133649447Y-62562791D01*
X133627836Y-62551240D01*
X133604387Y-62544127D01*
X133580001Y-62541725D01*
X133555615Y-62544127D01*
X133532166Y-62551240D01*
X133510555Y-62562791D01*
X133491619Y-62578331D01*
X133416224Y-62653726D01*
X133396771Y-62666724D01*
X133301573Y-62730333D01*
X133174182Y-62783100D01*
X133038945Y-62810000D01*
X132901055Y-62810000D01*
X132765818Y-62783100D01*
X132638427Y-62730333D01*
X132543229Y-62666724D01*
X132523776Y-62653726D01*
X132426274Y-62556224D01*
X132349668Y-62441574D01*
X132349667Y-62441573D01*
X132296900Y-62314182D01*
X132270000Y-62178945D01*
X132270000Y-62041055D01*
X132296900Y-61905818D01*
X132349667Y-61778427D01*
X132426273Y-61663778D01*
X132426274Y-61663776D01*
X132523776Y-61566274D01*
X132638426Y-61489668D01*
X132638427Y-61489667D01*
X132765818Y-61436900D01*
X132901055Y-61410000D01*
X133038945Y-61410000D01*
X133174182Y-61436900D01*
X133301573Y-61489667D01*
X133301574Y-61489668D01*
X133416224Y-61566274D01*
X133491619Y-61641669D01*
X133510555Y-61657209D01*
X133532166Y-61668760D01*
X133555615Y-61675873D01*
X133580001Y-61678275D01*
X133604387Y-61675873D01*
X133627836Y-61668760D01*
X133649447Y-61657209D01*
X133668389Y-61641664D01*
X133683934Y-61622722D01*
X133695485Y-61601111D01*
X133702598Y-61577662D01*
X133705000Y-61553276D01*
X133705000Y-60725000D01*
X135055001Y-60725000D01*
X135079387Y-60722598D01*
X135102836Y-60715485D01*
X135124447Y-60703934D01*
X135129241Y-60700000D01*
X135677675Y-60700000D01*
X135702061Y-60697598D01*
X135725510Y-60690485D01*
X135747121Y-60678934D01*
X135766063Y-60663389D01*
X135781608Y-60644447D01*
X135793159Y-60622836D01*
X135800272Y-60599387D01*
X135802674Y-60575001D01*
X135800272Y-60550616D01*
X135800000Y-60549248D01*
X135800000Y-60450753D01*
X135819214Y-60354157D01*
X135856905Y-60263163D01*
X135911624Y-60181270D01*
X135981270Y-60111624D01*
X136021937Y-60084451D01*
X136063161Y-60056906D01*
X136154155Y-60019215D01*
X136154154Y-60019215D01*
X136154157Y-60019214D01*
X136250753Y-60000000D01*
X136349247Y-60000000D01*
X136445843Y-60019214D01*
X136445843Y-60019214D01*
G37*
G36*
X148618601Y-62911950D02*
G01*
X148696957Y-62919667D01*
X148847758Y-62965412D01*
X148847760Y-62965413D01*
X148986735Y-63039697D01*
X149108552Y-63139669D01*
X149208524Y-63261486D01*
X149282808Y-63400461D01*
X149282809Y-63400463D01*
X149328554Y-63551264D01*
X149344000Y-63708091D01*
X149328554Y-63864918D01*
X149288764Y-63996088D01*
X149282808Y-64015721D01*
X149208524Y-64154696D01*
X149108552Y-64276513D01*
X148986735Y-64376485D01*
X148847760Y-64450769D01*
X148847758Y-64450770D01*
X148696957Y-64496515D01*
X148618601Y-64504232D01*
X148579424Y-64508091D01*
X148500836Y-64508091D01*
X148461659Y-64504232D01*
X148383303Y-64496515D01*
X148232502Y-64450770D01*
X148232500Y-64450769D01*
X148093525Y-64376485D01*
X147971708Y-64276513D01*
X147871736Y-64154696D01*
X147797452Y-64015721D01*
X147791496Y-63996088D01*
X147751706Y-63864918D01*
X147736260Y-63708091D01*
X147751706Y-63551264D01*
X147797451Y-63400463D01*
X147797452Y-63400461D01*
X147871736Y-63261486D01*
X147971708Y-63139669D01*
X148093525Y-63039697D01*
X148232500Y-62965413D01*
X148232502Y-62965412D01*
X148383303Y-62919667D01*
X148461659Y-62911950D01*
X148500836Y-62908091D01*
X148579424Y-62908091D01*
X148618601Y-62911950D01*
X148618601Y-62911950D01*
G37*
G36*
X148618601Y-59319847D02*
G01*
X148696957Y-59327564D01*
X148847758Y-59373309D01*
X148847760Y-59373310D01*
X148986735Y-59447594D01*
X148986737Y-59447595D01*
X148986736Y-59447595D01*
X149108552Y-59547566D01*
X149208523Y-59669382D01*
X149282809Y-59808360D01*
X149328554Y-59959161D01*
X149344000Y-60115988D01*
X149328554Y-60272815D01*
X149303879Y-60354157D01*
X149282808Y-60423618D01*
X149208524Y-60562593D01*
X149108552Y-60684410D01*
X148986735Y-60784382D01*
X148847760Y-60858666D01*
X148847758Y-60858667D01*
X148696957Y-60904412D01*
X148618601Y-60912129D01*
X148579424Y-60915988D01*
X148500836Y-60915988D01*
X148461659Y-60912129D01*
X148383303Y-60904412D01*
X148232502Y-60858667D01*
X148232500Y-60858666D01*
X148093525Y-60784382D01*
X147971708Y-60684410D01*
X147871736Y-60562593D01*
X147797452Y-60423618D01*
X147776381Y-60354157D01*
X147751706Y-60272815D01*
X147736260Y-60115988D01*
X147751706Y-59959161D01*
X147797451Y-59808360D01*
X147871737Y-59669382D01*
X147971708Y-59547566D01*
X148093524Y-59447595D01*
X148093523Y-59447595D01*
X148093525Y-59447594D01*
X148232500Y-59373310D01*
X148232502Y-59373309D01*
X148383303Y-59327564D01*
X148461659Y-59319847D01*
X148500836Y-59315988D01*
X148579424Y-59315988D01*
X148618601Y-59319847D01*
X148618601Y-59319847D01*
G37*
G36*
X161098793Y-55044937D02*
G01*
X161453670Y-55191932D01*
X161773052Y-55405336D01*
X162044664Y-55676948D01*
X162258068Y-55996330D01*
X162405063Y-56351207D01*
X162480000Y-56727940D01*
X162480000Y-57112060D01*
X162405063Y-57488793D01*
X162258068Y-57843670D01*
X162044664Y-58163052D01*
X161773052Y-58434664D01*
X161453670Y-58648068D01*
X161098793Y-58795063D01*
X160722060Y-58870000D01*
X160337940Y-58870000D01*
X159961207Y-58795063D01*
X159606330Y-58648068D01*
X159286948Y-58434664D01*
X159015336Y-58163052D01*
X158801932Y-57843670D01*
X158654937Y-57488793D01*
X158580000Y-57112060D01*
X158580000Y-56727940D01*
X158654937Y-56351207D01*
X158801932Y-55996330D01*
X159015336Y-55676948D01*
X159286948Y-55405336D01*
X159606330Y-55191932D01*
X159961207Y-55044937D01*
X160337940Y-54970000D01*
X160722060Y-54970000D01*
X161098793Y-55044937D01*
X161098793Y-55044937D01*
G37*
G36*
X133078793Y-55044937D02*
G01*
X133433670Y-55191932D01*
X133753052Y-55405336D01*
X134024664Y-55676948D01*
X134238068Y-55996330D01*
X134385063Y-56351207D01*
X134460000Y-56727940D01*
X134460000Y-57112060D01*
X134385063Y-57488793D01*
X134238068Y-57843670D01*
X134024664Y-58163052D01*
X133753052Y-58434664D01*
X133433670Y-58648068D01*
X133078793Y-58795063D01*
X132702060Y-58870000D01*
X132317940Y-58870000D01*
X131941207Y-58795063D01*
X131586330Y-58648068D01*
X131266948Y-58434664D01*
X130995336Y-58163052D01*
X130781932Y-57843670D01*
X130634937Y-57488793D01*
X130560000Y-57112060D01*
X130560000Y-56727940D01*
X130634937Y-56351207D01*
X130781932Y-55996330D01*
X130995336Y-55676948D01*
X131266948Y-55405336D01*
X131586330Y-55191932D01*
X131941207Y-55044937D01*
X132317940Y-54970000D01*
X132702060Y-54970000D01*
X133078793Y-55044937D01*
X133078793Y-55044937D01*
G37*
M02*
