G04 #@! TF.GenerationSoftware,KiCad,Pcbnew,5.1.2-f72e74a~84~ubuntu19.04.1*
G04 #@! TF.CreationDate,2019-07-17T18:56:17-05:00*
G04 #@! TF.ProjectId,led-controller,6c65642d-636f-46e7-9472-6f6c6c65722e,rev?*
G04 #@! TF.SameCoordinates,Original*
G04 #@! TF.FileFunction,Legend,Bot*
G04 #@! TF.FilePolarity,Positive*
%FSLAX46Y46*%
G04 Gerber Fmt 4.6, Leading zero omitted, Abs format (unit mm)*
G04 Created by KiCad (PCBNEW 5.1.2-f72e74a~84~ubuntu19.04.1) date 2019-07-17 18:56:17*
%MOMM*%
%LPD*%
G04 APERTURE LIST*
%ADD10C,0.120000*%
%ADD11C,0.150000*%
G04 APERTURE END LIST*
D10*
X135922393Y-108112420D02*
X136264927Y-108112420D01*
X135922393Y-109132420D02*
X136264927Y-109132420D01*
X144963420Y-91156607D02*
X144963420Y-90814073D01*
X145983420Y-91156607D02*
X145983420Y-90814073D01*
X152783660Y-59972420D02*
X152783660Y-57522420D01*
X156003660Y-58172420D02*
X156003660Y-59972420D01*
X157803660Y-58126153D02*
X157803660Y-58468687D01*
X156783660Y-58126153D02*
X156783660Y-58468687D01*
X142222393Y-59412420D02*
X142564927Y-59412420D01*
X142222393Y-60432420D02*
X142564927Y-60432420D01*
X146506113Y-109911420D02*
X146848647Y-109911420D01*
X146506113Y-110931420D02*
X146848647Y-110931420D01*
D11*
X157826620Y-63845440D02*
X138326620Y-63845440D01*
X157826620Y-81845440D02*
X157826620Y-63845440D01*
X138326620Y-81845440D02*
X157826620Y-81845440D01*
X138326620Y-63845440D02*
X138326620Y-81845440D01*
X132326620Y-63845440D02*
X138326620Y-63845440D01*
X132326620Y-81845440D02*
X132326620Y-63845440D01*
X138326620Y-81845440D02*
X132326620Y-81845440D01*
D10*
X161190400Y-77755933D02*
X161190400Y-78098467D01*
X160170400Y-77755933D02*
X160170400Y-78098467D01*
X135900313Y-104656160D02*
X136242847Y-104656160D01*
X135900313Y-105676160D02*
X136242847Y-105676160D01*
X135940953Y-106302080D02*
X136283487Y-106302080D01*
X135940953Y-107322080D02*
X136283487Y-107322080D01*
X158339927Y-62032420D02*
X157997393Y-62032420D01*
X158339927Y-61012420D02*
X157997393Y-61012420D01*
X134842433Y-61196760D02*
X135184967Y-61196760D01*
X134842433Y-62216760D02*
X135184967Y-62216760D01*
X143121920Y-91157907D02*
X143121920Y-90815373D01*
X144141920Y-91157907D02*
X144141920Y-90815373D01*
X142158180Y-90845793D02*
X142158180Y-91188327D01*
X141138180Y-90845793D02*
X141138180Y-91188327D01*
X142222393Y-61112420D02*
X142564927Y-61112420D01*
X142222393Y-62132420D02*
X142564927Y-62132420D01*
X151183660Y-58368687D02*
X151183660Y-58026153D01*
X152203660Y-58368687D02*
X152203660Y-58026153D01*
D11*
X133560326Y-108979562D02*
X133607945Y-109027181D01*
X133750802Y-109074800D01*
X133846040Y-109074800D01*
X133988898Y-109027181D01*
X134084136Y-108931943D01*
X134131755Y-108836705D01*
X134179374Y-108646229D01*
X134179374Y-108503372D01*
X134131755Y-108312896D01*
X134084136Y-108217658D01*
X133988898Y-108122420D01*
X133846040Y-108074800D01*
X133750802Y-108074800D01*
X133607945Y-108122420D01*
X133560326Y-108170039D01*
X132703183Y-108074800D02*
X132893660Y-108074800D01*
X132988898Y-108122420D01*
X133036517Y-108170039D01*
X133131755Y-108312896D01*
X133179374Y-108503372D01*
X133179374Y-108884324D01*
X133131755Y-108979562D01*
X133084136Y-109027181D01*
X132988898Y-109074800D01*
X132798421Y-109074800D01*
X132703183Y-109027181D01*
X132655564Y-108979562D01*
X132607945Y-108884324D01*
X132607945Y-108646229D01*
X132655564Y-108550991D01*
X132703183Y-108503372D01*
X132798421Y-108455753D01*
X132988898Y-108455753D01*
X133084136Y-108503372D01*
X133131755Y-108550991D01*
X133179374Y-108646229D01*
X145624846Y-93787220D02*
X145958180Y-93311030D01*
X146196275Y-93787220D02*
X146196275Y-92787220D01*
X145815322Y-92787220D01*
X145720084Y-92834840D01*
X145672465Y-92882459D01*
X145624846Y-92977697D01*
X145624846Y-93120554D01*
X145672465Y-93215792D01*
X145720084Y-93263411D01*
X145815322Y-93311030D01*
X146196275Y-93311030D01*
X145291513Y-92787220D02*
X144672465Y-92787220D01*
X145005799Y-93168173D01*
X144862941Y-93168173D01*
X144767703Y-93215792D01*
X144720084Y-93263411D01*
X144672465Y-93358649D01*
X144672465Y-93596744D01*
X144720084Y-93691982D01*
X144767703Y-93739601D01*
X144862941Y-93787220D01*
X145148656Y-93787220D01*
X145243894Y-93739601D01*
X145291513Y-93691982D01*
X155135244Y-55616500D02*
X155135244Y-56426024D01*
X155087625Y-56521262D01*
X155040006Y-56568881D01*
X154944768Y-56616500D01*
X154754292Y-56616500D01*
X154659054Y-56568881D01*
X154611435Y-56521262D01*
X154563816Y-56426024D01*
X154563816Y-55616500D01*
X153563816Y-56616500D02*
X154135244Y-56616500D01*
X153849530Y-56616500D02*
X153849530Y-55616500D01*
X153944768Y-55759358D01*
X154040006Y-55854596D01*
X154135244Y-55902215D01*
X157360326Y-56379562D02*
X157407945Y-56427181D01*
X157550802Y-56474800D01*
X157646040Y-56474800D01*
X157788898Y-56427181D01*
X157884136Y-56331943D01*
X157931755Y-56236705D01*
X157979374Y-56046229D01*
X157979374Y-55903372D01*
X157931755Y-55712896D01*
X157884136Y-55617658D01*
X157788898Y-55522420D01*
X157646040Y-55474800D01*
X157550802Y-55474800D01*
X157407945Y-55522420D01*
X157360326Y-55570039D01*
X156407945Y-56474800D02*
X156979374Y-56474800D01*
X156693660Y-56474800D02*
X156693660Y-55474800D01*
X156788898Y-55617658D01*
X156884136Y-55712896D01*
X156979374Y-55760515D01*
X145160326Y-60279562D02*
X145207945Y-60327181D01*
X145350802Y-60374800D01*
X145446040Y-60374800D01*
X145588898Y-60327181D01*
X145684136Y-60231943D01*
X145731755Y-60136705D01*
X145779374Y-59946229D01*
X145779374Y-59803372D01*
X145731755Y-59612896D01*
X145684136Y-59517658D01*
X145588898Y-59422420D01*
X145446040Y-59374800D01*
X145350802Y-59374800D01*
X145207945Y-59422420D01*
X145160326Y-59470039D01*
X144779374Y-59470039D02*
X144731755Y-59422420D01*
X144636517Y-59374800D01*
X144398421Y-59374800D01*
X144303183Y-59422420D01*
X144255564Y-59470039D01*
X144207945Y-59565277D01*
X144207945Y-59660515D01*
X144255564Y-59803372D01*
X144826993Y-60374800D01*
X144207945Y-60374800D01*
X146823726Y-109445062D02*
X146871345Y-109492681D01*
X147014202Y-109540300D01*
X147109440Y-109540300D01*
X147252298Y-109492681D01*
X147347536Y-109397443D01*
X147395155Y-109302205D01*
X147442774Y-109111729D01*
X147442774Y-108968872D01*
X147395155Y-108778396D01*
X147347536Y-108683158D01*
X147252298Y-108587920D01*
X147109440Y-108540300D01*
X147014202Y-108540300D01*
X146871345Y-108587920D01*
X146823726Y-108635539D01*
X146490393Y-108540300D02*
X145871345Y-108540300D01*
X146204679Y-108921253D01*
X146061821Y-108921253D01*
X145966583Y-108968872D01*
X145918964Y-109016491D01*
X145871345Y-109111729D01*
X145871345Y-109349824D01*
X145918964Y-109445062D01*
X145966583Y-109492681D01*
X146061821Y-109540300D01*
X146347536Y-109540300D01*
X146442774Y-109492681D01*
X146490393Y-109445062D01*
X134155564Y-82374800D02*
X134155564Y-83184324D01*
X134107945Y-83279562D01*
X134060326Y-83327181D01*
X133965088Y-83374800D01*
X133774612Y-83374800D01*
X133679374Y-83327181D01*
X133631755Y-83279562D01*
X133584136Y-83184324D01*
X133584136Y-82374800D01*
X133203183Y-82374800D02*
X132584136Y-82374800D01*
X132917469Y-82755753D01*
X132774612Y-82755753D01*
X132679374Y-82803372D01*
X132631755Y-82850991D01*
X132584136Y-82946229D01*
X132584136Y-83184324D01*
X132631755Y-83279562D01*
X132679374Y-83327181D01*
X132774612Y-83374800D01*
X133060326Y-83374800D01*
X133155564Y-83327181D01*
X133203183Y-83279562D01*
X160857226Y-75991980D02*
X161190560Y-75515790D01*
X161428655Y-75991980D02*
X161428655Y-74991980D01*
X161047702Y-74991980D01*
X160952464Y-75039600D01*
X160904845Y-75087219D01*
X160857226Y-75182457D01*
X160857226Y-75325314D01*
X160904845Y-75420552D01*
X160952464Y-75468171D01*
X161047702Y-75515790D01*
X161428655Y-75515790D01*
X160381036Y-75991980D02*
X160190560Y-75991980D01*
X160095321Y-75944361D01*
X160047702Y-75896742D01*
X159952464Y-75753885D01*
X159904845Y-75563409D01*
X159904845Y-75182457D01*
X159952464Y-75087219D01*
X160000083Y-75039600D01*
X160095321Y-74991980D01*
X160285798Y-74991980D01*
X160381036Y-75039600D01*
X160428655Y-75087219D01*
X160476274Y-75182457D01*
X160476274Y-75420552D01*
X160428655Y-75515790D01*
X160381036Y-75563409D01*
X160285798Y-75611028D01*
X160095321Y-75611028D01*
X160000083Y-75563409D01*
X159952464Y-75515790D01*
X159904845Y-75420552D01*
X133516166Y-105662280D02*
X133849500Y-105186090D01*
X134087595Y-105662280D02*
X134087595Y-104662280D01*
X133706642Y-104662280D01*
X133611404Y-104709900D01*
X133563785Y-104757519D01*
X133516166Y-104852757D01*
X133516166Y-104995614D01*
X133563785Y-105090852D01*
X133611404Y-105138471D01*
X133706642Y-105186090D01*
X134087595Y-105186090D01*
X132944738Y-105090852D02*
X133039976Y-105043233D01*
X133087595Y-104995614D01*
X133135214Y-104900376D01*
X133135214Y-104852757D01*
X133087595Y-104757519D01*
X133039976Y-104709900D01*
X132944738Y-104662280D01*
X132754261Y-104662280D01*
X132659023Y-104709900D01*
X132611404Y-104757519D01*
X132563785Y-104852757D01*
X132563785Y-104900376D01*
X132611404Y-104995614D01*
X132659023Y-105043233D01*
X132754261Y-105090852D01*
X132944738Y-105090852D01*
X133039976Y-105138471D01*
X133087595Y-105186090D01*
X133135214Y-105281328D01*
X133135214Y-105471804D01*
X133087595Y-105567042D01*
X133039976Y-105614661D01*
X132944738Y-105662280D01*
X132754261Y-105662280D01*
X132659023Y-105614661D01*
X132611404Y-105567042D01*
X132563785Y-105471804D01*
X132563785Y-105281328D01*
X132611404Y-105186090D01*
X132659023Y-105138471D01*
X132754261Y-105090852D01*
X133597446Y-107154120D02*
X133930780Y-106677930D01*
X134168875Y-107154120D02*
X134168875Y-106154120D01*
X133787922Y-106154120D01*
X133692684Y-106201740D01*
X133645065Y-106249359D01*
X133597446Y-106344597D01*
X133597446Y-106487454D01*
X133645065Y-106582692D01*
X133692684Y-106630311D01*
X133787922Y-106677930D01*
X134168875Y-106677930D01*
X133264113Y-106154120D02*
X132597446Y-106154120D01*
X133026018Y-107154120D01*
X160860326Y-61974800D02*
X161193660Y-61498610D01*
X161431755Y-61974800D02*
X161431755Y-60974800D01*
X161050802Y-60974800D01*
X160955564Y-61022420D01*
X160907945Y-61070039D01*
X160860326Y-61165277D01*
X160860326Y-61308134D01*
X160907945Y-61403372D01*
X160955564Y-61450991D01*
X161050802Y-61498610D01*
X161431755Y-61498610D01*
X160003183Y-60974800D02*
X160193660Y-60974800D01*
X160288898Y-61022420D01*
X160336517Y-61070039D01*
X160431755Y-61212896D01*
X160479374Y-61403372D01*
X160479374Y-61784324D01*
X160431755Y-61879562D01*
X160384136Y-61927181D01*
X160288898Y-61974800D01*
X160098421Y-61974800D01*
X160003183Y-61927181D01*
X159955564Y-61879562D01*
X159907945Y-61784324D01*
X159907945Y-61546229D01*
X159955564Y-61450991D01*
X160003183Y-61403372D01*
X160098421Y-61355753D01*
X160288898Y-61355753D01*
X160384136Y-61403372D01*
X160431755Y-61450991D01*
X160479374Y-61546229D01*
X132460326Y-62174800D02*
X132793660Y-61698610D01*
X133031755Y-62174800D02*
X133031755Y-61174800D01*
X132650802Y-61174800D01*
X132555564Y-61222420D01*
X132507945Y-61270039D01*
X132460326Y-61365277D01*
X132460326Y-61508134D01*
X132507945Y-61603372D01*
X132555564Y-61650991D01*
X132650802Y-61698610D01*
X133031755Y-61698610D01*
X131555564Y-61174800D02*
X132031755Y-61174800D01*
X132079374Y-61650991D01*
X132031755Y-61603372D01*
X131936517Y-61555753D01*
X131698421Y-61555753D01*
X131603183Y-61603372D01*
X131555564Y-61650991D01*
X131507945Y-61746229D01*
X131507945Y-61984324D01*
X131555564Y-62079562D01*
X131603183Y-62127181D01*
X131698421Y-62174800D01*
X131936517Y-62174800D01*
X132031755Y-62127181D01*
X132079374Y-62079562D01*
X143793506Y-89092060D02*
X144126840Y-88615870D01*
X144364935Y-89092060D02*
X144364935Y-88092060D01*
X143983982Y-88092060D01*
X143888744Y-88139680D01*
X143841125Y-88187299D01*
X143793506Y-88282537D01*
X143793506Y-88425394D01*
X143841125Y-88520632D01*
X143888744Y-88568251D01*
X143983982Y-88615870D01*
X144364935Y-88615870D01*
X143412554Y-88187299D02*
X143364935Y-88139680D01*
X143269697Y-88092060D01*
X143031601Y-88092060D01*
X142936363Y-88139680D01*
X142888744Y-88187299D01*
X142841125Y-88282537D01*
X142841125Y-88377775D01*
X142888744Y-88520632D01*
X143460173Y-89092060D01*
X142841125Y-89092060D01*
X141751346Y-93756740D02*
X142084680Y-93280550D01*
X142322775Y-93756740D02*
X142322775Y-92756740D01*
X141941822Y-92756740D01*
X141846584Y-92804360D01*
X141798965Y-92851979D01*
X141751346Y-92947217D01*
X141751346Y-93090074D01*
X141798965Y-93185312D01*
X141846584Y-93232931D01*
X141941822Y-93280550D01*
X142322775Y-93280550D01*
X140798965Y-93756740D02*
X141370394Y-93756740D01*
X141084680Y-93756740D02*
X141084680Y-92756740D01*
X141179918Y-92899598D01*
X141275156Y-92994836D01*
X141370394Y-93042455D01*
X145260326Y-62079562D02*
X145307945Y-62127181D01*
X145450802Y-62174800D01*
X145546040Y-62174800D01*
X145688898Y-62127181D01*
X145784136Y-62031943D01*
X145831755Y-61936705D01*
X145879374Y-61746229D01*
X145879374Y-61603372D01*
X145831755Y-61412896D01*
X145784136Y-61317658D01*
X145688898Y-61222420D01*
X145546040Y-61174800D01*
X145450802Y-61174800D01*
X145307945Y-61222420D01*
X145260326Y-61270039D01*
X144355564Y-61174800D02*
X144831755Y-61174800D01*
X144879374Y-61650991D01*
X144831755Y-61603372D01*
X144736517Y-61555753D01*
X144498421Y-61555753D01*
X144403183Y-61603372D01*
X144355564Y-61650991D01*
X144307945Y-61746229D01*
X144307945Y-61984324D01*
X144355564Y-62079562D01*
X144403183Y-62127181D01*
X144498421Y-62174800D01*
X144736517Y-62174800D01*
X144831755Y-62127181D01*
X144879374Y-62079562D01*
X151860326Y-56454562D02*
X151907945Y-56502181D01*
X152050802Y-56549800D01*
X152146040Y-56549800D01*
X152288898Y-56502181D01*
X152384136Y-56406943D01*
X152431755Y-56311705D01*
X152479374Y-56121229D01*
X152479374Y-55978372D01*
X152431755Y-55787896D01*
X152384136Y-55692658D01*
X152288898Y-55597420D01*
X152146040Y-55549800D01*
X152050802Y-55549800D01*
X151907945Y-55597420D01*
X151860326Y-55645039D01*
X151003183Y-55883134D02*
X151003183Y-56549800D01*
X151241279Y-55502181D02*
X151479374Y-56216467D01*
X150860326Y-56216467D01*
M02*
